G04 #@! TF.GenerationSoftware,KiCad,Pcbnew,(5.0.0)*
G04 #@! TF.CreationDate,2018-11-27T16:52:05-08:00*
G04 #@! TF.ProjectId,ContraBottomPlate,436F6E747261426F74746F6D506C6174,rev?*
G04 #@! TF.SameCoordinates,Original*
G04 #@! TF.FileFunction,Legend,Top*
G04 #@! TF.FilePolarity,Positive*
%FSLAX46Y46*%
G04 Gerber Fmt 4.6, Leading zero omitted, Abs format (unit mm)*
G04 Created by KiCad (PCBNEW (5.0.0)) date 11/27/18 16:52:05*
%MOMM*%
%LPD*%
G01*
G04 APERTURE LIST*
%ADD10C,0.300000*%
%ADD11C,0.010000*%
%ADD12C,4.400000*%
G04 APERTURE END LIST*
%LPC*%
D10*
X52051785Y-117216964D02*
X51980357Y-117288392D01*
X51766071Y-117359821D01*
X51623214Y-117359821D01*
X51408928Y-117288392D01*
X51266071Y-117145535D01*
X51194642Y-117002678D01*
X51123214Y-116716964D01*
X51123214Y-116502678D01*
X51194642Y-116216964D01*
X51266071Y-116074107D01*
X51408928Y-115931250D01*
X51623214Y-115859821D01*
X51766071Y-115859821D01*
X51980357Y-115931250D01*
X52051785Y-116002678D01*
X52908928Y-117359821D02*
X52766071Y-117288392D01*
X52694642Y-117216964D01*
X52623214Y-117074107D01*
X52623214Y-116645535D01*
X52694642Y-116502678D01*
X52766071Y-116431250D01*
X52908928Y-116359821D01*
X53123214Y-116359821D01*
X53266071Y-116431250D01*
X53337500Y-116502678D01*
X53408928Y-116645535D01*
X53408928Y-117074107D01*
X53337500Y-117216964D01*
X53266071Y-117288392D01*
X53123214Y-117359821D01*
X52908928Y-117359821D01*
X54051785Y-116359821D02*
X54051785Y-117359821D01*
X54051785Y-116502678D02*
X54123214Y-116431250D01*
X54266071Y-116359821D01*
X54480357Y-116359821D01*
X54623214Y-116431250D01*
X54694642Y-116574107D01*
X54694642Y-117359821D01*
X55194642Y-116359821D02*
X55766071Y-116359821D01*
X55408928Y-115859821D02*
X55408928Y-117145535D01*
X55480357Y-117288392D01*
X55623214Y-117359821D01*
X55766071Y-117359821D01*
X56266071Y-117359821D02*
X56266071Y-116359821D01*
X56266071Y-116645535D02*
X56337500Y-116502678D01*
X56408928Y-116431250D01*
X56551785Y-116359821D01*
X56694642Y-116359821D01*
X57837500Y-117359821D02*
X57837500Y-116574107D01*
X57766071Y-116431250D01*
X57623214Y-116359821D01*
X57337500Y-116359821D01*
X57194642Y-116431250D01*
X57837500Y-117288392D02*
X57694642Y-117359821D01*
X57337500Y-117359821D01*
X57194642Y-117288392D01*
X57123214Y-117145535D01*
X57123214Y-117002678D01*
X57194642Y-116859821D01*
X57337500Y-116788392D01*
X57694642Y-116788392D01*
X57837500Y-116716964D01*
X59694642Y-117359821D02*
X59694642Y-115859821D01*
X60551785Y-117359821D02*
X59908928Y-116502678D01*
X60551785Y-115859821D02*
X59694642Y-116716964D01*
X61766071Y-117288392D02*
X61623214Y-117359821D01*
X61337500Y-117359821D01*
X61194642Y-117288392D01*
X61123214Y-117145535D01*
X61123214Y-116574107D01*
X61194642Y-116431250D01*
X61337500Y-116359821D01*
X61623214Y-116359821D01*
X61766071Y-116431250D01*
X61837500Y-116574107D01*
X61837500Y-116716964D01*
X61123214Y-116859821D01*
X62337500Y-116359821D02*
X62694642Y-117359821D01*
X63051785Y-116359821D02*
X62694642Y-117359821D01*
X62551785Y-117716964D01*
X62480357Y-117788392D01*
X62337500Y-117859821D01*
X63623214Y-117359821D02*
X63623214Y-115859821D01*
X63623214Y-116431250D02*
X63766071Y-116359821D01*
X64051785Y-116359821D01*
X64194642Y-116431250D01*
X64266071Y-116502678D01*
X64337500Y-116645535D01*
X64337500Y-117074107D01*
X64266071Y-117216964D01*
X64194642Y-117288392D01*
X64051785Y-117359821D01*
X63766071Y-117359821D01*
X63623214Y-117288392D01*
X65194642Y-117359821D02*
X65051785Y-117288392D01*
X64980357Y-117216964D01*
X64908928Y-117074107D01*
X64908928Y-116645535D01*
X64980357Y-116502678D01*
X65051785Y-116431250D01*
X65194642Y-116359821D01*
X65408928Y-116359821D01*
X65551785Y-116431250D01*
X65623214Y-116502678D01*
X65694642Y-116645535D01*
X65694642Y-117074107D01*
X65623214Y-117216964D01*
X65551785Y-117288392D01*
X65408928Y-117359821D01*
X65194642Y-117359821D01*
X66980357Y-117359821D02*
X66980357Y-116574107D01*
X66908928Y-116431250D01*
X66766071Y-116359821D01*
X66480357Y-116359821D01*
X66337500Y-116431250D01*
X66980357Y-117288392D02*
X66837500Y-117359821D01*
X66480357Y-117359821D01*
X66337500Y-117288392D01*
X66266071Y-117145535D01*
X66266071Y-117002678D01*
X66337500Y-116859821D01*
X66480357Y-116788392D01*
X66837500Y-116788392D01*
X66980357Y-116716964D01*
X67694642Y-117359821D02*
X67694642Y-116359821D01*
X67694642Y-116645535D02*
X67766071Y-116502678D01*
X67837500Y-116431250D01*
X67980357Y-116359821D01*
X68123214Y-116359821D01*
X69266071Y-117359821D02*
X69266071Y-115859821D01*
X69266071Y-117288392D02*
X69123214Y-117359821D01*
X68837500Y-117359821D01*
X68694642Y-117288392D01*
X68623214Y-117216964D01*
X68551785Y-117074107D01*
X68551785Y-116645535D01*
X68623214Y-116502678D01*
X68694642Y-116431250D01*
X68837500Y-116359821D01*
X69123214Y-116359821D01*
X69266071Y-116431250D01*
X71123214Y-117359821D02*
X71123214Y-115859821D01*
X71123214Y-116431250D02*
X71266071Y-116359821D01*
X71551785Y-116359821D01*
X71694642Y-116431250D01*
X71766071Y-116502678D01*
X71837500Y-116645535D01*
X71837500Y-117074107D01*
X71766071Y-117216964D01*
X71694642Y-117288392D01*
X71551785Y-117359821D01*
X71266071Y-117359821D01*
X71123214Y-117288392D01*
X72337500Y-116359821D02*
X72694642Y-117359821D01*
X73051785Y-116359821D02*
X72694642Y-117359821D01*
X72551785Y-117716964D01*
X72480357Y-117788392D01*
X72337500Y-117859821D01*
X75408928Y-117359821D02*
X75408928Y-116574107D01*
X75337500Y-116431250D01*
X75194642Y-116359821D01*
X74908928Y-116359821D01*
X74766071Y-116431250D01*
X75408928Y-117288392D02*
X75266071Y-117359821D01*
X74908928Y-117359821D01*
X74766071Y-117288392D01*
X74694642Y-117145535D01*
X74694642Y-117002678D01*
X74766071Y-116859821D01*
X74908928Y-116788392D01*
X75266071Y-116788392D01*
X75408928Y-116716964D01*
X76123214Y-117359821D02*
X76123214Y-116359821D01*
X76123214Y-115859821D02*
X76051785Y-115931250D01*
X76123214Y-116002678D01*
X76194642Y-115931250D01*
X76123214Y-115859821D01*
X76123214Y-116002678D01*
X77123214Y-115859821D02*
X77266071Y-115859821D01*
X77408928Y-115931250D01*
X77480357Y-116002678D01*
X77551785Y-116145535D01*
X77623214Y-116431250D01*
X77623214Y-116788392D01*
X77551785Y-117074107D01*
X77480357Y-117216964D01*
X77408928Y-117288392D01*
X77266071Y-117359821D01*
X77123214Y-117359821D01*
X76980357Y-117288392D01*
X76908928Y-117216964D01*
X76837500Y-117074107D01*
X76766071Y-116788392D01*
X76766071Y-116431250D01*
X76837500Y-116145535D01*
X76908928Y-116002678D01*
X76980357Y-115931250D01*
X77123214Y-115859821D01*
X78123214Y-115859821D02*
X79051785Y-115859821D01*
X78551785Y-116431250D01*
X78766071Y-116431250D01*
X78908928Y-116502678D01*
X78980357Y-116574107D01*
X79051785Y-116716964D01*
X79051785Y-117074107D01*
X78980357Y-117216964D01*
X78908928Y-117288392D01*
X78766071Y-117359821D01*
X78337500Y-117359821D01*
X78194642Y-117288392D01*
X78123214Y-117216964D01*
X238426934Y-86629761D02*
X237760267Y-85677380D01*
X237284077Y-86629761D02*
X237284077Y-84629761D01*
X238045982Y-84629761D01*
X238236458Y-84725000D01*
X238331696Y-84820238D01*
X238426934Y-85010714D01*
X238426934Y-85296428D01*
X238331696Y-85486904D01*
X238236458Y-85582142D01*
X238045982Y-85677380D01*
X237284077Y-85677380D01*
X240045982Y-86534523D02*
X239855505Y-86629761D01*
X239474553Y-86629761D01*
X239284077Y-86534523D01*
X239188839Y-86344047D01*
X239188839Y-85582142D01*
X239284077Y-85391666D01*
X239474553Y-85296428D01*
X239855505Y-85296428D01*
X240045982Y-85391666D01*
X240141220Y-85582142D01*
X240141220Y-85772619D01*
X239188839Y-85963095D01*
X240903125Y-86534523D02*
X241093601Y-86629761D01*
X241474553Y-86629761D01*
X241665029Y-86534523D01*
X241760267Y-86344047D01*
X241760267Y-86248809D01*
X241665029Y-86058333D01*
X241474553Y-85963095D01*
X241188839Y-85963095D01*
X240998363Y-85867857D01*
X240903125Y-85677380D01*
X240903125Y-85582142D01*
X240998363Y-85391666D01*
X241188839Y-85296428D01*
X241474553Y-85296428D01*
X241665029Y-85391666D01*
X243379315Y-86534523D02*
X243188839Y-86629761D01*
X242807886Y-86629761D01*
X242617410Y-86534523D01*
X242522172Y-86344047D01*
X242522172Y-85582142D01*
X242617410Y-85391666D01*
X242807886Y-85296428D01*
X243188839Y-85296428D01*
X243379315Y-85391666D01*
X243474553Y-85582142D01*
X243474553Y-85772619D01*
X242522172Y-85963095D01*
X244045982Y-85296428D02*
X244807886Y-85296428D01*
X244331696Y-84629761D02*
X244331696Y-86344047D01*
X244426934Y-86534523D01*
X244617410Y-86629761D01*
X244807886Y-86629761D01*
D11*
G04 #@! TO.C,G\002A\002A\002A*
G36*
X46228000Y-115601750D02*
X45823188Y-115601750D01*
X45823188Y-115196938D01*
X46228000Y-115196938D01*
X46228000Y-115601750D01*
X46228000Y-115601750D01*
G37*
X46228000Y-115601750D02*
X45823188Y-115601750D01*
X45823188Y-115196938D01*
X46228000Y-115196938D01*
X46228000Y-115601750D01*
G36*
X46632813Y-116387563D02*
X46228000Y-116387563D01*
X46228000Y-116006563D01*
X46632813Y-116006563D01*
X46632813Y-116387563D01*
X46632813Y-116387563D01*
G37*
X46632813Y-116387563D02*
X46228000Y-116387563D01*
X46228000Y-116006563D01*
X46632813Y-116006563D01*
X46632813Y-116387563D01*
G36*
X45823188Y-116387563D02*
X45442188Y-116387563D01*
X45442188Y-116006563D01*
X45823188Y-116006563D01*
X45823188Y-116387563D01*
X45823188Y-116387563D01*
G37*
X45823188Y-116387563D02*
X45442188Y-116387563D01*
X45442188Y-116006563D01*
X45823188Y-116006563D01*
X45823188Y-116387563D01*
G36*
X47013813Y-117197188D02*
X46632813Y-117197188D01*
X46632813Y-116792375D01*
X47013813Y-116792375D01*
X47013813Y-117197188D01*
X47013813Y-117197188D01*
G37*
X47013813Y-117197188D02*
X46632813Y-117197188D01*
X46632813Y-116792375D01*
X47013813Y-116792375D01*
X47013813Y-117197188D01*
G36*
X46228000Y-117197188D02*
X45823188Y-117197188D01*
X45823188Y-116792375D01*
X46228000Y-116792375D01*
X46228000Y-117197188D01*
X46228000Y-117197188D01*
G37*
X46228000Y-117197188D02*
X45823188Y-117197188D01*
X45823188Y-116792375D01*
X46228000Y-116792375D01*
X46228000Y-117197188D01*
G36*
X45442188Y-117197188D02*
X45037375Y-117197188D01*
X45037375Y-116792375D01*
X45442188Y-116792375D01*
X45442188Y-117197188D01*
X45442188Y-117197188D01*
G37*
X45442188Y-117197188D02*
X45037375Y-117197188D01*
X45037375Y-116792375D01*
X45442188Y-116792375D01*
X45442188Y-117197188D01*
G36*
X47418625Y-117983000D02*
X47013813Y-117983000D01*
X47013813Y-117578188D01*
X47418625Y-117578188D01*
X47418625Y-117983000D01*
X47418625Y-117983000D01*
G37*
X47418625Y-117983000D02*
X47013813Y-117983000D01*
X47013813Y-117578188D01*
X47418625Y-117578188D01*
X47418625Y-117983000D01*
G36*
X45037375Y-117983000D02*
X44632563Y-117983000D01*
X44632563Y-117578188D01*
X45037375Y-117578188D01*
X45037375Y-117983000D01*
X45037375Y-117983000D01*
G37*
X45037375Y-117983000D02*
X44632563Y-117983000D01*
X44632563Y-117578188D01*
X45037375Y-117578188D01*
X45037375Y-117983000D01*
G36*
X46041469Y-113709295D02*
X46165587Y-113710665D01*
X46277299Y-113714822D01*
X46379892Y-113722169D01*
X46476656Y-113733110D01*
X46570878Y-113748048D01*
X46665847Y-113767387D01*
X46764851Y-113791531D01*
X46810130Y-113803668D01*
X47018677Y-113868906D01*
X47220765Y-113948242D01*
X47415628Y-114041278D01*
X47602499Y-114147618D01*
X47780614Y-114266866D01*
X47932760Y-114384867D01*
X48090428Y-114525592D01*
X48237765Y-114677037D01*
X48374086Y-114838135D01*
X48498708Y-115007817D01*
X48610947Y-115185016D01*
X48710120Y-115368666D01*
X48795542Y-115557697D01*
X48866530Y-115751043D01*
X48915284Y-115919053D01*
X48948355Y-116059039D01*
X48973715Y-116190975D01*
X48992107Y-116320247D01*
X49004275Y-116452243D01*
X49010961Y-116592350D01*
X49011614Y-116617750D01*
X49008895Y-116836047D01*
X48990700Y-117050830D01*
X48957035Y-117262071D01*
X48907906Y-117469739D01*
X48843319Y-117673805D01*
X48779122Y-117837737D01*
X48751039Y-117903002D01*
X48726977Y-117957160D01*
X48705108Y-118003863D01*
X48683607Y-118046763D01*
X48660646Y-118089513D01*
X48634400Y-118135765D01*
X48605275Y-118185406D01*
X48486056Y-118371677D01*
X48355952Y-118546403D01*
X48214829Y-118709715D01*
X48062555Y-118861746D01*
X47898997Y-119002630D01*
X47724024Y-119132498D01*
X47541656Y-119249025D01*
X47488827Y-119279994D01*
X47442914Y-119305971D01*
X47400265Y-119328781D01*
X47357228Y-119350251D01*
X47310151Y-119372207D01*
X47255381Y-119396475D01*
X47193987Y-119422872D01*
X47097754Y-119462419D01*
X47009036Y-119495458D01*
X46921922Y-119523945D01*
X46830498Y-119549839D01*
X46747906Y-119570572D01*
X46583390Y-119606126D01*
X46426295Y-119631803D01*
X46272067Y-119648143D01*
X46116149Y-119655686D01*
X46025594Y-119656263D01*
X45974375Y-119655748D01*
X45926254Y-119655043D01*
X45884374Y-119654210D01*
X45851878Y-119653313D01*
X45831910Y-119652415D01*
X45831125Y-119652359D01*
X45614951Y-119628407D01*
X45402194Y-119589420D01*
X45193713Y-119535717D01*
X44990368Y-119467613D01*
X44793016Y-119385426D01*
X44602518Y-119289475D01*
X44419732Y-119180076D01*
X44268776Y-119075046D01*
X44095849Y-118936699D01*
X43935165Y-118788338D01*
X43786951Y-118630289D01*
X43651429Y-118462882D01*
X43528824Y-118286444D01*
X43419361Y-118101302D01*
X43323263Y-117907785D01*
X43240756Y-117706221D01*
X43172063Y-117496938D01*
X43159918Y-117453880D01*
X43133552Y-117352085D01*
X43112167Y-117255761D01*
X43095359Y-117161617D01*
X43082725Y-117066367D01*
X43073860Y-116966720D01*
X43068362Y-116859390D01*
X43065826Y-116741086D01*
X43065545Y-116685219D01*
X43066220Y-116629858D01*
X43598294Y-116629858D01*
X43598397Y-116709996D01*
X43600063Y-116789660D01*
X43603259Y-116864787D01*
X43607956Y-116931310D01*
X43611676Y-116967000D01*
X43643550Y-117164298D01*
X43690201Y-117355913D01*
X43751451Y-117541472D01*
X43827119Y-117720599D01*
X43917027Y-117892919D01*
X44020994Y-118058059D01*
X44138841Y-118215643D01*
X44270388Y-118365297D01*
X44292724Y-118388510D01*
X44426958Y-118515584D01*
X44572660Y-118633520D01*
X44727131Y-118740340D01*
X44887669Y-118834066D01*
X44933458Y-118857754D01*
X45007866Y-118894403D01*
X45073107Y-118924622D01*
X45133604Y-118950190D01*
X45193778Y-118972884D01*
X45258051Y-118994483D01*
X45323125Y-119014477D01*
X45512338Y-119063890D01*
X45698089Y-119098341D01*
X45881827Y-119117964D01*
X46065003Y-119122892D01*
X46249064Y-119113261D01*
X46315606Y-119106281D01*
X46502938Y-119077337D01*
X46682519Y-119035528D01*
X46856857Y-118980104D01*
X47028459Y-118910314D01*
X47125416Y-118864116D01*
X47296048Y-118770697D01*
X47455464Y-118666962D01*
X47604422Y-118552224D01*
X47743679Y-118425800D01*
X47873994Y-118287004D01*
X47996124Y-118135153D01*
X48104392Y-117979509D01*
X48129518Y-117938318D01*
X48158841Y-117886190D01*
X48190541Y-117826746D01*
X48222799Y-117763606D01*
X48253793Y-117700390D01*
X48281706Y-117640717D01*
X48304715Y-117588207D01*
X48318153Y-117554375D01*
X48381020Y-117362834D01*
X48428416Y-117170095D01*
X48460300Y-116976700D01*
X48476630Y-116783190D01*
X48477368Y-116590107D01*
X48462472Y-116397992D01*
X48431902Y-116207386D01*
X48422099Y-116161344D01*
X48388450Y-116025051D01*
X48350142Y-115898868D01*
X48305204Y-115777257D01*
X48251663Y-115654682D01*
X48214004Y-115577208D01*
X48120299Y-115408360D01*
X48013474Y-115247923D01*
X47894298Y-115096618D01*
X47763537Y-114955164D01*
X47621960Y-114824281D01*
X47470334Y-114704690D01*
X47309427Y-114597110D01*
X47140007Y-114502261D01*
X46995825Y-114434730D01*
X46824197Y-114368335D01*
X46651643Y-114316337D01*
X46476156Y-114278328D01*
X46295726Y-114253901D01*
X46108345Y-114242647D01*
X46045438Y-114241757D01*
X45847343Y-114248127D01*
X45655715Y-114268772D01*
X45469781Y-114303923D01*
X45288765Y-114353817D01*
X45111894Y-114418685D01*
X44938394Y-114498763D01*
X44767491Y-114594285D01*
X44666794Y-114658494D01*
X44527361Y-114760022D01*
X44393163Y-114874528D01*
X44265841Y-115000089D01*
X44147035Y-115134781D01*
X44038386Y-115276681D01*
X43941535Y-115423865D01*
X43858122Y-115574411D01*
X43823326Y-115647330D01*
X43761923Y-115792189D01*
X43711692Y-115931428D01*
X43671435Y-116069376D01*
X43639956Y-116210364D01*
X43616056Y-116358721D01*
X43607655Y-116427250D01*
X43602892Y-116484420D01*
X43599782Y-116553311D01*
X43598294Y-116629858D01*
X43066220Y-116629858D01*
X43067290Y-116542223D01*
X43073164Y-116411356D01*
X43083738Y-116289275D01*
X43099585Y-116172635D01*
X43121277Y-116058094D01*
X43149387Y-115942309D01*
X43184486Y-115821937D01*
X43227147Y-115693634D01*
X43242841Y-115649375D01*
X43321226Y-115454656D01*
X43414066Y-115266322D01*
X43521172Y-115084635D01*
X43642352Y-114909858D01*
X43777417Y-114742253D01*
X43926174Y-114582083D01*
X44088433Y-114429610D01*
X44195271Y-114339429D01*
X44281100Y-114273936D01*
X44378639Y-114206610D01*
X44484248Y-114139662D01*
X44594286Y-114075305D01*
X44705113Y-114015750D01*
X44813089Y-113963208D01*
X44819094Y-113960465D01*
X44889054Y-113930592D01*
X44970235Y-113899206D01*
X45058267Y-113867786D01*
X45148779Y-113837812D01*
X45237401Y-113810761D01*
X45319764Y-113788114D01*
X45351650Y-113780221D01*
X45444875Y-113759453D01*
X45533849Y-113742793D01*
X45621853Y-113729902D01*
X45712169Y-113720445D01*
X45808078Y-113714082D01*
X45912860Y-113710478D01*
X46029795Y-113709294D01*
X46041469Y-113709295D01*
X46041469Y-113709295D01*
G37*
X46041469Y-113709295D02*
X46165587Y-113710665D01*
X46277299Y-113714822D01*
X46379892Y-113722169D01*
X46476656Y-113733110D01*
X46570878Y-113748048D01*
X46665847Y-113767387D01*
X46764851Y-113791531D01*
X46810130Y-113803668D01*
X47018677Y-113868906D01*
X47220765Y-113948242D01*
X47415628Y-114041278D01*
X47602499Y-114147618D01*
X47780614Y-114266866D01*
X47932760Y-114384867D01*
X48090428Y-114525592D01*
X48237765Y-114677037D01*
X48374086Y-114838135D01*
X48498708Y-115007817D01*
X48610947Y-115185016D01*
X48710120Y-115368666D01*
X48795542Y-115557697D01*
X48866530Y-115751043D01*
X48915284Y-115919053D01*
X48948355Y-116059039D01*
X48973715Y-116190975D01*
X48992107Y-116320247D01*
X49004275Y-116452243D01*
X49010961Y-116592350D01*
X49011614Y-116617750D01*
X49008895Y-116836047D01*
X48990700Y-117050830D01*
X48957035Y-117262071D01*
X48907906Y-117469739D01*
X48843319Y-117673805D01*
X48779122Y-117837737D01*
X48751039Y-117903002D01*
X48726977Y-117957160D01*
X48705108Y-118003863D01*
X48683607Y-118046763D01*
X48660646Y-118089513D01*
X48634400Y-118135765D01*
X48605275Y-118185406D01*
X48486056Y-118371677D01*
X48355952Y-118546403D01*
X48214829Y-118709715D01*
X48062555Y-118861746D01*
X47898997Y-119002630D01*
X47724024Y-119132498D01*
X47541656Y-119249025D01*
X47488827Y-119279994D01*
X47442914Y-119305971D01*
X47400265Y-119328781D01*
X47357228Y-119350251D01*
X47310151Y-119372207D01*
X47255381Y-119396475D01*
X47193987Y-119422872D01*
X47097754Y-119462419D01*
X47009036Y-119495458D01*
X46921922Y-119523945D01*
X46830498Y-119549839D01*
X46747906Y-119570572D01*
X46583390Y-119606126D01*
X46426295Y-119631803D01*
X46272067Y-119648143D01*
X46116149Y-119655686D01*
X46025594Y-119656263D01*
X45974375Y-119655748D01*
X45926254Y-119655043D01*
X45884374Y-119654210D01*
X45851878Y-119653313D01*
X45831910Y-119652415D01*
X45831125Y-119652359D01*
X45614951Y-119628407D01*
X45402194Y-119589420D01*
X45193713Y-119535717D01*
X44990368Y-119467613D01*
X44793016Y-119385426D01*
X44602518Y-119289475D01*
X44419732Y-119180076D01*
X44268776Y-119075046D01*
X44095849Y-118936699D01*
X43935165Y-118788338D01*
X43786951Y-118630289D01*
X43651429Y-118462882D01*
X43528824Y-118286444D01*
X43419361Y-118101302D01*
X43323263Y-117907785D01*
X43240756Y-117706221D01*
X43172063Y-117496938D01*
X43159918Y-117453880D01*
X43133552Y-117352085D01*
X43112167Y-117255761D01*
X43095359Y-117161617D01*
X43082725Y-117066367D01*
X43073860Y-116966720D01*
X43068362Y-116859390D01*
X43065826Y-116741086D01*
X43065545Y-116685219D01*
X43066220Y-116629858D01*
X43598294Y-116629858D01*
X43598397Y-116709996D01*
X43600063Y-116789660D01*
X43603259Y-116864787D01*
X43607956Y-116931310D01*
X43611676Y-116967000D01*
X43643550Y-117164298D01*
X43690201Y-117355913D01*
X43751451Y-117541472D01*
X43827119Y-117720599D01*
X43917027Y-117892919D01*
X44020994Y-118058059D01*
X44138841Y-118215643D01*
X44270388Y-118365297D01*
X44292724Y-118388510D01*
X44426958Y-118515584D01*
X44572660Y-118633520D01*
X44727131Y-118740340D01*
X44887669Y-118834066D01*
X44933458Y-118857754D01*
X45007866Y-118894403D01*
X45073107Y-118924622D01*
X45133604Y-118950190D01*
X45193778Y-118972884D01*
X45258051Y-118994483D01*
X45323125Y-119014477D01*
X45512338Y-119063890D01*
X45698089Y-119098341D01*
X45881827Y-119117964D01*
X46065003Y-119122892D01*
X46249064Y-119113261D01*
X46315606Y-119106281D01*
X46502938Y-119077337D01*
X46682519Y-119035528D01*
X46856857Y-118980104D01*
X47028459Y-118910314D01*
X47125416Y-118864116D01*
X47296048Y-118770697D01*
X47455464Y-118666962D01*
X47604422Y-118552224D01*
X47743679Y-118425800D01*
X47873994Y-118287004D01*
X47996124Y-118135153D01*
X48104392Y-117979509D01*
X48129518Y-117938318D01*
X48158841Y-117886190D01*
X48190541Y-117826746D01*
X48222799Y-117763606D01*
X48253793Y-117700390D01*
X48281706Y-117640717D01*
X48304715Y-117588207D01*
X48318153Y-117554375D01*
X48381020Y-117362834D01*
X48428416Y-117170095D01*
X48460300Y-116976700D01*
X48476630Y-116783190D01*
X48477368Y-116590107D01*
X48462472Y-116397992D01*
X48431902Y-116207386D01*
X48422099Y-116161344D01*
X48388450Y-116025051D01*
X48350142Y-115898868D01*
X48305204Y-115777257D01*
X48251663Y-115654682D01*
X48214004Y-115577208D01*
X48120299Y-115408360D01*
X48013474Y-115247923D01*
X47894298Y-115096618D01*
X47763537Y-114955164D01*
X47621960Y-114824281D01*
X47470334Y-114704690D01*
X47309427Y-114597110D01*
X47140007Y-114502261D01*
X46995825Y-114434730D01*
X46824197Y-114368335D01*
X46651643Y-114316337D01*
X46476156Y-114278328D01*
X46295726Y-114253901D01*
X46108345Y-114242647D01*
X46045438Y-114241757D01*
X45847343Y-114248127D01*
X45655715Y-114268772D01*
X45469781Y-114303923D01*
X45288765Y-114353817D01*
X45111894Y-114418685D01*
X44938394Y-114498763D01*
X44767491Y-114594285D01*
X44666794Y-114658494D01*
X44527361Y-114760022D01*
X44393163Y-114874528D01*
X44265841Y-115000089D01*
X44147035Y-115134781D01*
X44038386Y-115276681D01*
X43941535Y-115423865D01*
X43858122Y-115574411D01*
X43823326Y-115647330D01*
X43761923Y-115792189D01*
X43711692Y-115931428D01*
X43671435Y-116069376D01*
X43639956Y-116210364D01*
X43616056Y-116358721D01*
X43607655Y-116427250D01*
X43602892Y-116484420D01*
X43599782Y-116553311D01*
X43598294Y-116629858D01*
X43066220Y-116629858D01*
X43067290Y-116542223D01*
X43073164Y-116411356D01*
X43083738Y-116289275D01*
X43099585Y-116172635D01*
X43121277Y-116058094D01*
X43149387Y-115942309D01*
X43184486Y-115821937D01*
X43227147Y-115693634D01*
X43242841Y-115649375D01*
X43321226Y-115454656D01*
X43414066Y-115266322D01*
X43521172Y-115084635D01*
X43642352Y-114909858D01*
X43777417Y-114742253D01*
X43926174Y-114582083D01*
X44088433Y-114429610D01*
X44195271Y-114339429D01*
X44281100Y-114273936D01*
X44378639Y-114206610D01*
X44484248Y-114139662D01*
X44594286Y-114075305D01*
X44705113Y-114015750D01*
X44813089Y-113963208D01*
X44819094Y-113960465D01*
X44889054Y-113930592D01*
X44970235Y-113899206D01*
X45058267Y-113867786D01*
X45148779Y-113837812D01*
X45237401Y-113810761D01*
X45319764Y-113788114D01*
X45351650Y-113780221D01*
X45444875Y-113759453D01*
X45533849Y-113742793D01*
X45621853Y-113729902D01*
X45712169Y-113720445D01*
X45808078Y-113714082D01*
X45912860Y-113710478D01*
X46029795Y-113709294D01*
X46041469Y-113709295D01*
G04 #@! TD*
D12*
G04 #@! TO.C,REF\002A\002A*
X153987500Y-85725000D03*
G04 #@! TD*
G04 #@! TO.C,REF\002A\002A*
X58737500Y-66675000D03*
G04 #@! TD*
G04 #@! TO.C,REF\002A\002A*
X58737500Y-104775000D03*
G04 #@! TD*
G04 #@! TO.C,REF\002A\002A*
X249237500Y-66675000D03*
G04 #@! TD*
G04 #@! TO.C,REF\002A\002A*
X249237500Y-104775000D03*
G04 #@! TD*
G04 #@! TO.C,REF\002A\002A*
X58737500Y-85725000D03*
G04 #@! TD*
G04 #@! TO.C,REF\002A\002A*
X249237500Y-85725000D03*
G04 #@! TD*
M02*
