G04 #@! TF.GenerationSoftware,KiCad,Pcbnew,(5.0.0)*
G04 #@! TF.CreationDate,2018-11-27T16:52:05-08:00*
G04 #@! TF.ProjectId,ContraBottomPlate,436F6E747261426F74746F6D506C6174,rev?*
G04 #@! TF.SameCoordinates,Original*
G04 #@! TF.FileFunction,Copper,L1,Top,Signal*
G04 #@! TF.FilePolarity,Positive*
%FSLAX46Y46*%
G04 Gerber Fmt 4.6, Leading zero omitted, Abs format (unit mm)*
G04 Created by KiCad (PCBNEW (5.0.0)) date 11/27/18 16:52:05*
%MOMM*%
%LPD*%
G01*
G04 APERTURE LIST*
G04 #@! TA.AperFunction,EtchedComponent*
%ADD10C,0.010000*%
G04 #@! TD*
G04 #@! TA.AperFunction,ComponentPad*
%ADD11C,4.000000*%
G04 #@! TD*
G04 #@! TA.AperFunction,Conductor*
%ADD12C,1.000000*%
G04 #@! TD*
G04 #@! TA.AperFunction,Conductor*
%ADD13C,0.254000*%
G04 #@! TD*
G04 APERTURE END LIST*
D10*
G04 #@! TO.C,G\002A\002A\002A*
G36*
X46228000Y-115601750D02*
X45823188Y-115601750D01*
X45823188Y-115196938D01*
X46228000Y-115196938D01*
X46228000Y-115601750D01*
X46228000Y-115601750D01*
G37*
X46228000Y-115601750D02*
X45823188Y-115601750D01*
X45823188Y-115196938D01*
X46228000Y-115196938D01*
X46228000Y-115601750D01*
G36*
X46632813Y-116387563D02*
X46228000Y-116387563D01*
X46228000Y-116006563D01*
X46632813Y-116006563D01*
X46632813Y-116387563D01*
X46632813Y-116387563D01*
G37*
X46632813Y-116387563D02*
X46228000Y-116387563D01*
X46228000Y-116006563D01*
X46632813Y-116006563D01*
X46632813Y-116387563D01*
G36*
X45823188Y-116387563D02*
X45442188Y-116387563D01*
X45442188Y-116006563D01*
X45823188Y-116006563D01*
X45823188Y-116387563D01*
X45823188Y-116387563D01*
G37*
X45823188Y-116387563D02*
X45442188Y-116387563D01*
X45442188Y-116006563D01*
X45823188Y-116006563D01*
X45823188Y-116387563D01*
G36*
X47013813Y-117197188D02*
X46632813Y-117197188D01*
X46632813Y-116792375D01*
X47013813Y-116792375D01*
X47013813Y-117197188D01*
X47013813Y-117197188D01*
G37*
X47013813Y-117197188D02*
X46632813Y-117197188D01*
X46632813Y-116792375D01*
X47013813Y-116792375D01*
X47013813Y-117197188D01*
G36*
X46228000Y-117197188D02*
X45823188Y-117197188D01*
X45823188Y-116792375D01*
X46228000Y-116792375D01*
X46228000Y-117197188D01*
X46228000Y-117197188D01*
G37*
X46228000Y-117197188D02*
X45823188Y-117197188D01*
X45823188Y-116792375D01*
X46228000Y-116792375D01*
X46228000Y-117197188D01*
G36*
X45442188Y-117197188D02*
X45037375Y-117197188D01*
X45037375Y-116792375D01*
X45442188Y-116792375D01*
X45442188Y-117197188D01*
X45442188Y-117197188D01*
G37*
X45442188Y-117197188D02*
X45037375Y-117197188D01*
X45037375Y-116792375D01*
X45442188Y-116792375D01*
X45442188Y-117197188D01*
G36*
X47418625Y-117983000D02*
X47013813Y-117983000D01*
X47013813Y-117578188D01*
X47418625Y-117578188D01*
X47418625Y-117983000D01*
X47418625Y-117983000D01*
G37*
X47418625Y-117983000D02*
X47013813Y-117983000D01*
X47013813Y-117578188D01*
X47418625Y-117578188D01*
X47418625Y-117983000D01*
G36*
X45037375Y-117983000D02*
X44632563Y-117983000D01*
X44632563Y-117578188D01*
X45037375Y-117578188D01*
X45037375Y-117983000D01*
X45037375Y-117983000D01*
G37*
X45037375Y-117983000D02*
X44632563Y-117983000D01*
X44632563Y-117578188D01*
X45037375Y-117578188D01*
X45037375Y-117983000D01*
G36*
X46041469Y-113709295D02*
X46165587Y-113710665D01*
X46277299Y-113714822D01*
X46379892Y-113722169D01*
X46476656Y-113733110D01*
X46570878Y-113748048D01*
X46665847Y-113767387D01*
X46764851Y-113791531D01*
X46810130Y-113803668D01*
X47018677Y-113868906D01*
X47220765Y-113948242D01*
X47415628Y-114041278D01*
X47602499Y-114147618D01*
X47780614Y-114266866D01*
X47932760Y-114384867D01*
X48090428Y-114525592D01*
X48237765Y-114677037D01*
X48374086Y-114838135D01*
X48498708Y-115007817D01*
X48610947Y-115185016D01*
X48710120Y-115368666D01*
X48795542Y-115557697D01*
X48866530Y-115751043D01*
X48915284Y-115919053D01*
X48948355Y-116059039D01*
X48973715Y-116190975D01*
X48992107Y-116320247D01*
X49004275Y-116452243D01*
X49010961Y-116592350D01*
X49011614Y-116617750D01*
X49008895Y-116836047D01*
X48990700Y-117050830D01*
X48957035Y-117262071D01*
X48907906Y-117469739D01*
X48843319Y-117673805D01*
X48779122Y-117837737D01*
X48751039Y-117903002D01*
X48726977Y-117957160D01*
X48705108Y-118003863D01*
X48683607Y-118046763D01*
X48660646Y-118089513D01*
X48634400Y-118135765D01*
X48605275Y-118185406D01*
X48486056Y-118371677D01*
X48355952Y-118546403D01*
X48214829Y-118709715D01*
X48062555Y-118861746D01*
X47898997Y-119002630D01*
X47724024Y-119132498D01*
X47541656Y-119249025D01*
X47488827Y-119279994D01*
X47442914Y-119305971D01*
X47400265Y-119328781D01*
X47357228Y-119350251D01*
X47310151Y-119372207D01*
X47255381Y-119396475D01*
X47193987Y-119422872D01*
X47097754Y-119462419D01*
X47009036Y-119495458D01*
X46921922Y-119523945D01*
X46830498Y-119549839D01*
X46747906Y-119570572D01*
X46583390Y-119606126D01*
X46426295Y-119631803D01*
X46272067Y-119648143D01*
X46116149Y-119655686D01*
X46025594Y-119656263D01*
X45974375Y-119655748D01*
X45926254Y-119655043D01*
X45884374Y-119654210D01*
X45851878Y-119653313D01*
X45831910Y-119652415D01*
X45831125Y-119652359D01*
X45614951Y-119628407D01*
X45402194Y-119589420D01*
X45193713Y-119535717D01*
X44990368Y-119467613D01*
X44793016Y-119385426D01*
X44602518Y-119289475D01*
X44419732Y-119180076D01*
X44268776Y-119075046D01*
X44095849Y-118936699D01*
X43935165Y-118788338D01*
X43786951Y-118630289D01*
X43651429Y-118462882D01*
X43528824Y-118286444D01*
X43419361Y-118101302D01*
X43323263Y-117907785D01*
X43240756Y-117706221D01*
X43172063Y-117496938D01*
X43159918Y-117453880D01*
X43133552Y-117352085D01*
X43112167Y-117255761D01*
X43095359Y-117161617D01*
X43082725Y-117066367D01*
X43073860Y-116966720D01*
X43068362Y-116859390D01*
X43065826Y-116741086D01*
X43065545Y-116685219D01*
X43066220Y-116629858D01*
X43598294Y-116629858D01*
X43598397Y-116709996D01*
X43600063Y-116789660D01*
X43603259Y-116864787D01*
X43607956Y-116931310D01*
X43611676Y-116967000D01*
X43643550Y-117164298D01*
X43690201Y-117355913D01*
X43751451Y-117541472D01*
X43827119Y-117720599D01*
X43917027Y-117892919D01*
X44020994Y-118058059D01*
X44138841Y-118215643D01*
X44270388Y-118365297D01*
X44292724Y-118388510D01*
X44426958Y-118515584D01*
X44572660Y-118633520D01*
X44727131Y-118740340D01*
X44887669Y-118834066D01*
X44933458Y-118857754D01*
X45007866Y-118894403D01*
X45073107Y-118924622D01*
X45133604Y-118950190D01*
X45193778Y-118972884D01*
X45258051Y-118994483D01*
X45323125Y-119014477D01*
X45512338Y-119063890D01*
X45698089Y-119098341D01*
X45881827Y-119117964D01*
X46065003Y-119122892D01*
X46249064Y-119113261D01*
X46315606Y-119106281D01*
X46502938Y-119077337D01*
X46682519Y-119035528D01*
X46856857Y-118980104D01*
X47028459Y-118910314D01*
X47125416Y-118864116D01*
X47296048Y-118770697D01*
X47455464Y-118666962D01*
X47604422Y-118552224D01*
X47743679Y-118425800D01*
X47873994Y-118287004D01*
X47996124Y-118135153D01*
X48104392Y-117979509D01*
X48129518Y-117938318D01*
X48158841Y-117886190D01*
X48190541Y-117826746D01*
X48222799Y-117763606D01*
X48253793Y-117700390D01*
X48281706Y-117640717D01*
X48304715Y-117588207D01*
X48318153Y-117554375D01*
X48381020Y-117362834D01*
X48428416Y-117170095D01*
X48460300Y-116976700D01*
X48476630Y-116783190D01*
X48477368Y-116590107D01*
X48462472Y-116397992D01*
X48431902Y-116207386D01*
X48422099Y-116161344D01*
X48388450Y-116025051D01*
X48350142Y-115898868D01*
X48305204Y-115777257D01*
X48251663Y-115654682D01*
X48214004Y-115577208D01*
X48120299Y-115408360D01*
X48013474Y-115247923D01*
X47894298Y-115096618D01*
X47763537Y-114955164D01*
X47621960Y-114824281D01*
X47470334Y-114704690D01*
X47309427Y-114597110D01*
X47140007Y-114502261D01*
X46995825Y-114434730D01*
X46824197Y-114368335D01*
X46651643Y-114316337D01*
X46476156Y-114278328D01*
X46295726Y-114253901D01*
X46108345Y-114242647D01*
X46045438Y-114241757D01*
X45847343Y-114248127D01*
X45655715Y-114268772D01*
X45469781Y-114303923D01*
X45288765Y-114353817D01*
X45111894Y-114418685D01*
X44938394Y-114498763D01*
X44767491Y-114594285D01*
X44666794Y-114658494D01*
X44527361Y-114760022D01*
X44393163Y-114874528D01*
X44265841Y-115000089D01*
X44147035Y-115134781D01*
X44038386Y-115276681D01*
X43941535Y-115423865D01*
X43858122Y-115574411D01*
X43823326Y-115647330D01*
X43761923Y-115792189D01*
X43711692Y-115931428D01*
X43671435Y-116069376D01*
X43639956Y-116210364D01*
X43616056Y-116358721D01*
X43607655Y-116427250D01*
X43602892Y-116484420D01*
X43599782Y-116553311D01*
X43598294Y-116629858D01*
X43066220Y-116629858D01*
X43067290Y-116542223D01*
X43073164Y-116411356D01*
X43083738Y-116289275D01*
X43099585Y-116172635D01*
X43121277Y-116058094D01*
X43149387Y-115942309D01*
X43184486Y-115821937D01*
X43227147Y-115693634D01*
X43242841Y-115649375D01*
X43321226Y-115454656D01*
X43414066Y-115266322D01*
X43521172Y-115084635D01*
X43642352Y-114909858D01*
X43777417Y-114742253D01*
X43926174Y-114582083D01*
X44088433Y-114429610D01*
X44195271Y-114339429D01*
X44281100Y-114273936D01*
X44378639Y-114206610D01*
X44484248Y-114139662D01*
X44594286Y-114075305D01*
X44705113Y-114015750D01*
X44813089Y-113963208D01*
X44819094Y-113960465D01*
X44889054Y-113930592D01*
X44970235Y-113899206D01*
X45058267Y-113867786D01*
X45148779Y-113837812D01*
X45237401Y-113810761D01*
X45319764Y-113788114D01*
X45351650Y-113780221D01*
X45444875Y-113759453D01*
X45533849Y-113742793D01*
X45621853Y-113729902D01*
X45712169Y-113720445D01*
X45808078Y-113714082D01*
X45912860Y-113710478D01*
X46029795Y-113709294D01*
X46041469Y-113709295D01*
X46041469Y-113709295D01*
G37*
X46041469Y-113709295D02*
X46165587Y-113710665D01*
X46277299Y-113714822D01*
X46379892Y-113722169D01*
X46476656Y-113733110D01*
X46570878Y-113748048D01*
X46665847Y-113767387D01*
X46764851Y-113791531D01*
X46810130Y-113803668D01*
X47018677Y-113868906D01*
X47220765Y-113948242D01*
X47415628Y-114041278D01*
X47602499Y-114147618D01*
X47780614Y-114266866D01*
X47932760Y-114384867D01*
X48090428Y-114525592D01*
X48237765Y-114677037D01*
X48374086Y-114838135D01*
X48498708Y-115007817D01*
X48610947Y-115185016D01*
X48710120Y-115368666D01*
X48795542Y-115557697D01*
X48866530Y-115751043D01*
X48915284Y-115919053D01*
X48948355Y-116059039D01*
X48973715Y-116190975D01*
X48992107Y-116320247D01*
X49004275Y-116452243D01*
X49010961Y-116592350D01*
X49011614Y-116617750D01*
X49008895Y-116836047D01*
X48990700Y-117050830D01*
X48957035Y-117262071D01*
X48907906Y-117469739D01*
X48843319Y-117673805D01*
X48779122Y-117837737D01*
X48751039Y-117903002D01*
X48726977Y-117957160D01*
X48705108Y-118003863D01*
X48683607Y-118046763D01*
X48660646Y-118089513D01*
X48634400Y-118135765D01*
X48605275Y-118185406D01*
X48486056Y-118371677D01*
X48355952Y-118546403D01*
X48214829Y-118709715D01*
X48062555Y-118861746D01*
X47898997Y-119002630D01*
X47724024Y-119132498D01*
X47541656Y-119249025D01*
X47488827Y-119279994D01*
X47442914Y-119305971D01*
X47400265Y-119328781D01*
X47357228Y-119350251D01*
X47310151Y-119372207D01*
X47255381Y-119396475D01*
X47193987Y-119422872D01*
X47097754Y-119462419D01*
X47009036Y-119495458D01*
X46921922Y-119523945D01*
X46830498Y-119549839D01*
X46747906Y-119570572D01*
X46583390Y-119606126D01*
X46426295Y-119631803D01*
X46272067Y-119648143D01*
X46116149Y-119655686D01*
X46025594Y-119656263D01*
X45974375Y-119655748D01*
X45926254Y-119655043D01*
X45884374Y-119654210D01*
X45851878Y-119653313D01*
X45831910Y-119652415D01*
X45831125Y-119652359D01*
X45614951Y-119628407D01*
X45402194Y-119589420D01*
X45193713Y-119535717D01*
X44990368Y-119467613D01*
X44793016Y-119385426D01*
X44602518Y-119289475D01*
X44419732Y-119180076D01*
X44268776Y-119075046D01*
X44095849Y-118936699D01*
X43935165Y-118788338D01*
X43786951Y-118630289D01*
X43651429Y-118462882D01*
X43528824Y-118286444D01*
X43419361Y-118101302D01*
X43323263Y-117907785D01*
X43240756Y-117706221D01*
X43172063Y-117496938D01*
X43159918Y-117453880D01*
X43133552Y-117352085D01*
X43112167Y-117255761D01*
X43095359Y-117161617D01*
X43082725Y-117066367D01*
X43073860Y-116966720D01*
X43068362Y-116859390D01*
X43065826Y-116741086D01*
X43065545Y-116685219D01*
X43066220Y-116629858D01*
X43598294Y-116629858D01*
X43598397Y-116709996D01*
X43600063Y-116789660D01*
X43603259Y-116864787D01*
X43607956Y-116931310D01*
X43611676Y-116967000D01*
X43643550Y-117164298D01*
X43690201Y-117355913D01*
X43751451Y-117541472D01*
X43827119Y-117720599D01*
X43917027Y-117892919D01*
X44020994Y-118058059D01*
X44138841Y-118215643D01*
X44270388Y-118365297D01*
X44292724Y-118388510D01*
X44426958Y-118515584D01*
X44572660Y-118633520D01*
X44727131Y-118740340D01*
X44887669Y-118834066D01*
X44933458Y-118857754D01*
X45007866Y-118894403D01*
X45073107Y-118924622D01*
X45133604Y-118950190D01*
X45193778Y-118972884D01*
X45258051Y-118994483D01*
X45323125Y-119014477D01*
X45512338Y-119063890D01*
X45698089Y-119098341D01*
X45881827Y-119117964D01*
X46065003Y-119122892D01*
X46249064Y-119113261D01*
X46315606Y-119106281D01*
X46502938Y-119077337D01*
X46682519Y-119035528D01*
X46856857Y-118980104D01*
X47028459Y-118910314D01*
X47125416Y-118864116D01*
X47296048Y-118770697D01*
X47455464Y-118666962D01*
X47604422Y-118552224D01*
X47743679Y-118425800D01*
X47873994Y-118287004D01*
X47996124Y-118135153D01*
X48104392Y-117979509D01*
X48129518Y-117938318D01*
X48158841Y-117886190D01*
X48190541Y-117826746D01*
X48222799Y-117763606D01*
X48253793Y-117700390D01*
X48281706Y-117640717D01*
X48304715Y-117588207D01*
X48318153Y-117554375D01*
X48381020Y-117362834D01*
X48428416Y-117170095D01*
X48460300Y-116976700D01*
X48476630Y-116783190D01*
X48477368Y-116590107D01*
X48462472Y-116397992D01*
X48431902Y-116207386D01*
X48422099Y-116161344D01*
X48388450Y-116025051D01*
X48350142Y-115898868D01*
X48305204Y-115777257D01*
X48251663Y-115654682D01*
X48214004Y-115577208D01*
X48120299Y-115408360D01*
X48013474Y-115247923D01*
X47894298Y-115096618D01*
X47763537Y-114955164D01*
X47621960Y-114824281D01*
X47470334Y-114704690D01*
X47309427Y-114597110D01*
X47140007Y-114502261D01*
X46995825Y-114434730D01*
X46824197Y-114368335D01*
X46651643Y-114316337D01*
X46476156Y-114278328D01*
X46295726Y-114253901D01*
X46108345Y-114242647D01*
X46045438Y-114241757D01*
X45847343Y-114248127D01*
X45655715Y-114268772D01*
X45469781Y-114303923D01*
X45288765Y-114353817D01*
X45111894Y-114418685D01*
X44938394Y-114498763D01*
X44767491Y-114594285D01*
X44666794Y-114658494D01*
X44527361Y-114760022D01*
X44393163Y-114874528D01*
X44265841Y-115000089D01*
X44147035Y-115134781D01*
X44038386Y-115276681D01*
X43941535Y-115423865D01*
X43858122Y-115574411D01*
X43823326Y-115647330D01*
X43761923Y-115792189D01*
X43711692Y-115931428D01*
X43671435Y-116069376D01*
X43639956Y-116210364D01*
X43616056Y-116358721D01*
X43607655Y-116427250D01*
X43602892Y-116484420D01*
X43599782Y-116553311D01*
X43598294Y-116629858D01*
X43066220Y-116629858D01*
X43067290Y-116542223D01*
X43073164Y-116411356D01*
X43083738Y-116289275D01*
X43099585Y-116172635D01*
X43121277Y-116058094D01*
X43149387Y-115942309D01*
X43184486Y-115821937D01*
X43227147Y-115693634D01*
X43242841Y-115649375D01*
X43321226Y-115454656D01*
X43414066Y-115266322D01*
X43521172Y-115084635D01*
X43642352Y-114909858D01*
X43777417Y-114742253D01*
X43926174Y-114582083D01*
X44088433Y-114429610D01*
X44195271Y-114339429D01*
X44281100Y-114273936D01*
X44378639Y-114206610D01*
X44484248Y-114139662D01*
X44594286Y-114075305D01*
X44705113Y-114015750D01*
X44813089Y-113963208D01*
X44819094Y-113960465D01*
X44889054Y-113930592D01*
X44970235Y-113899206D01*
X45058267Y-113867786D01*
X45148779Y-113837812D01*
X45237401Y-113810761D01*
X45319764Y-113788114D01*
X45351650Y-113780221D01*
X45444875Y-113759453D01*
X45533849Y-113742793D01*
X45621853Y-113729902D01*
X45712169Y-113720445D01*
X45808078Y-113714082D01*
X45912860Y-113710478D01*
X46029795Y-113709294D01*
X46041469Y-113709295D01*
G04 #@! TD*
D11*
G04 #@! TO.P,REF\002A\002A,1*
G04 #@! TO.N,N/C*
X153987500Y-85725000D03*
G04 #@! TD*
G04 #@! TO.P,REF\002A\002A,1*
G04 #@! TO.N,N/C*
X58737500Y-66675000D03*
G04 #@! TD*
G04 #@! TO.P,REF\002A\002A,1*
G04 #@! TO.N,N/C*
X58737500Y-104775000D03*
G04 #@! TD*
G04 #@! TO.P,REF\002A\002A,1*
G04 #@! TO.N,N/C*
X249237500Y-66675000D03*
G04 #@! TD*
G04 #@! TO.P,REF\002A\002A,1*
G04 #@! TO.N,N/C*
X249237500Y-104775000D03*
G04 #@! TD*
D12*
G04 #@! TO.N,GND*
G04 #@! TO.C,p1*
X42068750Y-50006250D03*
G04 #@! TD*
D13*
G04 #@! TO.N,GND*
G36*
X267527843Y-48397865D02*
X267929434Y-48564209D01*
X268274295Y-48828830D01*
X268538916Y-49173691D01*
X268705261Y-49575283D01*
X268768126Y-50052794D01*
X268768125Y-121397214D01*
X268705261Y-121874717D01*
X268538916Y-122276309D01*
X268274295Y-122621170D01*
X267929434Y-122885791D01*
X267527843Y-123052135D01*
X267050339Y-123115000D01*
X40924661Y-123115000D01*
X40447158Y-123052136D01*
X40045566Y-122885791D01*
X39700705Y-122621170D01*
X39436084Y-122276309D01*
X39269740Y-121874718D01*
X39206875Y-121397214D01*
X39206875Y-116688438D01*
X42425553Y-116688438D01*
X42425834Y-116744305D01*
X42426903Y-116749541D01*
X42425973Y-116754802D01*
X42428509Y-116873106D01*
X42430600Y-116882555D01*
X42429200Y-116892131D01*
X42434698Y-116999461D01*
X42437689Y-117011297D01*
X42436378Y-117023433D01*
X42445243Y-117123080D01*
X42449185Y-117136532D01*
X42448282Y-117150520D01*
X42460916Y-117245770D01*
X42465607Y-117259546D01*
X42465321Y-117274101D01*
X42482129Y-117368245D01*
X42487079Y-117380893D01*
X42487379Y-117394471D01*
X42508764Y-117490795D01*
X42513348Y-117501205D01*
X42513997Y-117512557D01*
X42540363Y-117614351D01*
X42543403Y-117620648D01*
X42543952Y-117627620D01*
X42556097Y-117670678D01*
X42562327Y-117682904D01*
X42563981Y-117696529D01*
X42632674Y-117905812D01*
X42644038Y-117925962D01*
X42648456Y-117948669D01*
X42730963Y-118150234D01*
X42743916Y-118169795D01*
X42750049Y-118192435D01*
X42846147Y-118385952D01*
X42860607Y-118404689D01*
X42868447Y-118427023D01*
X42977911Y-118612165D01*
X42993763Y-118629868D01*
X43003257Y-118651655D01*
X43125862Y-118828093D01*
X43142946Y-118844565D01*
X43153995Y-118865573D01*
X43289517Y-119032979D01*
X43307646Y-119048061D01*
X43320111Y-119068079D01*
X43468324Y-119226128D01*
X43487289Y-119239700D01*
X43501007Y-119258558D01*
X43661690Y-119406918D01*
X43681261Y-119418895D01*
X43696035Y-119436447D01*
X43868962Y-119574794D01*
X43888213Y-119584777D01*
X43903255Y-119600397D01*
X44054210Y-119705427D01*
X44074580Y-119714318D01*
X44091057Y-119729232D01*
X44273843Y-119838631D01*
X44296039Y-119846557D01*
X44314617Y-119861063D01*
X44505115Y-119957014D01*
X44527598Y-119963242D01*
X44546972Y-119976241D01*
X44744323Y-120058428D01*
X44767022Y-120062988D01*
X44787117Y-120074481D01*
X44990462Y-120142585D01*
X45013311Y-120145498D01*
X45034066Y-120155485D01*
X45242547Y-120209188D01*
X45265482Y-120210468D01*
X45286837Y-120218938D01*
X45499594Y-120257925D01*
X45522569Y-120257578D01*
X45544471Y-120264514D01*
X45760645Y-120288466D01*
X45773316Y-120287374D01*
X45785585Y-120290737D01*
X45786370Y-120290793D01*
X45794854Y-120289726D01*
X45803157Y-120291769D01*
X45823125Y-120292667D01*
X45828712Y-120291815D01*
X45834219Y-120293069D01*
X45866714Y-120293966D01*
X45869192Y-120293544D01*
X45871647Y-120294083D01*
X45913527Y-120294916D01*
X45915208Y-120294616D01*
X45916879Y-120294974D01*
X45964999Y-120295679D01*
X45966471Y-120295408D01*
X45967940Y-120295716D01*
X46019160Y-120296231D01*
X46024419Y-120295240D01*
X46029672Y-120296250D01*
X46120227Y-120295673D01*
X46133587Y-120292927D01*
X46147075Y-120294938D01*
X46302992Y-120287395D01*
X46321005Y-120282897D01*
X46339496Y-120284581D01*
X46493724Y-120268241D01*
X46511218Y-120262793D01*
X46529532Y-120263422D01*
X46686628Y-120237745D01*
X46702084Y-120231956D01*
X46718581Y-120231684D01*
X46883097Y-120196130D01*
X46892973Y-120191847D01*
X46903730Y-120191313D01*
X46986322Y-120170579D01*
X46995156Y-120166395D01*
X47004905Y-120165617D01*
X47096328Y-120139723D01*
X47107918Y-120133801D01*
X47120842Y-120132247D01*
X47207955Y-120103760D01*
X47219412Y-120097315D01*
X47232390Y-120095219D01*
X47321108Y-120062180D01*
X47330356Y-120056474D01*
X47341022Y-120054383D01*
X47437255Y-120014836D01*
X47441639Y-120011924D01*
X47446785Y-120010829D01*
X47508179Y-119984432D01*
X47511142Y-119982395D01*
X47514647Y-119981608D01*
X47569418Y-119957340D01*
X47574558Y-119953721D01*
X47580663Y-119952227D01*
X47627740Y-119930271D01*
X47634656Y-119925199D01*
X47642928Y-119922942D01*
X47685965Y-119901472D01*
X47693263Y-119895819D01*
X47702099Y-119893136D01*
X47744749Y-119870325D01*
X47750726Y-119865417D01*
X47758071Y-119862995D01*
X47803984Y-119837018D01*
X47807769Y-119833756D01*
X47812490Y-119832119D01*
X47865319Y-119801150D01*
X47874638Y-119792868D01*
X47886255Y-119788332D01*
X48068623Y-119671805D01*
X48084976Y-119656108D01*
X48105459Y-119646411D01*
X48280433Y-119516543D01*
X48296217Y-119499115D01*
X48316684Y-119487540D01*
X48480242Y-119346656D01*
X48494916Y-119327880D01*
X48514742Y-119314656D01*
X48667016Y-119162625D01*
X48680275Y-119142816D01*
X48699077Y-119128169D01*
X48840200Y-118964857D01*
X48851814Y-118944397D01*
X48869275Y-118928632D01*
X48999379Y-118753907D01*
X49009219Y-118733205D01*
X49025102Y-118716683D01*
X49144321Y-118530412D01*
X49148910Y-118518685D01*
X49157280Y-118509274D01*
X49186405Y-118459633D01*
X49187948Y-118455188D01*
X49191026Y-118451626D01*
X49217272Y-118405374D01*
X49219653Y-118398184D01*
X49224468Y-118392341D01*
X49247429Y-118349591D01*
X49250118Y-118340789D01*
X49255768Y-118333524D01*
X49277269Y-118290624D01*
X49279569Y-118282257D01*
X49284712Y-118275266D01*
X49306581Y-118228563D01*
X49308127Y-118222290D01*
X49311849Y-118217014D01*
X49335911Y-118162856D01*
X49336753Y-118159122D01*
X49338925Y-118155965D01*
X49367008Y-118090699D01*
X49369252Y-118080173D01*
X49375056Y-118071109D01*
X49439253Y-117907177D01*
X49443060Y-117885880D01*
X49453487Y-117866924D01*
X49518074Y-117662858D01*
X49520718Y-117638955D01*
X49530715Y-117617080D01*
X49579844Y-117409412D01*
X49580709Y-117385362D01*
X49589059Y-117362795D01*
X49622724Y-117151554D01*
X49621812Y-117127747D01*
X49628416Y-117104853D01*
X49646611Y-116890070D01*
X49644005Y-116866862D01*
X49648845Y-116844018D01*
X49651564Y-116625721D01*
X49649296Y-116613528D01*
X49651403Y-116601301D01*
X49650750Y-116575902D01*
X49649173Y-116568919D01*
X49650233Y-116561843D01*
X49643548Y-116421736D01*
X49640075Y-116407788D01*
X49641573Y-116393494D01*
X49629405Y-116261498D01*
X49624844Y-116246117D01*
X49625726Y-116230100D01*
X49607334Y-116100828D01*
X49602108Y-116085945D01*
X49602210Y-116070169D01*
X49576850Y-115938233D01*
X49571697Y-115925563D01*
X49571210Y-115911892D01*
X49538139Y-115771907D01*
X49531336Y-115757008D01*
X49529928Y-115740693D01*
X49481174Y-115572682D01*
X49470803Y-115552702D01*
X49467316Y-115530461D01*
X49396328Y-115337115D01*
X49384074Y-115317049D01*
X49378758Y-115294145D01*
X49293336Y-115105114D01*
X49280004Y-115086470D01*
X49273257Y-115064566D01*
X49174084Y-114880916D01*
X49159721Y-114863566D01*
X49151613Y-114842555D01*
X49039374Y-114665355D01*
X49023983Y-114649193D01*
X49014534Y-114628971D01*
X48889912Y-114459290D01*
X48873453Y-114444232D01*
X48862642Y-114424719D01*
X48726321Y-114263621D01*
X48708726Y-114249620D01*
X48696492Y-114230753D01*
X48549155Y-114079308D01*
X48530340Y-114066358D01*
X48516594Y-114048117D01*
X48358926Y-113907392D01*
X48339652Y-113896039D01*
X48324989Y-113879143D01*
X48172842Y-113761142D01*
X48152630Y-113751044D01*
X48136665Y-113735050D01*
X47958550Y-113615802D01*
X47936817Y-113606777D01*
X47919032Y-113591375D01*
X47732161Y-113485035D01*
X47710046Y-113477681D01*
X47691376Y-113463729D01*
X47496512Y-113370692D01*
X47474101Y-113364991D01*
X47454640Y-113352505D01*
X47252552Y-113273169D01*
X47229928Y-113269105D01*
X47209752Y-113258095D01*
X47001205Y-113192857D01*
X46987864Y-113191426D01*
X46975831Y-113185491D01*
X46930553Y-113173354D01*
X46923181Y-113172870D01*
X46916483Y-113169753D01*
X46817479Y-113145609D01*
X46805035Y-113145075D01*
X46793552Y-113140258D01*
X46698583Y-113120919D01*
X46684399Y-113120855D01*
X46671092Y-113115943D01*
X46576870Y-113101005D01*
X46562380Y-113101572D01*
X46548562Y-113097162D01*
X46451798Y-113086221D01*
X46438487Y-113087339D01*
X46425608Y-113083804D01*
X46323014Y-113076457D01*
X46311948Y-113077846D01*
X46301098Y-113075265D01*
X46189386Y-113071108D01*
X46180982Y-113072457D01*
X46172651Y-113070704D01*
X46048533Y-113069334D01*
X46045025Y-113069992D01*
X46041524Y-113069295D01*
X46029850Y-113069294D01*
X46026585Y-113069943D01*
X46023315Y-113069327D01*
X45906380Y-113070511D01*
X45898653Y-113072129D01*
X45890860Y-113070856D01*
X45786078Y-113074460D01*
X45775987Y-113076831D01*
X45765711Y-113075486D01*
X45669802Y-113081849D01*
X45657847Y-113085063D01*
X45645519Y-113083925D01*
X45555203Y-113093382D01*
X45542439Y-113097340D01*
X45529094Y-113096660D01*
X45441090Y-113109551D01*
X45428947Y-113113871D01*
X45416059Y-113113726D01*
X45327085Y-113130386D01*
X45316796Y-113134513D01*
X45305711Y-113134766D01*
X45212487Y-113155534D01*
X45205497Y-113158618D01*
X45197867Y-113158972D01*
X45165981Y-113166865D01*
X45158419Y-113170416D01*
X45150084Y-113171017D01*
X45067721Y-113193664D01*
X45059599Y-113197736D01*
X45050558Y-113198642D01*
X44961936Y-113225693D01*
X44955185Y-113229317D01*
X44947582Y-113230260D01*
X44857070Y-113260234D01*
X44850550Y-113263934D01*
X44843133Y-113265028D01*
X44755101Y-113296448D01*
X44747814Y-113300808D01*
X44739448Y-113302266D01*
X44658267Y-113333652D01*
X44648753Y-113339687D01*
X44637727Y-113342005D01*
X44567767Y-113371878D01*
X44561072Y-113376457D01*
X44553180Y-113378323D01*
X44547175Y-113381066D01*
X44540736Y-113385710D01*
X44533054Y-113387725D01*
X44425078Y-113440267D01*
X44414665Y-113448171D01*
X44402167Y-113451992D01*
X44291340Y-113511547D01*
X44282280Y-113519016D01*
X44271179Y-113522854D01*
X44161141Y-113587211D01*
X44152438Y-113594930D01*
X44141587Y-113599122D01*
X44035978Y-113666070D01*
X44026764Y-113674851D01*
X44015079Y-113679899D01*
X43917540Y-113747226D01*
X43906762Y-113758335D01*
X43892860Y-113765144D01*
X43807030Y-113830637D01*
X43796453Y-113842633D01*
X43782456Y-113850365D01*
X43675618Y-113940546D01*
X43664835Y-113954062D01*
X43650168Y-113963216D01*
X43487909Y-114115689D01*
X43475096Y-114133631D01*
X43457226Y-114146551D01*
X43308470Y-114306721D01*
X43296541Y-114326085D01*
X43279087Y-114340672D01*
X43144022Y-114508277D01*
X43133198Y-114528970D01*
X43116403Y-114545197D01*
X42995223Y-114719973D01*
X42985721Y-114741841D01*
X42969841Y-114759621D01*
X42862735Y-114941308D01*
X42854750Y-114964147D01*
X42840024Y-114983345D01*
X42747184Y-115171680D01*
X42740875Y-115195241D01*
X42727525Y-115215659D01*
X42649140Y-115410378D01*
X42646614Y-115423774D01*
X42639641Y-115435484D01*
X42623947Y-115479743D01*
X42623021Y-115486110D01*
X42619839Y-115491702D01*
X42577177Y-115620006D01*
X42575670Y-115632033D01*
X42570073Y-115642782D01*
X42534974Y-115763154D01*
X42533683Y-115777895D01*
X42527453Y-115791318D01*
X42499343Y-115907102D01*
X42498651Y-115923649D01*
X42492454Y-115939006D01*
X42470762Y-116053547D01*
X42470917Y-116070470D01*
X42465411Y-116086474D01*
X42449564Y-116203115D01*
X42450532Y-116218880D01*
X42446125Y-116234048D01*
X42435551Y-116356129D01*
X42437033Y-116369550D01*
X42433808Y-116382658D01*
X42427934Y-116513525D01*
X42429536Y-116524021D01*
X42427338Y-116534409D01*
X42426268Y-116622044D01*
X42426269Y-116622050D01*
X42426268Y-116622055D01*
X42425593Y-116677416D01*
X42426620Y-116682929D01*
X42425553Y-116688438D01*
X39206875Y-116688438D01*
X39206875Y-104250866D01*
X56102500Y-104250866D01*
X56102500Y-105299134D01*
X56503655Y-106267608D01*
X57244892Y-107008845D01*
X58213366Y-107410000D01*
X59261634Y-107410000D01*
X60230108Y-107008845D01*
X60971345Y-106267608D01*
X61372500Y-105299134D01*
X61372500Y-104250866D01*
X246602500Y-104250866D01*
X246602500Y-105299134D01*
X247003655Y-106267608D01*
X247744892Y-107008845D01*
X248713366Y-107410000D01*
X249761634Y-107410000D01*
X250730108Y-107008845D01*
X251471345Y-106267608D01*
X251872500Y-105299134D01*
X251872500Y-104250866D01*
X251471345Y-103282392D01*
X250730108Y-102541155D01*
X249761634Y-102140000D01*
X248713366Y-102140000D01*
X247744892Y-102541155D01*
X247003655Y-103282392D01*
X246602500Y-104250866D01*
X61372500Y-104250866D01*
X60971345Y-103282392D01*
X60230108Y-102541155D01*
X59261634Y-102140000D01*
X58213366Y-102140000D01*
X57244892Y-102541155D01*
X56503655Y-103282392D01*
X56102500Y-104250866D01*
X39206875Y-104250866D01*
X39206875Y-85200866D01*
X56102500Y-85200866D01*
X56102500Y-86249134D01*
X56503655Y-87217608D01*
X57244892Y-87958845D01*
X58213366Y-88360000D01*
X59261634Y-88360000D01*
X60230108Y-87958845D01*
X60971345Y-87217608D01*
X61372500Y-86249134D01*
X61372500Y-85200866D01*
X151352500Y-85200866D01*
X151352500Y-86249134D01*
X151753655Y-87217608D01*
X152494892Y-87958845D01*
X153463366Y-88360000D01*
X154511634Y-88360000D01*
X155480108Y-87958845D01*
X156221345Y-87217608D01*
X156622500Y-86249134D01*
X156622500Y-85200866D01*
X246602500Y-85200866D01*
X246602500Y-86249134D01*
X247003655Y-87217608D01*
X247744892Y-87958845D01*
X248713366Y-88360000D01*
X249761634Y-88360000D01*
X250730108Y-87958845D01*
X251471345Y-87217608D01*
X251872500Y-86249134D01*
X251872500Y-85200866D01*
X251471345Y-84232392D01*
X250730108Y-83491155D01*
X249761634Y-83090000D01*
X248713366Y-83090000D01*
X247744892Y-83491155D01*
X247003655Y-84232392D01*
X246602500Y-85200866D01*
X156622500Y-85200866D01*
X156221345Y-84232392D01*
X155480108Y-83491155D01*
X154511634Y-83090000D01*
X153463366Y-83090000D01*
X152494892Y-83491155D01*
X151753655Y-84232392D01*
X151352500Y-85200866D01*
X61372500Y-85200866D01*
X60971345Y-84232392D01*
X60230108Y-83491155D01*
X59261634Y-83090000D01*
X58213366Y-83090000D01*
X57244892Y-83491155D01*
X56503655Y-84232392D01*
X56102500Y-85200866D01*
X39206875Y-85200866D01*
X39206875Y-66150866D01*
X56102500Y-66150866D01*
X56102500Y-67199134D01*
X56503655Y-68167608D01*
X57244892Y-68908845D01*
X58213366Y-69310000D01*
X59261634Y-69310000D01*
X60230108Y-68908845D01*
X60971345Y-68167608D01*
X61372500Y-67199134D01*
X61372500Y-66150866D01*
X246602500Y-66150866D01*
X246602500Y-67199134D01*
X247003655Y-68167608D01*
X247744892Y-68908845D01*
X248713366Y-69310000D01*
X249761634Y-69310000D01*
X250730108Y-68908845D01*
X251471345Y-68167608D01*
X251872500Y-67199134D01*
X251872500Y-66150866D01*
X251471345Y-65182392D01*
X250730108Y-64441155D01*
X249761634Y-64040000D01*
X248713366Y-64040000D01*
X247744892Y-64441155D01*
X247003655Y-65182392D01*
X246602500Y-66150866D01*
X61372500Y-66150866D01*
X60971345Y-65182392D01*
X60230108Y-64441155D01*
X59261634Y-64040000D01*
X58213366Y-64040000D01*
X57244892Y-64441155D01*
X56503655Y-65182392D01*
X56102500Y-66150866D01*
X39206875Y-66150866D01*
X39206875Y-50052786D01*
X39269740Y-49575282D01*
X39436084Y-49173691D01*
X39700705Y-48828830D01*
X40045566Y-48564209D01*
X40447158Y-48397864D01*
X40924661Y-48335000D01*
X267050339Y-48335000D01*
X267527843Y-48397865D01*
X267527843Y-48397865D01*
G37*
X267527843Y-48397865D02*
X267929434Y-48564209D01*
X268274295Y-48828830D01*
X268538916Y-49173691D01*
X268705261Y-49575283D01*
X268768126Y-50052794D01*
X268768125Y-121397214D01*
X268705261Y-121874717D01*
X268538916Y-122276309D01*
X268274295Y-122621170D01*
X267929434Y-122885791D01*
X267527843Y-123052135D01*
X267050339Y-123115000D01*
X40924661Y-123115000D01*
X40447158Y-123052136D01*
X40045566Y-122885791D01*
X39700705Y-122621170D01*
X39436084Y-122276309D01*
X39269740Y-121874718D01*
X39206875Y-121397214D01*
X39206875Y-116688438D01*
X42425553Y-116688438D01*
X42425834Y-116744305D01*
X42426903Y-116749541D01*
X42425973Y-116754802D01*
X42428509Y-116873106D01*
X42430600Y-116882555D01*
X42429200Y-116892131D01*
X42434698Y-116999461D01*
X42437689Y-117011297D01*
X42436378Y-117023433D01*
X42445243Y-117123080D01*
X42449185Y-117136532D01*
X42448282Y-117150520D01*
X42460916Y-117245770D01*
X42465607Y-117259546D01*
X42465321Y-117274101D01*
X42482129Y-117368245D01*
X42487079Y-117380893D01*
X42487379Y-117394471D01*
X42508764Y-117490795D01*
X42513348Y-117501205D01*
X42513997Y-117512557D01*
X42540363Y-117614351D01*
X42543403Y-117620648D01*
X42543952Y-117627620D01*
X42556097Y-117670678D01*
X42562327Y-117682904D01*
X42563981Y-117696529D01*
X42632674Y-117905812D01*
X42644038Y-117925962D01*
X42648456Y-117948669D01*
X42730963Y-118150234D01*
X42743916Y-118169795D01*
X42750049Y-118192435D01*
X42846147Y-118385952D01*
X42860607Y-118404689D01*
X42868447Y-118427023D01*
X42977911Y-118612165D01*
X42993763Y-118629868D01*
X43003257Y-118651655D01*
X43125862Y-118828093D01*
X43142946Y-118844565D01*
X43153995Y-118865573D01*
X43289517Y-119032979D01*
X43307646Y-119048061D01*
X43320111Y-119068079D01*
X43468324Y-119226128D01*
X43487289Y-119239700D01*
X43501007Y-119258558D01*
X43661690Y-119406918D01*
X43681261Y-119418895D01*
X43696035Y-119436447D01*
X43868962Y-119574794D01*
X43888213Y-119584777D01*
X43903255Y-119600397D01*
X44054210Y-119705427D01*
X44074580Y-119714318D01*
X44091057Y-119729232D01*
X44273843Y-119838631D01*
X44296039Y-119846557D01*
X44314617Y-119861063D01*
X44505115Y-119957014D01*
X44527598Y-119963242D01*
X44546972Y-119976241D01*
X44744323Y-120058428D01*
X44767022Y-120062988D01*
X44787117Y-120074481D01*
X44990462Y-120142585D01*
X45013311Y-120145498D01*
X45034066Y-120155485D01*
X45242547Y-120209188D01*
X45265482Y-120210468D01*
X45286837Y-120218938D01*
X45499594Y-120257925D01*
X45522569Y-120257578D01*
X45544471Y-120264514D01*
X45760645Y-120288466D01*
X45773316Y-120287374D01*
X45785585Y-120290737D01*
X45786370Y-120290793D01*
X45794854Y-120289726D01*
X45803157Y-120291769D01*
X45823125Y-120292667D01*
X45828712Y-120291815D01*
X45834219Y-120293069D01*
X45866714Y-120293966D01*
X45869192Y-120293544D01*
X45871647Y-120294083D01*
X45913527Y-120294916D01*
X45915208Y-120294616D01*
X45916879Y-120294974D01*
X45964999Y-120295679D01*
X45966471Y-120295408D01*
X45967940Y-120295716D01*
X46019160Y-120296231D01*
X46024419Y-120295240D01*
X46029672Y-120296250D01*
X46120227Y-120295673D01*
X46133587Y-120292927D01*
X46147075Y-120294938D01*
X46302992Y-120287395D01*
X46321005Y-120282897D01*
X46339496Y-120284581D01*
X46493724Y-120268241D01*
X46511218Y-120262793D01*
X46529532Y-120263422D01*
X46686628Y-120237745D01*
X46702084Y-120231956D01*
X46718581Y-120231684D01*
X46883097Y-120196130D01*
X46892973Y-120191847D01*
X46903730Y-120191313D01*
X46986322Y-120170579D01*
X46995156Y-120166395D01*
X47004905Y-120165617D01*
X47096328Y-120139723D01*
X47107918Y-120133801D01*
X47120842Y-120132247D01*
X47207955Y-120103760D01*
X47219412Y-120097315D01*
X47232390Y-120095219D01*
X47321108Y-120062180D01*
X47330356Y-120056474D01*
X47341022Y-120054383D01*
X47437255Y-120014836D01*
X47441639Y-120011924D01*
X47446785Y-120010829D01*
X47508179Y-119984432D01*
X47511142Y-119982395D01*
X47514647Y-119981608D01*
X47569418Y-119957340D01*
X47574558Y-119953721D01*
X47580663Y-119952227D01*
X47627740Y-119930271D01*
X47634656Y-119925199D01*
X47642928Y-119922942D01*
X47685965Y-119901472D01*
X47693263Y-119895819D01*
X47702099Y-119893136D01*
X47744749Y-119870325D01*
X47750726Y-119865417D01*
X47758071Y-119862995D01*
X47803984Y-119837018D01*
X47807769Y-119833756D01*
X47812490Y-119832119D01*
X47865319Y-119801150D01*
X47874638Y-119792868D01*
X47886255Y-119788332D01*
X48068623Y-119671805D01*
X48084976Y-119656108D01*
X48105459Y-119646411D01*
X48280433Y-119516543D01*
X48296217Y-119499115D01*
X48316684Y-119487540D01*
X48480242Y-119346656D01*
X48494916Y-119327880D01*
X48514742Y-119314656D01*
X48667016Y-119162625D01*
X48680275Y-119142816D01*
X48699077Y-119128169D01*
X48840200Y-118964857D01*
X48851814Y-118944397D01*
X48869275Y-118928632D01*
X48999379Y-118753907D01*
X49009219Y-118733205D01*
X49025102Y-118716683D01*
X49144321Y-118530412D01*
X49148910Y-118518685D01*
X49157280Y-118509274D01*
X49186405Y-118459633D01*
X49187948Y-118455188D01*
X49191026Y-118451626D01*
X49217272Y-118405374D01*
X49219653Y-118398184D01*
X49224468Y-118392341D01*
X49247429Y-118349591D01*
X49250118Y-118340789D01*
X49255768Y-118333524D01*
X49277269Y-118290624D01*
X49279569Y-118282257D01*
X49284712Y-118275266D01*
X49306581Y-118228563D01*
X49308127Y-118222290D01*
X49311849Y-118217014D01*
X49335911Y-118162856D01*
X49336753Y-118159122D01*
X49338925Y-118155965D01*
X49367008Y-118090699D01*
X49369252Y-118080173D01*
X49375056Y-118071109D01*
X49439253Y-117907177D01*
X49443060Y-117885880D01*
X49453487Y-117866924D01*
X49518074Y-117662858D01*
X49520718Y-117638955D01*
X49530715Y-117617080D01*
X49579844Y-117409412D01*
X49580709Y-117385362D01*
X49589059Y-117362795D01*
X49622724Y-117151554D01*
X49621812Y-117127747D01*
X49628416Y-117104853D01*
X49646611Y-116890070D01*
X49644005Y-116866862D01*
X49648845Y-116844018D01*
X49651564Y-116625721D01*
X49649296Y-116613528D01*
X49651403Y-116601301D01*
X49650750Y-116575902D01*
X49649173Y-116568919D01*
X49650233Y-116561843D01*
X49643548Y-116421736D01*
X49640075Y-116407788D01*
X49641573Y-116393494D01*
X49629405Y-116261498D01*
X49624844Y-116246117D01*
X49625726Y-116230100D01*
X49607334Y-116100828D01*
X49602108Y-116085945D01*
X49602210Y-116070169D01*
X49576850Y-115938233D01*
X49571697Y-115925563D01*
X49571210Y-115911892D01*
X49538139Y-115771907D01*
X49531336Y-115757008D01*
X49529928Y-115740693D01*
X49481174Y-115572682D01*
X49470803Y-115552702D01*
X49467316Y-115530461D01*
X49396328Y-115337115D01*
X49384074Y-115317049D01*
X49378758Y-115294145D01*
X49293336Y-115105114D01*
X49280004Y-115086470D01*
X49273257Y-115064566D01*
X49174084Y-114880916D01*
X49159721Y-114863566D01*
X49151613Y-114842555D01*
X49039374Y-114665355D01*
X49023983Y-114649193D01*
X49014534Y-114628971D01*
X48889912Y-114459290D01*
X48873453Y-114444232D01*
X48862642Y-114424719D01*
X48726321Y-114263621D01*
X48708726Y-114249620D01*
X48696492Y-114230753D01*
X48549155Y-114079308D01*
X48530340Y-114066358D01*
X48516594Y-114048117D01*
X48358926Y-113907392D01*
X48339652Y-113896039D01*
X48324989Y-113879143D01*
X48172842Y-113761142D01*
X48152630Y-113751044D01*
X48136665Y-113735050D01*
X47958550Y-113615802D01*
X47936817Y-113606777D01*
X47919032Y-113591375D01*
X47732161Y-113485035D01*
X47710046Y-113477681D01*
X47691376Y-113463729D01*
X47496512Y-113370692D01*
X47474101Y-113364991D01*
X47454640Y-113352505D01*
X47252552Y-113273169D01*
X47229928Y-113269105D01*
X47209752Y-113258095D01*
X47001205Y-113192857D01*
X46987864Y-113191426D01*
X46975831Y-113185491D01*
X46930553Y-113173354D01*
X46923181Y-113172870D01*
X46916483Y-113169753D01*
X46817479Y-113145609D01*
X46805035Y-113145075D01*
X46793552Y-113140258D01*
X46698583Y-113120919D01*
X46684399Y-113120855D01*
X46671092Y-113115943D01*
X46576870Y-113101005D01*
X46562380Y-113101572D01*
X46548562Y-113097162D01*
X46451798Y-113086221D01*
X46438487Y-113087339D01*
X46425608Y-113083804D01*
X46323014Y-113076457D01*
X46311948Y-113077846D01*
X46301098Y-113075265D01*
X46189386Y-113071108D01*
X46180982Y-113072457D01*
X46172651Y-113070704D01*
X46048533Y-113069334D01*
X46045025Y-113069992D01*
X46041524Y-113069295D01*
X46029850Y-113069294D01*
X46026585Y-113069943D01*
X46023315Y-113069327D01*
X45906380Y-113070511D01*
X45898653Y-113072129D01*
X45890860Y-113070856D01*
X45786078Y-113074460D01*
X45775987Y-113076831D01*
X45765711Y-113075486D01*
X45669802Y-113081849D01*
X45657847Y-113085063D01*
X45645519Y-113083925D01*
X45555203Y-113093382D01*
X45542439Y-113097340D01*
X45529094Y-113096660D01*
X45441090Y-113109551D01*
X45428947Y-113113871D01*
X45416059Y-113113726D01*
X45327085Y-113130386D01*
X45316796Y-113134513D01*
X45305711Y-113134766D01*
X45212487Y-113155534D01*
X45205497Y-113158618D01*
X45197867Y-113158972D01*
X45165981Y-113166865D01*
X45158419Y-113170416D01*
X45150084Y-113171017D01*
X45067721Y-113193664D01*
X45059599Y-113197736D01*
X45050558Y-113198642D01*
X44961936Y-113225693D01*
X44955185Y-113229317D01*
X44947582Y-113230260D01*
X44857070Y-113260234D01*
X44850550Y-113263934D01*
X44843133Y-113265028D01*
X44755101Y-113296448D01*
X44747814Y-113300808D01*
X44739448Y-113302266D01*
X44658267Y-113333652D01*
X44648753Y-113339687D01*
X44637727Y-113342005D01*
X44567767Y-113371878D01*
X44561072Y-113376457D01*
X44553180Y-113378323D01*
X44547175Y-113381066D01*
X44540736Y-113385710D01*
X44533054Y-113387725D01*
X44425078Y-113440267D01*
X44414665Y-113448171D01*
X44402167Y-113451992D01*
X44291340Y-113511547D01*
X44282280Y-113519016D01*
X44271179Y-113522854D01*
X44161141Y-113587211D01*
X44152438Y-113594930D01*
X44141587Y-113599122D01*
X44035978Y-113666070D01*
X44026764Y-113674851D01*
X44015079Y-113679899D01*
X43917540Y-113747226D01*
X43906762Y-113758335D01*
X43892860Y-113765144D01*
X43807030Y-113830637D01*
X43796453Y-113842633D01*
X43782456Y-113850365D01*
X43675618Y-113940546D01*
X43664835Y-113954062D01*
X43650168Y-113963216D01*
X43487909Y-114115689D01*
X43475096Y-114133631D01*
X43457226Y-114146551D01*
X43308470Y-114306721D01*
X43296541Y-114326085D01*
X43279087Y-114340672D01*
X43144022Y-114508277D01*
X43133198Y-114528970D01*
X43116403Y-114545197D01*
X42995223Y-114719973D01*
X42985721Y-114741841D01*
X42969841Y-114759621D01*
X42862735Y-114941308D01*
X42854750Y-114964147D01*
X42840024Y-114983345D01*
X42747184Y-115171680D01*
X42740875Y-115195241D01*
X42727525Y-115215659D01*
X42649140Y-115410378D01*
X42646614Y-115423774D01*
X42639641Y-115435484D01*
X42623947Y-115479743D01*
X42623021Y-115486110D01*
X42619839Y-115491702D01*
X42577177Y-115620006D01*
X42575670Y-115632033D01*
X42570073Y-115642782D01*
X42534974Y-115763154D01*
X42533683Y-115777895D01*
X42527453Y-115791318D01*
X42499343Y-115907102D01*
X42498651Y-115923649D01*
X42492454Y-115939006D01*
X42470762Y-116053547D01*
X42470917Y-116070470D01*
X42465411Y-116086474D01*
X42449564Y-116203115D01*
X42450532Y-116218880D01*
X42446125Y-116234048D01*
X42435551Y-116356129D01*
X42437033Y-116369550D01*
X42433808Y-116382658D01*
X42427934Y-116513525D01*
X42429536Y-116524021D01*
X42427338Y-116534409D01*
X42426268Y-116622044D01*
X42426269Y-116622050D01*
X42426268Y-116622055D01*
X42425593Y-116677416D01*
X42426620Y-116682929D01*
X42425553Y-116688438D01*
X39206875Y-116688438D01*
X39206875Y-104250866D01*
X56102500Y-104250866D01*
X56102500Y-105299134D01*
X56503655Y-106267608D01*
X57244892Y-107008845D01*
X58213366Y-107410000D01*
X59261634Y-107410000D01*
X60230108Y-107008845D01*
X60971345Y-106267608D01*
X61372500Y-105299134D01*
X61372500Y-104250866D01*
X246602500Y-104250866D01*
X246602500Y-105299134D01*
X247003655Y-106267608D01*
X247744892Y-107008845D01*
X248713366Y-107410000D01*
X249761634Y-107410000D01*
X250730108Y-107008845D01*
X251471345Y-106267608D01*
X251872500Y-105299134D01*
X251872500Y-104250866D01*
X251471345Y-103282392D01*
X250730108Y-102541155D01*
X249761634Y-102140000D01*
X248713366Y-102140000D01*
X247744892Y-102541155D01*
X247003655Y-103282392D01*
X246602500Y-104250866D01*
X61372500Y-104250866D01*
X60971345Y-103282392D01*
X60230108Y-102541155D01*
X59261634Y-102140000D01*
X58213366Y-102140000D01*
X57244892Y-102541155D01*
X56503655Y-103282392D01*
X56102500Y-104250866D01*
X39206875Y-104250866D01*
X39206875Y-85200866D01*
X56102500Y-85200866D01*
X56102500Y-86249134D01*
X56503655Y-87217608D01*
X57244892Y-87958845D01*
X58213366Y-88360000D01*
X59261634Y-88360000D01*
X60230108Y-87958845D01*
X60971345Y-87217608D01*
X61372500Y-86249134D01*
X61372500Y-85200866D01*
X151352500Y-85200866D01*
X151352500Y-86249134D01*
X151753655Y-87217608D01*
X152494892Y-87958845D01*
X153463366Y-88360000D01*
X154511634Y-88360000D01*
X155480108Y-87958845D01*
X156221345Y-87217608D01*
X156622500Y-86249134D01*
X156622500Y-85200866D01*
X246602500Y-85200866D01*
X246602500Y-86249134D01*
X247003655Y-87217608D01*
X247744892Y-87958845D01*
X248713366Y-88360000D01*
X249761634Y-88360000D01*
X250730108Y-87958845D01*
X251471345Y-87217608D01*
X251872500Y-86249134D01*
X251872500Y-85200866D01*
X251471345Y-84232392D01*
X250730108Y-83491155D01*
X249761634Y-83090000D01*
X248713366Y-83090000D01*
X247744892Y-83491155D01*
X247003655Y-84232392D01*
X246602500Y-85200866D01*
X156622500Y-85200866D01*
X156221345Y-84232392D01*
X155480108Y-83491155D01*
X154511634Y-83090000D01*
X153463366Y-83090000D01*
X152494892Y-83491155D01*
X151753655Y-84232392D01*
X151352500Y-85200866D01*
X61372500Y-85200866D01*
X60971345Y-84232392D01*
X60230108Y-83491155D01*
X59261634Y-83090000D01*
X58213366Y-83090000D01*
X57244892Y-83491155D01*
X56503655Y-84232392D01*
X56102500Y-85200866D01*
X39206875Y-85200866D01*
X39206875Y-66150866D01*
X56102500Y-66150866D01*
X56102500Y-67199134D01*
X56503655Y-68167608D01*
X57244892Y-68908845D01*
X58213366Y-69310000D01*
X59261634Y-69310000D01*
X60230108Y-68908845D01*
X60971345Y-68167608D01*
X61372500Y-67199134D01*
X61372500Y-66150866D01*
X246602500Y-66150866D01*
X246602500Y-67199134D01*
X247003655Y-68167608D01*
X247744892Y-68908845D01*
X248713366Y-69310000D01*
X249761634Y-69310000D01*
X250730108Y-68908845D01*
X251471345Y-68167608D01*
X251872500Y-67199134D01*
X251872500Y-66150866D01*
X251471345Y-65182392D01*
X250730108Y-64441155D01*
X249761634Y-64040000D01*
X248713366Y-64040000D01*
X247744892Y-64441155D01*
X247003655Y-65182392D01*
X246602500Y-66150866D01*
X61372500Y-66150866D01*
X60971345Y-65182392D01*
X60230108Y-64441155D01*
X59261634Y-64040000D01*
X58213366Y-64040000D01*
X57244892Y-64441155D01*
X56503655Y-65182392D01*
X56102500Y-66150866D01*
X39206875Y-66150866D01*
X39206875Y-50052786D01*
X39269740Y-49575282D01*
X39436084Y-49173691D01*
X39700705Y-48828830D01*
X40045566Y-48564209D01*
X40447158Y-48397864D01*
X40924661Y-48335000D01*
X267050339Y-48335000D01*
X267527843Y-48397865D01*
G04 #@! TD*
M02*
