%TF.GenerationSoftware,KiCad,Pcbnew,4.0.7*%
%TF.CreationDate,2018-01-16T00:43:50-08:00*%
%TF.ProjectId,DanckBottomPlate,44616E636B426F74746F6D506C617465,rev?*%
%TF.FileFunction,Soldermask,Top*%
%FSLAX46Y46*%
G04 Gerber Fmt 4.6, Leading zero omitted, Abs format (unit mm)*
G04 Created by KiCad (PCBNEW 4.0.7) date 01/16/18 00:43:50*
%MOMM*%
%LPD*%
G01*
G04 APERTURE LIST*
%ADD10C,0.100000*%
%ADD11C,0.300000*%
%ADD12C,0.010000*%
%ADD13C,4.400000*%
G04 APERTURE END LIST*
D10*
D11*
X238426935Y-86629762D02*
X237760268Y-85677381D01*
X237284077Y-86629762D02*
X237284077Y-84629762D01*
X238045982Y-84629762D01*
X238236458Y-84725000D01*
X238331697Y-84820238D01*
X238426935Y-85010714D01*
X238426935Y-85296429D01*
X238331697Y-85486905D01*
X238236458Y-85582143D01*
X238045982Y-85677381D01*
X237284077Y-85677381D01*
X240045982Y-86534524D02*
X239855506Y-86629762D01*
X239474554Y-86629762D01*
X239284077Y-86534524D01*
X239188839Y-86344048D01*
X239188839Y-85582143D01*
X239284077Y-85391667D01*
X239474554Y-85296429D01*
X239855506Y-85296429D01*
X240045982Y-85391667D01*
X240141220Y-85582143D01*
X240141220Y-85772619D01*
X239188839Y-85963095D01*
X240903125Y-86534524D02*
X241093602Y-86629762D01*
X241474554Y-86629762D01*
X241665030Y-86534524D01*
X241760268Y-86344048D01*
X241760268Y-86248810D01*
X241665030Y-86058333D01*
X241474554Y-85963095D01*
X241188840Y-85963095D01*
X240998363Y-85867857D01*
X240903125Y-85677381D01*
X240903125Y-85582143D01*
X240998363Y-85391667D01*
X241188840Y-85296429D01*
X241474554Y-85296429D01*
X241665030Y-85391667D01*
X243379316Y-86534524D02*
X243188840Y-86629762D01*
X242807888Y-86629762D01*
X242617411Y-86534524D01*
X242522173Y-86344048D01*
X242522173Y-85582143D01*
X242617411Y-85391667D01*
X242807888Y-85296429D01*
X243188840Y-85296429D01*
X243379316Y-85391667D01*
X243474554Y-85582143D01*
X243474554Y-85772619D01*
X242522173Y-85963095D01*
X244045983Y-85296429D02*
X244807888Y-85296429D01*
X244331697Y-84629762D02*
X244331697Y-86344048D01*
X244426936Y-86534524D01*
X244617412Y-86629762D01*
X244807888Y-86629762D01*
D12*
G36*
X91031131Y-87037540D02*
X91091363Y-87122496D01*
X91172495Y-87256754D01*
X91270698Y-87434256D01*
X91300427Y-87490300D01*
X91459167Y-87773602D01*
X91610735Y-88001600D01*
X91764367Y-88184707D01*
X91929300Y-88333334D01*
X92114768Y-88457895D01*
X92200889Y-88505474D01*
X92541669Y-88648384D01*
X92888181Y-88724775D01*
X93235709Y-88735053D01*
X93579538Y-88679621D01*
X93914949Y-88558883D01*
X94237228Y-88373245D01*
X94303954Y-88325189D01*
X94468119Y-88176570D01*
X94630989Y-87975412D01*
X94796111Y-87716771D01*
X94957906Y-87414100D01*
X95028363Y-87273591D01*
X95087827Y-87156800D01*
X95129869Y-87076232D01*
X95147869Y-87044576D01*
X95190500Y-87040571D01*
X95289024Y-87052093D01*
X95433938Y-87077028D01*
X95615737Y-87113259D01*
X95824920Y-87158671D01*
X96051984Y-87211147D01*
X96287426Y-87268573D01*
X96521742Y-87328831D01*
X96745431Y-87389808D01*
X96901179Y-87434939D01*
X97757937Y-87725838D01*
X98596787Y-88079826D01*
X99412750Y-88493502D01*
X100200846Y-88963468D01*
X100956096Y-89486324D01*
X101673520Y-90058670D01*
X102348140Y-90677106D01*
X102974976Y-91338234D01*
X103443269Y-91901433D01*
X103994092Y-92658115D01*
X104483296Y-93441593D01*
X104911333Y-94252947D01*
X105278652Y-95093256D01*
X105585702Y-95963602D01*
X105832935Y-96865062D01*
X106020799Y-97798717D01*
X106089048Y-98251433D01*
X106113029Y-98480197D01*
X106131659Y-98762927D01*
X106144937Y-99086066D01*
X106152863Y-99436058D01*
X106155436Y-99799347D01*
X106152658Y-100162377D01*
X106144528Y-100511593D01*
X106131046Y-100833437D01*
X106112211Y-101114354D01*
X106089048Y-101333300D01*
X105930841Y-102274475D01*
X105715213Y-103182724D01*
X105442612Y-104056557D01*
X105113485Y-104894487D01*
X104842802Y-105472662D01*
X104777711Y-105599036D01*
X104731248Y-105675338D01*
X104693196Y-105712781D01*
X104653338Y-105722578D01*
X104618410Y-105718911D01*
X104215980Y-105662957D01*
X103865828Y-105638611D01*
X103559477Y-105647536D01*
X103288451Y-105691394D01*
X103044271Y-105771847D01*
X102818463Y-105890557D01*
X102602550Y-106049187D01*
X102507665Y-106132829D01*
X102290131Y-106362705D01*
X102126450Y-106605934D01*
X102003130Y-106883142D01*
X101987604Y-106927962D01*
X101906711Y-107223267D01*
X101872578Y-107499660D01*
X101886516Y-107770824D01*
X101949837Y-108050440D01*
X102063852Y-108352187D01*
X102139677Y-108514411D01*
X102337985Y-108917352D01*
X101992276Y-109239286D01*
X101323730Y-109816804D01*
X100606871Y-110350865D01*
X99847980Y-110838103D01*
X99053341Y-111275148D01*
X98229237Y-111658634D01*
X97381948Y-111985192D01*
X96517759Y-112251454D01*
X96239528Y-112323164D01*
X95792844Y-112427452D01*
X95380135Y-112511242D01*
X94984783Y-112576561D01*
X94590172Y-112625437D01*
X94179684Y-112659895D01*
X93736702Y-112681964D01*
X93244607Y-112693670D01*
X93196833Y-112694291D01*
X92941639Y-112696886D01*
X92703305Y-112698327D01*
X92491769Y-112698630D01*
X92316971Y-112697811D01*
X92188848Y-112695889D01*
X92117340Y-112692879D01*
X92113099Y-112692453D01*
X92031287Y-112683763D01*
X91901276Y-112670751D01*
X91742314Y-112655317D01*
X91605099Y-112642302D01*
X90974918Y-112562898D01*
X90314067Y-112442054D01*
X89641358Y-112284579D01*
X88975604Y-112095286D01*
X88335617Y-111878985D01*
X87816055Y-111673272D01*
X87051927Y-111317629D01*
X86306513Y-110912947D01*
X85590120Y-110465871D01*
X84913057Y-109983048D01*
X84285629Y-109471123D01*
X84002033Y-109214113D01*
X83764966Y-108991417D01*
X83944967Y-108649530D01*
X84068937Y-108403108D01*
X84158856Y-108195463D01*
X84220140Y-108010326D01*
X84258208Y-107831428D01*
X84278010Y-107649433D01*
X84271427Y-107288540D01*
X84200859Y-106949786D01*
X84066557Y-106633839D01*
X83868776Y-106341364D01*
X83717398Y-106175094D01*
X83499361Y-105978465D01*
X83281759Y-105826311D01*
X83054864Y-105716147D01*
X82808946Y-105645485D01*
X82534275Y-105611838D01*
X82221124Y-105612720D01*
X81859763Y-105645644D01*
X81719363Y-105664381D01*
X81299359Y-105724209D01*
X81104096Y-105315221D01*
X80748714Y-104504695D01*
X80716711Y-104415807D01*
X85464491Y-104415807D01*
X85494907Y-104693115D01*
X85575326Y-104982901D01*
X85698673Y-105261182D01*
X85730720Y-105318226D01*
X85923560Y-105582676D01*
X86167036Y-105812085D01*
X86449836Y-105998802D01*
X86760648Y-106135178D01*
X87044841Y-106206891D01*
X87097027Y-106210033D01*
X87213358Y-106213126D01*
X87390247Y-106216151D01*
X87624107Y-106219087D01*
X87911348Y-106221915D01*
X88248385Y-106224615D01*
X88631627Y-106227167D01*
X89057489Y-106229552D01*
X89522382Y-106231750D01*
X90022719Y-106233741D01*
X90554911Y-106235505D01*
X91115371Y-106237024D01*
X91700512Y-106238276D01*
X92306745Y-106239243D01*
X92930482Y-106239904D01*
X93071261Y-106240007D01*
X93817882Y-106240463D01*
X94499817Y-106240757D01*
X95120110Y-106240866D01*
X95681808Y-106240764D01*
X96187957Y-106240429D01*
X96641602Y-106239834D01*
X97045791Y-106238956D01*
X97403569Y-106237770D01*
X97717981Y-106236252D01*
X97992074Y-106234377D01*
X98228894Y-106232120D01*
X98431487Y-106229458D01*
X98602899Y-106226366D01*
X98746176Y-106222819D01*
X98864364Y-106218792D01*
X98960509Y-106214263D01*
X99037657Y-106209205D01*
X99098853Y-106203594D01*
X99147145Y-106197407D01*
X99184194Y-106190900D01*
X99527421Y-106089279D01*
X99838801Y-105932755D01*
X100111716Y-105726158D01*
X100339547Y-105474312D01*
X100485807Y-105241777D01*
X100619460Y-104945116D01*
X100695054Y-104668256D01*
X100713606Y-104397869D01*
X100676136Y-104120628D01*
X100592450Y-103846421D01*
X100522293Y-103664136D01*
X100439838Y-103460449D01*
X100343960Y-103233011D01*
X100233536Y-102979472D01*
X100107441Y-102697481D01*
X99964551Y-102384689D01*
X99803742Y-102038745D01*
X99623890Y-101657301D01*
X99423871Y-101238006D01*
X99202560Y-100778509D01*
X98958834Y-100276462D01*
X98691568Y-99729515D01*
X98399638Y-99135316D01*
X98081921Y-98491517D01*
X97737291Y-97795768D01*
X97364626Y-97045718D01*
X96962799Y-96239018D01*
X96731872Y-95776172D01*
X96439976Y-95191466D01*
X96176674Y-94664220D01*
X95940320Y-94191286D01*
X95729265Y-93769515D01*
X95541862Y-93395761D01*
X95376463Y-93066876D01*
X95231420Y-92779712D01*
X95105085Y-92531123D01*
X94995810Y-92317960D01*
X94901949Y-92137075D01*
X94821852Y-91985322D01*
X94753872Y-91859553D01*
X94696361Y-91756620D01*
X94647672Y-91673375D01*
X94606156Y-91606672D01*
X94570166Y-91553363D01*
X94538054Y-91510299D01*
X94508173Y-91474334D01*
X94478873Y-91442321D01*
X94448509Y-91411110D01*
X94444589Y-91407141D01*
X94175214Y-91180088D01*
X93874436Y-91007663D01*
X93551251Y-90892036D01*
X93214658Y-90835374D01*
X92873654Y-90839845D01*
X92537238Y-90907619D01*
X92466790Y-90930523D01*
X92307775Y-90993795D01*
X92144418Y-91071503D01*
X92009956Y-91147729D01*
X92000569Y-91153865D01*
X91929182Y-91201658D01*
X91864441Y-91247473D01*
X91804016Y-91295273D01*
X91745578Y-91349024D01*
X91686799Y-91412689D01*
X91625350Y-91490233D01*
X91558900Y-91585620D01*
X91485122Y-91702816D01*
X91401687Y-91845784D01*
X91306265Y-92018490D01*
X91196527Y-92224898D01*
X91070145Y-92468971D01*
X90924789Y-92754676D01*
X90758130Y-93085976D01*
X90567840Y-93466835D01*
X90351589Y-93901219D01*
X90158777Y-94289033D01*
X89698338Y-95216076D01*
X89267698Y-96084804D01*
X88865886Y-96897242D01*
X88491931Y-97655417D01*
X88144862Y-98361353D01*
X87823709Y-99017078D01*
X87527502Y-99624617D01*
X87255269Y-100185995D01*
X87006040Y-100703239D01*
X86778845Y-101178375D01*
X86572712Y-101613428D01*
X86386672Y-102010424D01*
X86219752Y-102371389D01*
X86070984Y-102698349D01*
X85939396Y-102993330D01*
X85824017Y-103258358D01*
X85723877Y-103495458D01*
X85638006Y-103706656D01*
X85599191Y-103805567D01*
X85535968Y-103975132D01*
X85495651Y-104104105D01*
X85473549Y-104213748D01*
X85464968Y-104325324D01*
X85464491Y-104415807D01*
X80716711Y-104415807D01*
X80454154Y-103686581D01*
X80217372Y-102850503D01*
X80035324Y-101986087D01*
X79935513Y-101333300D01*
X79917586Y-101162641D01*
X79900668Y-100939565D01*
X79885620Y-100679386D01*
X79873302Y-100397419D01*
X79864575Y-100108979D01*
X79863226Y-100046366D01*
X79861949Y-99405795D01*
X79886079Y-98810072D01*
X79937659Y-98240470D01*
X80018735Y-97678261D01*
X80131352Y-97104715D01*
X80230092Y-96686273D01*
X80485191Y-95805252D01*
X80801287Y-94950470D01*
X81175936Y-94124443D01*
X81606695Y-93329682D01*
X82091119Y-92568701D01*
X82626763Y-91844013D01*
X83211184Y-91158132D01*
X83841938Y-90513570D01*
X84516581Y-89912841D01*
X85232667Y-89358458D01*
X85987754Y-88852934D01*
X86779397Y-88398782D01*
X87605152Y-87998516D01*
X88462575Y-87654649D01*
X89268011Y-87392943D01*
X89433857Y-87347270D01*
X89632477Y-87296348D01*
X89852275Y-87242760D01*
X90081652Y-87189091D01*
X90309011Y-87137924D01*
X90522757Y-87091845D01*
X90711290Y-87053438D01*
X90863015Y-87025287D01*
X90966334Y-87009977D01*
X90995627Y-87007946D01*
X91031131Y-87037540D01*
X91031131Y-87037540D01*
G37*
X91031131Y-87037540D02*
X91091363Y-87122496D01*
X91172495Y-87256754D01*
X91270698Y-87434256D01*
X91300427Y-87490300D01*
X91459167Y-87773602D01*
X91610735Y-88001600D01*
X91764367Y-88184707D01*
X91929300Y-88333334D01*
X92114768Y-88457895D01*
X92200889Y-88505474D01*
X92541669Y-88648384D01*
X92888181Y-88724775D01*
X93235709Y-88735053D01*
X93579538Y-88679621D01*
X93914949Y-88558883D01*
X94237228Y-88373245D01*
X94303954Y-88325189D01*
X94468119Y-88176570D01*
X94630989Y-87975412D01*
X94796111Y-87716771D01*
X94957906Y-87414100D01*
X95028363Y-87273591D01*
X95087827Y-87156800D01*
X95129869Y-87076232D01*
X95147869Y-87044576D01*
X95190500Y-87040571D01*
X95289024Y-87052093D01*
X95433938Y-87077028D01*
X95615737Y-87113259D01*
X95824920Y-87158671D01*
X96051984Y-87211147D01*
X96287426Y-87268573D01*
X96521742Y-87328831D01*
X96745431Y-87389808D01*
X96901179Y-87434939D01*
X97757937Y-87725838D01*
X98596787Y-88079826D01*
X99412750Y-88493502D01*
X100200846Y-88963468D01*
X100956096Y-89486324D01*
X101673520Y-90058670D01*
X102348140Y-90677106D01*
X102974976Y-91338234D01*
X103443269Y-91901433D01*
X103994092Y-92658115D01*
X104483296Y-93441593D01*
X104911333Y-94252947D01*
X105278652Y-95093256D01*
X105585702Y-95963602D01*
X105832935Y-96865062D01*
X106020799Y-97798717D01*
X106089048Y-98251433D01*
X106113029Y-98480197D01*
X106131659Y-98762927D01*
X106144937Y-99086066D01*
X106152863Y-99436058D01*
X106155436Y-99799347D01*
X106152658Y-100162377D01*
X106144528Y-100511593D01*
X106131046Y-100833437D01*
X106112211Y-101114354D01*
X106089048Y-101333300D01*
X105930841Y-102274475D01*
X105715213Y-103182724D01*
X105442612Y-104056557D01*
X105113485Y-104894487D01*
X104842802Y-105472662D01*
X104777711Y-105599036D01*
X104731248Y-105675338D01*
X104693196Y-105712781D01*
X104653338Y-105722578D01*
X104618410Y-105718911D01*
X104215980Y-105662957D01*
X103865828Y-105638611D01*
X103559477Y-105647536D01*
X103288451Y-105691394D01*
X103044271Y-105771847D01*
X102818463Y-105890557D01*
X102602550Y-106049187D01*
X102507665Y-106132829D01*
X102290131Y-106362705D01*
X102126450Y-106605934D01*
X102003130Y-106883142D01*
X101987604Y-106927962D01*
X101906711Y-107223267D01*
X101872578Y-107499660D01*
X101886516Y-107770824D01*
X101949837Y-108050440D01*
X102063852Y-108352187D01*
X102139677Y-108514411D01*
X102337985Y-108917352D01*
X101992276Y-109239286D01*
X101323730Y-109816804D01*
X100606871Y-110350865D01*
X99847980Y-110838103D01*
X99053341Y-111275148D01*
X98229237Y-111658634D01*
X97381948Y-111985192D01*
X96517759Y-112251454D01*
X96239528Y-112323164D01*
X95792844Y-112427452D01*
X95380135Y-112511242D01*
X94984783Y-112576561D01*
X94590172Y-112625437D01*
X94179684Y-112659895D01*
X93736702Y-112681964D01*
X93244607Y-112693670D01*
X93196833Y-112694291D01*
X92941639Y-112696886D01*
X92703305Y-112698327D01*
X92491769Y-112698630D01*
X92316971Y-112697811D01*
X92188848Y-112695889D01*
X92117340Y-112692879D01*
X92113099Y-112692453D01*
X92031287Y-112683763D01*
X91901276Y-112670751D01*
X91742314Y-112655317D01*
X91605099Y-112642302D01*
X90974918Y-112562898D01*
X90314067Y-112442054D01*
X89641358Y-112284579D01*
X88975604Y-112095286D01*
X88335617Y-111878985D01*
X87816055Y-111673272D01*
X87051927Y-111317629D01*
X86306513Y-110912947D01*
X85590120Y-110465871D01*
X84913057Y-109983048D01*
X84285629Y-109471123D01*
X84002033Y-109214113D01*
X83764966Y-108991417D01*
X83944967Y-108649530D01*
X84068937Y-108403108D01*
X84158856Y-108195463D01*
X84220140Y-108010326D01*
X84258208Y-107831428D01*
X84278010Y-107649433D01*
X84271427Y-107288540D01*
X84200859Y-106949786D01*
X84066557Y-106633839D01*
X83868776Y-106341364D01*
X83717398Y-106175094D01*
X83499361Y-105978465D01*
X83281759Y-105826311D01*
X83054864Y-105716147D01*
X82808946Y-105645485D01*
X82534275Y-105611838D01*
X82221124Y-105612720D01*
X81859763Y-105645644D01*
X81719363Y-105664381D01*
X81299359Y-105724209D01*
X81104096Y-105315221D01*
X80748714Y-104504695D01*
X80716711Y-104415807D01*
X85464491Y-104415807D01*
X85494907Y-104693115D01*
X85575326Y-104982901D01*
X85698673Y-105261182D01*
X85730720Y-105318226D01*
X85923560Y-105582676D01*
X86167036Y-105812085D01*
X86449836Y-105998802D01*
X86760648Y-106135178D01*
X87044841Y-106206891D01*
X87097027Y-106210033D01*
X87213358Y-106213126D01*
X87390247Y-106216151D01*
X87624107Y-106219087D01*
X87911348Y-106221915D01*
X88248385Y-106224615D01*
X88631627Y-106227167D01*
X89057489Y-106229552D01*
X89522382Y-106231750D01*
X90022719Y-106233741D01*
X90554911Y-106235505D01*
X91115371Y-106237024D01*
X91700512Y-106238276D01*
X92306745Y-106239243D01*
X92930482Y-106239904D01*
X93071261Y-106240007D01*
X93817882Y-106240463D01*
X94499817Y-106240757D01*
X95120110Y-106240866D01*
X95681808Y-106240764D01*
X96187957Y-106240429D01*
X96641602Y-106239834D01*
X97045791Y-106238956D01*
X97403569Y-106237770D01*
X97717981Y-106236252D01*
X97992074Y-106234377D01*
X98228894Y-106232120D01*
X98431487Y-106229458D01*
X98602899Y-106226366D01*
X98746176Y-106222819D01*
X98864364Y-106218792D01*
X98960509Y-106214263D01*
X99037657Y-106209205D01*
X99098853Y-106203594D01*
X99147145Y-106197407D01*
X99184194Y-106190900D01*
X99527421Y-106089279D01*
X99838801Y-105932755D01*
X100111716Y-105726158D01*
X100339547Y-105474312D01*
X100485807Y-105241777D01*
X100619460Y-104945116D01*
X100695054Y-104668256D01*
X100713606Y-104397869D01*
X100676136Y-104120628D01*
X100592450Y-103846421D01*
X100522293Y-103664136D01*
X100439838Y-103460449D01*
X100343960Y-103233011D01*
X100233536Y-102979472D01*
X100107441Y-102697481D01*
X99964551Y-102384689D01*
X99803742Y-102038745D01*
X99623890Y-101657301D01*
X99423871Y-101238006D01*
X99202560Y-100778509D01*
X98958834Y-100276462D01*
X98691568Y-99729515D01*
X98399638Y-99135316D01*
X98081921Y-98491517D01*
X97737291Y-97795768D01*
X97364626Y-97045718D01*
X96962799Y-96239018D01*
X96731872Y-95776172D01*
X96439976Y-95191466D01*
X96176674Y-94664220D01*
X95940320Y-94191286D01*
X95729265Y-93769515D01*
X95541862Y-93395761D01*
X95376463Y-93066876D01*
X95231420Y-92779712D01*
X95105085Y-92531123D01*
X94995810Y-92317960D01*
X94901949Y-92137075D01*
X94821852Y-91985322D01*
X94753872Y-91859553D01*
X94696361Y-91756620D01*
X94647672Y-91673375D01*
X94606156Y-91606672D01*
X94570166Y-91553363D01*
X94538054Y-91510299D01*
X94508173Y-91474334D01*
X94478873Y-91442321D01*
X94448509Y-91411110D01*
X94444589Y-91407141D01*
X94175214Y-91180088D01*
X93874436Y-91007663D01*
X93551251Y-90892036D01*
X93214658Y-90835374D01*
X92873654Y-90839845D01*
X92537238Y-90907619D01*
X92466790Y-90930523D01*
X92307775Y-90993795D01*
X92144418Y-91071503D01*
X92009956Y-91147729D01*
X92000569Y-91153865D01*
X91929182Y-91201658D01*
X91864441Y-91247473D01*
X91804016Y-91295273D01*
X91745578Y-91349024D01*
X91686799Y-91412689D01*
X91625350Y-91490233D01*
X91558900Y-91585620D01*
X91485122Y-91702816D01*
X91401687Y-91845784D01*
X91306265Y-92018490D01*
X91196527Y-92224898D01*
X91070145Y-92468971D01*
X90924789Y-92754676D01*
X90758130Y-93085976D01*
X90567840Y-93466835D01*
X90351589Y-93901219D01*
X90158777Y-94289033D01*
X89698338Y-95216076D01*
X89267698Y-96084804D01*
X88865886Y-96897242D01*
X88491931Y-97655417D01*
X88144862Y-98361353D01*
X87823709Y-99017078D01*
X87527502Y-99624617D01*
X87255269Y-100185995D01*
X87006040Y-100703239D01*
X86778845Y-101178375D01*
X86572712Y-101613428D01*
X86386672Y-102010424D01*
X86219752Y-102371389D01*
X86070984Y-102698349D01*
X85939396Y-102993330D01*
X85824017Y-103258358D01*
X85723877Y-103495458D01*
X85638006Y-103706656D01*
X85599191Y-103805567D01*
X85535968Y-103975132D01*
X85495651Y-104104105D01*
X85473549Y-104213748D01*
X85464968Y-104325324D01*
X85464491Y-104415807D01*
X80716711Y-104415807D01*
X80454154Y-103686581D01*
X80217372Y-102850503D01*
X80035324Y-101986087D01*
X79935513Y-101333300D01*
X79917586Y-101162641D01*
X79900668Y-100939565D01*
X79885620Y-100679386D01*
X79873302Y-100397419D01*
X79864575Y-100108979D01*
X79863226Y-100046366D01*
X79861949Y-99405795D01*
X79886079Y-98810072D01*
X79937659Y-98240470D01*
X80018735Y-97678261D01*
X80131352Y-97104715D01*
X80230092Y-96686273D01*
X80485191Y-95805252D01*
X80801287Y-94950470D01*
X81175936Y-94124443D01*
X81606695Y-93329682D01*
X82091119Y-92568701D01*
X82626763Y-91844013D01*
X83211184Y-91158132D01*
X83841938Y-90513570D01*
X84516581Y-89912841D01*
X85232667Y-89358458D01*
X85987754Y-88852934D01*
X86779397Y-88398782D01*
X87605152Y-87998516D01*
X88462575Y-87654649D01*
X89268011Y-87392943D01*
X89433857Y-87347270D01*
X89632477Y-87296348D01*
X89852275Y-87242760D01*
X90081652Y-87189091D01*
X90309011Y-87137924D01*
X90522757Y-87091845D01*
X90711290Y-87053438D01*
X90863015Y-87025287D01*
X90966334Y-87009977D01*
X90995627Y-87007946D01*
X91031131Y-87037540D01*
G36*
X76163997Y-90839955D02*
X76459493Y-90842830D01*
X76712251Y-90847684D01*
X76927268Y-90854705D01*
X77109543Y-90864083D01*
X77264072Y-90876008D01*
X77395854Y-90890670D01*
X77509885Y-90908257D01*
X77611163Y-90928961D01*
X77704686Y-90952970D01*
X77762098Y-90969947D01*
X78055280Y-91094743D01*
X78311737Y-91274023D01*
X78525678Y-91502011D01*
X78691312Y-91772935D01*
X78773144Y-91977967D01*
X78818010Y-92167123D01*
X78849010Y-92401412D01*
X78865344Y-92659505D01*
X78866213Y-92920074D01*
X78850817Y-93161790D01*
X78824115Y-93337581D01*
X78724487Y-93676680D01*
X78578952Y-93966195D01*
X78386423Y-94207329D01*
X78145810Y-94401285D01*
X77856024Y-94549264D01*
X77668966Y-94613344D01*
X77625398Y-94624567D01*
X77573472Y-94634429D01*
X77508370Y-94643074D01*
X77425275Y-94650646D01*
X77319369Y-94657288D01*
X77185836Y-94663145D01*
X77019857Y-94668360D01*
X76816615Y-94673076D01*
X76571293Y-94677438D01*
X76279073Y-94681590D01*
X75935138Y-94685675D01*
X75534671Y-94689836D01*
X75072854Y-94694218D01*
X74908833Y-94695713D01*
X72351899Y-94718844D01*
X71962433Y-94804313D01*
X71482520Y-94936215D01*
X71054973Y-95110509D01*
X70678227Y-95328608D01*
X70350718Y-95591925D01*
X70070880Y-95901874D01*
X69837149Y-96259867D01*
X69647959Y-96667317D01*
X69537986Y-96993674D01*
X69444295Y-97395189D01*
X69382199Y-97836471D01*
X69351523Y-98301599D01*
X69352093Y-98774651D01*
X69383734Y-99239706D01*
X69446272Y-99680844D01*
X69539531Y-100082142D01*
X69573059Y-100191118D01*
X69747666Y-100624385D01*
X69971902Y-101011764D01*
X70244611Y-101352186D01*
X70564636Y-101644579D01*
X70930821Y-101887874D01*
X71342009Y-102081001D01*
X71758406Y-102213285D01*
X71866572Y-102240395D01*
X71966653Y-102263991D01*
X72064123Y-102284364D01*
X72164458Y-102301808D01*
X72273136Y-102316612D01*
X72395633Y-102329070D01*
X72537423Y-102339474D01*
X72703984Y-102348115D01*
X72900792Y-102355285D01*
X73133323Y-102361276D01*
X73407053Y-102366380D01*
X73727458Y-102370890D01*
X74100014Y-102375096D01*
X74530198Y-102379292D01*
X74942700Y-102383045D01*
X75418579Y-102387433D01*
X75831619Y-102391569D01*
X76186710Y-102395600D01*
X76488744Y-102399676D01*
X76742613Y-102403944D01*
X76953209Y-102408554D01*
X77125423Y-102413654D01*
X77264147Y-102419392D01*
X77374274Y-102425918D01*
X77460694Y-102433380D01*
X77528299Y-102441926D01*
X77581982Y-102451706D01*
X77626634Y-102462867D01*
X77633255Y-102464787D01*
X77961396Y-102588576D01*
X78235527Y-102751706D01*
X78458772Y-102957135D01*
X78634254Y-103207820D01*
X78765096Y-103506720D01*
X78779269Y-103550160D01*
X78809195Y-103654369D01*
X78829950Y-103754932D01*
X78843033Y-103867585D01*
X78849942Y-104008062D01*
X78852176Y-104192100D01*
X78851973Y-104313567D01*
X78850048Y-104521643D01*
X78845128Y-104678181D01*
X78835316Y-104799366D01*
X78818712Y-104901385D01*
X78793417Y-105000423D01*
X78758621Y-105109433D01*
X78626186Y-105414578D01*
X78449404Y-105669481D01*
X78225075Y-105877431D01*
X77950001Y-106041717D01*
X77783715Y-106111774D01*
X77567366Y-106192163D01*
X74891900Y-106197941D01*
X74355150Y-106198801D01*
X73881913Y-106198882D01*
X73467973Y-106198132D01*
X73109112Y-106196497D01*
X72801115Y-106193922D01*
X72539763Y-106190355D01*
X72320842Y-106185741D01*
X72140133Y-106180026D01*
X71993422Y-106173157D01*
X71876490Y-106165081D01*
X71810033Y-106158673D01*
X71057747Y-106050371D01*
X70356206Y-105897599D01*
X69704656Y-105699879D01*
X69102341Y-105456735D01*
X68548505Y-105167689D01*
X68042392Y-104832265D01*
X67583249Y-104449986D01*
X67170319Y-104020374D01*
X66802846Y-103542953D01*
X66480075Y-103017245D01*
X66311708Y-102687195D01*
X66064217Y-102094940D01*
X65861413Y-101454991D01*
X65703796Y-100770988D01*
X65591870Y-100046575D01*
X65526136Y-99285394D01*
X65507096Y-98491087D01*
X65535252Y-97667296D01*
X65565078Y-97269300D01*
X65653739Y-96549123D01*
X65789638Y-95863757D01*
X65971498Y-95216217D01*
X66198045Y-94609520D01*
X66468002Y-94046683D01*
X66780093Y-93530721D01*
X67133044Y-93064650D01*
X67513267Y-92663056D01*
X67940797Y-92296276D01*
X68400162Y-91973787D01*
X68895616Y-91693794D01*
X69431411Y-91454503D01*
X70011800Y-91254122D01*
X70641036Y-91090857D01*
X71323372Y-90962914D01*
X71657633Y-90915248D01*
X71755884Y-90903961D01*
X71868732Y-90894049D01*
X72001446Y-90885379D01*
X72159295Y-90877819D01*
X72347546Y-90871233D01*
X72571469Y-90865490D01*
X72836333Y-90860455D01*
X73147406Y-90855996D01*
X73509956Y-90851979D01*
X73929253Y-90848270D01*
X74410565Y-90844736D01*
X74454684Y-90844439D01*
X74971107Y-90841299D01*
X75424801Y-90839379D01*
X75820766Y-90838868D01*
X76163997Y-90839955D01*
X76163997Y-90839955D01*
G37*
X76163997Y-90839955D02*
X76459493Y-90842830D01*
X76712251Y-90847684D01*
X76927268Y-90854705D01*
X77109543Y-90864083D01*
X77264072Y-90876008D01*
X77395854Y-90890670D01*
X77509885Y-90908257D01*
X77611163Y-90928961D01*
X77704686Y-90952970D01*
X77762098Y-90969947D01*
X78055280Y-91094743D01*
X78311737Y-91274023D01*
X78525678Y-91502011D01*
X78691312Y-91772935D01*
X78773144Y-91977967D01*
X78818010Y-92167123D01*
X78849010Y-92401412D01*
X78865344Y-92659505D01*
X78866213Y-92920074D01*
X78850817Y-93161790D01*
X78824115Y-93337581D01*
X78724487Y-93676680D01*
X78578952Y-93966195D01*
X78386423Y-94207329D01*
X78145810Y-94401285D01*
X77856024Y-94549264D01*
X77668966Y-94613344D01*
X77625398Y-94624567D01*
X77573472Y-94634429D01*
X77508370Y-94643074D01*
X77425275Y-94650646D01*
X77319369Y-94657288D01*
X77185836Y-94663145D01*
X77019857Y-94668360D01*
X76816615Y-94673076D01*
X76571293Y-94677438D01*
X76279073Y-94681590D01*
X75935138Y-94685675D01*
X75534671Y-94689836D01*
X75072854Y-94694218D01*
X74908833Y-94695713D01*
X72351899Y-94718844D01*
X71962433Y-94804313D01*
X71482520Y-94936215D01*
X71054973Y-95110509D01*
X70678227Y-95328608D01*
X70350718Y-95591925D01*
X70070880Y-95901874D01*
X69837149Y-96259867D01*
X69647959Y-96667317D01*
X69537986Y-96993674D01*
X69444295Y-97395189D01*
X69382199Y-97836471D01*
X69351523Y-98301599D01*
X69352093Y-98774651D01*
X69383734Y-99239706D01*
X69446272Y-99680844D01*
X69539531Y-100082142D01*
X69573059Y-100191118D01*
X69747666Y-100624385D01*
X69971902Y-101011764D01*
X70244611Y-101352186D01*
X70564636Y-101644579D01*
X70930821Y-101887874D01*
X71342009Y-102081001D01*
X71758406Y-102213285D01*
X71866572Y-102240395D01*
X71966653Y-102263991D01*
X72064123Y-102284364D01*
X72164458Y-102301808D01*
X72273136Y-102316612D01*
X72395633Y-102329070D01*
X72537423Y-102339474D01*
X72703984Y-102348115D01*
X72900792Y-102355285D01*
X73133323Y-102361276D01*
X73407053Y-102366380D01*
X73727458Y-102370890D01*
X74100014Y-102375096D01*
X74530198Y-102379292D01*
X74942700Y-102383045D01*
X75418579Y-102387433D01*
X75831619Y-102391569D01*
X76186710Y-102395600D01*
X76488744Y-102399676D01*
X76742613Y-102403944D01*
X76953209Y-102408554D01*
X77125423Y-102413654D01*
X77264147Y-102419392D01*
X77374274Y-102425918D01*
X77460694Y-102433380D01*
X77528299Y-102441926D01*
X77581982Y-102451706D01*
X77626634Y-102462867D01*
X77633255Y-102464787D01*
X77961396Y-102588576D01*
X78235527Y-102751706D01*
X78458772Y-102957135D01*
X78634254Y-103207820D01*
X78765096Y-103506720D01*
X78779269Y-103550160D01*
X78809195Y-103654369D01*
X78829950Y-103754932D01*
X78843033Y-103867585D01*
X78849942Y-104008062D01*
X78852176Y-104192100D01*
X78851973Y-104313567D01*
X78850048Y-104521643D01*
X78845128Y-104678181D01*
X78835316Y-104799366D01*
X78818712Y-104901385D01*
X78793417Y-105000423D01*
X78758621Y-105109433D01*
X78626186Y-105414578D01*
X78449404Y-105669481D01*
X78225075Y-105877431D01*
X77950001Y-106041717D01*
X77783715Y-106111774D01*
X77567366Y-106192163D01*
X74891900Y-106197941D01*
X74355150Y-106198801D01*
X73881913Y-106198882D01*
X73467973Y-106198132D01*
X73109112Y-106196497D01*
X72801115Y-106193922D01*
X72539763Y-106190355D01*
X72320842Y-106185741D01*
X72140133Y-106180026D01*
X71993422Y-106173157D01*
X71876490Y-106165081D01*
X71810033Y-106158673D01*
X71057747Y-106050371D01*
X70356206Y-105897599D01*
X69704656Y-105699879D01*
X69102341Y-105456735D01*
X68548505Y-105167689D01*
X68042392Y-104832265D01*
X67583249Y-104449986D01*
X67170319Y-104020374D01*
X66802846Y-103542953D01*
X66480075Y-103017245D01*
X66311708Y-102687195D01*
X66064217Y-102094940D01*
X65861413Y-101454991D01*
X65703796Y-100770988D01*
X65591870Y-100046575D01*
X65526136Y-99285394D01*
X65507096Y-98491087D01*
X65535252Y-97667296D01*
X65565078Y-97269300D01*
X65653739Y-96549123D01*
X65789638Y-95863757D01*
X65971498Y-95216217D01*
X66198045Y-94609520D01*
X66468002Y-94046683D01*
X66780093Y-93530721D01*
X67133044Y-93064650D01*
X67513267Y-92663056D01*
X67940797Y-92296276D01*
X68400162Y-91973787D01*
X68895616Y-91693794D01*
X69431411Y-91454503D01*
X70011800Y-91254122D01*
X70641036Y-91090857D01*
X71323372Y-90962914D01*
X71657633Y-90915248D01*
X71755884Y-90903961D01*
X71868732Y-90894049D01*
X72001446Y-90885379D01*
X72159295Y-90877819D01*
X72347546Y-90871233D01*
X72571469Y-90865490D01*
X72836333Y-90860455D01*
X73147406Y-90855996D01*
X73509956Y-90851979D01*
X73929253Y-90848270D01*
X74410565Y-90844736D01*
X74454684Y-90844439D01*
X74971107Y-90841299D01*
X75424801Y-90839379D01*
X75820766Y-90838868D01*
X76163997Y-90839955D01*
G36*
X117851766Y-90930107D02*
X118341663Y-91065060D01*
X118801695Y-91248642D01*
X119238982Y-91485012D01*
X119660639Y-91778329D01*
X120073783Y-92132752D01*
X120312411Y-92368058D01*
X120676907Y-92778026D01*
X120979558Y-93194292D01*
X121226146Y-93626901D01*
X121422456Y-94085903D01*
X121564388Y-94543033D01*
X121614249Y-94788894D01*
X121650319Y-95081065D01*
X121671879Y-95399396D01*
X121678213Y-95723739D01*
X121668603Y-96033943D01*
X121642332Y-96309858D01*
X121630090Y-96388767D01*
X121511352Y-96899691D01*
X121335829Y-97385789D01*
X121101030Y-97851772D01*
X120804462Y-98302349D01*
X120443632Y-98742232D01*
X120307666Y-98888319D01*
X119894141Y-99280206D01*
X119462121Y-99613308D01*
X119016895Y-99883603D01*
X118958505Y-99913826D01*
X118819405Y-99986326D01*
X118706566Y-100048814D01*
X118631424Y-100094692D01*
X118605417Y-100117361D01*
X118605467Y-100117508D01*
X118629696Y-100145113D01*
X118696479Y-100217327D01*
X118801641Y-100329725D01*
X118941008Y-100477882D01*
X119110404Y-100657374D01*
X119305656Y-100863775D01*
X119522588Y-101092662D01*
X119757026Y-101339608D01*
X119947444Y-101539908D01*
X120197250Y-101803555D01*
X120436054Y-102057578D01*
X120659174Y-102296862D01*
X120861931Y-102516295D01*
X121039641Y-102710765D01*
X121187624Y-102875160D01*
X121301199Y-103004366D01*
X121375683Y-103093270D01*
X121401441Y-103127827D01*
X121534468Y-103368304D01*
X121626356Y-103621621D01*
X121682106Y-103905127D01*
X121704699Y-104180080D01*
X121697792Y-104588332D01*
X121641308Y-104954547D01*
X121536247Y-105277171D01*
X121383610Y-105554648D01*
X121184396Y-105785424D01*
X120939608Y-105967944D01*
X120650245Y-106100653D01*
X120429765Y-106161388D01*
X120238664Y-106189984D01*
X120012392Y-106205450D01*
X119773373Y-106207883D01*
X119544029Y-106197381D01*
X119346785Y-106174042D01*
X119262121Y-106156293D01*
X118952406Y-106047471D01*
X118631837Y-105880672D01*
X118311136Y-105662124D01*
X118076160Y-105467271D01*
X118034928Y-105422888D01*
X117954840Y-105329613D01*
X117839232Y-105191536D01*
X117691444Y-105012751D01*
X117514814Y-104797348D01*
X117312680Y-104549419D01*
X117088381Y-104273057D01*
X116845254Y-103972352D01*
X116586638Y-103651397D01*
X116315871Y-103314283D01*
X116112587Y-103060500D01*
X115830648Y-102708359D01*
X115555422Y-102365060D01*
X115290601Y-102035185D01*
X115039881Y-101723314D01*
X114806955Y-101434028D01*
X114595517Y-101171909D01*
X114409260Y-100941537D01*
X114251880Y-100747494D01*
X114127070Y-100594361D01*
X114038523Y-100486718D01*
X114003280Y-100444628D01*
X113738516Y-100117828D01*
X113526142Y-99819537D01*
X113362102Y-99540819D01*
X113242345Y-99272740D01*
X113162816Y-99006363D01*
X113119461Y-98732754D01*
X113108025Y-98471248D01*
X113131983Y-98076581D01*
X113202230Y-97730737D01*
X113319734Y-97432197D01*
X113485465Y-97179445D01*
X113700394Y-96970961D01*
X113965490Y-96805229D01*
X114244966Y-96692273D01*
X114314838Y-96671042D01*
X114385072Y-96653763D01*
X114464067Y-96639799D01*
X114560219Y-96628518D01*
X114681925Y-96619286D01*
X114837585Y-96611468D01*
X115035593Y-96604430D01*
X115284350Y-96597538D01*
X115592250Y-96590159D01*
X115599633Y-96589989D01*
X115947598Y-96581065D01*
X116234459Y-96571543D01*
X116466845Y-96561030D01*
X116651386Y-96549134D01*
X116794710Y-96535461D01*
X116903447Y-96519618D01*
X116950405Y-96509956D01*
X117245472Y-96421907D01*
X117479271Y-96308343D01*
X117654186Y-96166909D01*
X117772599Y-95995250D01*
X117836892Y-95791011D01*
X117851022Y-95619893D01*
X117827257Y-95388866D01*
X117751360Y-95198312D01*
X117619121Y-95041280D01*
X117426328Y-94910819D01*
X117419257Y-94907081D01*
X117345908Y-94869043D01*
X117277764Y-94836313D01*
X117209330Y-94808491D01*
X117135110Y-94785179D01*
X117049608Y-94765979D01*
X116947330Y-94750490D01*
X116822780Y-94738315D01*
X116670462Y-94729055D01*
X116484882Y-94722310D01*
X116260543Y-94717683D01*
X115991951Y-94714774D01*
X115673609Y-94713184D01*
X115300024Y-94712515D01*
X114865698Y-94712368D01*
X114736033Y-94712366D01*
X112619366Y-94712366D01*
X112446984Y-94803325D01*
X112254328Y-94936167D01*
X112093623Y-95107975D01*
X111997063Y-95268703D01*
X111989278Y-95290442D01*
X111982208Y-95322014D01*
X111975802Y-95366772D01*
X111970009Y-95428073D01*
X111964779Y-95509270D01*
X111960061Y-95613719D01*
X111955804Y-95744773D01*
X111951956Y-95905788D01*
X111948468Y-96100118D01*
X111945289Y-96331118D01*
X111942367Y-96602142D01*
X111939651Y-96916545D01*
X111937092Y-97277681D01*
X111934638Y-97688906D01*
X111932239Y-98153574D01*
X111929843Y-98675039D01*
X111927399Y-99256657D01*
X111924858Y-99901781D01*
X111924175Y-100080233D01*
X111921618Y-100740553D01*
X111919194Y-101336592D01*
X111916846Y-101871800D01*
X111914521Y-102349629D01*
X111912163Y-102773531D01*
X111909717Y-103146958D01*
X111907129Y-103473360D01*
X111904343Y-103756189D01*
X111901306Y-103998897D01*
X111897961Y-104204935D01*
X111894254Y-104377754D01*
X111890131Y-104520806D01*
X111885536Y-104637543D01*
X111880414Y-104731415D01*
X111874711Y-104805875D01*
X111868372Y-104864374D01*
X111861342Y-104910362D01*
X111853565Y-104947293D01*
X111846379Y-104973967D01*
X111721555Y-105306540D01*
X111558488Y-105583906D01*
X111354913Y-105808244D01*
X111108566Y-105981732D01*
X110817184Y-106106551D01*
X110614014Y-106160219D01*
X110411279Y-106190214D01*
X110169529Y-106205880D01*
X109910887Y-106207531D01*
X109657477Y-106195477D01*
X109431420Y-106170032D01*
X109289954Y-106141521D01*
X108973406Y-106030437D01*
X108706919Y-105875001D01*
X108488219Y-105672885D01*
X108315030Y-105421764D01*
X108185078Y-105119311D01*
X108140012Y-104965500D01*
X108132753Y-104934084D01*
X108126114Y-104896785D01*
X108120069Y-104850612D01*
X108114588Y-104792572D01*
X108109645Y-104719674D01*
X108105213Y-104628925D01*
X108101263Y-104517333D01*
X108097768Y-104381905D01*
X108094701Y-104219649D01*
X108092035Y-104027573D01*
X108089741Y-103802685D01*
X108087792Y-103541992D01*
X108086161Y-103242502D01*
X108084820Y-102901223D01*
X108083741Y-102515162D01*
X108082898Y-102081327D01*
X108082263Y-101596727D01*
X108081807Y-101058368D01*
X108081504Y-100463259D01*
X108081326Y-99808406D01*
X108081246Y-99090819D01*
X108081233Y-98573167D01*
X108081258Y-97812834D01*
X108081354Y-97117219D01*
X108081548Y-96483303D01*
X108081870Y-95908069D01*
X108082348Y-95388501D01*
X108083011Y-94921582D01*
X108083889Y-94504295D01*
X108085008Y-94133623D01*
X108086400Y-93806549D01*
X108088091Y-93520057D01*
X108090111Y-93271128D01*
X108092489Y-93056748D01*
X108095254Y-92873897D01*
X108098434Y-92719561D01*
X108102057Y-92590721D01*
X108106154Y-92484361D01*
X108110752Y-92397464D01*
X108115880Y-92327013D01*
X108121568Y-92269991D01*
X108127843Y-92223381D01*
X108134735Y-92184167D01*
X108142272Y-92149331D01*
X108142494Y-92148384D01*
X108244843Y-91822168D01*
X108388588Y-91547343D01*
X108577418Y-91320137D01*
X108815024Y-91136777D01*
X109105093Y-90993492D01*
X109351233Y-90912266D01*
X109387927Y-90903015D01*
X109429733Y-90894749D01*
X109480459Y-90887416D01*
X109543914Y-90880958D01*
X109623910Y-90875321D01*
X109724254Y-90870449D01*
X109848756Y-90866288D01*
X110001226Y-90862782D01*
X110185472Y-90859875D01*
X110405306Y-90857513D01*
X110664535Y-90855639D01*
X110966969Y-90854200D01*
X111316417Y-90853139D01*
X111716690Y-90852401D01*
X112171596Y-90851932D01*
X112684945Y-90851675D01*
X113260546Y-90851575D01*
X113533766Y-90851566D01*
X117496166Y-90851566D01*
X117851766Y-90930107D01*
X117851766Y-90930107D01*
G37*
X117851766Y-90930107D02*
X118341663Y-91065060D01*
X118801695Y-91248642D01*
X119238982Y-91485012D01*
X119660639Y-91778329D01*
X120073783Y-92132752D01*
X120312411Y-92368058D01*
X120676907Y-92778026D01*
X120979558Y-93194292D01*
X121226146Y-93626901D01*
X121422456Y-94085903D01*
X121564388Y-94543033D01*
X121614249Y-94788894D01*
X121650319Y-95081065D01*
X121671879Y-95399396D01*
X121678213Y-95723739D01*
X121668603Y-96033943D01*
X121642332Y-96309858D01*
X121630090Y-96388767D01*
X121511352Y-96899691D01*
X121335829Y-97385789D01*
X121101030Y-97851772D01*
X120804462Y-98302349D01*
X120443632Y-98742232D01*
X120307666Y-98888319D01*
X119894141Y-99280206D01*
X119462121Y-99613308D01*
X119016895Y-99883603D01*
X118958505Y-99913826D01*
X118819405Y-99986326D01*
X118706566Y-100048814D01*
X118631424Y-100094692D01*
X118605417Y-100117361D01*
X118605467Y-100117508D01*
X118629696Y-100145113D01*
X118696479Y-100217327D01*
X118801641Y-100329725D01*
X118941008Y-100477882D01*
X119110404Y-100657374D01*
X119305656Y-100863775D01*
X119522588Y-101092662D01*
X119757026Y-101339608D01*
X119947444Y-101539908D01*
X120197250Y-101803555D01*
X120436054Y-102057578D01*
X120659174Y-102296862D01*
X120861931Y-102516295D01*
X121039641Y-102710765D01*
X121187624Y-102875160D01*
X121301199Y-103004366D01*
X121375683Y-103093270D01*
X121401441Y-103127827D01*
X121534468Y-103368304D01*
X121626356Y-103621621D01*
X121682106Y-103905127D01*
X121704699Y-104180080D01*
X121697792Y-104588332D01*
X121641308Y-104954547D01*
X121536247Y-105277171D01*
X121383610Y-105554648D01*
X121184396Y-105785424D01*
X120939608Y-105967944D01*
X120650245Y-106100653D01*
X120429765Y-106161388D01*
X120238664Y-106189984D01*
X120012392Y-106205450D01*
X119773373Y-106207883D01*
X119544029Y-106197381D01*
X119346785Y-106174042D01*
X119262121Y-106156293D01*
X118952406Y-106047471D01*
X118631837Y-105880672D01*
X118311136Y-105662124D01*
X118076160Y-105467271D01*
X118034928Y-105422888D01*
X117954840Y-105329613D01*
X117839232Y-105191536D01*
X117691444Y-105012751D01*
X117514814Y-104797348D01*
X117312680Y-104549419D01*
X117088381Y-104273057D01*
X116845254Y-103972352D01*
X116586638Y-103651397D01*
X116315871Y-103314283D01*
X116112587Y-103060500D01*
X115830648Y-102708359D01*
X115555422Y-102365060D01*
X115290601Y-102035185D01*
X115039881Y-101723314D01*
X114806955Y-101434028D01*
X114595517Y-101171909D01*
X114409260Y-100941537D01*
X114251880Y-100747494D01*
X114127070Y-100594361D01*
X114038523Y-100486718D01*
X114003280Y-100444628D01*
X113738516Y-100117828D01*
X113526142Y-99819537D01*
X113362102Y-99540819D01*
X113242345Y-99272740D01*
X113162816Y-99006363D01*
X113119461Y-98732754D01*
X113108025Y-98471248D01*
X113131983Y-98076581D01*
X113202230Y-97730737D01*
X113319734Y-97432197D01*
X113485465Y-97179445D01*
X113700394Y-96970961D01*
X113965490Y-96805229D01*
X114244966Y-96692273D01*
X114314838Y-96671042D01*
X114385072Y-96653763D01*
X114464067Y-96639799D01*
X114560219Y-96628518D01*
X114681925Y-96619286D01*
X114837585Y-96611468D01*
X115035593Y-96604430D01*
X115284350Y-96597538D01*
X115592250Y-96590159D01*
X115599633Y-96589989D01*
X115947598Y-96581065D01*
X116234459Y-96571543D01*
X116466845Y-96561030D01*
X116651386Y-96549134D01*
X116794710Y-96535461D01*
X116903447Y-96519618D01*
X116950405Y-96509956D01*
X117245472Y-96421907D01*
X117479271Y-96308343D01*
X117654186Y-96166909D01*
X117772599Y-95995250D01*
X117836892Y-95791011D01*
X117851022Y-95619893D01*
X117827257Y-95388866D01*
X117751360Y-95198312D01*
X117619121Y-95041280D01*
X117426328Y-94910819D01*
X117419257Y-94907081D01*
X117345908Y-94869043D01*
X117277764Y-94836313D01*
X117209330Y-94808491D01*
X117135110Y-94785179D01*
X117049608Y-94765979D01*
X116947330Y-94750490D01*
X116822780Y-94738315D01*
X116670462Y-94729055D01*
X116484882Y-94722310D01*
X116260543Y-94717683D01*
X115991951Y-94714774D01*
X115673609Y-94713184D01*
X115300024Y-94712515D01*
X114865698Y-94712368D01*
X114736033Y-94712366D01*
X112619366Y-94712366D01*
X112446984Y-94803325D01*
X112254328Y-94936167D01*
X112093623Y-95107975D01*
X111997063Y-95268703D01*
X111989278Y-95290442D01*
X111982208Y-95322014D01*
X111975802Y-95366772D01*
X111970009Y-95428073D01*
X111964779Y-95509270D01*
X111960061Y-95613719D01*
X111955804Y-95744773D01*
X111951956Y-95905788D01*
X111948468Y-96100118D01*
X111945289Y-96331118D01*
X111942367Y-96602142D01*
X111939651Y-96916545D01*
X111937092Y-97277681D01*
X111934638Y-97688906D01*
X111932239Y-98153574D01*
X111929843Y-98675039D01*
X111927399Y-99256657D01*
X111924858Y-99901781D01*
X111924175Y-100080233D01*
X111921618Y-100740553D01*
X111919194Y-101336592D01*
X111916846Y-101871800D01*
X111914521Y-102349629D01*
X111912163Y-102773531D01*
X111909717Y-103146958D01*
X111907129Y-103473360D01*
X111904343Y-103756189D01*
X111901306Y-103998897D01*
X111897961Y-104204935D01*
X111894254Y-104377754D01*
X111890131Y-104520806D01*
X111885536Y-104637543D01*
X111880414Y-104731415D01*
X111874711Y-104805875D01*
X111868372Y-104864374D01*
X111861342Y-104910362D01*
X111853565Y-104947293D01*
X111846379Y-104973967D01*
X111721555Y-105306540D01*
X111558488Y-105583906D01*
X111354913Y-105808244D01*
X111108566Y-105981732D01*
X110817184Y-106106551D01*
X110614014Y-106160219D01*
X110411279Y-106190214D01*
X110169529Y-106205880D01*
X109910887Y-106207531D01*
X109657477Y-106195477D01*
X109431420Y-106170032D01*
X109289954Y-106141521D01*
X108973406Y-106030437D01*
X108706919Y-105875001D01*
X108488219Y-105672885D01*
X108315030Y-105421764D01*
X108185078Y-105119311D01*
X108140012Y-104965500D01*
X108132753Y-104934084D01*
X108126114Y-104896785D01*
X108120069Y-104850612D01*
X108114588Y-104792572D01*
X108109645Y-104719674D01*
X108105213Y-104628925D01*
X108101263Y-104517333D01*
X108097768Y-104381905D01*
X108094701Y-104219649D01*
X108092035Y-104027573D01*
X108089741Y-103802685D01*
X108087792Y-103541992D01*
X108086161Y-103242502D01*
X108084820Y-102901223D01*
X108083741Y-102515162D01*
X108082898Y-102081327D01*
X108082263Y-101596727D01*
X108081807Y-101058368D01*
X108081504Y-100463259D01*
X108081326Y-99808406D01*
X108081246Y-99090819D01*
X108081233Y-98573167D01*
X108081258Y-97812834D01*
X108081354Y-97117219D01*
X108081548Y-96483303D01*
X108081870Y-95908069D01*
X108082348Y-95388501D01*
X108083011Y-94921582D01*
X108083889Y-94504295D01*
X108085008Y-94133623D01*
X108086400Y-93806549D01*
X108088091Y-93520057D01*
X108090111Y-93271128D01*
X108092489Y-93056748D01*
X108095254Y-92873897D01*
X108098434Y-92719561D01*
X108102057Y-92590721D01*
X108106154Y-92484361D01*
X108110752Y-92397464D01*
X108115880Y-92327013D01*
X108121568Y-92269991D01*
X108127843Y-92223381D01*
X108134735Y-92184167D01*
X108142272Y-92149331D01*
X108142494Y-92148384D01*
X108244843Y-91822168D01*
X108388588Y-91547343D01*
X108577418Y-91320137D01*
X108815024Y-91136777D01*
X109105093Y-90993492D01*
X109351233Y-90912266D01*
X109387927Y-90903015D01*
X109429733Y-90894749D01*
X109480459Y-90887416D01*
X109543914Y-90880958D01*
X109623910Y-90875321D01*
X109724254Y-90870449D01*
X109848756Y-90866288D01*
X110001226Y-90862782D01*
X110185472Y-90859875D01*
X110405306Y-90857513D01*
X110664535Y-90855639D01*
X110966969Y-90854200D01*
X111316417Y-90853139D01*
X111716690Y-90852401D01*
X112171596Y-90851932D01*
X112684945Y-90851675D01*
X113260546Y-90851575D01*
X113533766Y-90851566D01*
X117496166Y-90851566D01*
X117851766Y-90930107D01*
G36*
X128122454Y-90838835D02*
X128694385Y-90839358D01*
X129325007Y-90840123D01*
X130017338Y-90841109D01*
X130771899Y-90842289D01*
X131523444Y-90843510D01*
X132210288Y-90844665D01*
X132835462Y-90845793D01*
X133401999Y-90846932D01*
X133912930Y-90848121D01*
X134371288Y-90849399D01*
X134780104Y-90850803D01*
X135142410Y-90852374D01*
X135461238Y-90854148D01*
X135739620Y-90856165D01*
X135980588Y-90858463D01*
X136187174Y-90861081D01*
X136362410Y-90864058D01*
X136509327Y-90867432D01*
X136630959Y-90871241D01*
X136730335Y-90875525D01*
X136810490Y-90880321D01*
X136874453Y-90885669D01*
X136925258Y-90891607D01*
X136965937Y-90898173D01*
X136999520Y-90905407D01*
X137029041Y-90913346D01*
X137057531Y-90922029D01*
X137058326Y-90922278D01*
X137370184Y-91049880D01*
X137631398Y-91221267D01*
X137840950Y-91435600D01*
X137997818Y-91692045D01*
X137997973Y-91692376D01*
X138071301Y-91862566D01*
X138123770Y-92023268D01*
X138158354Y-92191433D01*
X138178022Y-92384010D01*
X138185746Y-92617952D01*
X138186011Y-92765033D01*
X138183539Y-92969773D01*
X138177329Y-93124169D01*
X138165318Y-93245591D01*
X138145442Y-93351408D01*
X138115640Y-93458990D01*
X138096540Y-93518361D01*
X137963788Y-93835418D01*
X137791332Y-94098788D01*
X137575202Y-94312321D01*
X137311430Y-94479869D01*
X136996045Y-94605285D01*
X136967655Y-94613853D01*
X136915317Y-94627421D01*
X136853443Y-94639007D01*
X136776012Y-94648857D01*
X136677000Y-94657215D01*
X136550386Y-94664325D01*
X136390148Y-94670432D01*
X136190262Y-94675781D01*
X135944708Y-94680615D01*
X135647461Y-94685180D01*
X135292501Y-94689720D01*
X135022166Y-94692838D01*
X133278033Y-94712366D01*
X133104031Y-94804146D01*
X132979091Y-94884785D01*
X132858026Y-94986091D01*
X132809536Y-95036694D01*
X132777633Y-95072577D01*
X132748875Y-95104223D01*
X132723099Y-95135139D01*
X132700143Y-95168834D01*
X132679843Y-95208817D01*
X132662037Y-95258597D01*
X132646562Y-95321683D01*
X132633255Y-95401583D01*
X132621954Y-95501806D01*
X132612495Y-95625861D01*
X132604716Y-95777256D01*
X132598454Y-95959501D01*
X132593547Y-96176103D01*
X132589831Y-96430572D01*
X132587144Y-96726417D01*
X132585323Y-97067146D01*
X132584205Y-97456268D01*
X132583627Y-97897291D01*
X132583427Y-98393725D01*
X132583441Y-98949078D01*
X132583508Y-99566858D01*
X132583509Y-99908466D01*
X132583218Y-100530030D01*
X132582433Y-101120186D01*
X132581177Y-101675749D01*
X132579471Y-102193533D01*
X132577340Y-102670355D01*
X132574803Y-103103029D01*
X132571885Y-103488369D01*
X132568608Y-103823192D01*
X132564993Y-104104311D01*
X132561064Y-104328543D01*
X132556842Y-104492702D01*
X132552350Y-104593602D01*
X132550459Y-104615743D01*
X132481226Y-104985362D01*
X132364218Y-105308102D01*
X132199996Y-105583206D01*
X131989123Y-105809919D01*
X131732159Y-105987483D01*
X131440433Y-106111714D01*
X131254644Y-106155322D01*
X131022608Y-106185496D01*
X130764551Y-106201805D01*
X130500698Y-106203819D01*
X130251275Y-106191105D01*
X130036509Y-106163232D01*
X129948621Y-106143525D01*
X129628303Y-106029449D01*
X129360438Y-105873182D01*
X129142601Y-105672233D01*
X128972368Y-105424114D01*
X128847315Y-105126338D01*
X128803252Y-104967659D01*
X128795410Y-104929946D01*
X128788327Y-104883350D01*
X128781960Y-104824417D01*
X128776269Y-104749695D01*
X128771210Y-104655732D01*
X128766743Y-104539076D01*
X128762825Y-104396275D01*
X128759414Y-104223875D01*
X128756469Y-104018426D01*
X128753947Y-103776475D01*
X128751807Y-103494569D01*
X128750007Y-103169257D01*
X128748505Y-102797085D01*
X128747259Y-102374602D01*
X128746228Y-101898356D01*
X128745369Y-101364894D01*
X128744640Y-100770764D01*
X128744000Y-100112514D01*
X128743972Y-100080233D01*
X128743349Y-99422058D01*
X128742662Y-98828224D01*
X128741868Y-98295340D01*
X128740923Y-97820014D01*
X128739784Y-97398855D01*
X128738409Y-97028470D01*
X128736754Y-96705469D01*
X128734775Y-96426459D01*
X128732431Y-96188048D01*
X128729677Y-95986846D01*
X128726472Y-95819460D01*
X128722771Y-95682498D01*
X128718531Y-95572570D01*
X128713710Y-95486282D01*
X128708264Y-95420244D01*
X128702151Y-95371064D01*
X128695327Y-95335350D01*
X128687748Y-95309710D01*
X128683215Y-95298612D01*
X128589807Y-95146222D01*
X128455409Y-94992897D01*
X128302421Y-94861572D01*
X128186806Y-94790251D01*
X128150847Y-94773062D01*
X128114656Y-94758543D01*
X128072353Y-94746399D01*
X128018058Y-94736336D01*
X127945888Y-94728060D01*
X127849965Y-94721277D01*
X127724407Y-94715691D01*
X127563333Y-94711009D01*
X127360863Y-94706937D01*
X127111117Y-94703179D01*
X126808213Y-94699441D01*
X126446270Y-94695430D01*
X126250699Y-94693330D01*
X125852382Y-94688881D01*
X125515861Y-94684605D01*
X125235200Y-94680260D01*
X125004462Y-94675605D01*
X124817711Y-94670398D01*
X124669012Y-94664398D01*
X124552428Y-94657362D01*
X124462023Y-94649050D01*
X124391861Y-94639218D01*
X124336005Y-94627627D01*
X124288520Y-94614033D01*
X124286433Y-94613353D01*
X123968986Y-94481758D01*
X123705779Y-94310823D01*
X123493597Y-94097074D01*
X123329223Y-93837037D01*
X123209440Y-93527240D01*
X123180511Y-93419126D01*
X123148462Y-93232184D01*
X123129476Y-93003507D01*
X123123542Y-92755058D01*
X123130650Y-92508801D01*
X123150792Y-92286698D01*
X123181083Y-92121567D01*
X123296167Y-91790147D01*
X123458359Y-91507390D01*
X123667548Y-91273404D01*
X123923622Y-91088297D01*
X124226470Y-90952178D01*
X124455766Y-90888377D01*
X124491570Y-90881409D01*
X124534773Y-90875059D01*
X124588393Y-90869303D01*
X124655448Y-90864119D01*
X124738953Y-90859487D01*
X124841927Y-90855383D01*
X124967387Y-90851786D01*
X125118349Y-90848673D01*
X125297830Y-90846023D01*
X125508849Y-90843814D01*
X125754422Y-90842023D01*
X126037566Y-90840628D01*
X126361298Y-90839609D01*
X126728636Y-90838941D01*
X127142596Y-90838605D01*
X127606197Y-90838577D01*
X128122454Y-90838835D01*
X128122454Y-90838835D01*
G37*
X128122454Y-90838835D02*
X128694385Y-90839358D01*
X129325007Y-90840123D01*
X130017338Y-90841109D01*
X130771899Y-90842289D01*
X131523444Y-90843510D01*
X132210288Y-90844665D01*
X132835462Y-90845793D01*
X133401999Y-90846932D01*
X133912930Y-90848121D01*
X134371288Y-90849399D01*
X134780104Y-90850803D01*
X135142410Y-90852374D01*
X135461238Y-90854148D01*
X135739620Y-90856165D01*
X135980588Y-90858463D01*
X136187174Y-90861081D01*
X136362410Y-90864058D01*
X136509327Y-90867432D01*
X136630959Y-90871241D01*
X136730335Y-90875525D01*
X136810490Y-90880321D01*
X136874453Y-90885669D01*
X136925258Y-90891607D01*
X136965937Y-90898173D01*
X136999520Y-90905407D01*
X137029041Y-90913346D01*
X137057531Y-90922029D01*
X137058326Y-90922278D01*
X137370184Y-91049880D01*
X137631398Y-91221267D01*
X137840950Y-91435600D01*
X137997818Y-91692045D01*
X137997973Y-91692376D01*
X138071301Y-91862566D01*
X138123770Y-92023268D01*
X138158354Y-92191433D01*
X138178022Y-92384010D01*
X138185746Y-92617952D01*
X138186011Y-92765033D01*
X138183539Y-92969773D01*
X138177329Y-93124169D01*
X138165318Y-93245591D01*
X138145442Y-93351408D01*
X138115640Y-93458990D01*
X138096540Y-93518361D01*
X137963788Y-93835418D01*
X137791332Y-94098788D01*
X137575202Y-94312321D01*
X137311430Y-94479869D01*
X136996045Y-94605285D01*
X136967655Y-94613853D01*
X136915317Y-94627421D01*
X136853443Y-94639007D01*
X136776012Y-94648857D01*
X136677000Y-94657215D01*
X136550386Y-94664325D01*
X136390148Y-94670432D01*
X136190262Y-94675781D01*
X135944708Y-94680615D01*
X135647461Y-94685180D01*
X135292501Y-94689720D01*
X135022166Y-94692838D01*
X133278033Y-94712366D01*
X133104031Y-94804146D01*
X132979091Y-94884785D01*
X132858026Y-94986091D01*
X132809536Y-95036694D01*
X132777633Y-95072577D01*
X132748875Y-95104223D01*
X132723099Y-95135139D01*
X132700143Y-95168834D01*
X132679843Y-95208817D01*
X132662037Y-95258597D01*
X132646562Y-95321683D01*
X132633255Y-95401583D01*
X132621954Y-95501806D01*
X132612495Y-95625861D01*
X132604716Y-95777256D01*
X132598454Y-95959501D01*
X132593547Y-96176103D01*
X132589831Y-96430572D01*
X132587144Y-96726417D01*
X132585323Y-97067146D01*
X132584205Y-97456268D01*
X132583627Y-97897291D01*
X132583427Y-98393725D01*
X132583441Y-98949078D01*
X132583508Y-99566858D01*
X132583509Y-99908466D01*
X132583218Y-100530030D01*
X132582433Y-101120186D01*
X132581177Y-101675749D01*
X132579471Y-102193533D01*
X132577340Y-102670355D01*
X132574803Y-103103029D01*
X132571885Y-103488369D01*
X132568608Y-103823192D01*
X132564993Y-104104311D01*
X132561064Y-104328543D01*
X132556842Y-104492702D01*
X132552350Y-104593602D01*
X132550459Y-104615743D01*
X132481226Y-104985362D01*
X132364218Y-105308102D01*
X132199996Y-105583206D01*
X131989123Y-105809919D01*
X131732159Y-105987483D01*
X131440433Y-106111714D01*
X131254644Y-106155322D01*
X131022608Y-106185496D01*
X130764551Y-106201805D01*
X130500698Y-106203819D01*
X130251275Y-106191105D01*
X130036509Y-106163232D01*
X129948621Y-106143525D01*
X129628303Y-106029449D01*
X129360438Y-105873182D01*
X129142601Y-105672233D01*
X128972368Y-105424114D01*
X128847315Y-105126338D01*
X128803252Y-104967659D01*
X128795410Y-104929946D01*
X128788327Y-104883350D01*
X128781960Y-104824417D01*
X128776269Y-104749695D01*
X128771210Y-104655732D01*
X128766743Y-104539076D01*
X128762825Y-104396275D01*
X128759414Y-104223875D01*
X128756469Y-104018426D01*
X128753947Y-103776475D01*
X128751807Y-103494569D01*
X128750007Y-103169257D01*
X128748505Y-102797085D01*
X128747259Y-102374602D01*
X128746228Y-101898356D01*
X128745369Y-101364894D01*
X128744640Y-100770764D01*
X128744000Y-100112514D01*
X128743972Y-100080233D01*
X128743349Y-99422058D01*
X128742662Y-98828224D01*
X128741868Y-98295340D01*
X128740923Y-97820014D01*
X128739784Y-97398855D01*
X128738409Y-97028470D01*
X128736754Y-96705469D01*
X128734775Y-96426459D01*
X128732431Y-96188048D01*
X128729677Y-95986846D01*
X128726472Y-95819460D01*
X128722771Y-95682498D01*
X128718531Y-95572570D01*
X128713710Y-95486282D01*
X128708264Y-95420244D01*
X128702151Y-95371064D01*
X128695327Y-95335350D01*
X128687748Y-95309710D01*
X128683215Y-95298612D01*
X128589807Y-95146222D01*
X128455409Y-94992897D01*
X128302421Y-94861572D01*
X128186806Y-94790251D01*
X128150847Y-94773062D01*
X128114656Y-94758543D01*
X128072353Y-94746399D01*
X128018058Y-94736336D01*
X127945888Y-94728060D01*
X127849965Y-94721277D01*
X127724407Y-94715691D01*
X127563333Y-94711009D01*
X127360863Y-94706937D01*
X127111117Y-94703179D01*
X126808213Y-94699441D01*
X126446270Y-94695430D01*
X126250699Y-94693330D01*
X125852382Y-94688881D01*
X125515861Y-94684605D01*
X125235200Y-94680260D01*
X125004462Y-94675605D01*
X124817711Y-94670398D01*
X124669012Y-94664398D01*
X124552428Y-94657362D01*
X124462023Y-94649050D01*
X124391861Y-94639218D01*
X124336005Y-94627627D01*
X124288520Y-94614033D01*
X124286433Y-94613353D01*
X123968986Y-94481758D01*
X123705779Y-94310823D01*
X123493597Y-94097074D01*
X123329223Y-93837037D01*
X123209440Y-93527240D01*
X123180511Y-93419126D01*
X123148462Y-93232184D01*
X123129476Y-93003507D01*
X123123542Y-92755058D01*
X123130650Y-92508801D01*
X123150792Y-92286698D01*
X123181083Y-92121567D01*
X123296167Y-91790147D01*
X123458359Y-91507390D01*
X123667548Y-91273404D01*
X123923622Y-91088297D01*
X124226470Y-90952178D01*
X124455766Y-90888377D01*
X124491570Y-90881409D01*
X124534773Y-90875059D01*
X124588393Y-90869303D01*
X124655448Y-90864119D01*
X124738953Y-90859487D01*
X124841927Y-90855383D01*
X124967387Y-90851786D01*
X125118349Y-90848673D01*
X125297830Y-90846023D01*
X125508849Y-90843814D01*
X125754422Y-90842023D01*
X126037566Y-90840628D01*
X126361298Y-90839609D01*
X126728636Y-90838941D01*
X127142596Y-90838605D01*
X127606197Y-90838577D01*
X128122454Y-90838835D01*
G36*
X147085549Y-90936257D02*
X147688523Y-90936360D01*
X148230680Y-90936585D01*
X148715476Y-90936977D01*
X149146371Y-90937582D01*
X149526821Y-90938445D01*
X149860285Y-90939609D01*
X150150220Y-90941119D01*
X150400085Y-90943021D01*
X150613336Y-90945360D01*
X150793432Y-90948179D01*
X150943831Y-90951524D01*
X151067991Y-90955439D01*
X151169369Y-90959969D01*
X151251423Y-90965160D01*
X151317611Y-90971055D01*
X151371391Y-90977699D01*
X151416220Y-90985138D01*
X151455557Y-90993415D01*
X151490141Y-91001880D01*
X151722972Y-91071924D01*
X151910953Y-91155639D01*
X152076953Y-91265097D01*
X152214720Y-91384433D01*
X152364939Y-91542729D01*
X152478978Y-91705683D01*
X152570280Y-91895639D01*
X152637759Y-92087700D01*
X152670061Y-92199316D01*
X152692388Y-92304041D01*
X152706477Y-92418567D01*
X152714066Y-92559586D01*
X152716891Y-92743788D01*
X152717067Y-92849700D01*
X152712674Y-93112183D01*
X152697810Y-93324213D01*
X152669201Y-93502685D01*
X152623574Y-93664496D01*
X152557653Y-93826540D01*
X152507871Y-93929187D01*
X152394796Y-94106954D01*
X152242712Y-94284017D01*
X152072696Y-94438369D01*
X151924523Y-94538191D01*
X151806386Y-94592805D01*
X151654117Y-94650226D01*
X151499676Y-94698454D01*
X151492357Y-94700440D01*
X151445929Y-94712439D01*
X151398355Y-94723078D01*
X151345269Y-94732485D01*
X151282304Y-94740789D01*
X151205092Y-94748120D01*
X151109268Y-94754605D01*
X150990464Y-94760374D01*
X150844313Y-94765556D01*
X150666450Y-94770279D01*
X150452506Y-94774672D01*
X150198115Y-94778864D01*
X149898911Y-94782984D01*
X149550526Y-94787160D01*
X149148595Y-94791522D01*
X148688749Y-94796198D01*
X148166623Y-94801317D01*
X148026966Y-94802670D01*
X147467151Y-94807987D01*
X146970920Y-94812700D01*
X146534130Y-94817171D01*
X146152638Y-94821760D01*
X145822301Y-94826827D01*
X145538977Y-94832733D01*
X145298523Y-94839839D01*
X145096795Y-94848504D01*
X144929652Y-94859090D01*
X144792950Y-94871957D01*
X144682546Y-94887466D01*
X144594298Y-94905977D01*
X144524064Y-94927850D01*
X144467699Y-94953446D01*
X144421062Y-94983127D01*
X144380009Y-95017251D01*
X144340399Y-95056180D01*
X144298087Y-95100275D01*
X144269365Y-95129677D01*
X144152374Y-95258122D01*
X144075352Y-95373916D01*
X144022035Y-95502164D01*
X144016172Y-95520496D01*
X143971301Y-95771081D01*
X143990112Y-96016073D01*
X144068656Y-96246110D01*
X144202988Y-96451830D01*
X144389160Y-96623870D01*
X144514199Y-96701804D01*
X144547281Y-96718827D01*
X144581387Y-96733189D01*
X144622419Y-96745189D01*
X144676280Y-96755129D01*
X144748871Y-96763308D01*
X144846094Y-96770029D01*
X144973852Y-96775592D01*
X145138047Y-96780297D01*
X145344580Y-96784446D01*
X145599354Y-96788338D01*
X145908270Y-96792275D01*
X146277231Y-96796557D01*
X146401366Y-96797964D01*
X146802751Y-96802778D01*
X147142191Y-96807543D01*
X147425474Y-96812482D01*
X147658386Y-96817818D01*
X147846716Y-96823773D01*
X147996251Y-96830572D01*
X148112779Y-96838436D01*
X148202087Y-96847589D01*
X148269962Y-96858254D01*
X148322193Y-96870653D01*
X148327315Y-96872158D01*
X148640025Y-96994246D01*
X148901189Y-97158337D01*
X149111573Y-97365580D01*
X149271942Y-97617124D01*
X149383063Y-97914117D01*
X149445701Y-98257710D01*
X149461426Y-98573167D01*
X149438607Y-98953917D01*
X149369275Y-99286174D01*
X149252118Y-99571889D01*
X149085822Y-99813015D01*
X148869075Y-100011502D01*
X148600564Y-100169303D01*
X148315007Y-100277712D01*
X148264672Y-100289778D01*
X148195178Y-100300218D01*
X148100962Y-100309239D01*
X147976463Y-100317047D01*
X147816119Y-100323848D01*
X147614368Y-100329849D01*
X147365648Y-100335255D01*
X147064398Y-100340273D01*
X146705056Y-100345109D01*
X146401366Y-100348659D01*
X146013112Y-100353040D01*
X145686686Y-100356995D01*
X145416185Y-100360823D01*
X145195708Y-100364824D01*
X145019353Y-100369299D01*
X144881217Y-100374546D01*
X144775398Y-100380866D01*
X144695996Y-100388559D01*
X144637107Y-100397924D01*
X144592830Y-100409262D01*
X144557263Y-100422871D01*
X144524503Y-100439053D01*
X144514199Y-100444529D01*
X144300799Y-100593691D01*
X144137036Y-100781760D01*
X144026855Y-100999374D01*
X143974205Y-101237170D01*
X143983033Y-101485786D01*
X144016172Y-101625837D01*
X144067654Y-101757441D01*
X144140788Y-101873422D01*
X144251839Y-101998886D01*
X144269365Y-102016656D01*
X144315363Y-102064091D01*
X144356141Y-102106139D01*
X144395841Y-102143159D01*
X144438606Y-102175514D01*
X144488580Y-102203563D01*
X144549905Y-102227668D01*
X144626725Y-102248189D01*
X144723182Y-102265487D01*
X144843420Y-102279924D01*
X144991582Y-102291860D01*
X145171810Y-102301655D01*
X145388248Y-102309671D01*
X145645040Y-102316269D01*
X145946327Y-102321809D01*
X146296253Y-102326653D01*
X146698961Y-102331160D01*
X147158594Y-102335693D01*
X147679295Y-102340611D01*
X148026966Y-102343939D01*
X148565263Y-102349201D01*
X149040196Y-102353987D01*
X149456131Y-102358428D01*
X149817437Y-102362650D01*
X150128480Y-102366784D01*
X150393627Y-102370957D01*
X150617244Y-102375298D01*
X150803698Y-102379936D01*
X150957358Y-102385000D01*
X151082588Y-102390618D01*
X151183756Y-102396920D01*
X151265230Y-102404033D01*
X151331375Y-102412086D01*
X151386559Y-102421209D01*
X151435149Y-102431530D01*
X151481511Y-102443177D01*
X151492357Y-102446067D01*
X151646068Y-102493426D01*
X151799229Y-102550612D01*
X151919869Y-102605636D01*
X151924523Y-102608142D01*
X152092851Y-102724153D01*
X152261856Y-102882302D01*
X152410461Y-103060585D01*
X152507871Y-103217146D01*
X152587312Y-103387264D01*
X152644526Y-103547170D01*
X152682789Y-103713760D01*
X152705372Y-103903932D01*
X152715553Y-104134580D01*
X152717067Y-104296633D01*
X152715877Y-104506817D01*
X152710737Y-104665994D01*
X152699911Y-104790858D01*
X152681661Y-104898098D01*
X152654249Y-105004407D01*
X152637759Y-105058633D01*
X152554005Y-105289970D01*
X152458161Y-105476200D01*
X152337130Y-105639942D01*
X152242545Y-105741243D01*
X152043787Y-105908084D01*
X151816188Y-106034849D01*
X151543251Y-106130409D01*
X151495406Y-106143107D01*
X151457705Y-106152371D01*
X151418368Y-106160738D01*
X151373941Y-106168252D01*
X151320966Y-106174956D01*
X151255987Y-106180896D01*
X151175548Y-106186114D01*
X151076192Y-106190657D01*
X150954463Y-106194567D01*
X150806904Y-106197889D01*
X150630059Y-106200667D01*
X150420471Y-106202946D01*
X150174685Y-106204769D01*
X149889243Y-106206182D01*
X149560689Y-106207227D01*
X149185568Y-106207949D01*
X148760422Y-106208393D01*
X148281795Y-106208603D01*
X147746230Y-106208622D01*
X147150272Y-106208496D01*
X146490463Y-106208268D01*
X146404415Y-106208235D01*
X145735969Y-106207951D01*
X145131810Y-106207610D01*
X144588494Y-106207168D01*
X144102576Y-106206578D01*
X143670611Y-106205796D01*
X143289154Y-106204776D01*
X142954759Y-106203473D01*
X142663981Y-106201842D01*
X142413375Y-106199838D01*
X142199497Y-106197414D01*
X142018900Y-106194527D01*
X141868140Y-106191130D01*
X141743771Y-106187179D01*
X141642349Y-106182628D01*
X141560428Y-106177432D01*
X141494564Y-106171545D01*
X141441310Y-106164923D01*
X141397222Y-106157519D01*
X141358854Y-106149290D01*
X141327821Y-106141521D01*
X141011273Y-106030437D01*
X140744786Y-105875001D01*
X140526085Y-105672885D01*
X140352897Y-105421764D01*
X140222945Y-105119311D01*
X140177879Y-104965500D01*
X140170620Y-104934084D01*
X140163981Y-104896785D01*
X140157935Y-104850612D01*
X140152455Y-104792572D01*
X140147512Y-104719674D01*
X140143079Y-104628925D01*
X140139129Y-104517333D01*
X140135635Y-104381905D01*
X140132568Y-104219649D01*
X140129901Y-104027573D01*
X140127607Y-103802685D01*
X140125659Y-103541992D01*
X140124027Y-103242502D01*
X140122686Y-102901223D01*
X140121608Y-102515162D01*
X140120765Y-102081327D01*
X140120129Y-101596727D01*
X140119674Y-101058368D01*
X140119371Y-100463259D01*
X140119193Y-99808406D01*
X140119112Y-99090819D01*
X140119100Y-98573167D01*
X140119130Y-97811849D01*
X140119239Y-97115273D01*
X140119455Y-96480445D01*
X140119806Y-95904374D01*
X140120318Y-95384067D01*
X140121019Y-94916531D01*
X140121936Y-94498776D01*
X140123098Y-94127808D01*
X140124532Y-93800635D01*
X140126264Y-93514265D01*
X140128324Y-93265705D01*
X140130738Y-93051964D01*
X140133533Y-92870049D01*
X140136738Y-92716967D01*
X140140380Y-92589727D01*
X140144486Y-92485336D01*
X140149083Y-92400802D01*
X140154200Y-92333133D01*
X140159864Y-92279336D01*
X140166103Y-92236419D01*
X140172943Y-92201390D01*
X140177879Y-92180833D01*
X140289011Y-91854926D01*
X140442495Y-91581314D01*
X140640629Y-91357670D01*
X140885712Y-91181668D01*
X141180043Y-91050980D01*
X141341193Y-91003226D01*
X141378975Y-90993948D01*
X141418441Y-90985568D01*
X141463056Y-90978041D01*
X141516279Y-90971320D01*
X141581574Y-90965360D01*
X141662402Y-90960116D01*
X141762224Y-90955541D01*
X141884504Y-90951591D01*
X142032703Y-90948219D01*
X142210283Y-90945379D01*
X142420705Y-90943027D01*
X142667433Y-90941116D01*
X142953927Y-90939600D01*
X143283649Y-90938435D01*
X143660062Y-90937574D01*
X144086628Y-90936971D01*
X144566808Y-90936581D01*
X145104064Y-90936359D01*
X145701858Y-90936258D01*
X146363653Y-90936233D01*
X146418299Y-90936233D01*
X147085549Y-90936257D01*
X147085549Y-90936257D01*
G37*
X147085549Y-90936257D02*
X147688523Y-90936360D01*
X148230680Y-90936585D01*
X148715476Y-90936977D01*
X149146371Y-90937582D01*
X149526821Y-90938445D01*
X149860285Y-90939609D01*
X150150220Y-90941119D01*
X150400085Y-90943021D01*
X150613336Y-90945360D01*
X150793432Y-90948179D01*
X150943831Y-90951524D01*
X151067991Y-90955439D01*
X151169369Y-90959969D01*
X151251423Y-90965160D01*
X151317611Y-90971055D01*
X151371391Y-90977699D01*
X151416220Y-90985138D01*
X151455557Y-90993415D01*
X151490141Y-91001880D01*
X151722972Y-91071924D01*
X151910953Y-91155639D01*
X152076953Y-91265097D01*
X152214720Y-91384433D01*
X152364939Y-91542729D01*
X152478978Y-91705683D01*
X152570280Y-91895639D01*
X152637759Y-92087700D01*
X152670061Y-92199316D01*
X152692388Y-92304041D01*
X152706477Y-92418567D01*
X152714066Y-92559586D01*
X152716891Y-92743788D01*
X152717067Y-92849700D01*
X152712674Y-93112183D01*
X152697810Y-93324213D01*
X152669201Y-93502685D01*
X152623574Y-93664496D01*
X152557653Y-93826540D01*
X152507871Y-93929187D01*
X152394796Y-94106954D01*
X152242712Y-94284017D01*
X152072696Y-94438369D01*
X151924523Y-94538191D01*
X151806386Y-94592805D01*
X151654117Y-94650226D01*
X151499676Y-94698454D01*
X151492357Y-94700440D01*
X151445929Y-94712439D01*
X151398355Y-94723078D01*
X151345269Y-94732485D01*
X151282304Y-94740789D01*
X151205092Y-94748120D01*
X151109268Y-94754605D01*
X150990464Y-94760374D01*
X150844313Y-94765556D01*
X150666450Y-94770279D01*
X150452506Y-94774672D01*
X150198115Y-94778864D01*
X149898911Y-94782984D01*
X149550526Y-94787160D01*
X149148595Y-94791522D01*
X148688749Y-94796198D01*
X148166623Y-94801317D01*
X148026966Y-94802670D01*
X147467151Y-94807987D01*
X146970920Y-94812700D01*
X146534130Y-94817171D01*
X146152638Y-94821760D01*
X145822301Y-94826827D01*
X145538977Y-94832733D01*
X145298523Y-94839839D01*
X145096795Y-94848504D01*
X144929652Y-94859090D01*
X144792950Y-94871957D01*
X144682546Y-94887466D01*
X144594298Y-94905977D01*
X144524064Y-94927850D01*
X144467699Y-94953446D01*
X144421062Y-94983127D01*
X144380009Y-95017251D01*
X144340399Y-95056180D01*
X144298087Y-95100275D01*
X144269365Y-95129677D01*
X144152374Y-95258122D01*
X144075352Y-95373916D01*
X144022035Y-95502164D01*
X144016172Y-95520496D01*
X143971301Y-95771081D01*
X143990112Y-96016073D01*
X144068656Y-96246110D01*
X144202988Y-96451830D01*
X144389160Y-96623870D01*
X144514199Y-96701804D01*
X144547281Y-96718827D01*
X144581387Y-96733189D01*
X144622419Y-96745189D01*
X144676280Y-96755129D01*
X144748871Y-96763308D01*
X144846094Y-96770029D01*
X144973852Y-96775592D01*
X145138047Y-96780297D01*
X145344580Y-96784446D01*
X145599354Y-96788338D01*
X145908270Y-96792275D01*
X146277231Y-96796557D01*
X146401366Y-96797964D01*
X146802751Y-96802778D01*
X147142191Y-96807543D01*
X147425474Y-96812482D01*
X147658386Y-96817818D01*
X147846716Y-96823773D01*
X147996251Y-96830572D01*
X148112779Y-96838436D01*
X148202087Y-96847589D01*
X148269962Y-96858254D01*
X148322193Y-96870653D01*
X148327315Y-96872158D01*
X148640025Y-96994246D01*
X148901189Y-97158337D01*
X149111573Y-97365580D01*
X149271942Y-97617124D01*
X149383063Y-97914117D01*
X149445701Y-98257710D01*
X149461426Y-98573167D01*
X149438607Y-98953917D01*
X149369275Y-99286174D01*
X149252118Y-99571889D01*
X149085822Y-99813015D01*
X148869075Y-100011502D01*
X148600564Y-100169303D01*
X148315007Y-100277712D01*
X148264672Y-100289778D01*
X148195178Y-100300218D01*
X148100962Y-100309239D01*
X147976463Y-100317047D01*
X147816119Y-100323848D01*
X147614368Y-100329849D01*
X147365648Y-100335255D01*
X147064398Y-100340273D01*
X146705056Y-100345109D01*
X146401366Y-100348659D01*
X146013112Y-100353040D01*
X145686686Y-100356995D01*
X145416185Y-100360823D01*
X145195708Y-100364824D01*
X145019353Y-100369299D01*
X144881217Y-100374546D01*
X144775398Y-100380866D01*
X144695996Y-100388559D01*
X144637107Y-100397924D01*
X144592830Y-100409262D01*
X144557263Y-100422871D01*
X144524503Y-100439053D01*
X144514199Y-100444529D01*
X144300799Y-100593691D01*
X144137036Y-100781760D01*
X144026855Y-100999374D01*
X143974205Y-101237170D01*
X143983033Y-101485786D01*
X144016172Y-101625837D01*
X144067654Y-101757441D01*
X144140788Y-101873422D01*
X144251839Y-101998886D01*
X144269365Y-102016656D01*
X144315363Y-102064091D01*
X144356141Y-102106139D01*
X144395841Y-102143159D01*
X144438606Y-102175514D01*
X144488580Y-102203563D01*
X144549905Y-102227668D01*
X144626725Y-102248189D01*
X144723182Y-102265487D01*
X144843420Y-102279924D01*
X144991582Y-102291860D01*
X145171810Y-102301655D01*
X145388248Y-102309671D01*
X145645040Y-102316269D01*
X145946327Y-102321809D01*
X146296253Y-102326653D01*
X146698961Y-102331160D01*
X147158594Y-102335693D01*
X147679295Y-102340611D01*
X148026966Y-102343939D01*
X148565263Y-102349201D01*
X149040196Y-102353987D01*
X149456131Y-102358428D01*
X149817437Y-102362650D01*
X150128480Y-102366784D01*
X150393627Y-102370957D01*
X150617244Y-102375298D01*
X150803698Y-102379936D01*
X150957358Y-102385000D01*
X151082588Y-102390618D01*
X151183756Y-102396920D01*
X151265230Y-102404033D01*
X151331375Y-102412086D01*
X151386559Y-102421209D01*
X151435149Y-102431530D01*
X151481511Y-102443177D01*
X151492357Y-102446067D01*
X151646068Y-102493426D01*
X151799229Y-102550612D01*
X151919869Y-102605636D01*
X151924523Y-102608142D01*
X152092851Y-102724153D01*
X152261856Y-102882302D01*
X152410461Y-103060585D01*
X152507871Y-103217146D01*
X152587312Y-103387264D01*
X152644526Y-103547170D01*
X152682789Y-103713760D01*
X152705372Y-103903932D01*
X152715553Y-104134580D01*
X152717067Y-104296633D01*
X152715877Y-104506817D01*
X152710737Y-104665994D01*
X152699911Y-104790858D01*
X152681661Y-104898098D01*
X152654249Y-105004407D01*
X152637759Y-105058633D01*
X152554005Y-105289970D01*
X152458161Y-105476200D01*
X152337130Y-105639942D01*
X152242545Y-105741243D01*
X152043787Y-105908084D01*
X151816188Y-106034849D01*
X151543251Y-106130409D01*
X151495406Y-106143107D01*
X151457705Y-106152371D01*
X151418368Y-106160738D01*
X151373941Y-106168252D01*
X151320966Y-106174956D01*
X151255987Y-106180896D01*
X151175548Y-106186114D01*
X151076192Y-106190657D01*
X150954463Y-106194567D01*
X150806904Y-106197889D01*
X150630059Y-106200667D01*
X150420471Y-106202946D01*
X150174685Y-106204769D01*
X149889243Y-106206182D01*
X149560689Y-106207227D01*
X149185568Y-106207949D01*
X148760422Y-106208393D01*
X148281795Y-106208603D01*
X147746230Y-106208622D01*
X147150272Y-106208496D01*
X146490463Y-106208268D01*
X146404415Y-106208235D01*
X145735969Y-106207951D01*
X145131810Y-106207610D01*
X144588494Y-106207168D01*
X144102576Y-106206578D01*
X143670611Y-106205796D01*
X143289154Y-106204776D01*
X142954759Y-106203473D01*
X142663981Y-106201842D01*
X142413375Y-106199838D01*
X142199497Y-106197414D01*
X142018900Y-106194527D01*
X141868140Y-106191130D01*
X141743771Y-106187179D01*
X141642349Y-106182628D01*
X141560428Y-106177432D01*
X141494564Y-106171545D01*
X141441310Y-106164923D01*
X141397222Y-106157519D01*
X141358854Y-106149290D01*
X141327821Y-106141521D01*
X141011273Y-106030437D01*
X140744786Y-105875001D01*
X140526085Y-105672885D01*
X140352897Y-105421764D01*
X140222945Y-105119311D01*
X140177879Y-104965500D01*
X140170620Y-104934084D01*
X140163981Y-104896785D01*
X140157935Y-104850612D01*
X140152455Y-104792572D01*
X140147512Y-104719674D01*
X140143079Y-104628925D01*
X140139129Y-104517333D01*
X140135635Y-104381905D01*
X140132568Y-104219649D01*
X140129901Y-104027573D01*
X140127607Y-103802685D01*
X140125659Y-103541992D01*
X140124027Y-103242502D01*
X140122686Y-102901223D01*
X140121608Y-102515162D01*
X140120765Y-102081327D01*
X140120129Y-101596727D01*
X140119674Y-101058368D01*
X140119371Y-100463259D01*
X140119193Y-99808406D01*
X140119112Y-99090819D01*
X140119100Y-98573167D01*
X140119130Y-97811849D01*
X140119239Y-97115273D01*
X140119455Y-96480445D01*
X140119806Y-95904374D01*
X140120318Y-95384067D01*
X140121019Y-94916531D01*
X140121936Y-94498776D01*
X140123098Y-94127808D01*
X140124532Y-93800635D01*
X140126264Y-93514265D01*
X140128324Y-93265705D01*
X140130738Y-93051964D01*
X140133533Y-92870049D01*
X140136738Y-92716967D01*
X140140380Y-92589727D01*
X140144486Y-92485336D01*
X140149083Y-92400802D01*
X140154200Y-92333133D01*
X140159864Y-92279336D01*
X140166103Y-92236419D01*
X140172943Y-92201390D01*
X140177879Y-92180833D01*
X140289011Y-91854926D01*
X140442495Y-91581314D01*
X140640629Y-91357670D01*
X140885712Y-91181668D01*
X141180043Y-91050980D01*
X141341193Y-91003226D01*
X141378975Y-90993948D01*
X141418441Y-90985568D01*
X141463056Y-90978041D01*
X141516279Y-90971320D01*
X141581574Y-90965360D01*
X141662402Y-90960116D01*
X141762224Y-90955541D01*
X141884504Y-90951591D01*
X142032703Y-90948219D01*
X142210283Y-90945379D01*
X142420705Y-90943027D01*
X142667433Y-90941116D01*
X142953927Y-90939600D01*
X143283649Y-90938435D01*
X143660062Y-90937574D01*
X144086628Y-90936971D01*
X144566808Y-90936581D01*
X145104064Y-90936359D01*
X145701858Y-90936258D01*
X146363653Y-90936233D01*
X146418299Y-90936233D01*
X147085549Y-90936257D01*
G36*
X156737765Y-90840828D02*
X156984283Y-90859129D01*
X157151067Y-90885403D01*
X157488707Y-90987459D01*
X157782186Y-91140708D01*
X158030432Y-91344170D01*
X158232372Y-91596861D01*
X158386934Y-91897799D01*
X158448376Y-92073525D01*
X158456917Y-92104866D01*
X158464614Y-92141559D01*
X158471512Y-92187085D01*
X158477654Y-92244930D01*
X158483083Y-92318575D01*
X158487844Y-92411504D01*
X158491980Y-92527201D01*
X158495534Y-92669148D01*
X158498550Y-92840828D01*
X158501071Y-93045725D01*
X158503142Y-93287321D01*
X158504805Y-93569101D01*
X158506104Y-93894547D01*
X158507083Y-94267142D01*
X158507786Y-94690370D01*
X158508255Y-95167713D01*
X158508534Y-95702656D01*
X158508668Y-96298680D01*
X158508700Y-96896767D01*
X158508790Y-97564768D01*
X158509081Y-98168249D01*
X158509606Y-98710423D01*
X158510396Y-99194503D01*
X158511483Y-99623704D01*
X158512898Y-100001236D01*
X158514675Y-100330315D01*
X158516845Y-100614152D01*
X158519439Y-100855961D01*
X158522489Y-101058956D01*
X158526028Y-101226349D01*
X158530088Y-101361353D01*
X158534699Y-101467182D01*
X158539895Y-101547049D01*
X158545707Y-101604167D01*
X158552166Y-101641749D01*
X158555929Y-101655033D01*
X158669242Y-101884607D01*
X158832554Y-102081077D01*
X159034336Y-102232939D01*
X159217408Y-102315136D01*
X159256455Y-102323185D01*
X159323716Y-102330314D01*
X159422832Y-102336581D01*
X159557443Y-102342045D01*
X159731190Y-102346762D01*
X159947713Y-102350791D01*
X160210652Y-102354190D01*
X160523648Y-102357017D01*
X160890342Y-102359329D01*
X161314373Y-102361184D01*
X161799382Y-102362641D01*
X162265408Y-102363615D01*
X162794691Y-102364499D01*
X163260859Y-102365385D01*
X163668527Y-102366591D01*
X164022313Y-102368431D01*
X164326833Y-102371223D01*
X164586704Y-102375283D01*
X164806542Y-102380926D01*
X164990965Y-102388469D01*
X165144589Y-102398228D01*
X165272031Y-102410520D01*
X165377908Y-102425659D01*
X165466836Y-102443963D01*
X165543432Y-102465748D01*
X165612312Y-102491330D01*
X165678094Y-102521025D01*
X165745394Y-102555149D01*
X165818829Y-102594018D01*
X165847008Y-102608893D01*
X166091197Y-102768851D01*
X166290763Y-102970846D01*
X166449695Y-103220283D01*
X166571981Y-103522565D01*
X166605351Y-103636233D01*
X166638923Y-103814037D01*
X166659566Y-104036652D01*
X166667235Y-104282392D01*
X166661886Y-104529571D01*
X166643476Y-104756505D01*
X166611959Y-104941506D01*
X166608040Y-104957033D01*
X166491754Y-105286840D01*
X166329112Y-105567511D01*
X166120740Y-105798439D01*
X165867261Y-105979015D01*
X165569300Y-106108631D01*
X165372223Y-106161096D01*
X165330125Y-106168105D01*
X165271187Y-106174405D01*
X165192072Y-106180026D01*
X165089439Y-106185001D01*
X164959949Y-106189361D01*
X164800263Y-106193137D01*
X164607043Y-106196361D01*
X164376948Y-106199063D01*
X164106640Y-106201277D01*
X163792779Y-106203032D01*
X163432026Y-106204360D01*
X163021043Y-106205293D01*
X162556490Y-106205862D01*
X162035028Y-106206099D01*
X161453317Y-106206035D01*
X160808019Y-106205701D01*
X160642300Y-106205583D01*
X160094434Y-106205073D01*
X159564659Y-106204376D01*
X159056987Y-106203509D01*
X158575427Y-106202485D01*
X158123990Y-106201321D01*
X157706688Y-106200033D01*
X157327530Y-106198634D01*
X156990529Y-106197141D01*
X156699694Y-106195568D01*
X156459036Y-106193932D01*
X156272566Y-106192247D01*
X156144295Y-106190529D01*
X156078234Y-106188793D01*
X156070300Y-106188136D01*
X155719865Y-106090697D01*
X155424175Y-105955032D01*
X155181048Y-105779623D01*
X154988303Y-105562949D01*
X154863338Y-105347090D01*
X154839334Y-105296494D01*
X154817328Y-105249681D01*
X154797236Y-105203659D01*
X154778976Y-105155434D01*
X154762466Y-105102014D01*
X154747623Y-105040405D01*
X154734365Y-104967615D01*
X154722611Y-104880650D01*
X154712277Y-104776519D01*
X154703282Y-104652226D01*
X154695543Y-104504781D01*
X154688977Y-104331189D01*
X154683503Y-104128457D01*
X154679039Y-103893594D01*
X154675501Y-103623605D01*
X154672808Y-103315499D01*
X154670878Y-102966281D01*
X154669628Y-102572959D01*
X154668975Y-102132539D01*
X154668838Y-101642030D01*
X154669135Y-101098438D01*
X154669783Y-100498770D01*
X154670699Y-99840033D01*
X154671802Y-99119233D01*
X154672879Y-98419118D01*
X154674058Y-97659405D01*
X154675216Y-96964443D01*
X154676385Y-96331249D01*
X154677598Y-95756840D01*
X154678887Y-95238234D01*
X154680284Y-94772447D01*
X154681822Y-94356498D01*
X154683532Y-93987403D01*
X154685448Y-93662180D01*
X154687601Y-93377845D01*
X154690023Y-93131417D01*
X154692747Y-92919913D01*
X154695805Y-92740350D01*
X154699230Y-92589745D01*
X154703053Y-92465115D01*
X154707308Y-92363478D01*
X154712025Y-92281851D01*
X154717238Y-92217252D01*
X154722979Y-92166698D01*
X154729280Y-92127205D01*
X154736173Y-92095792D01*
X154741505Y-92076556D01*
X154869983Y-91744703D01*
X155040622Y-91465677D01*
X155254565Y-91238407D01*
X155512952Y-91061820D01*
X155816926Y-90934843D01*
X156011178Y-90884222D01*
X156223979Y-90853346D01*
X156475253Y-90838891D01*
X156737765Y-90840828D01*
X156737765Y-90840828D01*
G37*
X156737765Y-90840828D02*
X156984283Y-90859129D01*
X157151067Y-90885403D01*
X157488707Y-90987459D01*
X157782186Y-91140708D01*
X158030432Y-91344170D01*
X158232372Y-91596861D01*
X158386934Y-91897799D01*
X158448376Y-92073525D01*
X158456917Y-92104866D01*
X158464614Y-92141559D01*
X158471512Y-92187085D01*
X158477654Y-92244930D01*
X158483083Y-92318575D01*
X158487844Y-92411504D01*
X158491980Y-92527201D01*
X158495534Y-92669148D01*
X158498550Y-92840828D01*
X158501071Y-93045725D01*
X158503142Y-93287321D01*
X158504805Y-93569101D01*
X158506104Y-93894547D01*
X158507083Y-94267142D01*
X158507786Y-94690370D01*
X158508255Y-95167713D01*
X158508534Y-95702656D01*
X158508668Y-96298680D01*
X158508700Y-96896767D01*
X158508790Y-97564768D01*
X158509081Y-98168249D01*
X158509606Y-98710423D01*
X158510396Y-99194503D01*
X158511483Y-99623704D01*
X158512898Y-100001236D01*
X158514675Y-100330315D01*
X158516845Y-100614152D01*
X158519439Y-100855961D01*
X158522489Y-101058956D01*
X158526028Y-101226349D01*
X158530088Y-101361353D01*
X158534699Y-101467182D01*
X158539895Y-101547049D01*
X158545707Y-101604167D01*
X158552166Y-101641749D01*
X158555929Y-101655033D01*
X158669242Y-101884607D01*
X158832554Y-102081077D01*
X159034336Y-102232939D01*
X159217408Y-102315136D01*
X159256455Y-102323185D01*
X159323716Y-102330314D01*
X159422832Y-102336581D01*
X159557443Y-102342045D01*
X159731190Y-102346762D01*
X159947713Y-102350791D01*
X160210652Y-102354190D01*
X160523648Y-102357017D01*
X160890342Y-102359329D01*
X161314373Y-102361184D01*
X161799382Y-102362641D01*
X162265408Y-102363615D01*
X162794691Y-102364499D01*
X163260859Y-102365385D01*
X163668527Y-102366591D01*
X164022313Y-102368431D01*
X164326833Y-102371223D01*
X164586704Y-102375283D01*
X164806542Y-102380926D01*
X164990965Y-102388469D01*
X165144589Y-102398228D01*
X165272031Y-102410520D01*
X165377908Y-102425659D01*
X165466836Y-102443963D01*
X165543432Y-102465748D01*
X165612312Y-102491330D01*
X165678094Y-102521025D01*
X165745394Y-102555149D01*
X165818829Y-102594018D01*
X165847008Y-102608893D01*
X166091197Y-102768851D01*
X166290763Y-102970846D01*
X166449695Y-103220283D01*
X166571981Y-103522565D01*
X166605351Y-103636233D01*
X166638923Y-103814037D01*
X166659566Y-104036652D01*
X166667235Y-104282392D01*
X166661886Y-104529571D01*
X166643476Y-104756505D01*
X166611959Y-104941506D01*
X166608040Y-104957033D01*
X166491754Y-105286840D01*
X166329112Y-105567511D01*
X166120740Y-105798439D01*
X165867261Y-105979015D01*
X165569300Y-106108631D01*
X165372223Y-106161096D01*
X165330125Y-106168105D01*
X165271187Y-106174405D01*
X165192072Y-106180026D01*
X165089439Y-106185001D01*
X164959949Y-106189361D01*
X164800263Y-106193137D01*
X164607043Y-106196361D01*
X164376948Y-106199063D01*
X164106640Y-106201277D01*
X163792779Y-106203032D01*
X163432026Y-106204360D01*
X163021043Y-106205293D01*
X162556490Y-106205862D01*
X162035028Y-106206099D01*
X161453317Y-106206035D01*
X160808019Y-106205701D01*
X160642300Y-106205583D01*
X160094434Y-106205073D01*
X159564659Y-106204376D01*
X159056987Y-106203509D01*
X158575427Y-106202485D01*
X158123990Y-106201321D01*
X157706688Y-106200033D01*
X157327530Y-106198634D01*
X156990529Y-106197141D01*
X156699694Y-106195568D01*
X156459036Y-106193932D01*
X156272566Y-106192247D01*
X156144295Y-106190529D01*
X156078234Y-106188793D01*
X156070300Y-106188136D01*
X155719865Y-106090697D01*
X155424175Y-105955032D01*
X155181048Y-105779623D01*
X154988303Y-105562949D01*
X154863338Y-105347090D01*
X154839334Y-105296494D01*
X154817328Y-105249681D01*
X154797236Y-105203659D01*
X154778976Y-105155434D01*
X154762466Y-105102014D01*
X154747623Y-105040405D01*
X154734365Y-104967615D01*
X154722611Y-104880650D01*
X154712277Y-104776519D01*
X154703282Y-104652226D01*
X154695543Y-104504781D01*
X154688977Y-104331189D01*
X154683503Y-104128457D01*
X154679039Y-103893594D01*
X154675501Y-103623605D01*
X154672808Y-103315499D01*
X154670878Y-102966281D01*
X154669628Y-102572959D01*
X154668975Y-102132539D01*
X154668838Y-101642030D01*
X154669135Y-101098438D01*
X154669783Y-100498770D01*
X154670699Y-99840033D01*
X154671802Y-99119233D01*
X154672879Y-98419118D01*
X154674058Y-97659405D01*
X154675216Y-96964443D01*
X154676385Y-96331249D01*
X154677598Y-95756840D01*
X154678887Y-95238234D01*
X154680284Y-94772447D01*
X154681822Y-94356498D01*
X154683532Y-93987403D01*
X154685448Y-93662180D01*
X154687601Y-93377845D01*
X154690023Y-93131417D01*
X154692747Y-92919913D01*
X154695805Y-92740350D01*
X154699230Y-92589745D01*
X154703053Y-92465115D01*
X154707308Y-92363478D01*
X154712025Y-92281851D01*
X154717238Y-92217252D01*
X154722979Y-92166698D01*
X154729280Y-92127205D01*
X154736173Y-92095792D01*
X154741505Y-92076556D01*
X154869983Y-91744703D01*
X155040622Y-91465677D01*
X155254565Y-91238407D01*
X155512952Y-91061820D01*
X155816926Y-90934843D01*
X156011178Y-90884222D01*
X156223979Y-90853346D01*
X156475253Y-90838891D01*
X156737765Y-90840828D01*
G36*
X93078122Y-97015112D02*
X93121838Y-97097484D01*
X93189829Y-97230278D01*
X93279510Y-97408202D01*
X93388300Y-97625969D01*
X93513613Y-97878288D01*
X93652868Y-98159870D01*
X93803480Y-98465426D01*
X93962866Y-98789665D01*
X94128444Y-99127299D01*
X94297628Y-99473037D01*
X94467837Y-99821590D01*
X94636487Y-100167669D01*
X94800994Y-100505984D01*
X94958775Y-100831245D01*
X95107247Y-101138163D01*
X95243825Y-101421449D01*
X95365928Y-101675813D01*
X95470972Y-101895964D01*
X95556373Y-102076615D01*
X95619547Y-102212474D01*
X95657912Y-102298254D01*
X95669099Y-102328110D01*
X95636094Y-102331472D01*
X95540525Y-102334670D01*
X95387559Y-102337661D01*
X95182366Y-102340404D01*
X94930115Y-102342856D01*
X94635974Y-102344976D01*
X94305111Y-102346721D01*
X93942697Y-102348050D01*
X93553898Y-102348920D01*
X93143884Y-102349290D01*
X93062980Y-102349300D01*
X90456861Y-102349300D01*
X90771507Y-101697366D01*
X91003284Y-101217360D01*
X91231950Y-100744233D01*
X91455614Y-100281874D01*
X91672387Y-99834169D01*
X91880379Y-99405006D01*
X92077698Y-98998271D01*
X92262456Y-98617851D01*
X92432761Y-98267633D01*
X92586725Y-97951504D01*
X92722456Y-97673352D01*
X92838065Y-97437063D01*
X92931662Y-97246524D01*
X93001357Y-97105623D01*
X93045259Y-97018246D01*
X93061263Y-96988451D01*
X93078122Y-97015112D01*
X93078122Y-97015112D01*
G37*
X93078122Y-97015112D02*
X93121838Y-97097484D01*
X93189829Y-97230278D01*
X93279510Y-97408202D01*
X93388300Y-97625969D01*
X93513613Y-97878288D01*
X93652868Y-98159870D01*
X93803480Y-98465426D01*
X93962866Y-98789665D01*
X94128444Y-99127299D01*
X94297628Y-99473037D01*
X94467837Y-99821590D01*
X94636487Y-100167669D01*
X94800994Y-100505984D01*
X94958775Y-100831245D01*
X95107247Y-101138163D01*
X95243825Y-101421449D01*
X95365928Y-101675813D01*
X95470972Y-101895964D01*
X95556373Y-102076615D01*
X95619547Y-102212474D01*
X95657912Y-102298254D01*
X95669099Y-102328110D01*
X95636094Y-102331472D01*
X95540525Y-102334670D01*
X95387559Y-102337661D01*
X95182366Y-102340404D01*
X94930115Y-102342856D01*
X94635974Y-102344976D01*
X94305111Y-102346721D01*
X93942697Y-102348050D01*
X93553898Y-102348920D01*
X93143884Y-102349290D01*
X93062980Y-102349300D01*
X90456861Y-102349300D01*
X90771507Y-101697366D01*
X91003284Y-101217360D01*
X91231950Y-100744233D01*
X91455614Y-100281874D01*
X91672387Y-99834169D01*
X91880379Y-99405006D01*
X92077698Y-98998271D01*
X92262456Y-98617851D01*
X92432761Y-98267633D01*
X92586725Y-97951504D01*
X92722456Y-97673352D01*
X92838065Y-97437063D01*
X92931662Y-97246524D01*
X93001357Y-97105623D01*
X93045259Y-97018246D01*
X93061263Y-96988451D01*
X93078122Y-97015112D01*
G36*
X242273329Y-92875618D02*
X242411524Y-92880174D01*
X242539194Y-92887038D01*
X242651226Y-92896184D01*
X242722400Y-92904594D01*
X243072887Y-92966096D01*
X243413195Y-93050722D01*
X243742868Y-93158246D01*
X244061452Y-93288441D01*
X244368491Y-93441081D01*
X244663532Y-93615937D01*
X244946120Y-93812785D01*
X245215798Y-94031396D01*
X245472114Y-94271544D01*
X245480924Y-94280424D01*
X245719285Y-94538798D01*
X245935743Y-94809932D01*
X246130097Y-95093389D01*
X246302145Y-95388732D01*
X246451689Y-95695525D01*
X246578527Y-96013331D01*
X246682459Y-96341713D01*
X246763284Y-96680235D01*
X246820802Y-97028461D01*
X246844734Y-97249776D01*
X246851219Y-97354411D01*
X246854618Y-97477957D01*
X246855090Y-97614136D01*
X246852794Y-97756666D01*
X246847890Y-97899269D01*
X246840538Y-98035663D01*
X246830897Y-98159569D01*
X246819126Y-98264708D01*
X246818915Y-98266250D01*
X246758703Y-98613603D01*
X246674963Y-98951539D01*
X246567963Y-99279528D01*
X246437970Y-99597042D01*
X246285251Y-99903550D01*
X246110072Y-100198523D01*
X245912700Y-100481431D01*
X245693404Y-100751746D01*
X245452449Y-101008938D01*
X245419491Y-101041436D01*
X245160701Y-101277648D01*
X244890878Y-101491188D01*
X244609687Y-101682216D01*
X244316796Y-101850893D01*
X244011870Y-101997380D01*
X243694577Y-102121836D01*
X243364581Y-102224423D01*
X243021551Y-102305300D01*
X242671600Y-102363763D01*
X242623683Y-102368533D01*
X242554834Y-102373068D01*
X242469522Y-102377265D01*
X242372214Y-102381022D01*
X242267379Y-102384237D01*
X242159484Y-102386806D01*
X242052997Y-102388628D01*
X241952387Y-102389601D01*
X241862122Y-102389622D01*
X241786669Y-102388588D01*
X241730497Y-102386398D01*
X241719100Y-102385585D01*
X241371575Y-102344492D01*
X241030435Y-102278934D01*
X240696436Y-102189212D01*
X240370334Y-102075629D01*
X240052888Y-101938490D01*
X239744855Y-101778095D01*
X239446992Y-101594750D01*
X239160056Y-101388755D01*
X239090791Y-101334291D01*
X239010832Y-101267093D01*
X238919521Y-101184993D01*
X238821640Y-101092704D01*
X238721973Y-100994939D01*
X238625303Y-100896413D01*
X238536414Y-100801839D01*
X238460088Y-100715930D01*
X238444082Y-100697019D01*
X238228408Y-100420480D01*
X238035867Y-100133919D01*
X237866276Y-99836917D01*
X237719453Y-99529053D01*
X237595214Y-99209907D01*
X237551026Y-99066350D01*
X239845850Y-99066350D01*
X239845850Y-99714050D01*
X240493550Y-99714050D01*
X240493550Y-99066350D01*
X243655850Y-99066350D01*
X243655850Y-99714050D01*
X244303550Y-99714050D01*
X244303550Y-99066350D01*
X243655850Y-99066350D01*
X240493550Y-99066350D01*
X239845850Y-99066350D01*
X237551026Y-99066350D01*
X237493375Y-98879061D01*
X237413754Y-98536093D01*
X237360769Y-98215450D01*
X237350888Y-98121325D01*
X237343481Y-98007046D01*
X237338522Y-97877736D01*
X237337270Y-97809050D01*
X240493550Y-97809050D01*
X240493550Y-98456750D01*
X241141250Y-98456750D01*
X241141250Y-97809050D01*
X241750850Y-97809050D01*
X241750850Y-98456750D01*
X242398550Y-98456750D01*
X242398550Y-97809050D01*
X243046250Y-97809050D01*
X243046250Y-98456750D01*
X243655850Y-98456750D01*
X243655850Y-97809050D01*
X243046250Y-97809050D01*
X242398550Y-97809050D01*
X241750850Y-97809050D01*
X241141250Y-97809050D01*
X240493550Y-97809050D01*
X237337270Y-97809050D01*
X237335984Y-97738517D01*
X237335841Y-97594510D01*
X237338067Y-97450840D01*
X237342634Y-97312628D01*
X237349517Y-97184996D01*
X237358689Y-97073068D01*
X237367041Y-97002600D01*
X237428516Y-96653000D01*
X237453727Y-96551750D01*
X241141250Y-96551750D01*
X241141250Y-97161350D01*
X241750850Y-97161350D01*
X241750850Y-96551750D01*
X242398550Y-96551750D01*
X242398550Y-97161350D01*
X243046250Y-97161350D01*
X243046250Y-96551750D01*
X242398550Y-96551750D01*
X241750850Y-96551750D01*
X241141250Y-96551750D01*
X237453727Y-96551750D01*
X237513155Y-96313085D01*
X237620643Y-95983496D01*
X237750667Y-95664875D01*
X237902914Y-95357863D01*
X237962890Y-95256350D01*
X241750850Y-95256350D01*
X241750850Y-95904050D01*
X242398550Y-95904050D01*
X242398550Y-95256350D01*
X241750850Y-95256350D01*
X237962890Y-95256350D01*
X238077068Y-95063100D01*
X238272816Y-94781228D01*
X238489844Y-94512888D01*
X238693906Y-94292783D01*
X238951033Y-94049340D01*
X239219959Y-93828370D01*
X239500740Y-93629846D01*
X239793434Y-93453739D01*
X240098097Y-93300021D01*
X240414787Y-93168663D01*
X240743561Y-93059638D01*
X241084475Y-92972916D01*
X241437588Y-92908470D01*
X241509550Y-92898269D01*
X241603488Y-92888410D01*
X241717590Y-92881021D01*
X241846739Y-92876073D01*
X241985821Y-92873542D01*
X242129723Y-92873399D01*
X242273329Y-92875618D01*
X242273329Y-92875618D01*
G37*
X242273329Y-92875618D02*
X242411524Y-92880174D01*
X242539194Y-92887038D01*
X242651226Y-92896184D01*
X242722400Y-92904594D01*
X243072887Y-92966096D01*
X243413195Y-93050722D01*
X243742868Y-93158246D01*
X244061452Y-93288441D01*
X244368491Y-93441081D01*
X244663532Y-93615937D01*
X244946120Y-93812785D01*
X245215798Y-94031396D01*
X245472114Y-94271544D01*
X245480924Y-94280424D01*
X245719285Y-94538798D01*
X245935743Y-94809932D01*
X246130097Y-95093389D01*
X246302145Y-95388732D01*
X246451689Y-95695525D01*
X246578527Y-96013331D01*
X246682459Y-96341713D01*
X246763284Y-96680235D01*
X246820802Y-97028461D01*
X246844734Y-97249776D01*
X246851219Y-97354411D01*
X246854618Y-97477957D01*
X246855090Y-97614136D01*
X246852794Y-97756666D01*
X246847890Y-97899269D01*
X246840538Y-98035663D01*
X246830897Y-98159569D01*
X246819126Y-98264708D01*
X246818915Y-98266250D01*
X246758703Y-98613603D01*
X246674963Y-98951539D01*
X246567963Y-99279528D01*
X246437970Y-99597042D01*
X246285251Y-99903550D01*
X246110072Y-100198523D01*
X245912700Y-100481431D01*
X245693404Y-100751746D01*
X245452449Y-101008938D01*
X245419491Y-101041436D01*
X245160701Y-101277648D01*
X244890878Y-101491188D01*
X244609687Y-101682216D01*
X244316796Y-101850893D01*
X244011870Y-101997380D01*
X243694577Y-102121836D01*
X243364581Y-102224423D01*
X243021551Y-102305300D01*
X242671600Y-102363763D01*
X242623683Y-102368533D01*
X242554834Y-102373068D01*
X242469522Y-102377265D01*
X242372214Y-102381022D01*
X242267379Y-102384237D01*
X242159484Y-102386806D01*
X242052997Y-102388628D01*
X241952387Y-102389601D01*
X241862122Y-102389622D01*
X241786669Y-102388588D01*
X241730497Y-102386398D01*
X241719100Y-102385585D01*
X241371575Y-102344492D01*
X241030435Y-102278934D01*
X240696436Y-102189212D01*
X240370334Y-102075629D01*
X240052888Y-101938490D01*
X239744855Y-101778095D01*
X239446992Y-101594750D01*
X239160056Y-101388755D01*
X239090791Y-101334291D01*
X239010832Y-101267093D01*
X238919521Y-101184993D01*
X238821640Y-101092704D01*
X238721973Y-100994939D01*
X238625303Y-100896413D01*
X238536414Y-100801839D01*
X238460088Y-100715930D01*
X238444082Y-100697019D01*
X238228408Y-100420480D01*
X238035867Y-100133919D01*
X237866276Y-99836917D01*
X237719453Y-99529053D01*
X237595214Y-99209907D01*
X237551026Y-99066350D01*
X239845850Y-99066350D01*
X239845850Y-99714050D01*
X240493550Y-99714050D01*
X240493550Y-99066350D01*
X243655850Y-99066350D01*
X243655850Y-99714050D01*
X244303550Y-99714050D01*
X244303550Y-99066350D01*
X243655850Y-99066350D01*
X240493550Y-99066350D01*
X239845850Y-99066350D01*
X237551026Y-99066350D01*
X237493375Y-98879061D01*
X237413754Y-98536093D01*
X237360769Y-98215450D01*
X237350888Y-98121325D01*
X237343481Y-98007046D01*
X237338522Y-97877736D01*
X237337270Y-97809050D01*
X240493550Y-97809050D01*
X240493550Y-98456750D01*
X241141250Y-98456750D01*
X241141250Y-97809050D01*
X241750850Y-97809050D01*
X241750850Y-98456750D01*
X242398550Y-98456750D01*
X242398550Y-97809050D01*
X243046250Y-97809050D01*
X243046250Y-98456750D01*
X243655850Y-98456750D01*
X243655850Y-97809050D01*
X243046250Y-97809050D01*
X242398550Y-97809050D01*
X241750850Y-97809050D01*
X241141250Y-97809050D01*
X240493550Y-97809050D01*
X237337270Y-97809050D01*
X237335984Y-97738517D01*
X237335841Y-97594510D01*
X237338067Y-97450840D01*
X237342634Y-97312628D01*
X237349517Y-97184996D01*
X237358689Y-97073068D01*
X237367041Y-97002600D01*
X237428516Y-96653000D01*
X237453727Y-96551750D01*
X241141250Y-96551750D01*
X241141250Y-97161350D01*
X241750850Y-97161350D01*
X241750850Y-96551750D01*
X242398550Y-96551750D01*
X242398550Y-97161350D01*
X243046250Y-97161350D01*
X243046250Y-96551750D01*
X242398550Y-96551750D01*
X241750850Y-96551750D01*
X241141250Y-96551750D01*
X237453727Y-96551750D01*
X237513155Y-96313085D01*
X237620643Y-95983496D01*
X237750667Y-95664875D01*
X237902914Y-95357863D01*
X237962890Y-95256350D01*
X241750850Y-95256350D01*
X241750850Y-95904050D01*
X242398550Y-95904050D01*
X242398550Y-95256350D01*
X241750850Y-95256350D01*
X237962890Y-95256350D01*
X238077068Y-95063100D01*
X238272816Y-94781228D01*
X238489844Y-94512888D01*
X238693906Y-94292783D01*
X238951033Y-94049340D01*
X239219959Y-93828370D01*
X239500740Y-93629846D01*
X239793434Y-93453739D01*
X240098097Y-93300021D01*
X240414787Y-93168663D01*
X240743561Y-93059638D01*
X241084475Y-92972916D01*
X241437588Y-92908470D01*
X241509550Y-92898269D01*
X241603488Y-92888410D01*
X241717590Y-92881021D01*
X241846739Y-92876073D01*
X241985821Y-92873542D01*
X242129723Y-92873399D01*
X242273329Y-92875618D01*
D13*
X153987500Y-85725000D03*
X58737500Y-66675000D03*
X58737500Y-104775000D03*
X249237500Y-66675000D03*
X249237500Y-104775000D03*
X58737500Y-85725000D03*
X249237500Y-85725000D03*
M02*
