%TF.GenerationSoftware,KiCad,Pcbnew,4.0.7*%
%TF.CreationDate,2018-01-16T00:43:50-08:00*%
%TF.ProjectId,DanckBottomPlate,44616E636B426F74746F6D506C617465,rev?*%
%TF.FileFunction,Soldermask,Bot*%
%FSLAX46Y46*%
G04 Gerber Fmt 4.6, Leading zero omitted, Abs format (unit mm)*
G04 Created by KiCad (PCBNEW 4.0.7) date 01/16/18 00:43:50*
%MOMM*%
%LPD*%
G01*
G04 APERTURE LIST*
%ADD10C,0.100000*%
%ADD11C,0.300000*%
%ADD12C,4.400000*%
G04 APERTURE END LIST*
D10*
D11*
X245092857Y-102696429D02*
X244711904Y-104029762D01*
X244330952Y-103077381D01*
X243950000Y-104029762D01*
X243569047Y-102696429D01*
X242997619Y-102696429D02*
X242616666Y-104029762D01*
X242235714Y-103077381D01*
X241854762Y-104029762D01*
X241473809Y-102696429D01*
X240902381Y-102696429D02*
X240521428Y-104029762D01*
X240140476Y-103077381D01*
X239759524Y-104029762D01*
X239378571Y-102696429D01*
X238616667Y-103839286D02*
X238521428Y-103934524D01*
X238616667Y-104029762D01*
X238711905Y-103934524D01*
X238616667Y-103839286D01*
X238616667Y-104029762D01*
X236807143Y-103934524D02*
X236997619Y-104029762D01*
X237378571Y-104029762D01*
X237569047Y-103934524D01*
X237664286Y-103839286D01*
X237759524Y-103648810D01*
X237759524Y-103077381D01*
X237664286Y-102886905D01*
X237569047Y-102791667D01*
X237378571Y-102696429D01*
X236997619Y-102696429D01*
X236807143Y-102791667D01*
X235092857Y-104029762D02*
X235092857Y-102982143D01*
X235188095Y-102791667D01*
X235378571Y-102696429D01*
X235759523Y-102696429D01*
X235950000Y-102791667D01*
X235092857Y-103934524D02*
X235283333Y-104029762D01*
X235759523Y-104029762D01*
X235950000Y-103934524D01*
X236045238Y-103744048D01*
X236045238Y-103553571D01*
X235950000Y-103363095D01*
X235759523Y-103267857D01*
X235283333Y-103267857D01*
X235092857Y-103172619D01*
X234140476Y-104029762D02*
X234140476Y-102696429D01*
X234140476Y-103077381D02*
X234045237Y-102886905D01*
X233949999Y-102791667D01*
X233759523Y-102696429D01*
X233569047Y-102696429D01*
X233188095Y-102696429D02*
X232426190Y-102696429D01*
X232902381Y-102029762D02*
X232902381Y-103744048D01*
X232807142Y-103934524D01*
X232616666Y-104029762D01*
X232426190Y-104029762D01*
X230997619Y-103934524D02*
X231188095Y-104029762D01*
X231569047Y-104029762D01*
X231759524Y-103934524D01*
X231854762Y-103744048D01*
X231854762Y-102982143D01*
X231759524Y-102791667D01*
X231569047Y-102696429D01*
X231188095Y-102696429D01*
X230997619Y-102791667D01*
X230902381Y-102982143D01*
X230902381Y-103172619D01*
X231854762Y-103363095D01*
X229759523Y-104029762D02*
X229949999Y-103934524D01*
X230045238Y-103744048D01*
X230045238Y-102029762D01*
X228997619Y-103839286D02*
X228902380Y-103934524D01*
X228997619Y-104029762D01*
X229092857Y-103934524D01*
X228997619Y-103839286D01*
X228997619Y-104029762D01*
X227759523Y-104029762D02*
X227949999Y-103934524D01*
X228045238Y-103744048D01*
X228045238Y-102029762D01*
X227283333Y-102696429D02*
X226521428Y-102696429D01*
X226997619Y-102029762D02*
X226997619Y-103744048D01*
X226902380Y-103934524D01*
X226711904Y-104029762D01*
X226521428Y-104029762D01*
X224997619Y-104029762D02*
X224997619Y-102029762D01*
X224997619Y-103934524D02*
X225188095Y-104029762D01*
X225569047Y-104029762D01*
X225759523Y-103934524D01*
X225854762Y-103839286D01*
X225950000Y-103648810D01*
X225950000Y-103077381D01*
X225854762Y-102886905D01*
X225759523Y-102791667D01*
X225569047Y-102696429D01*
X225188095Y-102696429D01*
X224997619Y-102791667D01*
X244235715Y-105996429D02*
X243854762Y-107329762D01*
X243473810Y-106377381D01*
X243092858Y-107329762D01*
X242711905Y-105996429D01*
X242140477Y-105996429D02*
X241759524Y-107329762D01*
X241378572Y-106377381D01*
X240997620Y-107329762D01*
X240616667Y-105996429D01*
X240045239Y-105996429D02*
X239664286Y-107329762D01*
X239283334Y-106377381D01*
X238902382Y-107329762D01*
X238521429Y-105996429D01*
X237759525Y-107139286D02*
X237664286Y-107234524D01*
X237759525Y-107329762D01*
X237854763Y-107234524D01*
X237759525Y-107139286D01*
X237759525Y-107329762D01*
X235950001Y-107329762D02*
X235950001Y-106282143D01*
X236045239Y-106091667D01*
X236235715Y-105996429D01*
X236616667Y-105996429D01*
X236807144Y-106091667D01*
X235950001Y-107234524D02*
X236140477Y-107329762D01*
X236616667Y-107329762D01*
X236807144Y-107234524D01*
X236902382Y-107044048D01*
X236902382Y-106853571D01*
X236807144Y-106663095D01*
X236616667Y-106567857D01*
X236140477Y-106567857D01*
X235950001Y-106472619D01*
X234997620Y-107329762D02*
X234997620Y-105996429D01*
X234997620Y-105329762D02*
X235092858Y-105425000D01*
X234997620Y-105520238D01*
X234902381Y-105425000D01*
X234997620Y-105329762D01*
X234997620Y-105520238D01*
X233664286Y-105329762D02*
X233473810Y-105329762D01*
X233283334Y-105425000D01*
X233188096Y-105520238D01*
X233092858Y-105710714D01*
X232997619Y-106091667D01*
X232997619Y-106567857D01*
X233092858Y-106948810D01*
X233188096Y-107139286D01*
X233283334Y-107234524D01*
X233473810Y-107329762D01*
X233664286Y-107329762D01*
X233854762Y-107234524D01*
X233950000Y-107139286D01*
X234045239Y-106948810D01*
X234140477Y-106567857D01*
X234140477Y-106091667D01*
X234045239Y-105710714D01*
X233950000Y-105520238D01*
X233854762Y-105425000D01*
X233664286Y-105329762D01*
X232330953Y-105329762D02*
X231092857Y-105329762D01*
X231759524Y-106091667D01*
X231473810Y-106091667D01*
X231283334Y-106186905D01*
X231188096Y-106282143D01*
X231092857Y-106472619D01*
X231092857Y-106948810D01*
X231188096Y-107139286D01*
X231283334Y-107234524D01*
X231473810Y-107329762D01*
X232045238Y-107329762D01*
X232235715Y-107234524D01*
X232330953Y-107139286D01*
X230235715Y-107139286D02*
X230140476Y-107234524D01*
X230235715Y-107329762D01*
X230330953Y-107234524D01*
X230235715Y-107139286D01*
X230235715Y-107329762D01*
X229283334Y-107329762D02*
X229283334Y-105996429D01*
X229283334Y-106186905D02*
X229188095Y-106091667D01*
X228997619Y-105996429D01*
X228711905Y-105996429D01*
X228521429Y-106091667D01*
X228426191Y-106282143D01*
X228426191Y-107329762D01*
X228426191Y-106282143D02*
X228330953Y-106091667D01*
X228140476Y-105996429D01*
X227854762Y-105996429D01*
X227664286Y-106091667D01*
X227569048Y-106282143D01*
X227569048Y-107329762D01*
X225854762Y-107234524D02*
X226045238Y-107329762D01*
X226426190Y-107329762D01*
X226616667Y-107234524D01*
X226711905Y-107044048D01*
X226711905Y-106282143D01*
X226616667Y-106091667D01*
X226426190Y-105996429D01*
X226045238Y-105996429D01*
X225854762Y-106091667D01*
X225759524Y-106282143D01*
X225759524Y-106472619D01*
X226711905Y-106663095D01*
X69548065Y-86629762D02*
X70214732Y-85677381D01*
X70690923Y-86629762D02*
X70690923Y-84629762D01*
X69929018Y-84629762D01*
X69738542Y-84725000D01*
X69643303Y-84820238D01*
X69548065Y-85010714D01*
X69548065Y-85296429D01*
X69643303Y-85486905D01*
X69738542Y-85582143D01*
X69929018Y-85677381D01*
X70690923Y-85677381D01*
X67929018Y-86534524D02*
X68119494Y-86629762D01*
X68500446Y-86629762D01*
X68690923Y-86534524D01*
X68786161Y-86344048D01*
X68786161Y-85582143D01*
X68690923Y-85391667D01*
X68500446Y-85296429D01*
X68119494Y-85296429D01*
X67929018Y-85391667D01*
X67833780Y-85582143D01*
X67833780Y-85772619D01*
X68786161Y-85963095D01*
X67071875Y-86534524D02*
X66881398Y-86629762D01*
X66500446Y-86629762D01*
X66309970Y-86534524D01*
X66214732Y-86344048D01*
X66214732Y-86248810D01*
X66309970Y-86058333D01*
X66500446Y-85963095D01*
X66786160Y-85963095D01*
X66976637Y-85867857D01*
X67071875Y-85677381D01*
X67071875Y-85582143D01*
X66976637Y-85391667D01*
X66786160Y-85296429D01*
X66500446Y-85296429D01*
X66309970Y-85391667D01*
X64595684Y-86534524D02*
X64786160Y-86629762D01*
X65167112Y-86629762D01*
X65357589Y-86534524D01*
X65452827Y-86344048D01*
X65452827Y-85582143D01*
X65357589Y-85391667D01*
X65167112Y-85296429D01*
X64786160Y-85296429D01*
X64595684Y-85391667D01*
X64500446Y-85582143D01*
X64500446Y-85772619D01*
X65452827Y-85963095D01*
X63929017Y-85296429D02*
X63167112Y-85296429D01*
X63643303Y-84629762D02*
X63643303Y-86344048D01*
X63548064Y-86534524D01*
X63357588Y-86629762D01*
X63167112Y-86629762D01*
D12*
X153987500Y-85725000D03*
X58737500Y-66675000D03*
X58737500Y-104775000D03*
X249237500Y-66675000D03*
X249237500Y-104775000D03*
X58737500Y-85725000D03*
X249237500Y-85725000D03*
M02*
