%TF.GenerationSoftware,KiCad,Pcbnew,4.0.7*%
%TF.CreationDate,2018-01-16T00:50:28-08:00*%
%TF.ProjectId,DanckTopPlate,44616E636B546F70506C6174652E6B69,rev?*%
%TF.FileFunction,Copper,L2,Bot,Signal*%
%FSLAX46Y46*%
G04 Gerber Fmt 4.6, Leading zero omitted, Abs format (unit mm)*
G04 Created by KiCad (PCBNEW 4.0.7) date 01/16/18 00:50:28*
%MOMM*%
%LPD*%
G01*
G04 APERTURE LIST*
%ADD10C,0.100000*%
%ADD11C,1.524000*%
%ADD12C,0.254000*%
G04 APERTURE END LIST*
D10*
D11*
X74803000Y-86360000D03*
D12*
G36*
X264094351Y-67791800D02*
X264247821Y-67797658D01*
X264390247Y-67814351D01*
X264528311Y-67841661D01*
X264665929Y-67880805D01*
X264799955Y-67930204D01*
X264931090Y-67990911D01*
X265056588Y-68060548D01*
X265174212Y-68139524D01*
X265286098Y-68226992D01*
X265390015Y-68324871D01*
X265489562Y-68431866D01*
X265578712Y-68544180D01*
X265657518Y-68662158D01*
X265727457Y-68785769D01*
X265786920Y-68915977D01*
X265837301Y-69051849D01*
X265875959Y-69187458D01*
X265903361Y-69327056D01*
X265920400Y-69471029D01*
X265927000Y-69625889D01*
X265927000Y-141042103D01*
X265920411Y-141195323D01*
X265903362Y-141339494D01*
X265875839Y-141479616D01*
X265837110Y-141616702D01*
X265787270Y-141750894D01*
X265727851Y-141880017D01*
X265656893Y-142005434D01*
X265577900Y-142124860D01*
X265489576Y-142236172D01*
X265391049Y-142342009D01*
X265287195Y-142438824D01*
X265172863Y-142528245D01*
X265055181Y-142608279D01*
X264932964Y-142676057D01*
X264799807Y-142736503D01*
X264663998Y-142787835D01*
X264528857Y-142826116D01*
X264390134Y-142853426D01*
X264247766Y-142870302D01*
X264094656Y-142875974D01*
X38274206Y-142875974D01*
X38119713Y-142870294D01*
X37976995Y-142853380D01*
X37837364Y-142826083D01*
X37703406Y-142787955D01*
X37566765Y-142736315D01*
X37433697Y-142676217D01*
X37312983Y-142608701D01*
X37194586Y-142528358D01*
X37080632Y-142438902D01*
X36975094Y-142340825D01*
X36876850Y-142236244D01*
X36790091Y-142125727D01*
X36710755Y-142006194D01*
X36640515Y-141880611D01*
X36580219Y-141750500D01*
X36530823Y-141617027D01*
X36492084Y-141479872D01*
X36464677Y-141339673D01*
X36447514Y-141194862D01*
X36440707Y-141041707D01*
X36440968Y-127508000D01*
X38050470Y-127508000D01*
X38050470Y-140308580D01*
X38092945Y-140522117D01*
X38213904Y-140703146D01*
X38394933Y-140824105D01*
X38608470Y-140866580D01*
X38851100Y-140866580D01*
X38851100Y-140908030D01*
X38893575Y-141121567D01*
X39014534Y-141302596D01*
X39195563Y-141423555D01*
X39409100Y-141466030D01*
X53408600Y-141466030D01*
X53622137Y-141423555D01*
X53803166Y-141302596D01*
X53924125Y-141121567D01*
X53966600Y-140908030D01*
X53966600Y-140866580D01*
X54209200Y-140866580D01*
X54422737Y-140824105D01*
X54603766Y-140703146D01*
X54724725Y-140522117D01*
X54767200Y-140308580D01*
X54767200Y-127508000D01*
X57100500Y-127508000D01*
X57100500Y-140308580D01*
X57142975Y-140522117D01*
X57263934Y-140703146D01*
X57444963Y-140824105D01*
X57658500Y-140866580D01*
X57901100Y-140866580D01*
X57901100Y-140908030D01*
X57943575Y-141121567D01*
X58064534Y-141302596D01*
X58245563Y-141423555D01*
X58459100Y-141466030D01*
X72458500Y-141466030D01*
X72672037Y-141423555D01*
X72853066Y-141302596D01*
X72974025Y-141121567D01*
X73016500Y-140908030D01*
X73016500Y-140866580D01*
X73259300Y-140866580D01*
X73472837Y-140824105D01*
X73653866Y-140703146D01*
X73774825Y-140522117D01*
X73817300Y-140308580D01*
X73817300Y-127508000D01*
X76150400Y-127508000D01*
X76150400Y-140308580D01*
X76192875Y-140522117D01*
X76313834Y-140703146D01*
X76494863Y-140824105D01*
X76708400Y-140866580D01*
X76951200Y-140866580D01*
X76951200Y-140908030D01*
X76993675Y-141121567D01*
X77114634Y-141302596D01*
X77295663Y-141423555D01*
X77509200Y-141466030D01*
X91508500Y-141466030D01*
X91722037Y-141423555D01*
X91903066Y-141302596D01*
X92024025Y-141121567D01*
X92066500Y-140908030D01*
X92066500Y-140866580D01*
X92309300Y-140866580D01*
X92522837Y-140824105D01*
X92703866Y-140703146D01*
X92824825Y-140522117D01*
X92867300Y-140308580D01*
X92867300Y-127508000D01*
X95200400Y-127508000D01*
X95200400Y-140308580D01*
X95242875Y-140522117D01*
X95363834Y-140703146D01*
X95544863Y-140824105D01*
X95758400Y-140866580D01*
X96001200Y-140866580D01*
X96001200Y-140908030D01*
X96043675Y-141121567D01*
X96164634Y-141302596D01*
X96345663Y-141423555D01*
X96559200Y-141466030D01*
X110558500Y-141466030D01*
X110772037Y-141423555D01*
X110953066Y-141302596D01*
X111074025Y-141121567D01*
X111116500Y-140908030D01*
X111116500Y-140866580D01*
X111359300Y-140866580D01*
X111572837Y-140824105D01*
X111753866Y-140703146D01*
X111874825Y-140522117D01*
X111917300Y-140308580D01*
X111917300Y-127508000D01*
X114250400Y-127508000D01*
X114250400Y-140308580D01*
X114292875Y-140522117D01*
X114413834Y-140703146D01*
X114594863Y-140824105D01*
X114808400Y-140866580D01*
X115051200Y-140866580D01*
X115051200Y-140908030D01*
X115093675Y-141121567D01*
X115214634Y-141302596D01*
X115395663Y-141423555D01*
X115609200Y-141466030D01*
X129608500Y-141466030D01*
X129822037Y-141423555D01*
X130003066Y-141302596D01*
X130124025Y-141121567D01*
X130166500Y-140908030D01*
X130166500Y-140866580D01*
X130407900Y-140866580D01*
X130621437Y-140824105D01*
X130802466Y-140703146D01*
X130923425Y-140522117D01*
X130965900Y-140308580D01*
X130965900Y-127508000D01*
X133300400Y-127508000D01*
X133300400Y-140308580D01*
X133342875Y-140522117D01*
X133463834Y-140703146D01*
X133644863Y-140824105D01*
X133858400Y-140866580D01*
X134099800Y-140866580D01*
X134099800Y-140908030D01*
X134142275Y-141121567D01*
X134263234Y-141302596D01*
X134444263Y-141423555D01*
X134657800Y-141466030D01*
X167708000Y-141466030D01*
X167921537Y-141423555D01*
X168102566Y-141302596D01*
X168223525Y-141121567D01*
X168266000Y-140908030D01*
X168266000Y-140866580D01*
X168509000Y-140866580D01*
X168722537Y-140824105D01*
X168903566Y-140703146D01*
X169024525Y-140522117D01*
X169067000Y-140308580D01*
X169067000Y-127508000D01*
X171400000Y-127508000D01*
X171400000Y-140308580D01*
X171442475Y-140522117D01*
X171563434Y-140703146D01*
X171744463Y-140824105D01*
X171958000Y-140866580D01*
X172201000Y-140866580D01*
X172201000Y-140908030D01*
X172243475Y-141121567D01*
X172364434Y-141302596D01*
X172545463Y-141423555D01*
X172759000Y-141466030D01*
X186758000Y-141466030D01*
X186971537Y-141423555D01*
X187152566Y-141302596D01*
X187273525Y-141121567D01*
X187316000Y-140908030D01*
X187316000Y-140866580D01*
X187559000Y-140866580D01*
X187772537Y-140824105D01*
X187953566Y-140703146D01*
X188074525Y-140522117D01*
X188117000Y-140308580D01*
X188117000Y-127508000D01*
X190450000Y-127508000D01*
X190450000Y-140308580D01*
X190492475Y-140522117D01*
X190613434Y-140703146D01*
X190794463Y-140824105D01*
X191008000Y-140866580D01*
X191251000Y-140866580D01*
X191251000Y-140908030D01*
X191293475Y-141121567D01*
X191414434Y-141302596D01*
X191595463Y-141423555D01*
X191809000Y-141466030D01*
X205808000Y-141466030D01*
X206021537Y-141423555D01*
X206202566Y-141302596D01*
X206323525Y-141121567D01*
X206366000Y-140908030D01*
X206366000Y-140866580D01*
X206609000Y-140866580D01*
X206822537Y-140824105D01*
X207003566Y-140703146D01*
X207124525Y-140522117D01*
X207167000Y-140308580D01*
X207167000Y-127508000D01*
X209500000Y-127508000D01*
X209500000Y-140308580D01*
X209542475Y-140522117D01*
X209663434Y-140703146D01*
X209844463Y-140824105D01*
X210058000Y-140866580D01*
X210301000Y-140866580D01*
X210301000Y-140908030D01*
X210343475Y-141121567D01*
X210464434Y-141302596D01*
X210645463Y-141423555D01*
X210859000Y-141466030D01*
X224858000Y-141466030D01*
X225071537Y-141423555D01*
X225252566Y-141302596D01*
X225373525Y-141121567D01*
X225416000Y-140908030D01*
X225416000Y-140866580D01*
X225659000Y-140866580D01*
X225872537Y-140824105D01*
X226053566Y-140703146D01*
X226174525Y-140522117D01*
X226217000Y-140308580D01*
X226217000Y-127508000D01*
X228550000Y-127508000D01*
X228550000Y-140308580D01*
X228592475Y-140522117D01*
X228713434Y-140703146D01*
X228894463Y-140824105D01*
X229108000Y-140866580D01*
X229351000Y-140866580D01*
X229351000Y-140908030D01*
X229393475Y-141121567D01*
X229514434Y-141302596D01*
X229695463Y-141423555D01*
X229909000Y-141466030D01*
X243908000Y-141466030D01*
X244121537Y-141423555D01*
X244302566Y-141302596D01*
X244423525Y-141121567D01*
X244466000Y-140908030D01*
X244466000Y-140866580D01*
X244709000Y-140866580D01*
X244922537Y-140824105D01*
X245103566Y-140703146D01*
X245224525Y-140522117D01*
X245267000Y-140308580D01*
X245267000Y-127508000D01*
X247600000Y-127508000D01*
X247600000Y-140308580D01*
X247642475Y-140522117D01*
X247763434Y-140703146D01*
X247944463Y-140824105D01*
X248158000Y-140866580D01*
X248401000Y-140866580D01*
X248401000Y-140908030D01*
X248443475Y-141121567D01*
X248564434Y-141302596D01*
X248745463Y-141423555D01*
X248959000Y-141466030D01*
X262958000Y-141466030D01*
X263171537Y-141423555D01*
X263352566Y-141302596D01*
X263473525Y-141121567D01*
X263516000Y-140908030D01*
X263516000Y-140866580D01*
X263759000Y-140866580D01*
X263972537Y-140824105D01*
X264153566Y-140703146D01*
X264274525Y-140522117D01*
X264317000Y-140308580D01*
X264317000Y-127508000D01*
X264274525Y-127294463D01*
X264153566Y-127113434D01*
X263972537Y-126992475D01*
X263759000Y-126950000D01*
X263516000Y-126950000D01*
X263516000Y-126908500D01*
X263473525Y-126694963D01*
X263352566Y-126513934D01*
X263171537Y-126392975D01*
X262958000Y-126350500D01*
X248959000Y-126350500D01*
X248745463Y-126392975D01*
X248564434Y-126513934D01*
X248443475Y-126694963D01*
X248401000Y-126908500D01*
X248401000Y-126950000D01*
X248158000Y-126950000D01*
X247944463Y-126992475D01*
X247763434Y-127113434D01*
X247642475Y-127294463D01*
X247600000Y-127508000D01*
X245267000Y-127508000D01*
X245224525Y-127294463D01*
X245103566Y-127113434D01*
X244922537Y-126992475D01*
X244709000Y-126950000D01*
X244466000Y-126950000D01*
X244466000Y-126908500D01*
X244423525Y-126694963D01*
X244302566Y-126513934D01*
X244121537Y-126392975D01*
X243908000Y-126350500D01*
X229909000Y-126350500D01*
X229695463Y-126392975D01*
X229514434Y-126513934D01*
X229393475Y-126694963D01*
X229351000Y-126908500D01*
X229351000Y-126950000D01*
X229108000Y-126950000D01*
X228894463Y-126992475D01*
X228713434Y-127113434D01*
X228592475Y-127294463D01*
X228550000Y-127508000D01*
X226217000Y-127508000D01*
X226174525Y-127294463D01*
X226053566Y-127113434D01*
X225872537Y-126992475D01*
X225659000Y-126950000D01*
X225416000Y-126950000D01*
X225416000Y-126908500D01*
X225373525Y-126694963D01*
X225252566Y-126513934D01*
X225071537Y-126392975D01*
X224858000Y-126350500D01*
X210859000Y-126350500D01*
X210645463Y-126392975D01*
X210464434Y-126513934D01*
X210343475Y-126694963D01*
X210301000Y-126908500D01*
X210301000Y-126950000D01*
X210058000Y-126950000D01*
X209844463Y-126992475D01*
X209663434Y-127113434D01*
X209542475Y-127294463D01*
X209500000Y-127508000D01*
X207167000Y-127508000D01*
X207124525Y-127294463D01*
X207003566Y-127113434D01*
X206822537Y-126992475D01*
X206609000Y-126950000D01*
X206366000Y-126950000D01*
X206366000Y-126908500D01*
X206323525Y-126694963D01*
X206202566Y-126513934D01*
X206021537Y-126392975D01*
X205808000Y-126350500D01*
X191809000Y-126350500D01*
X191595463Y-126392975D01*
X191414434Y-126513934D01*
X191293475Y-126694963D01*
X191251000Y-126908500D01*
X191251000Y-126950000D01*
X191008000Y-126950000D01*
X190794463Y-126992475D01*
X190613434Y-127113434D01*
X190492475Y-127294463D01*
X190450000Y-127508000D01*
X188117000Y-127508000D01*
X188074525Y-127294463D01*
X187953566Y-127113434D01*
X187772537Y-126992475D01*
X187559000Y-126950000D01*
X187316000Y-126950000D01*
X187316000Y-126908500D01*
X187273525Y-126694963D01*
X187152566Y-126513934D01*
X186971537Y-126392975D01*
X186758000Y-126350500D01*
X172759000Y-126350500D01*
X172545463Y-126392975D01*
X172364434Y-126513934D01*
X172243475Y-126694963D01*
X172201000Y-126908500D01*
X172201000Y-126950000D01*
X171958000Y-126950000D01*
X171744463Y-126992475D01*
X171563434Y-127113434D01*
X171442475Y-127294463D01*
X171400000Y-127508000D01*
X169067000Y-127508000D01*
X169024525Y-127294463D01*
X168903566Y-127113434D01*
X168722537Y-126992475D01*
X168509000Y-126950000D01*
X168266000Y-126950000D01*
X168266000Y-126908500D01*
X168223525Y-126694963D01*
X168102566Y-126513934D01*
X167921537Y-126392975D01*
X167708000Y-126350500D01*
X165292000Y-126350500D01*
X165292000Y-125938400D01*
X165249525Y-125724863D01*
X165128566Y-125543834D01*
X164947537Y-125422875D01*
X164734000Y-125380400D01*
X161433000Y-125380400D01*
X161432713Y-125380457D01*
X161432425Y-125380400D01*
X161325680Y-125401747D01*
X161219463Y-125422875D01*
X161219220Y-125423037D01*
X161218932Y-125423095D01*
X161128564Y-125483611D01*
X161038434Y-125543834D01*
X161038271Y-125544077D01*
X161038027Y-125544241D01*
X160977734Y-125634679D01*
X160917475Y-125724863D01*
X160917418Y-125725151D01*
X160917255Y-125725395D01*
X160896146Y-125832094D01*
X160875000Y-125938400D01*
X160875057Y-125938687D01*
X160875000Y-125938975D01*
X160875424Y-126350500D01*
X141491000Y-126350500D01*
X141491000Y-125938400D01*
X141448525Y-125724863D01*
X141327566Y-125543834D01*
X141146537Y-125422875D01*
X140933000Y-125380400D01*
X137634000Y-125380400D01*
X137420463Y-125422875D01*
X137239434Y-125543834D01*
X137118475Y-125724863D01*
X137076000Y-125938400D01*
X137076000Y-126350500D01*
X134657800Y-126350500D01*
X134444263Y-126392975D01*
X134263234Y-126513934D01*
X134142275Y-126694963D01*
X134099800Y-126908500D01*
X134099800Y-126950000D01*
X133858400Y-126950000D01*
X133644863Y-126992475D01*
X133463834Y-127113434D01*
X133342875Y-127294463D01*
X133300400Y-127508000D01*
X130965900Y-127508000D01*
X130923425Y-127294463D01*
X130802466Y-127113434D01*
X130621437Y-126992475D01*
X130407900Y-126950000D01*
X130166500Y-126950000D01*
X130166500Y-126908500D01*
X130124025Y-126694963D01*
X130003066Y-126513934D01*
X129822037Y-126392975D01*
X129608500Y-126350500D01*
X115609200Y-126350500D01*
X115395663Y-126392975D01*
X115214634Y-126513934D01*
X115093675Y-126694963D01*
X115051200Y-126908500D01*
X115051200Y-126950000D01*
X114808400Y-126950000D01*
X114594863Y-126992475D01*
X114413834Y-127113434D01*
X114292875Y-127294463D01*
X114250400Y-127508000D01*
X111917300Y-127508000D01*
X111874825Y-127294463D01*
X111753866Y-127113434D01*
X111572837Y-126992475D01*
X111359300Y-126950000D01*
X111116500Y-126950000D01*
X111116500Y-126908500D01*
X111074025Y-126694963D01*
X110953066Y-126513934D01*
X110772037Y-126392975D01*
X110558500Y-126350500D01*
X96559200Y-126350500D01*
X96345663Y-126392975D01*
X96164634Y-126513934D01*
X96043675Y-126694963D01*
X96001200Y-126908500D01*
X96001200Y-126950000D01*
X95758400Y-126950000D01*
X95544863Y-126992475D01*
X95363834Y-127113434D01*
X95242875Y-127294463D01*
X95200400Y-127508000D01*
X92867300Y-127508000D01*
X92824825Y-127294463D01*
X92703866Y-127113434D01*
X92522837Y-126992475D01*
X92309300Y-126950000D01*
X92066500Y-126950000D01*
X92066500Y-126908500D01*
X92024025Y-126694963D01*
X91903066Y-126513934D01*
X91722037Y-126392975D01*
X91508500Y-126350500D01*
X77509200Y-126350500D01*
X77295663Y-126392975D01*
X77114634Y-126513934D01*
X76993675Y-126694963D01*
X76951200Y-126908500D01*
X76951200Y-126950000D01*
X76708400Y-126950000D01*
X76494863Y-126992475D01*
X76313834Y-127113434D01*
X76192875Y-127294463D01*
X76150400Y-127508000D01*
X73817300Y-127508000D01*
X73774825Y-127294463D01*
X73653866Y-127113434D01*
X73472837Y-126992475D01*
X73259300Y-126950000D01*
X73016500Y-126950000D01*
X73016500Y-126908500D01*
X72974025Y-126694963D01*
X72853066Y-126513934D01*
X72672037Y-126392975D01*
X72458500Y-126350500D01*
X58459100Y-126350500D01*
X58245563Y-126392975D01*
X58064534Y-126513934D01*
X57943575Y-126694963D01*
X57901100Y-126908500D01*
X57901100Y-126950000D01*
X57658500Y-126950000D01*
X57444963Y-126992475D01*
X57263934Y-127113434D01*
X57142975Y-127294463D01*
X57100500Y-127508000D01*
X54767200Y-127508000D01*
X54724725Y-127294463D01*
X54603766Y-127113434D01*
X54422737Y-126992475D01*
X54209200Y-126950000D01*
X53966600Y-126950000D01*
X53966600Y-126908500D01*
X53924125Y-126694963D01*
X53803166Y-126513934D01*
X53622137Y-126392975D01*
X53408600Y-126350500D01*
X39409100Y-126350500D01*
X39195563Y-126392975D01*
X39014534Y-126513934D01*
X38893575Y-126694963D01*
X38851100Y-126908500D01*
X38851100Y-126950000D01*
X38608470Y-126950000D01*
X38394933Y-126992475D01*
X38213904Y-127113434D01*
X38092945Y-127294463D01*
X38050470Y-127508000D01*
X36440968Y-127508000D01*
X36441017Y-124956683D01*
X53371565Y-124956683D01*
X53752581Y-125878812D01*
X54457477Y-126584939D01*
X55378939Y-126967564D01*
X56376683Y-126968435D01*
X57298812Y-126587419D01*
X58004939Y-125882523D01*
X58387564Y-124961061D01*
X58387567Y-124956683D01*
X243871565Y-124956683D01*
X244252581Y-125878812D01*
X244957477Y-126584939D01*
X245878939Y-126967564D01*
X246876683Y-126968435D01*
X247798812Y-126587419D01*
X248504939Y-125882523D01*
X248887564Y-124961061D01*
X248888435Y-123963317D01*
X248507419Y-123041188D01*
X247802523Y-122335061D01*
X246881061Y-121952436D01*
X245883317Y-121951565D01*
X244961188Y-122332581D01*
X244255061Y-123037477D01*
X243872436Y-123958939D01*
X243871565Y-124956683D01*
X58387567Y-124956683D01*
X58388435Y-123963317D01*
X58007419Y-123041188D01*
X57302523Y-122335061D01*
X56381061Y-121952436D01*
X55383317Y-121951565D01*
X54461188Y-122332581D01*
X53755061Y-123037477D01*
X53372436Y-123958939D01*
X53371565Y-124956683D01*
X36441017Y-124956683D01*
X36441335Y-108458000D01*
X38050470Y-108458000D01*
X38050470Y-121258600D01*
X38092945Y-121472137D01*
X38213904Y-121653166D01*
X38394933Y-121774125D01*
X38608470Y-121816600D01*
X38851100Y-121816600D01*
X38851100Y-121858000D01*
X38893575Y-122071537D01*
X39014534Y-122252566D01*
X39195563Y-122373525D01*
X39409100Y-122416000D01*
X53408600Y-122416000D01*
X53622137Y-122373525D01*
X53803166Y-122252566D01*
X53924125Y-122071537D01*
X53966600Y-121858000D01*
X53966600Y-121816600D01*
X54209200Y-121816600D01*
X54422737Y-121774125D01*
X54603766Y-121653166D01*
X54724725Y-121472137D01*
X54767200Y-121258600D01*
X54767200Y-108458000D01*
X57100500Y-108458000D01*
X57100500Y-121258600D01*
X57142975Y-121472137D01*
X57263934Y-121653166D01*
X57444963Y-121774125D01*
X57658500Y-121816600D01*
X57901100Y-121816600D01*
X57901100Y-121858000D01*
X57943575Y-122071537D01*
X58064534Y-122252566D01*
X58245563Y-122373525D01*
X58459100Y-122416000D01*
X72458500Y-122416000D01*
X72672037Y-122373525D01*
X72853066Y-122252566D01*
X72974025Y-122071537D01*
X73016500Y-121858000D01*
X73016500Y-121816600D01*
X73259300Y-121816600D01*
X73472837Y-121774125D01*
X73653866Y-121653166D01*
X73774825Y-121472137D01*
X73817300Y-121258600D01*
X73817300Y-108458000D01*
X76150400Y-108458000D01*
X76150400Y-121258600D01*
X76192875Y-121472137D01*
X76313834Y-121653166D01*
X76494863Y-121774125D01*
X76708400Y-121816600D01*
X76951200Y-121816600D01*
X76951200Y-121858000D01*
X76993675Y-122071537D01*
X77114634Y-122252566D01*
X77295663Y-122373525D01*
X77509200Y-122416000D01*
X91508500Y-122416000D01*
X91722037Y-122373525D01*
X91903066Y-122252566D01*
X92024025Y-122071537D01*
X92066500Y-121858000D01*
X92066500Y-121816600D01*
X92309300Y-121816600D01*
X92522837Y-121774125D01*
X92703866Y-121653166D01*
X92824825Y-121472137D01*
X92867300Y-121258600D01*
X92867300Y-108458000D01*
X95200400Y-108458000D01*
X95200400Y-121258600D01*
X95242875Y-121472137D01*
X95363834Y-121653166D01*
X95544863Y-121774125D01*
X95758400Y-121816600D01*
X96001200Y-121816600D01*
X96001200Y-121858000D01*
X96043675Y-122071537D01*
X96164634Y-122252566D01*
X96345663Y-122373525D01*
X96559200Y-122416000D01*
X110558500Y-122416000D01*
X110772037Y-122373525D01*
X110953066Y-122252566D01*
X111074025Y-122071537D01*
X111116500Y-121858000D01*
X111116500Y-121816600D01*
X111359300Y-121816600D01*
X111572837Y-121774125D01*
X111753866Y-121653166D01*
X111874825Y-121472137D01*
X111917300Y-121258600D01*
X111917300Y-108458000D01*
X114250400Y-108458000D01*
X114250400Y-121258600D01*
X114292875Y-121472137D01*
X114413834Y-121653166D01*
X114594863Y-121774125D01*
X114808400Y-121816600D01*
X115051200Y-121816600D01*
X115051200Y-121858000D01*
X115093675Y-122071537D01*
X115214634Y-122252566D01*
X115395663Y-122373525D01*
X115609200Y-122416000D01*
X129608500Y-122416000D01*
X129822037Y-122373525D01*
X130003066Y-122252566D01*
X130124025Y-122071537D01*
X130166500Y-121858000D01*
X130166500Y-121816600D01*
X130407900Y-121816600D01*
X130621437Y-121774125D01*
X130802466Y-121653166D01*
X130923425Y-121472137D01*
X130965900Y-121258600D01*
X130965900Y-108458000D01*
X133300400Y-108458000D01*
X133300400Y-121258600D01*
X133342875Y-121472137D01*
X133463834Y-121653166D01*
X133644863Y-121774125D01*
X133858400Y-121816600D01*
X134099800Y-121816600D01*
X134099800Y-121858000D01*
X134142275Y-122071537D01*
X134263234Y-122252566D01*
X134444263Y-122373525D01*
X134657800Y-122416000D01*
X148657000Y-122416000D01*
X148870537Y-122373525D01*
X149051566Y-122252566D01*
X149172525Y-122071537D01*
X149215000Y-121858000D01*
X149215000Y-121816600D01*
X149458000Y-121816600D01*
X149671537Y-121774125D01*
X149852566Y-121653166D01*
X149973525Y-121472137D01*
X150016000Y-121258600D01*
X150016000Y-108458000D01*
X152349000Y-108458000D01*
X152349000Y-121258600D01*
X152391475Y-121472137D01*
X152512434Y-121653166D01*
X152693463Y-121774125D01*
X152907000Y-121816600D01*
X153150000Y-121816600D01*
X153150000Y-121858000D01*
X153192475Y-122071537D01*
X153313434Y-122252566D01*
X153494463Y-122373525D01*
X153708000Y-122416000D01*
X167708000Y-122416000D01*
X167921537Y-122373525D01*
X168102566Y-122252566D01*
X168223525Y-122071537D01*
X168266000Y-121858000D01*
X168266000Y-121816600D01*
X168509000Y-121816600D01*
X168722537Y-121774125D01*
X168903566Y-121653166D01*
X169024525Y-121472137D01*
X169067000Y-121258600D01*
X169067000Y-108458000D01*
X171400000Y-108458000D01*
X171400000Y-121258600D01*
X171442475Y-121472137D01*
X171563434Y-121653166D01*
X171744463Y-121774125D01*
X171958000Y-121816600D01*
X172201000Y-121816600D01*
X172201000Y-121858000D01*
X172243475Y-122071537D01*
X172364434Y-122252566D01*
X172545463Y-122373525D01*
X172759000Y-122416000D01*
X186758000Y-122416000D01*
X186971537Y-122373525D01*
X187152566Y-122252566D01*
X187273525Y-122071537D01*
X187316000Y-121858000D01*
X187316000Y-121816600D01*
X187559000Y-121816600D01*
X187772537Y-121774125D01*
X187953566Y-121653166D01*
X188074525Y-121472137D01*
X188117000Y-121258600D01*
X188117000Y-108458000D01*
X190450000Y-108458000D01*
X190450000Y-121258600D01*
X190492475Y-121472137D01*
X190613434Y-121653166D01*
X190794463Y-121774125D01*
X191008000Y-121816600D01*
X191251000Y-121816600D01*
X191251000Y-121858000D01*
X191293475Y-122071537D01*
X191414434Y-122252566D01*
X191595463Y-122373525D01*
X191809000Y-122416000D01*
X205808000Y-122416000D01*
X206021537Y-122373525D01*
X206202566Y-122252566D01*
X206323525Y-122071537D01*
X206366000Y-121858000D01*
X206366000Y-121816600D01*
X206609000Y-121816600D01*
X206822537Y-121774125D01*
X207003566Y-121653166D01*
X207124525Y-121472137D01*
X207167000Y-121258600D01*
X207167000Y-108458000D01*
X209500000Y-108458000D01*
X209500000Y-121258600D01*
X209542475Y-121472137D01*
X209663434Y-121653166D01*
X209844463Y-121774125D01*
X210058000Y-121816600D01*
X210301000Y-121816600D01*
X210301000Y-121858000D01*
X210343475Y-122071537D01*
X210464434Y-122252566D01*
X210645463Y-122373525D01*
X210859000Y-122416000D01*
X224858000Y-122416000D01*
X225071537Y-122373525D01*
X225252566Y-122252566D01*
X225373525Y-122071537D01*
X225416000Y-121858000D01*
X225416000Y-121816600D01*
X225659000Y-121816600D01*
X225872537Y-121774125D01*
X226053566Y-121653166D01*
X226174525Y-121472137D01*
X226217000Y-121258600D01*
X226217000Y-108458000D01*
X228550000Y-108458000D01*
X228550000Y-121258600D01*
X228592475Y-121472137D01*
X228713434Y-121653166D01*
X228894463Y-121774125D01*
X229108000Y-121816600D01*
X229351000Y-121816600D01*
X229351000Y-121858000D01*
X229393475Y-122071537D01*
X229514434Y-122252566D01*
X229695463Y-122373525D01*
X229909000Y-122416000D01*
X243908000Y-122416000D01*
X244121537Y-122373525D01*
X244302566Y-122252566D01*
X244423525Y-122071537D01*
X244466000Y-121858000D01*
X244466000Y-121816600D01*
X244709000Y-121816600D01*
X244922537Y-121774125D01*
X245103566Y-121653166D01*
X245224525Y-121472137D01*
X245267000Y-121258600D01*
X245267000Y-108458000D01*
X247600000Y-108458000D01*
X247600000Y-121258600D01*
X247642475Y-121472137D01*
X247763434Y-121653166D01*
X247944463Y-121774125D01*
X248158000Y-121816600D01*
X248401000Y-121816600D01*
X248401000Y-121858000D01*
X248443475Y-122071537D01*
X248564434Y-122252566D01*
X248745463Y-122373525D01*
X248959000Y-122416000D01*
X262958000Y-122416000D01*
X263171537Y-122373525D01*
X263352566Y-122252566D01*
X263473525Y-122071537D01*
X263516000Y-121858000D01*
X263516000Y-121816600D01*
X263759000Y-121816600D01*
X263972537Y-121774125D01*
X264153566Y-121653166D01*
X264274525Y-121472137D01*
X264317000Y-121258600D01*
X264317000Y-108458000D01*
X264274525Y-108244463D01*
X264153566Y-108063434D01*
X263972537Y-107942475D01*
X263759000Y-107900000D01*
X263516000Y-107900000D01*
X263516000Y-107858600D01*
X263473525Y-107645063D01*
X263352566Y-107464034D01*
X263171537Y-107343075D01*
X262958000Y-107300600D01*
X248959000Y-107300600D01*
X248745463Y-107343075D01*
X248564434Y-107464034D01*
X248443475Y-107645063D01*
X248401000Y-107858600D01*
X248401000Y-107900000D01*
X248158000Y-107900000D01*
X247944463Y-107942475D01*
X247763434Y-108063434D01*
X247642475Y-108244463D01*
X247600000Y-108458000D01*
X245267000Y-108458000D01*
X245224525Y-108244463D01*
X245103566Y-108063434D01*
X244922537Y-107942475D01*
X244709000Y-107900000D01*
X244466000Y-107900000D01*
X244466000Y-107858600D01*
X244423525Y-107645063D01*
X244302566Y-107464034D01*
X244121537Y-107343075D01*
X243908000Y-107300600D01*
X229909000Y-107300600D01*
X229695463Y-107343075D01*
X229514434Y-107464034D01*
X229393475Y-107645063D01*
X229351000Y-107858600D01*
X229351000Y-107900000D01*
X229108000Y-107900000D01*
X228894463Y-107942475D01*
X228713434Y-108063434D01*
X228592475Y-108244463D01*
X228550000Y-108458000D01*
X226217000Y-108458000D01*
X226174525Y-108244463D01*
X226053566Y-108063434D01*
X225872537Y-107942475D01*
X225659000Y-107900000D01*
X225416000Y-107900000D01*
X225416000Y-107858600D01*
X225373525Y-107645063D01*
X225252566Y-107464034D01*
X225071537Y-107343075D01*
X224858000Y-107300600D01*
X210859000Y-107300600D01*
X210645463Y-107343075D01*
X210464434Y-107464034D01*
X210343475Y-107645063D01*
X210301000Y-107858600D01*
X210301000Y-107900000D01*
X210058000Y-107900000D01*
X209844463Y-107942475D01*
X209663434Y-108063434D01*
X209542475Y-108244463D01*
X209500000Y-108458000D01*
X207167000Y-108458000D01*
X207124525Y-108244463D01*
X207003566Y-108063434D01*
X206822537Y-107942475D01*
X206609000Y-107900000D01*
X206366000Y-107900000D01*
X206366000Y-107858600D01*
X206323525Y-107645063D01*
X206202566Y-107464034D01*
X206021537Y-107343075D01*
X205808000Y-107300600D01*
X191809000Y-107300600D01*
X191595463Y-107343075D01*
X191414434Y-107464034D01*
X191293475Y-107645063D01*
X191251000Y-107858600D01*
X191251000Y-107900000D01*
X191008000Y-107900000D01*
X190794463Y-107942475D01*
X190613434Y-108063434D01*
X190492475Y-108244463D01*
X190450000Y-108458000D01*
X188117000Y-108458000D01*
X188074525Y-108244463D01*
X187953566Y-108063434D01*
X187772537Y-107942475D01*
X187559000Y-107900000D01*
X187316000Y-107900000D01*
X187316000Y-107858600D01*
X187273525Y-107645063D01*
X187152566Y-107464034D01*
X186971537Y-107343075D01*
X186758000Y-107300600D01*
X172759000Y-107300600D01*
X172545463Y-107343075D01*
X172364434Y-107464034D01*
X172243475Y-107645063D01*
X172201000Y-107858600D01*
X172201000Y-107900000D01*
X171958000Y-107900000D01*
X171744463Y-107942475D01*
X171563434Y-108063434D01*
X171442475Y-108244463D01*
X171400000Y-108458000D01*
X169067000Y-108458000D01*
X169024525Y-108244463D01*
X168903566Y-108063434D01*
X168722537Y-107942475D01*
X168509000Y-107900000D01*
X168266000Y-107900000D01*
X168266000Y-107858600D01*
X168223525Y-107645063D01*
X168102566Y-107464034D01*
X167921537Y-107343075D01*
X167708000Y-107300600D01*
X153708000Y-107300600D01*
X153494463Y-107343075D01*
X153313434Y-107464034D01*
X153192475Y-107645063D01*
X153150000Y-107858600D01*
X153150000Y-107900000D01*
X152907000Y-107900000D01*
X152693463Y-107942475D01*
X152512434Y-108063434D01*
X152391475Y-108244463D01*
X152349000Y-108458000D01*
X150016000Y-108458000D01*
X149973525Y-108244463D01*
X149852566Y-108063434D01*
X149671537Y-107942475D01*
X149458000Y-107900000D01*
X149215000Y-107900000D01*
X149215000Y-107858600D01*
X149172525Y-107645063D01*
X149051566Y-107464034D01*
X148870537Y-107343075D01*
X148657000Y-107300600D01*
X134657800Y-107300600D01*
X134444263Y-107343075D01*
X134263234Y-107464034D01*
X134142275Y-107645063D01*
X134099800Y-107858600D01*
X134099800Y-107900000D01*
X133858400Y-107900000D01*
X133644863Y-107942475D01*
X133463834Y-108063434D01*
X133342875Y-108244463D01*
X133300400Y-108458000D01*
X130965900Y-108458000D01*
X130923425Y-108244463D01*
X130802466Y-108063434D01*
X130621437Y-107942475D01*
X130407900Y-107900000D01*
X130166500Y-107900000D01*
X130166500Y-107858600D01*
X130124025Y-107645063D01*
X130003066Y-107464034D01*
X129822037Y-107343075D01*
X129608500Y-107300600D01*
X115609200Y-107300600D01*
X115395663Y-107343075D01*
X115214634Y-107464034D01*
X115093675Y-107645063D01*
X115051200Y-107858600D01*
X115051200Y-107900000D01*
X114808400Y-107900000D01*
X114594863Y-107942475D01*
X114413834Y-108063434D01*
X114292875Y-108244463D01*
X114250400Y-108458000D01*
X111917300Y-108458000D01*
X111874825Y-108244463D01*
X111753866Y-108063434D01*
X111572837Y-107942475D01*
X111359300Y-107900000D01*
X111116500Y-107900000D01*
X111116500Y-107858600D01*
X111074025Y-107645063D01*
X110953066Y-107464034D01*
X110772037Y-107343075D01*
X110558500Y-107300600D01*
X96559200Y-107300600D01*
X96345663Y-107343075D01*
X96164634Y-107464034D01*
X96043675Y-107645063D01*
X96001200Y-107858600D01*
X96001200Y-107900000D01*
X95758400Y-107900000D01*
X95544863Y-107942475D01*
X95363834Y-108063434D01*
X95242875Y-108244463D01*
X95200400Y-108458000D01*
X92867300Y-108458000D01*
X92824825Y-108244463D01*
X92703866Y-108063434D01*
X92522837Y-107942475D01*
X92309300Y-107900000D01*
X92066500Y-107900000D01*
X92066500Y-107858600D01*
X92024025Y-107645063D01*
X91903066Y-107464034D01*
X91722037Y-107343075D01*
X91508500Y-107300600D01*
X77509200Y-107300600D01*
X77295663Y-107343075D01*
X77114634Y-107464034D01*
X76993675Y-107645063D01*
X76951200Y-107858600D01*
X76951200Y-107900000D01*
X76708400Y-107900000D01*
X76494863Y-107942475D01*
X76313834Y-108063434D01*
X76192875Y-108244463D01*
X76150400Y-108458000D01*
X73817300Y-108458000D01*
X73774825Y-108244463D01*
X73653866Y-108063434D01*
X73472837Y-107942475D01*
X73259300Y-107900000D01*
X73016500Y-107900000D01*
X73016500Y-107858600D01*
X72974025Y-107645063D01*
X72853066Y-107464034D01*
X72672037Y-107343075D01*
X72458500Y-107300600D01*
X58459100Y-107300600D01*
X58245563Y-107343075D01*
X58064534Y-107464034D01*
X57943575Y-107645063D01*
X57901100Y-107858600D01*
X57901100Y-107900000D01*
X57658500Y-107900000D01*
X57444963Y-107942475D01*
X57263934Y-108063434D01*
X57142975Y-108244463D01*
X57100500Y-108458000D01*
X54767200Y-108458000D01*
X54724725Y-108244463D01*
X54603766Y-108063434D01*
X54422737Y-107942475D01*
X54209200Y-107900000D01*
X53966600Y-107900000D01*
X53966600Y-107858600D01*
X53924125Y-107645063D01*
X53803166Y-107464034D01*
X53622137Y-107343075D01*
X53408600Y-107300600D01*
X39409100Y-107300600D01*
X39195563Y-107343075D01*
X39014534Y-107464034D01*
X38893575Y-107645063D01*
X38851100Y-107858600D01*
X38851100Y-107900000D01*
X38608470Y-107900000D01*
X38394933Y-107942475D01*
X38213904Y-108063434D01*
X38092945Y-108244463D01*
X38050470Y-108458000D01*
X36441335Y-108458000D01*
X36441384Y-105906683D01*
X148748565Y-105906683D01*
X149129581Y-106828812D01*
X149834477Y-107534939D01*
X150755939Y-107917564D01*
X151753683Y-107918435D01*
X152675812Y-107537419D01*
X153381939Y-106832523D01*
X153764564Y-105911061D01*
X153765435Y-104913317D01*
X153384419Y-103991188D01*
X152679523Y-103285061D01*
X151758061Y-102902436D01*
X150760317Y-102901565D01*
X149838188Y-103282581D01*
X149132061Y-103987477D01*
X148749436Y-104908939D01*
X148748565Y-105906683D01*
X36441384Y-105906683D01*
X36441702Y-89408000D01*
X38050470Y-89408000D01*
X38050470Y-102208600D01*
X38092945Y-102422137D01*
X38213904Y-102603166D01*
X38394933Y-102724125D01*
X38608470Y-102766600D01*
X38851100Y-102766600D01*
X38851100Y-102807900D01*
X38893575Y-103021437D01*
X39014534Y-103202466D01*
X39195563Y-103323425D01*
X39409100Y-103365900D01*
X53408600Y-103365900D01*
X53622137Y-103323425D01*
X53803166Y-103202466D01*
X53924125Y-103021437D01*
X53966600Y-102807900D01*
X53966600Y-102766600D01*
X54209200Y-102766600D01*
X54422737Y-102724125D01*
X54603766Y-102603166D01*
X54724725Y-102422137D01*
X54767200Y-102208600D01*
X54767200Y-89408000D01*
X57100500Y-89408000D01*
X57100500Y-102208600D01*
X57142975Y-102422137D01*
X57263934Y-102603166D01*
X57444963Y-102724125D01*
X57658500Y-102766600D01*
X57901100Y-102766600D01*
X57901100Y-102807900D01*
X57943575Y-103021437D01*
X58064534Y-103202466D01*
X58245563Y-103323425D01*
X58459100Y-103365900D01*
X72458500Y-103365900D01*
X72672037Y-103323425D01*
X72853066Y-103202466D01*
X72974025Y-103021437D01*
X73016500Y-102807900D01*
X73016500Y-102766600D01*
X73259300Y-102766600D01*
X73472837Y-102724125D01*
X73653866Y-102603166D01*
X73774825Y-102422137D01*
X73817300Y-102208600D01*
X73817300Y-89408000D01*
X76150400Y-89408000D01*
X76150400Y-102208600D01*
X76192875Y-102422137D01*
X76313834Y-102603166D01*
X76494863Y-102724125D01*
X76708400Y-102766600D01*
X76951200Y-102766600D01*
X76951200Y-102807900D01*
X76993675Y-103021437D01*
X77114634Y-103202466D01*
X77295663Y-103323425D01*
X77509200Y-103365900D01*
X91508500Y-103365900D01*
X91722037Y-103323425D01*
X91903066Y-103202466D01*
X92024025Y-103021437D01*
X92066500Y-102807900D01*
X92066500Y-102766600D01*
X92309300Y-102766600D01*
X92522837Y-102724125D01*
X92703866Y-102603166D01*
X92824825Y-102422137D01*
X92867300Y-102208600D01*
X92867300Y-89408000D01*
X95200400Y-89408000D01*
X95200400Y-102208600D01*
X95242875Y-102422137D01*
X95363834Y-102603166D01*
X95544863Y-102724125D01*
X95758400Y-102766600D01*
X96001200Y-102766600D01*
X96001200Y-102807900D01*
X96043675Y-103021437D01*
X96164634Y-103202466D01*
X96345663Y-103323425D01*
X96559200Y-103365900D01*
X110558500Y-103365900D01*
X110772037Y-103323425D01*
X110953066Y-103202466D01*
X111074025Y-103021437D01*
X111116500Y-102807900D01*
X111116500Y-102766600D01*
X111359300Y-102766600D01*
X111572837Y-102724125D01*
X111753866Y-102603166D01*
X111874825Y-102422137D01*
X111917300Y-102208600D01*
X111917300Y-89408000D01*
X114250400Y-89408000D01*
X114250400Y-102208600D01*
X114292875Y-102422137D01*
X114413834Y-102603166D01*
X114594863Y-102724125D01*
X114808400Y-102766600D01*
X115051200Y-102766600D01*
X115051200Y-102807900D01*
X115093675Y-103021437D01*
X115214634Y-103202466D01*
X115395663Y-103323425D01*
X115609200Y-103365900D01*
X129608500Y-103365900D01*
X129822037Y-103323425D01*
X130003066Y-103202466D01*
X130124025Y-103021437D01*
X130166500Y-102807900D01*
X130166500Y-102766600D01*
X130407900Y-102766600D01*
X130621437Y-102724125D01*
X130802466Y-102603166D01*
X130923425Y-102422137D01*
X130965900Y-102208600D01*
X130965900Y-89408000D01*
X133300400Y-89408000D01*
X133300400Y-102208600D01*
X133342875Y-102422137D01*
X133463834Y-102603166D01*
X133644863Y-102724125D01*
X133858400Y-102766600D01*
X134099800Y-102766600D01*
X134099800Y-102807900D01*
X134142275Y-103021437D01*
X134263234Y-103202466D01*
X134444263Y-103323425D01*
X134657800Y-103365900D01*
X148657000Y-103365900D01*
X148870537Y-103323425D01*
X149051566Y-103202466D01*
X149172525Y-103021437D01*
X149215000Y-102807900D01*
X149215000Y-102766600D01*
X149458000Y-102766600D01*
X149671537Y-102724125D01*
X149852566Y-102603166D01*
X149973525Y-102422137D01*
X150016000Y-102208600D01*
X150016000Y-89408000D01*
X152349000Y-89408000D01*
X152349000Y-102208600D01*
X152391475Y-102422137D01*
X152512434Y-102603166D01*
X152693463Y-102724125D01*
X152907000Y-102766600D01*
X153150000Y-102766600D01*
X153150000Y-102807900D01*
X153192475Y-103021437D01*
X153313434Y-103202466D01*
X153494463Y-103323425D01*
X153708000Y-103365900D01*
X167708000Y-103365900D01*
X167921537Y-103323425D01*
X168102566Y-103202466D01*
X168223525Y-103021437D01*
X168266000Y-102807900D01*
X168266000Y-102766600D01*
X168509000Y-102766600D01*
X168722537Y-102724125D01*
X168903566Y-102603166D01*
X169024525Y-102422137D01*
X169067000Y-102208600D01*
X169067000Y-89408000D01*
X171400000Y-89408000D01*
X171400000Y-102208600D01*
X171442475Y-102422137D01*
X171563434Y-102603166D01*
X171744463Y-102724125D01*
X171958000Y-102766600D01*
X172201000Y-102766600D01*
X172201000Y-102807900D01*
X172243475Y-103021437D01*
X172364434Y-103202466D01*
X172545463Y-103323425D01*
X172759000Y-103365900D01*
X186758000Y-103365900D01*
X186971537Y-103323425D01*
X187152566Y-103202466D01*
X187273525Y-103021437D01*
X187316000Y-102807900D01*
X187316000Y-102766600D01*
X187559000Y-102766600D01*
X187772537Y-102724125D01*
X187953566Y-102603166D01*
X188074525Y-102422137D01*
X188117000Y-102208600D01*
X188117000Y-89408000D01*
X190450000Y-89408000D01*
X190450000Y-102208600D01*
X190492475Y-102422137D01*
X190613434Y-102603166D01*
X190794463Y-102724125D01*
X191008000Y-102766600D01*
X191251000Y-102766600D01*
X191251000Y-102807900D01*
X191293475Y-103021437D01*
X191414434Y-103202466D01*
X191595463Y-103323425D01*
X191809000Y-103365900D01*
X205808000Y-103365900D01*
X206021537Y-103323425D01*
X206202566Y-103202466D01*
X206323525Y-103021437D01*
X206366000Y-102807900D01*
X206366000Y-102766600D01*
X206609000Y-102766600D01*
X206822537Y-102724125D01*
X207003566Y-102603166D01*
X207124525Y-102422137D01*
X207167000Y-102208600D01*
X207167000Y-89408000D01*
X209500000Y-89408000D01*
X209500000Y-102208600D01*
X209542475Y-102422137D01*
X209663434Y-102603166D01*
X209844463Y-102724125D01*
X210058000Y-102766600D01*
X210301000Y-102766600D01*
X210301000Y-102807900D01*
X210343475Y-103021437D01*
X210464434Y-103202466D01*
X210645463Y-103323425D01*
X210859000Y-103365900D01*
X224858000Y-103365900D01*
X225071537Y-103323425D01*
X225252566Y-103202466D01*
X225373525Y-103021437D01*
X225416000Y-102807900D01*
X225416000Y-102766600D01*
X225659000Y-102766600D01*
X225872537Y-102724125D01*
X226053566Y-102603166D01*
X226174525Y-102422137D01*
X226217000Y-102208600D01*
X226217000Y-89408000D01*
X228550000Y-89408000D01*
X228550000Y-102208600D01*
X228592475Y-102422137D01*
X228713434Y-102603166D01*
X228894463Y-102724125D01*
X229108000Y-102766600D01*
X229351000Y-102766600D01*
X229351000Y-102807900D01*
X229393475Y-103021437D01*
X229514434Y-103202466D01*
X229695463Y-103323425D01*
X229909000Y-103365900D01*
X243908000Y-103365900D01*
X244121537Y-103323425D01*
X244302566Y-103202466D01*
X244423525Y-103021437D01*
X244466000Y-102807900D01*
X244466000Y-102766600D01*
X244709000Y-102766600D01*
X244922537Y-102724125D01*
X245103566Y-102603166D01*
X245224525Y-102422137D01*
X245267000Y-102208600D01*
X245267000Y-89408000D01*
X247600000Y-89408000D01*
X247600000Y-102208600D01*
X247642475Y-102422137D01*
X247763434Y-102603166D01*
X247944463Y-102724125D01*
X248158000Y-102766600D01*
X248401000Y-102766600D01*
X248401000Y-102807900D01*
X248443475Y-103021437D01*
X248564434Y-103202466D01*
X248745463Y-103323425D01*
X248959000Y-103365900D01*
X262958000Y-103365900D01*
X263171537Y-103323425D01*
X263352566Y-103202466D01*
X263473525Y-103021437D01*
X263516000Y-102807900D01*
X263516000Y-102766600D01*
X263759000Y-102766600D01*
X263972537Y-102724125D01*
X264153566Y-102603166D01*
X264274525Y-102422137D01*
X264317000Y-102208600D01*
X264317000Y-89408000D01*
X264274525Y-89194463D01*
X264153566Y-89013434D01*
X263972537Y-88892475D01*
X263759000Y-88850000D01*
X263516000Y-88850000D01*
X263516000Y-88808600D01*
X263473525Y-88595063D01*
X263352566Y-88414034D01*
X263171537Y-88293075D01*
X262958000Y-88250600D01*
X248959000Y-88250600D01*
X248745463Y-88293075D01*
X248564434Y-88414034D01*
X248443475Y-88595063D01*
X248401000Y-88808600D01*
X248401000Y-88850000D01*
X248158000Y-88850000D01*
X247944463Y-88892475D01*
X247763434Y-89013434D01*
X247642475Y-89194463D01*
X247600000Y-89408000D01*
X245267000Y-89408000D01*
X245224525Y-89194463D01*
X245103566Y-89013434D01*
X244922537Y-88892475D01*
X244709000Y-88850000D01*
X244466000Y-88850000D01*
X244466000Y-88808600D01*
X244423525Y-88595063D01*
X244302566Y-88414034D01*
X244121537Y-88293075D01*
X243908000Y-88250600D01*
X229909000Y-88250600D01*
X229695463Y-88293075D01*
X229514434Y-88414034D01*
X229393475Y-88595063D01*
X229351000Y-88808600D01*
X229351000Y-88850000D01*
X229108000Y-88850000D01*
X228894463Y-88892475D01*
X228713434Y-89013434D01*
X228592475Y-89194463D01*
X228550000Y-89408000D01*
X226217000Y-89408000D01*
X226174525Y-89194463D01*
X226053566Y-89013434D01*
X225872537Y-88892475D01*
X225659000Y-88850000D01*
X225416000Y-88850000D01*
X225416000Y-88808600D01*
X225373525Y-88595063D01*
X225252566Y-88414034D01*
X225071537Y-88293075D01*
X224858000Y-88250600D01*
X210859000Y-88250600D01*
X210645463Y-88293075D01*
X210464434Y-88414034D01*
X210343475Y-88595063D01*
X210301000Y-88808600D01*
X210301000Y-88850000D01*
X210058000Y-88850000D01*
X209844463Y-88892475D01*
X209663434Y-89013434D01*
X209542475Y-89194463D01*
X209500000Y-89408000D01*
X207167000Y-89408000D01*
X207124525Y-89194463D01*
X207003566Y-89013434D01*
X206822537Y-88892475D01*
X206609000Y-88850000D01*
X206366000Y-88850000D01*
X206366000Y-88808600D01*
X206323525Y-88595063D01*
X206202566Y-88414034D01*
X206021537Y-88293075D01*
X205808000Y-88250600D01*
X191809000Y-88250600D01*
X191595463Y-88293075D01*
X191414434Y-88414034D01*
X191293475Y-88595063D01*
X191251000Y-88808600D01*
X191251000Y-88850000D01*
X191008000Y-88850000D01*
X190794463Y-88892475D01*
X190613434Y-89013434D01*
X190492475Y-89194463D01*
X190450000Y-89408000D01*
X188117000Y-89408000D01*
X188074525Y-89194463D01*
X187953566Y-89013434D01*
X187772537Y-88892475D01*
X187559000Y-88850000D01*
X187316000Y-88850000D01*
X187316000Y-88808600D01*
X187273525Y-88595063D01*
X187152566Y-88414034D01*
X186971537Y-88293075D01*
X186758000Y-88250600D01*
X172759000Y-88250600D01*
X172545463Y-88293075D01*
X172364434Y-88414034D01*
X172243475Y-88595063D01*
X172201000Y-88808600D01*
X172201000Y-88850000D01*
X171958000Y-88850000D01*
X171744463Y-88892475D01*
X171563434Y-89013434D01*
X171442475Y-89194463D01*
X171400000Y-89408000D01*
X169067000Y-89408000D01*
X169024525Y-89194463D01*
X168903566Y-89013434D01*
X168722537Y-88892475D01*
X168509000Y-88850000D01*
X168266000Y-88850000D01*
X168266000Y-88808600D01*
X168223525Y-88595063D01*
X168102566Y-88414034D01*
X167921537Y-88293075D01*
X167708000Y-88250600D01*
X153708000Y-88250600D01*
X153494463Y-88293075D01*
X153313434Y-88414034D01*
X153192475Y-88595063D01*
X153150000Y-88808600D01*
X153150000Y-88850000D01*
X152907000Y-88850000D01*
X152693463Y-88892475D01*
X152512434Y-89013434D01*
X152391475Y-89194463D01*
X152349000Y-89408000D01*
X150016000Y-89408000D01*
X149973525Y-89194463D01*
X149852566Y-89013434D01*
X149671537Y-88892475D01*
X149458000Y-88850000D01*
X149215000Y-88850000D01*
X149215000Y-88808600D01*
X149172525Y-88595063D01*
X149051566Y-88414034D01*
X148870537Y-88293075D01*
X148657000Y-88250600D01*
X134657800Y-88250600D01*
X134444263Y-88293075D01*
X134263234Y-88414034D01*
X134142275Y-88595063D01*
X134099800Y-88808600D01*
X134099800Y-88850000D01*
X133858400Y-88850000D01*
X133644863Y-88892475D01*
X133463834Y-89013434D01*
X133342875Y-89194463D01*
X133300400Y-89408000D01*
X130965900Y-89408000D01*
X130923425Y-89194463D01*
X130802466Y-89013434D01*
X130621437Y-88892475D01*
X130407900Y-88850000D01*
X130166500Y-88850000D01*
X130166500Y-88808600D01*
X130124025Y-88595063D01*
X130003066Y-88414034D01*
X129822037Y-88293075D01*
X129608500Y-88250600D01*
X115609200Y-88250600D01*
X115395663Y-88293075D01*
X115214634Y-88414034D01*
X115093675Y-88595063D01*
X115051200Y-88808600D01*
X115051200Y-88850000D01*
X114808400Y-88850000D01*
X114594863Y-88892475D01*
X114413834Y-89013434D01*
X114292875Y-89194463D01*
X114250400Y-89408000D01*
X111917300Y-89408000D01*
X111874825Y-89194463D01*
X111753866Y-89013434D01*
X111572837Y-88892475D01*
X111359300Y-88850000D01*
X111116500Y-88850000D01*
X111116500Y-88808600D01*
X111074025Y-88595063D01*
X110953066Y-88414034D01*
X110772037Y-88293075D01*
X110558500Y-88250600D01*
X96559200Y-88250600D01*
X96345663Y-88293075D01*
X96164634Y-88414034D01*
X96043675Y-88595063D01*
X96001200Y-88808600D01*
X96001200Y-88850000D01*
X95758400Y-88850000D01*
X95544863Y-88892475D01*
X95363834Y-89013434D01*
X95242875Y-89194463D01*
X95200400Y-89408000D01*
X92867300Y-89408000D01*
X92824825Y-89194463D01*
X92703866Y-89013434D01*
X92522837Y-88892475D01*
X92309300Y-88850000D01*
X92066500Y-88850000D01*
X92066500Y-88808600D01*
X92024025Y-88595063D01*
X91903066Y-88414034D01*
X91722037Y-88293075D01*
X91508500Y-88250600D01*
X77509200Y-88250600D01*
X77295663Y-88293075D01*
X77114634Y-88414034D01*
X76993675Y-88595063D01*
X76951200Y-88808600D01*
X76951200Y-88850000D01*
X76708400Y-88850000D01*
X76494863Y-88892475D01*
X76313834Y-89013434D01*
X76192875Y-89194463D01*
X76150400Y-89408000D01*
X73817300Y-89408000D01*
X73774825Y-89194463D01*
X73653866Y-89013434D01*
X73472837Y-88892475D01*
X73259300Y-88850000D01*
X73016500Y-88850000D01*
X73016500Y-88808600D01*
X72974025Y-88595063D01*
X72853066Y-88414034D01*
X72672037Y-88293075D01*
X72458500Y-88250600D01*
X58459100Y-88250600D01*
X58245563Y-88293075D01*
X58064534Y-88414034D01*
X57943575Y-88595063D01*
X57901100Y-88808600D01*
X57901100Y-88850000D01*
X57658500Y-88850000D01*
X57444963Y-88892475D01*
X57263934Y-89013434D01*
X57142975Y-89194463D01*
X57100500Y-89408000D01*
X54767200Y-89408000D01*
X54724725Y-89194463D01*
X54603766Y-89013434D01*
X54422737Y-88892475D01*
X54209200Y-88850000D01*
X53966600Y-88850000D01*
X53966600Y-88808600D01*
X53924125Y-88595063D01*
X53803166Y-88414034D01*
X53622137Y-88293075D01*
X53408600Y-88250600D01*
X39409100Y-88250600D01*
X39195563Y-88293075D01*
X39014534Y-88414034D01*
X38893575Y-88595063D01*
X38851100Y-88808600D01*
X38851100Y-88850000D01*
X38608470Y-88850000D01*
X38394933Y-88892475D01*
X38213904Y-89013434D01*
X38092945Y-89194463D01*
X38050470Y-89408000D01*
X36441702Y-89408000D01*
X36441751Y-86856683D01*
X53498565Y-86856683D01*
X53879581Y-87778812D01*
X54584477Y-88484939D01*
X55505939Y-88867564D01*
X56503683Y-88868435D01*
X57425812Y-88487419D01*
X58131939Y-87782523D01*
X58514564Y-86861061D01*
X58514678Y-86729683D01*
X243871565Y-86729683D01*
X244252581Y-87651812D01*
X244957477Y-88357939D01*
X245878939Y-88740564D01*
X246876683Y-88741435D01*
X247798812Y-88360419D01*
X248504939Y-87655523D01*
X248887564Y-86734061D01*
X248888435Y-85736317D01*
X248507419Y-84814188D01*
X247802523Y-84108061D01*
X246881061Y-83725436D01*
X245883317Y-83724565D01*
X244961188Y-84105581D01*
X244255061Y-84810477D01*
X243872436Y-85731939D01*
X243871565Y-86729683D01*
X58514678Y-86729683D01*
X58515435Y-85863317D01*
X58134419Y-84941188D01*
X57429523Y-84235061D01*
X56508061Y-83852436D01*
X55510317Y-83851565D01*
X54588188Y-84232581D01*
X53882061Y-84937477D01*
X53499436Y-85858939D01*
X53498565Y-86856683D01*
X36441751Y-86856683D01*
X36442070Y-70358000D01*
X38050470Y-70358000D01*
X38050470Y-83158600D01*
X38092945Y-83372137D01*
X38213904Y-83553166D01*
X38394933Y-83674125D01*
X38608470Y-83716600D01*
X38851100Y-83716600D01*
X38851100Y-83757900D01*
X38893575Y-83971437D01*
X39014534Y-84152466D01*
X39195563Y-84273425D01*
X39409100Y-84315900D01*
X53408600Y-84315900D01*
X53622137Y-84273425D01*
X53803166Y-84152466D01*
X53924125Y-83971437D01*
X53966600Y-83757900D01*
X53966600Y-83716600D01*
X54209200Y-83716600D01*
X54422737Y-83674125D01*
X54603766Y-83553166D01*
X54724725Y-83372137D01*
X54767200Y-83158600D01*
X54767200Y-70358000D01*
X57100500Y-70358000D01*
X57100500Y-83158600D01*
X57142975Y-83372137D01*
X57263934Y-83553166D01*
X57444963Y-83674125D01*
X57658500Y-83716600D01*
X57901100Y-83716600D01*
X57901100Y-83757900D01*
X57943575Y-83971437D01*
X58064534Y-84152466D01*
X58245563Y-84273425D01*
X58459100Y-84315900D01*
X72458500Y-84315900D01*
X72672037Y-84273425D01*
X72853066Y-84152466D01*
X72974025Y-83971437D01*
X73016500Y-83757900D01*
X73016500Y-83716600D01*
X73259300Y-83716600D01*
X73472837Y-83674125D01*
X73653866Y-83553166D01*
X73774825Y-83372137D01*
X73817300Y-83158600D01*
X73817300Y-70358000D01*
X76150400Y-70358000D01*
X76150400Y-83158600D01*
X76192875Y-83372137D01*
X76313834Y-83553166D01*
X76494863Y-83674125D01*
X76708400Y-83716600D01*
X76951200Y-83716600D01*
X76951200Y-83757900D01*
X76993675Y-83971437D01*
X77114634Y-84152466D01*
X77295663Y-84273425D01*
X77509200Y-84315900D01*
X91508500Y-84315900D01*
X91722037Y-84273425D01*
X91903066Y-84152466D01*
X92024025Y-83971437D01*
X92066500Y-83757900D01*
X92066500Y-83716600D01*
X92309300Y-83716600D01*
X92522837Y-83674125D01*
X92703866Y-83553166D01*
X92824825Y-83372137D01*
X92867300Y-83158600D01*
X92867300Y-70358000D01*
X95200400Y-70358000D01*
X95200400Y-83158600D01*
X95242875Y-83372137D01*
X95363834Y-83553166D01*
X95544863Y-83674125D01*
X95758400Y-83716600D01*
X96001200Y-83716600D01*
X96001200Y-83757900D01*
X96043675Y-83971437D01*
X96164634Y-84152466D01*
X96345663Y-84273425D01*
X96559200Y-84315900D01*
X110558500Y-84315900D01*
X110772037Y-84273425D01*
X110953066Y-84152466D01*
X111074025Y-83971437D01*
X111116500Y-83757900D01*
X111116500Y-83716600D01*
X111359300Y-83716600D01*
X111572837Y-83674125D01*
X111753866Y-83553166D01*
X111874825Y-83372137D01*
X111917300Y-83158600D01*
X111917300Y-70358000D01*
X114250400Y-70358000D01*
X114250400Y-83158600D01*
X114292875Y-83372137D01*
X114413834Y-83553166D01*
X114594863Y-83674125D01*
X114808400Y-83716600D01*
X115051200Y-83716600D01*
X115051200Y-83757900D01*
X115093675Y-83971437D01*
X115214634Y-84152466D01*
X115395663Y-84273425D01*
X115609200Y-84315900D01*
X129608500Y-84315900D01*
X129822037Y-84273425D01*
X130003066Y-84152466D01*
X130124025Y-83971437D01*
X130166500Y-83757900D01*
X130166500Y-83716600D01*
X130407900Y-83716600D01*
X130621437Y-83674125D01*
X130802466Y-83553166D01*
X130923425Y-83372137D01*
X130965900Y-83158600D01*
X130965900Y-70358000D01*
X133300400Y-70358000D01*
X133300400Y-83158600D01*
X133342875Y-83372137D01*
X133463834Y-83553166D01*
X133644863Y-83674125D01*
X133858400Y-83716600D01*
X134099800Y-83716600D01*
X134099800Y-83757900D01*
X134142275Y-83971437D01*
X134263234Y-84152466D01*
X134444263Y-84273425D01*
X134657800Y-84315900D01*
X148657000Y-84315900D01*
X148870537Y-84273425D01*
X149051566Y-84152466D01*
X149172525Y-83971437D01*
X149215000Y-83757900D01*
X149215000Y-83716600D01*
X149458000Y-83716600D01*
X149671537Y-83674125D01*
X149852566Y-83553166D01*
X149973525Y-83372137D01*
X150016000Y-83158600D01*
X150016000Y-70358000D01*
X152349000Y-70358000D01*
X152349000Y-83158600D01*
X152391475Y-83372137D01*
X152512434Y-83553166D01*
X152693463Y-83674125D01*
X152907000Y-83716600D01*
X153150000Y-83716600D01*
X153150000Y-83757900D01*
X153192475Y-83971437D01*
X153313434Y-84152466D01*
X153494463Y-84273425D01*
X153708000Y-84315900D01*
X167708000Y-84315900D01*
X167921537Y-84273425D01*
X168102566Y-84152466D01*
X168223525Y-83971437D01*
X168266000Y-83757900D01*
X168266000Y-83716600D01*
X168509000Y-83716600D01*
X168722537Y-83674125D01*
X168903566Y-83553166D01*
X169024525Y-83372137D01*
X169067000Y-83158600D01*
X169067000Y-70358000D01*
X171400000Y-70358000D01*
X171400000Y-83158600D01*
X171442475Y-83372137D01*
X171563434Y-83553166D01*
X171744463Y-83674125D01*
X171958000Y-83716600D01*
X172201000Y-83716600D01*
X172201000Y-83757900D01*
X172243475Y-83971437D01*
X172364434Y-84152466D01*
X172545463Y-84273425D01*
X172759000Y-84315900D01*
X186758000Y-84315900D01*
X186971537Y-84273425D01*
X187152566Y-84152466D01*
X187273525Y-83971437D01*
X187316000Y-83757900D01*
X187316000Y-83716600D01*
X187559000Y-83716600D01*
X187772537Y-83674125D01*
X187953566Y-83553166D01*
X188074525Y-83372137D01*
X188117000Y-83158600D01*
X188117000Y-70358000D01*
X190450000Y-70358000D01*
X190450000Y-83158600D01*
X190492475Y-83372137D01*
X190613434Y-83553166D01*
X190794463Y-83674125D01*
X191008000Y-83716600D01*
X191251000Y-83716600D01*
X191251000Y-83757900D01*
X191293475Y-83971437D01*
X191414434Y-84152466D01*
X191595463Y-84273425D01*
X191809000Y-84315900D01*
X205808000Y-84315900D01*
X206021537Y-84273425D01*
X206202566Y-84152466D01*
X206323525Y-83971437D01*
X206366000Y-83757900D01*
X206366000Y-83716600D01*
X206609000Y-83716600D01*
X206822537Y-83674125D01*
X207003566Y-83553166D01*
X207124525Y-83372137D01*
X207167000Y-83158600D01*
X207167000Y-70358000D01*
X209500000Y-70358000D01*
X209500000Y-83158600D01*
X209542475Y-83372137D01*
X209663434Y-83553166D01*
X209844463Y-83674125D01*
X210058000Y-83716600D01*
X210301000Y-83716600D01*
X210301000Y-83757900D01*
X210343475Y-83971437D01*
X210464434Y-84152466D01*
X210645463Y-84273425D01*
X210859000Y-84315900D01*
X224858000Y-84315900D01*
X225071537Y-84273425D01*
X225252566Y-84152466D01*
X225373525Y-83971437D01*
X225416000Y-83757900D01*
X225416000Y-83716600D01*
X225659000Y-83716600D01*
X225872537Y-83674125D01*
X226053566Y-83553166D01*
X226174525Y-83372137D01*
X226217000Y-83158600D01*
X226217000Y-70358000D01*
X228550000Y-70358000D01*
X228550000Y-83158600D01*
X228592475Y-83372137D01*
X228713434Y-83553166D01*
X228894463Y-83674125D01*
X229108000Y-83716600D01*
X229351000Y-83716600D01*
X229351000Y-83757900D01*
X229393475Y-83971437D01*
X229514434Y-84152466D01*
X229695463Y-84273425D01*
X229909000Y-84315900D01*
X243908000Y-84315900D01*
X244121537Y-84273425D01*
X244302566Y-84152466D01*
X244423525Y-83971437D01*
X244466000Y-83757900D01*
X244466000Y-83716600D01*
X244709000Y-83716600D01*
X244922537Y-83674125D01*
X245103566Y-83553166D01*
X245224525Y-83372137D01*
X245267000Y-83158600D01*
X245267000Y-70358000D01*
X247600000Y-70358000D01*
X247600000Y-83158600D01*
X247642475Y-83372137D01*
X247763434Y-83553166D01*
X247944463Y-83674125D01*
X248158000Y-83716600D01*
X248401000Y-83716600D01*
X248401000Y-83757900D01*
X248443475Y-83971437D01*
X248564434Y-84152466D01*
X248745463Y-84273425D01*
X248959000Y-84315900D01*
X262958000Y-84315900D01*
X263171537Y-84273425D01*
X263352566Y-84152466D01*
X263473525Y-83971437D01*
X263516000Y-83757900D01*
X263516000Y-83716600D01*
X263759000Y-83716600D01*
X263972537Y-83674125D01*
X264153566Y-83553166D01*
X264274525Y-83372137D01*
X264317000Y-83158600D01*
X264317000Y-70358000D01*
X264274525Y-70144463D01*
X264153566Y-69963434D01*
X263972537Y-69842475D01*
X263759000Y-69800000D01*
X263516000Y-69800000D01*
X263516000Y-69758600D01*
X263473525Y-69545063D01*
X263352566Y-69364034D01*
X263171537Y-69243075D01*
X262958000Y-69200600D01*
X248959000Y-69200600D01*
X248745463Y-69243075D01*
X248564434Y-69364034D01*
X248443475Y-69545063D01*
X248401000Y-69758600D01*
X248401000Y-69800000D01*
X248158000Y-69800000D01*
X247944463Y-69842475D01*
X247763434Y-69963434D01*
X247642475Y-70144463D01*
X247600000Y-70358000D01*
X245267000Y-70358000D01*
X245224525Y-70144463D01*
X245103566Y-69963434D01*
X244922537Y-69842475D01*
X244709000Y-69800000D01*
X244466000Y-69800000D01*
X244466000Y-69758600D01*
X244423525Y-69545063D01*
X244302566Y-69364034D01*
X244121537Y-69243075D01*
X243908000Y-69200600D01*
X229909000Y-69200600D01*
X229695463Y-69243075D01*
X229514434Y-69364034D01*
X229393475Y-69545063D01*
X229351000Y-69758600D01*
X229351000Y-69800000D01*
X229108000Y-69800000D01*
X228894463Y-69842475D01*
X228713434Y-69963434D01*
X228592475Y-70144463D01*
X228550000Y-70358000D01*
X226217000Y-70358000D01*
X226174525Y-70144463D01*
X226053566Y-69963434D01*
X225872537Y-69842475D01*
X225659000Y-69800000D01*
X225416000Y-69800000D01*
X225416000Y-69758600D01*
X225373525Y-69545063D01*
X225252566Y-69364034D01*
X225071537Y-69243075D01*
X224858000Y-69200600D01*
X210859000Y-69200600D01*
X210645463Y-69243075D01*
X210464434Y-69364034D01*
X210343475Y-69545063D01*
X210301000Y-69758600D01*
X210301000Y-69800000D01*
X210058000Y-69800000D01*
X209844463Y-69842475D01*
X209663434Y-69963434D01*
X209542475Y-70144463D01*
X209500000Y-70358000D01*
X207167000Y-70358000D01*
X207124525Y-70144463D01*
X207003566Y-69963434D01*
X206822537Y-69842475D01*
X206609000Y-69800000D01*
X206366000Y-69800000D01*
X206366000Y-69758600D01*
X206323525Y-69545063D01*
X206202566Y-69364034D01*
X206021537Y-69243075D01*
X205808000Y-69200600D01*
X191809000Y-69200600D01*
X191595463Y-69243075D01*
X191414434Y-69364034D01*
X191293475Y-69545063D01*
X191251000Y-69758600D01*
X191251000Y-69800000D01*
X191008000Y-69800000D01*
X190794463Y-69842475D01*
X190613434Y-69963434D01*
X190492475Y-70144463D01*
X190450000Y-70358000D01*
X188117000Y-70358000D01*
X188074525Y-70144463D01*
X187953566Y-69963434D01*
X187772537Y-69842475D01*
X187559000Y-69800000D01*
X187316000Y-69800000D01*
X187316000Y-69758600D01*
X187273525Y-69545063D01*
X187152566Y-69364034D01*
X186971537Y-69243075D01*
X186758000Y-69200600D01*
X172759000Y-69200600D01*
X172545463Y-69243075D01*
X172364434Y-69364034D01*
X172243475Y-69545063D01*
X172201000Y-69758600D01*
X172201000Y-69800000D01*
X171958000Y-69800000D01*
X171744463Y-69842475D01*
X171563434Y-69963434D01*
X171442475Y-70144463D01*
X171400000Y-70358000D01*
X169067000Y-70358000D01*
X169024525Y-70144463D01*
X168903566Y-69963434D01*
X168722537Y-69842475D01*
X168509000Y-69800000D01*
X168266000Y-69800000D01*
X168266000Y-69758600D01*
X168223525Y-69545063D01*
X168102566Y-69364034D01*
X167921537Y-69243075D01*
X167708000Y-69200600D01*
X153708000Y-69200600D01*
X153494463Y-69243075D01*
X153313434Y-69364034D01*
X153192475Y-69545063D01*
X153150000Y-69758600D01*
X153150000Y-69800000D01*
X152907000Y-69800000D01*
X152693463Y-69842475D01*
X152512434Y-69963434D01*
X152391475Y-70144463D01*
X152349000Y-70358000D01*
X150016000Y-70358000D01*
X149973525Y-70144463D01*
X149852566Y-69963434D01*
X149671537Y-69842475D01*
X149458000Y-69800000D01*
X149215000Y-69800000D01*
X149215000Y-69758600D01*
X149172525Y-69545063D01*
X149051566Y-69364034D01*
X148870537Y-69243075D01*
X148657000Y-69200600D01*
X134657800Y-69200600D01*
X134444263Y-69243075D01*
X134263234Y-69364034D01*
X134142275Y-69545063D01*
X134099800Y-69758600D01*
X134099800Y-69800000D01*
X133858400Y-69800000D01*
X133644863Y-69842475D01*
X133463834Y-69963434D01*
X133342875Y-70144463D01*
X133300400Y-70358000D01*
X130965900Y-70358000D01*
X130923425Y-70144463D01*
X130802466Y-69963434D01*
X130621437Y-69842475D01*
X130407900Y-69800000D01*
X130166500Y-69800000D01*
X130166500Y-69758600D01*
X130124025Y-69545063D01*
X130003066Y-69364034D01*
X129822037Y-69243075D01*
X129608500Y-69200600D01*
X115609200Y-69200600D01*
X115395663Y-69243075D01*
X115214634Y-69364034D01*
X115093675Y-69545063D01*
X115051200Y-69758600D01*
X115051200Y-69800000D01*
X114808400Y-69800000D01*
X114594863Y-69842475D01*
X114413834Y-69963434D01*
X114292875Y-70144463D01*
X114250400Y-70358000D01*
X111917300Y-70358000D01*
X111874825Y-70144463D01*
X111753866Y-69963434D01*
X111572837Y-69842475D01*
X111359300Y-69800000D01*
X111116500Y-69800000D01*
X111116500Y-69758600D01*
X111074025Y-69545063D01*
X110953066Y-69364034D01*
X110772037Y-69243075D01*
X110558500Y-69200600D01*
X96559200Y-69200600D01*
X96345663Y-69243075D01*
X96164634Y-69364034D01*
X96043675Y-69545063D01*
X96001200Y-69758600D01*
X96001200Y-69800000D01*
X95758400Y-69800000D01*
X95544863Y-69842475D01*
X95363834Y-69963434D01*
X95242875Y-70144463D01*
X95200400Y-70358000D01*
X92867300Y-70358000D01*
X92824825Y-70144463D01*
X92703866Y-69963434D01*
X92522837Y-69842475D01*
X92309300Y-69800000D01*
X92066500Y-69800000D01*
X92066500Y-69758600D01*
X92024025Y-69545063D01*
X91903066Y-69364034D01*
X91722037Y-69243075D01*
X91508500Y-69200600D01*
X77509200Y-69200600D01*
X77295663Y-69243075D01*
X77114634Y-69364034D01*
X76993675Y-69545063D01*
X76951200Y-69758600D01*
X76951200Y-69800000D01*
X76708400Y-69800000D01*
X76494863Y-69842475D01*
X76313834Y-69963434D01*
X76192875Y-70144463D01*
X76150400Y-70358000D01*
X73817300Y-70358000D01*
X73774825Y-70144463D01*
X73653866Y-69963434D01*
X73472837Y-69842475D01*
X73259300Y-69800000D01*
X73016500Y-69800000D01*
X73016500Y-69758600D01*
X72974025Y-69545063D01*
X72853066Y-69364034D01*
X72672037Y-69243075D01*
X72458500Y-69200600D01*
X58459100Y-69200600D01*
X58245563Y-69243075D01*
X58064534Y-69364034D01*
X57943575Y-69545063D01*
X57901100Y-69758600D01*
X57901100Y-69800000D01*
X57658500Y-69800000D01*
X57444963Y-69842475D01*
X57263934Y-69963434D01*
X57142975Y-70144463D01*
X57100500Y-70358000D01*
X54767200Y-70358000D01*
X54724725Y-70144463D01*
X54603766Y-69963434D01*
X54422737Y-69842475D01*
X54209200Y-69800000D01*
X53966600Y-69800000D01*
X53966600Y-69758600D01*
X53924125Y-69545063D01*
X53803166Y-69364034D01*
X53622137Y-69243075D01*
X53408600Y-69200600D01*
X39409100Y-69200600D01*
X39195563Y-69243075D01*
X39014534Y-69364034D01*
X38893575Y-69545063D01*
X38851100Y-69758600D01*
X38851100Y-69800000D01*
X38608470Y-69800000D01*
X38394933Y-69842475D01*
X38213904Y-69963434D01*
X38092945Y-70144463D01*
X38050470Y-70358000D01*
X36442070Y-70358000D01*
X36442085Y-69624231D01*
X36447766Y-69469471D01*
X36464678Y-69326877D01*
X36491966Y-69187193D01*
X36530634Y-69051520D01*
X36580563Y-68916385D01*
X36640907Y-68785170D01*
X36710135Y-68661404D01*
X36789285Y-68543314D01*
X36876861Y-68431797D01*
X36976144Y-68326050D01*
X37081722Y-68226915D01*
X37193231Y-68139419D01*
X37311597Y-68060120D01*
X37435558Y-67990749D01*
X37566595Y-67930396D01*
X37701477Y-67880688D01*
X37837906Y-67841695D01*
X37976889Y-67814396D01*
X38121122Y-67797495D01*
X38276023Y-67790800D01*
X264094351Y-67791800D01*
X264094351Y-67791800D01*
G37*
X264094351Y-67791800D02*
X264247821Y-67797658D01*
X264390247Y-67814351D01*
X264528311Y-67841661D01*
X264665929Y-67880805D01*
X264799955Y-67930204D01*
X264931090Y-67990911D01*
X265056588Y-68060548D01*
X265174212Y-68139524D01*
X265286098Y-68226992D01*
X265390015Y-68324871D01*
X265489562Y-68431866D01*
X265578712Y-68544180D01*
X265657518Y-68662158D01*
X265727457Y-68785769D01*
X265786920Y-68915977D01*
X265837301Y-69051849D01*
X265875959Y-69187458D01*
X265903361Y-69327056D01*
X265920400Y-69471029D01*
X265927000Y-69625889D01*
X265927000Y-141042103D01*
X265920411Y-141195323D01*
X265903362Y-141339494D01*
X265875839Y-141479616D01*
X265837110Y-141616702D01*
X265787270Y-141750894D01*
X265727851Y-141880017D01*
X265656893Y-142005434D01*
X265577900Y-142124860D01*
X265489576Y-142236172D01*
X265391049Y-142342009D01*
X265287195Y-142438824D01*
X265172863Y-142528245D01*
X265055181Y-142608279D01*
X264932964Y-142676057D01*
X264799807Y-142736503D01*
X264663998Y-142787835D01*
X264528857Y-142826116D01*
X264390134Y-142853426D01*
X264247766Y-142870302D01*
X264094656Y-142875974D01*
X38274206Y-142875974D01*
X38119713Y-142870294D01*
X37976995Y-142853380D01*
X37837364Y-142826083D01*
X37703406Y-142787955D01*
X37566765Y-142736315D01*
X37433697Y-142676217D01*
X37312983Y-142608701D01*
X37194586Y-142528358D01*
X37080632Y-142438902D01*
X36975094Y-142340825D01*
X36876850Y-142236244D01*
X36790091Y-142125727D01*
X36710755Y-142006194D01*
X36640515Y-141880611D01*
X36580219Y-141750500D01*
X36530823Y-141617027D01*
X36492084Y-141479872D01*
X36464677Y-141339673D01*
X36447514Y-141194862D01*
X36440707Y-141041707D01*
X36440968Y-127508000D01*
X38050470Y-127508000D01*
X38050470Y-140308580D01*
X38092945Y-140522117D01*
X38213904Y-140703146D01*
X38394933Y-140824105D01*
X38608470Y-140866580D01*
X38851100Y-140866580D01*
X38851100Y-140908030D01*
X38893575Y-141121567D01*
X39014534Y-141302596D01*
X39195563Y-141423555D01*
X39409100Y-141466030D01*
X53408600Y-141466030D01*
X53622137Y-141423555D01*
X53803166Y-141302596D01*
X53924125Y-141121567D01*
X53966600Y-140908030D01*
X53966600Y-140866580D01*
X54209200Y-140866580D01*
X54422737Y-140824105D01*
X54603766Y-140703146D01*
X54724725Y-140522117D01*
X54767200Y-140308580D01*
X54767200Y-127508000D01*
X57100500Y-127508000D01*
X57100500Y-140308580D01*
X57142975Y-140522117D01*
X57263934Y-140703146D01*
X57444963Y-140824105D01*
X57658500Y-140866580D01*
X57901100Y-140866580D01*
X57901100Y-140908030D01*
X57943575Y-141121567D01*
X58064534Y-141302596D01*
X58245563Y-141423555D01*
X58459100Y-141466030D01*
X72458500Y-141466030D01*
X72672037Y-141423555D01*
X72853066Y-141302596D01*
X72974025Y-141121567D01*
X73016500Y-140908030D01*
X73016500Y-140866580D01*
X73259300Y-140866580D01*
X73472837Y-140824105D01*
X73653866Y-140703146D01*
X73774825Y-140522117D01*
X73817300Y-140308580D01*
X73817300Y-127508000D01*
X76150400Y-127508000D01*
X76150400Y-140308580D01*
X76192875Y-140522117D01*
X76313834Y-140703146D01*
X76494863Y-140824105D01*
X76708400Y-140866580D01*
X76951200Y-140866580D01*
X76951200Y-140908030D01*
X76993675Y-141121567D01*
X77114634Y-141302596D01*
X77295663Y-141423555D01*
X77509200Y-141466030D01*
X91508500Y-141466030D01*
X91722037Y-141423555D01*
X91903066Y-141302596D01*
X92024025Y-141121567D01*
X92066500Y-140908030D01*
X92066500Y-140866580D01*
X92309300Y-140866580D01*
X92522837Y-140824105D01*
X92703866Y-140703146D01*
X92824825Y-140522117D01*
X92867300Y-140308580D01*
X92867300Y-127508000D01*
X95200400Y-127508000D01*
X95200400Y-140308580D01*
X95242875Y-140522117D01*
X95363834Y-140703146D01*
X95544863Y-140824105D01*
X95758400Y-140866580D01*
X96001200Y-140866580D01*
X96001200Y-140908030D01*
X96043675Y-141121567D01*
X96164634Y-141302596D01*
X96345663Y-141423555D01*
X96559200Y-141466030D01*
X110558500Y-141466030D01*
X110772037Y-141423555D01*
X110953066Y-141302596D01*
X111074025Y-141121567D01*
X111116500Y-140908030D01*
X111116500Y-140866580D01*
X111359300Y-140866580D01*
X111572837Y-140824105D01*
X111753866Y-140703146D01*
X111874825Y-140522117D01*
X111917300Y-140308580D01*
X111917300Y-127508000D01*
X114250400Y-127508000D01*
X114250400Y-140308580D01*
X114292875Y-140522117D01*
X114413834Y-140703146D01*
X114594863Y-140824105D01*
X114808400Y-140866580D01*
X115051200Y-140866580D01*
X115051200Y-140908030D01*
X115093675Y-141121567D01*
X115214634Y-141302596D01*
X115395663Y-141423555D01*
X115609200Y-141466030D01*
X129608500Y-141466030D01*
X129822037Y-141423555D01*
X130003066Y-141302596D01*
X130124025Y-141121567D01*
X130166500Y-140908030D01*
X130166500Y-140866580D01*
X130407900Y-140866580D01*
X130621437Y-140824105D01*
X130802466Y-140703146D01*
X130923425Y-140522117D01*
X130965900Y-140308580D01*
X130965900Y-127508000D01*
X133300400Y-127508000D01*
X133300400Y-140308580D01*
X133342875Y-140522117D01*
X133463834Y-140703146D01*
X133644863Y-140824105D01*
X133858400Y-140866580D01*
X134099800Y-140866580D01*
X134099800Y-140908030D01*
X134142275Y-141121567D01*
X134263234Y-141302596D01*
X134444263Y-141423555D01*
X134657800Y-141466030D01*
X167708000Y-141466030D01*
X167921537Y-141423555D01*
X168102566Y-141302596D01*
X168223525Y-141121567D01*
X168266000Y-140908030D01*
X168266000Y-140866580D01*
X168509000Y-140866580D01*
X168722537Y-140824105D01*
X168903566Y-140703146D01*
X169024525Y-140522117D01*
X169067000Y-140308580D01*
X169067000Y-127508000D01*
X171400000Y-127508000D01*
X171400000Y-140308580D01*
X171442475Y-140522117D01*
X171563434Y-140703146D01*
X171744463Y-140824105D01*
X171958000Y-140866580D01*
X172201000Y-140866580D01*
X172201000Y-140908030D01*
X172243475Y-141121567D01*
X172364434Y-141302596D01*
X172545463Y-141423555D01*
X172759000Y-141466030D01*
X186758000Y-141466030D01*
X186971537Y-141423555D01*
X187152566Y-141302596D01*
X187273525Y-141121567D01*
X187316000Y-140908030D01*
X187316000Y-140866580D01*
X187559000Y-140866580D01*
X187772537Y-140824105D01*
X187953566Y-140703146D01*
X188074525Y-140522117D01*
X188117000Y-140308580D01*
X188117000Y-127508000D01*
X190450000Y-127508000D01*
X190450000Y-140308580D01*
X190492475Y-140522117D01*
X190613434Y-140703146D01*
X190794463Y-140824105D01*
X191008000Y-140866580D01*
X191251000Y-140866580D01*
X191251000Y-140908030D01*
X191293475Y-141121567D01*
X191414434Y-141302596D01*
X191595463Y-141423555D01*
X191809000Y-141466030D01*
X205808000Y-141466030D01*
X206021537Y-141423555D01*
X206202566Y-141302596D01*
X206323525Y-141121567D01*
X206366000Y-140908030D01*
X206366000Y-140866580D01*
X206609000Y-140866580D01*
X206822537Y-140824105D01*
X207003566Y-140703146D01*
X207124525Y-140522117D01*
X207167000Y-140308580D01*
X207167000Y-127508000D01*
X209500000Y-127508000D01*
X209500000Y-140308580D01*
X209542475Y-140522117D01*
X209663434Y-140703146D01*
X209844463Y-140824105D01*
X210058000Y-140866580D01*
X210301000Y-140866580D01*
X210301000Y-140908030D01*
X210343475Y-141121567D01*
X210464434Y-141302596D01*
X210645463Y-141423555D01*
X210859000Y-141466030D01*
X224858000Y-141466030D01*
X225071537Y-141423555D01*
X225252566Y-141302596D01*
X225373525Y-141121567D01*
X225416000Y-140908030D01*
X225416000Y-140866580D01*
X225659000Y-140866580D01*
X225872537Y-140824105D01*
X226053566Y-140703146D01*
X226174525Y-140522117D01*
X226217000Y-140308580D01*
X226217000Y-127508000D01*
X228550000Y-127508000D01*
X228550000Y-140308580D01*
X228592475Y-140522117D01*
X228713434Y-140703146D01*
X228894463Y-140824105D01*
X229108000Y-140866580D01*
X229351000Y-140866580D01*
X229351000Y-140908030D01*
X229393475Y-141121567D01*
X229514434Y-141302596D01*
X229695463Y-141423555D01*
X229909000Y-141466030D01*
X243908000Y-141466030D01*
X244121537Y-141423555D01*
X244302566Y-141302596D01*
X244423525Y-141121567D01*
X244466000Y-140908030D01*
X244466000Y-140866580D01*
X244709000Y-140866580D01*
X244922537Y-140824105D01*
X245103566Y-140703146D01*
X245224525Y-140522117D01*
X245267000Y-140308580D01*
X245267000Y-127508000D01*
X247600000Y-127508000D01*
X247600000Y-140308580D01*
X247642475Y-140522117D01*
X247763434Y-140703146D01*
X247944463Y-140824105D01*
X248158000Y-140866580D01*
X248401000Y-140866580D01*
X248401000Y-140908030D01*
X248443475Y-141121567D01*
X248564434Y-141302596D01*
X248745463Y-141423555D01*
X248959000Y-141466030D01*
X262958000Y-141466030D01*
X263171537Y-141423555D01*
X263352566Y-141302596D01*
X263473525Y-141121567D01*
X263516000Y-140908030D01*
X263516000Y-140866580D01*
X263759000Y-140866580D01*
X263972537Y-140824105D01*
X264153566Y-140703146D01*
X264274525Y-140522117D01*
X264317000Y-140308580D01*
X264317000Y-127508000D01*
X264274525Y-127294463D01*
X264153566Y-127113434D01*
X263972537Y-126992475D01*
X263759000Y-126950000D01*
X263516000Y-126950000D01*
X263516000Y-126908500D01*
X263473525Y-126694963D01*
X263352566Y-126513934D01*
X263171537Y-126392975D01*
X262958000Y-126350500D01*
X248959000Y-126350500D01*
X248745463Y-126392975D01*
X248564434Y-126513934D01*
X248443475Y-126694963D01*
X248401000Y-126908500D01*
X248401000Y-126950000D01*
X248158000Y-126950000D01*
X247944463Y-126992475D01*
X247763434Y-127113434D01*
X247642475Y-127294463D01*
X247600000Y-127508000D01*
X245267000Y-127508000D01*
X245224525Y-127294463D01*
X245103566Y-127113434D01*
X244922537Y-126992475D01*
X244709000Y-126950000D01*
X244466000Y-126950000D01*
X244466000Y-126908500D01*
X244423525Y-126694963D01*
X244302566Y-126513934D01*
X244121537Y-126392975D01*
X243908000Y-126350500D01*
X229909000Y-126350500D01*
X229695463Y-126392975D01*
X229514434Y-126513934D01*
X229393475Y-126694963D01*
X229351000Y-126908500D01*
X229351000Y-126950000D01*
X229108000Y-126950000D01*
X228894463Y-126992475D01*
X228713434Y-127113434D01*
X228592475Y-127294463D01*
X228550000Y-127508000D01*
X226217000Y-127508000D01*
X226174525Y-127294463D01*
X226053566Y-127113434D01*
X225872537Y-126992475D01*
X225659000Y-126950000D01*
X225416000Y-126950000D01*
X225416000Y-126908500D01*
X225373525Y-126694963D01*
X225252566Y-126513934D01*
X225071537Y-126392975D01*
X224858000Y-126350500D01*
X210859000Y-126350500D01*
X210645463Y-126392975D01*
X210464434Y-126513934D01*
X210343475Y-126694963D01*
X210301000Y-126908500D01*
X210301000Y-126950000D01*
X210058000Y-126950000D01*
X209844463Y-126992475D01*
X209663434Y-127113434D01*
X209542475Y-127294463D01*
X209500000Y-127508000D01*
X207167000Y-127508000D01*
X207124525Y-127294463D01*
X207003566Y-127113434D01*
X206822537Y-126992475D01*
X206609000Y-126950000D01*
X206366000Y-126950000D01*
X206366000Y-126908500D01*
X206323525Y-126694963D01*
X206202566Y-126513934D01*
X206021537Y-126392975D01*
X205808000Y-126350500D01*
X191809000Y-126350500D01*
X191595463Y-126392975D01*
X191414434Y-126513934D01*
X191293475Y-126694963D01*
X191251000Y-126908500D01*
X191251000Y-126950000D01*
X191008000Y-126950000D01*
X190794463Y-126992475D01*
X190613434Y-127113434D01*
X190492475Y-127294463D01*
X190450000Y-127508000D01*
X188117000Y-127508000D01*
X188074525Y-127294463D01*
X187953566Y-127113434D01*
X187772537Y-126992475D01*
X187559000Y-126950000D01*
X187316000Y-126950000D01*
X187316000Y-126908500D01*
X187273525Y-126694963D01*
X187152566Y-126513934D01*
X186971537Y-126392975D01*
X186758000Y-126350500D01*
X172759000Y-126350500D01*
X172545463Y-126392975D01*
X172364434Y-126513934D01*
X172243475Y-126694963D01*
X172201000Y-126908500D01*
X172201000Y-126950000D01*
X171958000Y-126950000D01*
X171744463Y-126992475D01*
X171563434Y-127113434D01*
X171442475Y-127294463D01*
X171400000Y-127508000D01*
X169067000Y-127508000D01*
X169024525Y-127294463D01*
X168903566Y-127113434D01*
X168722537Y-126992475D01*
X168509000Y-126950000D01*
X168266000Y-126950000D01*
X168266000Y-126908500D01*
X168223525Y-126694963D01*
X168102566Y-126513934D01*
X167921537Y-126392975D01*
X167708000Y-126350500D01*
X165292000Y-126350500D01*
X165292000Y-125938400D01*
X165249525Y-125724863D01*
X165128566Y-125543834D01*
X164947537Y-125422875D01*
X164734000Y-125380400D01*
X161433000Y-125380400D01*
X161432713Y-125380457D01*
X161432425Y-125380400D01*
X161325680Y-125401747D01*
X161219463Y-125422875D01*
X161219220Y-125423037D01*
X161218932Y-125423095D01*
X161128564Y-125483611D01*
X161038434Y-125543834D01*
X161038271Y-125544077D01*
X161038027Y-125544241D01*
X160977734Y-125634679D01*
X160917475Y-125724863D01*
X160917418Y-125725151D01*
X160917255Y-125725395D01*
X160896146Y-125832094D01*
X160875000Y-125938400D01*
X160875057Y-125938687D01*
X160875000Y-125938975D01*
X160875424Y-126350500D01*
X141491000Y-126350500D01*
X141491000Y-125938400D01*
X141448525Y-125724863D01*
X141327566Y-125543834D01*
X141146537Y-125422875D01*
X140933000Y-125380400D01*
X137634000Y-125380400D01*
X137420463Y-125422875D01*
X137239434Y-125543834D01*
X137118475Y-125724863D01*
X137076000Y-125938400D01*
X137076000Y-126350500D01*
X134657800Y-126350500D01*
X134444263Y-126392975D01*
X134263234Y-126513934D01*
X134142275Y-126694963D01*
X134099800Y-126908500D01*
X134099800Y-126950000D01*
X133858400Y-126950000D01*
X133644863Y-126992475D01*
X133463834Y-127113434D01*
X133342875Y-127294463D01*
X133300400Y-127508000D01*
X130965900Y-127508000D01*
X130923425Y-127294463D01*
X130802466Y-127113434D01*
X130621437Y-126992475D01*
X130407900Y-126950000D01*
X130166500Y-126950000D01*
X130166500Y-126908500D01*
X130124025Y-126694963D01*
X130003066Y-126513934D01*
X129822037Y-126392975D01*
X129608500Y-126350500D01*
X115609200Y-126350500D01*
X115395663Y-126392975D01*
X115214634Y-126513934D01*
X115093675Y-126694963D01*
X115051200Y-126908500D01*
X115051200Y-126950000D01*
X114808400Y-126950000D01*
X114594863Y-126992475D01*
X114413834Y-127113434D01*
X114292875Y-127294463D01*
X114250400Y-127508000D01*
X111917300Y-127508000D01*
X111874825Y-127294463D01*
X111753866Y-127113434D01*
X111572837Y-126992475D01*
X111359300Y-126950000D01*
X111116500Y-126950000D01*
X111116500Y-126908500D01*
X111074025Y-126694963D01*
X110953066Y-126513934D01*
X110772037Y-126392975D01*
X110558500Y-126350500D01*
X96559200Y-126350500D01*
X96345663Y-126392975D01*
X96164634Y-126513934D01*
X96043675Y-126694963D01*
X96001200Y-126908500D01*
X96001200Y-126950000D01*
X95758400Y-126950000D01*
X95544863Y-126992475D01*
X95363834Y-127113434D01*
X95242875Y-127294463D01*
X95200400Y-127508000D01*
X92867300Y-127508000D01*
X92824825Y-127294463D01*
X92703866Y-127113434D01*
X92522837Y-126992475D01*
X92309300Y-126950000D01*
X92066500Y-126950000D01*
X92066500Y-126908500D01*
X92024025Y-126694963D01*
X91903066Y-126513934D01*
X91722037Y-126392975D01*
X91508500Y-126350500D01*
X77509200Y-126350500D01*
X77295663Y-126392975D01*
X77114634Y-126513934D01*
X76993675Y-126694963D01*
X76951200Y-126908500D01*
X76951200Y-126950000D01*
X76708400Y-126950000D01*
X76494863Y-126992475D01*
X76313834Y-127113434D01*
X76192875Y-127294463D01*
X76150400Y-127508000D01*
X73817300Y-127508000D01*
X73774825Y-127294463D01*
X73653866Y-127113434D01*
X73472837Y-126992475D01*
X73259300Y-126950000D01*
X73016500Y-126950000D01*
X73016500Y-126908500D01*
X72974025Y-126694963D01*
X72853066Y-126513934D01*
X72672037Y-126392975D01*
X72458500Y-126350500D01*
X58459100Y-126350500D01*
X58245563Y-126392975D01*
X58064534Y-126513934D01*
X57943575Y-126694963D01*
X57901100Y-126908500D01*
X57901100Y-126950000D01*
X57658500Y-126950000D01*
X57444963Y-126992475D01*
X57263934Y-127113434D01*
X57142975Y-127294463D01*
X57100500Y-127508000D01*
X54767200Y-127508000D01*
X54724725Y-127294463D01*
X54603766Y-127113434D01*
X54422737Y-126992475D01*
X54209200Y-126950000D01*
X53966600Y-126950000D01*
X53966600Y-126908500D01*
X53924125Y-126694963D01*
X53803166Y-126513934D01*
X53622137Y-126392975D01*
X53408600Y-126350500D01*
X39409100Y-126350500D01*
X39195563Y-126392975D01*
X39014534Y-126513934D01*
X38893575Y-126694963D01*
X38851100Y-126908500D01*
X38851100Y-126950000D01*
X38608470Y-126950000D01*
X38394933Y-126992475D01*
X38213904Y-127113434D01*
X38092945Y-127294463D01*
X38050470Y-127508000D01*
X36440968Y-127508000D01*
X36441017Y-124956683D01*
X53371565Y-124956683D01*
X53752581Y-125878812D01*
X54457477Y-126584939D01*
X55378939Y-126967564D01*
X56376683Y-126968435D01*
X57298812Y-126587419D01*
X58004939Y-125882523D01*
X58387564Y-124961061D01*
X58387567Y-124956683D01*
X243871565Y-124956683D01*
X244252581Y-125878812D01*
X244957477Y-126584939D01*
X245878939Y-126967564D01*
X246876683Y-126968435D01*
X247798812Y-126587419D01*
X248504939Y-125882523D01*
X248887564Y-124961061D01*
X248888435Y-123963317D01*
X248507419Y-123041188D01*
X247802523Y-122335061D01*
X246881061Y-121952436D01*
X245883317Y-121951565D01*
X244961188Y-122332581D01*
X244255061Y-123037477D01*
X243872436Y-123958939D01*
X243871565Y-124956683D01*
X58387567Y-124956683D01*
X58388435Y-123963317D01*
X58007419Y-123041188D01*
X57302523Y-122335061D01*
X56381061Y-121952436D01*
X55383317Y-121951565D01*
X54461188Y-122332581D01*
X53755061Y-123037477D01*
X53372436Y-123958939D01*
X53371565Y-124956683D01*
X36441017Y-124956683D01*
X36441335Y-108458000D01*
X38050470Y-108458000D01*
X38050470Y-121258600D01*
X38092945Y-121472137D01*
X38213904Y-121653166D01*
X38394933Y-121774125D01*
X38608470Y-121816600D01*
X38851100Y-121816600D01*
X38851100Y-121858000D01*
X38893575Y-122071537D01*
X39014534Y-122252566D01*
X39195563Y-122373525D01*
X39409100Y-122416000D01*
X53408600Y-122416000D01*
X53622137Y-122373525D01*
X53803166Y-122252566D01*
X53924125Y-122071537D01*
X53966600Y-121858000D01*
X53966600Y-121816600D01*
X54209200Y-121816600D01*
X54422737Y-121774125D01*
X54603766Y-121653166D01*
X54724725Y-121472137D01*
X54767200Y-121258600D01*
X54767200Y-108458000D01*
X57100500Y-108458000D01*
X57100500Y-121258600D01*
X57142975Y-121472137D01*
X57263934Y-121653166D01*
X57444963Y-121774125D01*
X57658500Y-121816600D01*
X57901100Y-121816600D01*
X57901100Y-121858000D01*
X57943575Y-122071537D01*
X58064534Y-122252566D01*
X58245563Y-122373525D01*
X58459100Y-122416000D01*
X72458500Y-122416000D01*
X72672037Y-122373525D01*
X72853066Y-122252566D01*
X72974025Y-122071537D01*
X73016500Y-121858000D01*
X73016500Y-121816600D01*
X73259300Y-121816600D01*
X73472837Y-121774125D01*
X73653866Y-121653166D01*
X73774825Y-121472137D01*
X73817300Y-121258600D01*
X73817300Y-108458000D01*
X76150400Y-108458000D01*
X76150400Y-121258600D01*
X76192875Y-121472137D01*
X76313834Y-121653166D01*
X76494863Y-121774125D01*
X76708400Y-121816600D01*
X76951200Y-121816600D01*
X76951200Y-121858000D01*
X76993675Y-122071537D01*
X77114634Y-122252566D01*
X77295663Y-122373525D01*
X77509200Y-122416000D01*
X91508500Y-122416000D01*
X91722037Y-122373525D01*
X91903066Y-122252566D01*
X92024025Y-122071537D01*
X92066500Y-121858000D01*
X92066500Y-121816600D01*
X92309300Y-121816600D01*
X92522837Y-121774125D01*
X92703866Y-121653166D01*
X92824825Y-121472137D01*
X92867300Y-121258600D01*
X92867300Y-108458000D01*
X95200400Y-108458000D01*
X95200400Y-121258600D01*
X95242875Y-121472137D01*
X95363834Y-121653166D01*
X95544863Y-121774125D01*
X95758400Y-121816600D01*
X96001200Y-121816600D01*
X96001200Y-121858000D01*
X96043675Y-122071537D01*
X96164634Y-122252566D01*
X96345663Y-122373525D01*
X96559200Y-122416000D01*
X110558500Y-122416000D01*
X110772037Y-122373525D01*
X110953066Y-122252566D01*
X111074025Y-122071537D01*
X111116500Y-121858000D01*
X111116500Y-121816600D01*
X111359300Y-121816600D01*
X111572837Y-121774125D01*
X111753866Y-121653166D01*
X111874825Y-121472137D01*
X111917300Y-121258600D01*
X111917300Y-108458000D01*
X114250400Y-108458000D01*
X114250400Y-121258600D01*
X114292875Y-121472137D01*
X114413834Y-121653166D01*
X114594863Y-121774125D01*
X114808400Y-121816600D01*
X115051200Y-121816600D01*
X115051200Y-121858000D01*
X115093675Y-122071537D01*
X115214634Y-122252566D01*
X115395663Y-122373525D01*
X115609200Y-122416000D01*
X129608500Y-122416000D01*
X129822037Y-122373525D01*
X130003066Y-122252566D01*
X130124025Y-122071537D01*
X130166500Y-121858000D01*
X130166500Y-121816600D01*
X130407900Y-121816600D01*
X130621437Y-121774125D01*
X130802466Y-121653166D01*
X130923425Y-121472137D01*
X130965900Y-121258600D01*
X130965900Y-108458000D01*
X133300400Y-108458000D01*
X133300400Y-121258600D01*
X133342875Y-121472137D01*
X133463834Y-121653166D01*
X133644863Y-121774125D01*
X133858400Y-121816600D01*
X134099800Y-121816600D01*
X134099800Y-121858000D01*
X134142275Y-122071537D01*
X134263234Y-122252566D01*
X134444263Y-122373525D01*
X134657800Y-122416000D01*
X148657000Y-122416000D01*
X148870537Y-122373525D01*
X149051566Y-122252566D01*
X149172525Y-122071537D01*
X149215000Y-121858000D01*
X149215000Y-121816600D01*
X149458000Y-121816600D01*
X149671537Y-121774125D01*
X149852566Y-121653166D01*
X149973525Y-121472137D01*
X150016000Y-121258600D01*
X150016000Y-108458000D01*
X152349000Y-108458000D01*
X152349000Y-121258600D01*
X152391475Y-121472137D01*
X152512434Y-121653166D01*
X152693463Y-121774125D01*
X152907000Y-121816600D01*
X153150000Y-121816600D01*
X153150000Y-121858000D01*
X153192475Y-122071537D01*
X153313434Y-122252566D01*
X153494463Y-122373525D01*
X153708000Y-122416000D01*
X167708000Y-122416000D01*
X167921537Y-122373525D01*
X168102566Y-122252566D01*
X168223525Y-122071537D01*
X168266000Y-121858000D01*
X168266000Y-121816600D01*
X168509000Y-121816600D01*
X168722537Y-121774125D01*
X168903566Y-121653166D01*
X169024525Y-121472137D01*
X169067000Y-121258600D01*
X169067000Y-108458000D01*
X171400000Y-108458000D01*
X171400000Y-121258600D01*
X171442475Y-121472137D01*
X171563434Y-121653166D01*
X171744463Y-121774125D01*
X171958000Y-121816600D01*
X172201000Y-121816600D01*
X172201000Y-121858000D01*
X172243475Y-122071537D01*
X172364434Y-122252566D01*
X172545463Y-122373525D01*
X172759000Y-122416000D01*
X186758000Y-122416000D01*
X186971537Y-122373525D01*
X187152566Y-122252566D01*
X187273525Y-122071537D01*
X187316000Y-121858000D01*
X187316000Y-121816600D01*
X187559000Y-121816600D01*
X187772537Y-121774125D01*
X187953566Y-121653166D01*
X188074525Y-121472137D01*
X188117000Y-121258600D01*
X188117000Y-108458000D01*
X190450000Y-108458000D01*
X190450000Y-121258600D01*
X190492475Y-121472137D01*
X190613434Y-121653166D01*
X190794463Y-121774125D01*
X191008000Y-121816600D01*
X191251000Y-121816600D01*
X191251000Y-121858000D01*
X191293475Y-122071537D01*
X191414434Y-122252566D01*
X191595463Y-122373525D01*
X191809000Y-122416000D01*
X205808000Y-122416000D01*
X206021537Y-122373525D01*
X206202566Y-122252566D01*
X206323525Y-122071537D01*
X206366000Y-121858000D01*
X206366000Y-121816600D01*
X206609000Y-121816600D01*
X206822537Y-121774125D01*
X207003566Y-121653166D01*
X207124525Y-121472137D01*
X207167000Y-121258600D01*
X207167000Y-108458000D01*
X209500000Y-108458000D01*
X209500000Y-121258600D01*
X209542475Y-121472137D01*
X209663434Y-121653166D01*
X209844463Y-121774125D01*
X210058000Y-121816600D01*
X210301000Y-121816600D01*
X210301000Y-121858000D01*
X210343475Y-122071537D01*
X210464434Y-122252566D01*
X210645463Y-122373525D01*
X210859000Y-122416000D01*
X224858000Y-122416000D01*
X225071537Y-122373525D01*
X225252566Y-122252566D01*
X225373525Y-122071537D01*
X225416000Y-121858000D01*
X225416000Y-121816600D01*
X225659000Y-121816600D01*
X225872537Y-121774125D01*
X226053566Y-121653166D01*
X226174525Y-121472137D01*
X226217000Y-121258600D01*
X226217000Y-108458000D01*
X228550000Y-108458000D01*
X228550000Y-121258600D01*
X228592475Y-121472137D01*
X228713434Y-121653166D01*
X228894463Y-121774125D01*
X229108000Y-121816600D01*
X229351000Y-121816600D01*
X229351000Y-121858000D01*
X229393475Y-122071537D01*
X229514434Y-122252566D01*
X229695463Y-122373525D01*
X229909000Y-122416000D01*
X243908000Y-122416000D01*
X244121537Y-122373525D01*
X244302566Y-122252566D01*
X244423525Y-122071537D01*
X244466000Y-121858000D01*
X244466000Y-121816600D01*
X244709000Y-121816600D01*
X244922537Y-121774125D01*
X245103566Y-121653166D01*
X245224525Y-121472137D01*
X245267000Y-121258600D01*
X245267000Y-108458000D01*
X247600000Y-108458000D01*
X247600000Y-121258600D01*
X247642475Y-121472137D01*
X247763434Y-121653166D01*
X247944463Y-121774125D01*
X248158000Y-121816600D01*
X248401000Y-121816600D01*
X248401000Y-121858000D01*
X248443475Y-122071537D01*
X248564434Y-122252566D01*
X248745463Y-122373525D01*
X248959000Y-122416000D01*
X262958000Y-122416000D01*
X263171537Y-122373525D01*
X263352566Y-122252566D01*
X263473525Y-122071537D01*
X263516000Y-121858000D01*
X263516000Y-121816600D01*
X263759000Y-121816600D01*
X263972537Y-121774125D01*
X264153566Y-121653166D01*
X264274525Y-121472137D01*
X264317000Y-121258600D01*
X264317000Y-108458000D01*
X264274525Y-108244463D01*
X264153566Y-108063434D01*
X263972537Y-107942475D01*
X263759000Y-107900000D01*
X263516000Y-107900000D01*
X263516000Y-107858600D01*
X263473525Y-107645063D01*
X263352566Y-107464034D01*
X263171537Y-107343075D01*
X262958000Y-107300600D01*
X248959000Y-107300600D01*
X248745463Y-107343075D01*
X248564434Y-107464034D01*
X248443475Y-107645063D01*
X248401000Y-107858600D01*
X248401000Y-107900000D01*
X248158000Y-107900000D01*
X247944463Y-107942475D01*
X247763434Y-108063434D01*
X247642475Y-108244463D01*
X247600000Y-108458000D01*
X245267000Y-108458000D01*
X245224525Y-108244463D01*
X245103566Y-108063434D01*
X244922537Y-107942475D01*
X244709000Y-107900000D01*
X244466000Y-107900000D01*
X244466000Y-107858600D01*
X244423525Y-107645063D01*
X244302566Y-107464034D01*
X244121537Y-107343075D01*
X243908000Y-107300600D01*
X229909000Y-107300600D01*
X229695463Y-107343075D01*
X229514434Y-107464034D01*
X229393475Y-107645063D01*
X229351000Y-107858600D01*
X229351000Y-107900000D01*
X229108000Y-107900000D01*
X228894463Y-107942475D01*
X228713434Y-108063434D01*
X228592475Y-108244463D01*
X228550000Y-108458000D01*
X226217000Y-108458000D01*
X226174525Y-108244463D01*
X226053566Y-108063434D01*
X225872537Y-107942475D01*
X225659000Y-107900000D01*
X225416000Y-107900000D01*
X225416000Y-107858600D01*
X225373525Y-107645063D01*
X225252566Y-107464034D01*
X225071537Y-107343075D01*
X224858000Y-107300600D01*
X210859000Y-107300600D01*
X210645463Y-107343075D01*
X210464434Y-107464034D01*
X210343475Y-107645063D01*
X210301000Y-107858600D01*
X210301000Y-107900000D01*
X210058000Y-107900000D01*
X209844463Y-107942475D01*
X209663434Y-108063434D01*
X209542475Y-108244463D01*
X209500000Y-108458000D01*
X207167000Y-108458000D01*
X207124525Y-108244463D01*
X207003566Y-108063434D01*
X206822537Y-107942475D01*
X206609000Y-107900000D01*
X206366000Y-107900000D01*
X206366000Y-107858600D01*
X206323525Y-107645063D01*
X206202566Y-107464034D01*
X206021537Y-107343075D01*
X205808000Y-107300600D01*
X191809000Y-107300600D01*
X191595463Y-107343075D01*
X191414434Y-107464034D01*
X191293475Y-107645063D01*
X191251000Y-107858600D01*
X191251000Y-107900000D01*
X191008000Y-107900000D01*
X190794463Y-107942475D01*
X190613434Y-108063434D01*
X190492475Y-108244463D01*
X190450000Y-108458000D01*
X188117000Y-108458000D01*
X188074525Y-108244463D01*
X187953566Y-108063434D01*
X187772537Y-107942475D01*
X187559000Y-107900000D01*
X187316000Y-107900000D01*
X187316000Y-107858600D01*
X187273525Y-107645063D01*
X187152566Y-107464034D01*
X186971537Y-107343075D01*
X186758000Y-107300600D01*
X172759000Y-107300600D01*
X172545463Y-107343075D01*
X172364434Y-107464034D01*
X172243475Y-107645063D01*
X172201000Y-107858600D01*
X172201000Y-107900000D01*
X171958000Y-107900000D01*
X171744463Y-107942475D01*
X171563434Y-108063434D01*
X171442475Y-108244463D01*
X171400000Y-108458000D01*
X169067000Y-108458000D01*
X169024525Y-108244463D01*
X168903566Y-108063434D01*
X168722537Y-107942475D01*
X168509000Y-107900000D01*
X168266000Y-107900000D01*
X168266000Y-107858600D01*
X168223525Y-107645063D01*
X168102566Y-107464034D01*
X167921537Y-107343075D01*
X167708000Y-107300600D01*
X153708000Y-107300600D01*
X153494463Y-107343075D01*
X153313434Y-107464034D01*
X153192475Y-107645063D01*
X153150000Y-107858600D01*
X153150000Y-107900000D01*
X152907000Y-107900000D01*
X152693463Y-107942475D01*
X152512434Y-108063434D01*
X152391475Y-108244463D01*
X152349000Y-108458000D01*
X150016000Y-108458000D01*
X149973525Y-108244463D01*
X149852566Y-108063434D01*
X149671537Y-107942475D01*
X149458000Y-107900000D01*
X149215000Y-107900000D01*
X149215000Y-107858600D01*
X149172525Y-107645063D01*
X149051566Y-107464034D01*
X148870537Y-107343075D01*
X148657000Y-107300600D01*
X134657800Y-107300600D01*
X134444263Y-107343075D01*
X134263234Y-107464034D01*
X134142275Y-107645063D01*
X134099800Y-107858600D01*
X134099800Y-107900000D01*
X133858400Y-107900000D01*
X133644863Y-107942475D01*
X133463834Y-108063434D01*
X133342875Y-108244463D01*
X133300400Y-108458000D01*
X130965900Y-108458000D01*
X130923425Y-108244463D01*
X130802466Y-108063434D01*
X130621437Y-107942475D01*
X130407900Y-107900000D01*
X130166500Y-107900000D01*
X130166500Y-107858600D01*
X130124025Y-107645063D01*
X130003066Y-107464034D01*
X129822037Y-107343075D01*
X129608500Y-107300600D01*
X115609200Y-107300600D01*
X115395663Y-107343075D01*
X115214634Y-107464034D01*
X115093675Y-107645063D01*
X115051200Y-107858600D01*
X115051200Y-107900000D01*
X114808400Y-107900000D01*
X114594863Y-107942475D01*
X114413834Y-108063434D01*
X114292875Y-108244463D01*
X114250400Y-108458000D01*
X111917300Y-108458000D01*
X111874825Y-108244463D01*
X111753866Y-108063434D01*
X111572837Y-107942475D01*
X111359300Y-107900000D01*
X111116500Y-107900000D01*
X111116500Y-107858600D01*
X111074025Y-107645063D01*
X110953066Y-107464034D01*
X110772037Y-107343075D01*
X110558500Y-107300600D01*
X96559200Y-107300600D01*
X96345663Y-107343075D01*
X96164634Y-107464034D01*
X96043675Y-107645063D01*
X96001200Y-107858600D01*
X96001200Y-107900000D01*
X95758400Y-107900000D01*
X95544863Y-107942475D01*
X95363834Y-108063434D01*
X95242875Y-108244463D01*
X95200400Y-108458000D01*
X92867300Y-108458000D01*
X92824825Y-108244463D01*
X92703866Y-108063434D01*
X92522837Y-107942475D01*
X92309300Y-107900000D01*
X92066500Y-107900000D01*
X92066500Y-107858600D01*
X92024025Y-107645063D01*
X91903066Y-107464034D01*
X91722037Y-107343075D01*
X91508500Y-107300600D01*
X77509200Y-107300600D01*
X77295663Y-107343075D01*
X77114634Y-107464034D01*
X76993675Y-107645063D01*
X76951200Y-107858600D01*
X76951200Y-107900000D01*
X76708400Y-107900000D01*
X76494863Y-107942475D01*
X76313834Y-108063434D01*
X76192875Y-108244463D01*
X76150400Y-108458000D01*
X73817300Y-108458000D01*
X73774825Y-108244463D01*
X73653866Y-108063434D01*
X73472837Y-107942475D01*
X73259300Y-107900000D01*
X73016500Y-107900000D01*
X73016500Y-107858600D01*
X72974025Y-107645063D01*
X72853066Y-107464034D01*
X72672037Y-107343075D01*
X72458500Y-107300600D01*
X58459100Y-107300600D01*
X58245563Y-107343075D01*
X58064534Y-107464034D01*
X57943575Y-107645063D01*
X57901100Y-107858600D01*
X57901100Y-107900000D01*
X57658500Y-107900000D01*
X57444963Y-107942475D01*
X57263934Y-108063434D01*
X57142975Y-108244463D01*
X57100500Y-108458000D01*
X54767200Y-108458000D01*
X54724725Y-108244463D01*
X54603766Y-108063434D01*
X54422737Y-107942475D01*
X54209200Y-107900000D01*
X53966600Y-107900000D01*
X53966600Y-107858600D01*
X53924125Y-107645063D01*
X53803166Y-107464034D01*
X53622137Y-107343075D01*
X53408600Y-107300600D01*
X39409100Y-107300600D01*
X39195563Y-107343075D01*
X39014534Y-107464034D01*
X38893575Y-107645063D01*
X38851100Y-107858600D01*
X38851100Y-107900000D01*
X38608470Y-107900000D01*
X38394933Y-107942475D01*
X38213904Y-108063434D01*
X38092945Y-108244463D01*
X38050470Y-108458000D01*
X36441335Y-108458000D01*
X36441384Y-105906683D01*
X148748565Y-105906683D01*
X149129581Y-106828812D01*
X149834477Y-107534939D01*
X150755939Y-107917564D01*
X151753683Y-107918435D01*
X152675812Y-107537419D01*
X153381939Y-106832523D01*
X153764564Y-105911061D01*
X153765435Y-104913317D01*
X153384419Y-103991188D01*
X152679523Y-103285061D01*
X151758061Y-102902436D01*
X150760317Y-102901565D01*
X149838188Y-103282581D01*
X149132061Y-103987477D01*
X148749436Y-104908939D01*
X148748565Y-105906683D01*
X36441384Y-105906683D01*
X36441702Y-89408000D01*
X38050470Y-89408000D01*
X38050470Y-102208600D01*
X38092945Y-102422137D01*
X38213904Y-102603166D01*
X38394933Y-102724125D01*
X38608470Y-102766600D01*
X38851100Y-102766600D01*
X38851100Y-102807900D01*
X38893575Y-103021437D01*
X39014534Y-103202466D01*
X39195563Y-103323425D01*
X39409100Y-103365900D01*
X53408600Y-103365900D01*
X53622137Y-103323425D01*
X53803166Y-103202466D01*
X53924125Y-103021437D01*
X53966600Y-102807900D01*
X53966600Y-102766600D01*
X54209200Y-102766600D01*
X54422737Y-102724125D01*
X54603766Y-102603166D01*
X54724725Y-102422137D01*
X54767200Y-102208600D01*
X54767200Y-89408000D01*
X57100500Y-89408000D01*
X57100500Y-102208600D01*
X57142975Y-102422137D01*
X57263934Y-102603166D01*
X57444963Y-102724125D01*
X57658500Y-102766600D01*
X57901100Y-102766600D01*
X57901100Y-102807900D01*
X57943575Y-103021437D01*
X58064534Y-103202466D01*
X58245563Y-103323425D01*
X58459100Y-103365900D01*
X72458500Y-103365900D01*
X72672037Y-103323425D01*
X72853066Y-103202466D01*
X72974025Y-103021437D01*
X73016500Y-102807900D01*
X73016500Y-102766600D01*
X73259300Y-102766600D01*
X73472837Y-102724125D01*
X73653866Y-102603166D01*
X73774825Y-102422137D01*
X73817300Y-102208600D01*
X73817300Y-89408000D01*
X76150400Y-89408000D01*
X76150400Y-102208600D01*
X76192875Y-102422137D01*
X76313834Y-102603166D01*
X76494863Y-102724125D01*
X76708400Y-102766600D01*
X76951200Y-102766600D01*
X76951200Y-102807900D01*
X76993675Y-103021437D01*
X77114634Y-103202466D01*
X77295663Y-103323425D01*
X77509200Y-103365900D01*
X91508500Y-103365900D01*
X91722037Y-103323425D01*
X91903066Y-103202466D01*
X92024025Y-103021437D01*
X92066500Y-102807900D01*
X92066500Y-102766600D01*
X92309300Y-102766600D01*
X92522837Y-102724125D01*
X92703866Y-102603166D01*
X92824825Y-102422137D01*
X92867300Y-102208600D01*
X92867300Y-89408000D01*
X95200400Y-89408000D01*
X95200400Y-102208600D01*
X95242875Y-102422137D01*
X95363834Y-102603166D01*
X95544863Y-102724125D01*
X95758400Y-102766600D01*
X96001200Y-102766600D01*
X96001200Y-102807900D01*
X96043675Y-103021437D01*
X96164634Y-103202466D01*
X96345663Y-103323425D01*
X96559200Y-103365900D01*
X110558500Y-103365900D01*
X110772037Y-103323425D01*
X110953066Y-103202466D01*
X111074025Y-103021437D01*
X111116500Y-102807900D01*
X111116500Y-102766600D01*
X111359300Y-102766600D01*
X111572837Y-102724125D01*
X111753866Y-102603166D01*
X111874825Y-102422137D01*
X111917300Y-102208600D01*
X111917300Y-89408000D01*
X114250400Y-89408000D01*
X114250400Y-102208600D01*
X114292875Y-102422137D01*
X114413834Y-102603166D01*
X114594863Y-102724125D01*
X114808400Y-102766600D01*
X115051200Y-102766600D01*
X115051200Y-102807900D01*
X115093675Y-103021437D01*
X115214634Y-103202466D01*
X115395663Y-103323425D01*
X115609200Y-103365900D01*
X129608500Y-103365900D01*
X129822037Y-103323425D01*
X130003066Y-103202466D01*
X130124025Y-103021437D01*
X130166500Y-102807900D01*
X130166500Y-102766600D01*
X130407900Y-102766600D01*
X130621437Y-102724125D01*
X130802466Y-102603166D01*
X130923425Y-102422137D01*
X130965900Y-102208600D01*
X130965900Y-89408000D01*
X133300400Y-89408000D01*
X133300400Y-102208600D01*
X133342875Y-102422137D01*
X133463834Y-102603166D01*
X133644863Y-102724125D01*
X133858400Y-102766600D01*
X134099800Y-102766600D01*
X134099800Y-102807900D01*
X134142275Y-103021437D01*
X134263234Y-103202466D01*
X134444263Y-103323425D01*
X134657800Y-103365900D01*
X148657000Y-103365900D01*
X148870537Y-103323425D01*
X149051566Y-103202466D01*
X149172525Y-103021437D01*
X149215000Y-102807900D01*
X149215000Y-102766600D01*
X149458000Y-102766600D01*
X149671537Y-102724125D01*
X149852566Y-102603166D01*
X149973525Y-102422137D01*
X150016000Y-102208600D01*
X150016000Y-89408000D01*
X152349000Y-89408000D01*
X152349000Y-102208600D01*
X152391475Y-102422137D01*
X152512434Y-102603166D01*
X152693463Y-102724125D01*
X152907000Y-102766600D01*
X153150000Y-102766600D01*
X153150000Y-102807900D01*
X153192475Y-103021437D01*
X153313434Y-103202466D01*
X153494463Y-103323425D01*
X153708000Y-103365900D01*
X167708000Y-103365900D01*
X167921537Y-103323425D01*
X168102566Y-103202466D01*
X168223525Y-103021437D01*
X168266000Y-102807900D01*
X168266000Y-102766600D01*
X168509000Y-102766600D01*
X168722537Y-102724125D01*
X168903566Y-102603166D01*
X169024525Y-102422137D01*
X169067000Y-102208600D01*
X169067000Y-89408000D01*
X171400000Y-89408000D01*
X171400000Y-102208600D01*
X171442475Y-102422137D01*
X171563434Y-102603166D01*
X171744463Y-102724125D01*
X171958000Y-102766600D01*
X172201000Y-102766600D01*
X172201000Y-102807900D01*
X172243475Y-103021437D01*
X172364434Y-103202466D01*
X172545463Y-103323425D01*
X172759000Y-103365900D01*
X186758000Y-103365900D01*
X186971537Y-103323425D01*
X187152566Y-103202466D01*
X187273525Y-103021437D01*
X187316000Y-102807900D01*
X187316000Y-102766600D01*
X187559000Y-102766600D01*
X187772537Y-102724125D01*
X187953566Y-102603166D01*
X188074525Y-102422137D01*
X188117000Y-102208600D01*
X188117000Y-89408000D01*
X190450000Y-89408000D01*
X190450000Y-102208600D01*
X190492475Y-102422137D01*
X190613434Y-102603166D01*
X190794463Y-102724125D01*
X191008000Y-102766600D01*
X191251000Y-102766600D01*
X191251000Y-102807900D01*
X191293475Y-103021437D01*
X191414434Y-103202466D01*
X191595463Y-103323425D01*
X191809000Y-103365900D01*
X205808000Y-103365900D01*
X206021537Y-103323425D01*
X206202566Y-103202466D01*
X206323525Y-103021437D01*
X206366000Y-102807900D01*
X206366000Y-102766600D01*
X206609000Y-102766600D01*
X206822537Y-102724125D01*
X207003566Y-102603166D01*
X207124525Y-102422137D01*
X207167000Y-102208600D01*
X207167000Y-89408000D01*
X209500000Y-89408000D01*
X209500000Y-102208600D01*
X209542475Y-102422137D01*
X209663434Y-102603166D01*
X209844463Y-102724125D01*
X210058000Y-102766600D01*
X210301000Y-102766600D01*
X210301000Y-102807900D01*
X210343475Y-103021437D01*
X210464434Y-103202466D01*
X210645463Y-103323425D01*
X210859000Y-103365900D01*
X224858000Y-103365900D01*
X225071537Y-103323425D01*
X225252566Y-103202466D01*
X225373525Y-103021437D01*
X225416000Y-102807900D01*
X225416000Y-102766600D01*
X225659000Y-102766600D01*
X225872537Y-102724125D01*
X226053566Y-102603166D01*
X226174525Y-102422137D01*
X226217000Y-102208600D01*
X226217000Y-89408000D01*
X228550000Y-89408000D01*
X228550000Y-102208600D01*
X228592475Y-102422137D01*
X228713434Y-102603166D01*
X228894463Y-102724125D01*
X229108000Y-102766600D01*
X229351000Y-102766600D01*
X229351000Y-102807900D01*
X229393475Y-103021437D01*
X229514434Y-103202466D01*
X229695463Y-103323425D01*
X229909000Y-103365900D01*
X243908000Y-103365900D01*
X244121537Y-103323425D01*
X244302566Y-103202466D01*
X244423525Y-103021437D01*
X244466000Y-102807900D01*
X244466000Y-102766600D01*
X244709000Y-102766600D01*
X244922537Y-102724125D01*
X245103566Y-102603166D01*
X245224525Y-102422137D01*
X245267000Y-102208600D01*
X245267000Y-89408000D01*
X247600000Y-89408000D01*
X247600000Y-102208600D01*
X247642475Y-102422137D01*
X247763434Y-102603166D01*
X247944463Y-102724125D01*
X248158000Y-102766600D01*
X248401000Y-102766600D01*
X248401000Y-102807900D01*
X248443475Y-103021437D01*
X248564434Y-103202466D01*
X248745463Y-103323425D01*
X248959000Y-103365900D01*
X262958000Y-103365900D01*
X263171537Y-103323425D01*
X263352566Y-103202466D01*
X263473525Y-103021437D01*
X263516000Y-102807900D01*
X263516000Y-102766600D01*
X263759000Y-102766600D01*
X263972537Y-102724125D01*
X264153566Y-102603166D01*
X264274525Y-102422137D01*
X264317000Y-102208600D01*
X264317000Y-89408000D01*
X264274525Y-89194463D01*
X264153566Y-89013434D01*
X263972537Y-88892475D01*
X263759000Y-88850000D01*
X263516000Y-88850000D01*
X263516000Y-88808600D01*
X263473525Y-88595063D01*
X263352566Y-88414034D01*
X263171537Y-88293075D01*
X262958000Y-88250600D01*
X248959000Y-88250600D01*
X248745463Y-88293075D01*
X248564434Y-88414034D01*
X248443475Y-88595063D01*
X248401000Y-88808600D01*
X248401000Y-88850000D01*
X248158000Y-88850000D01*
X247944463Y-88892475D01*
X247763434Y-89013434D01*
X247642475Y-89194463D01*
X247600000Y-89408000D01*
X245267000Y-89408000D01*
X245224525Y-89194463D01*
X245103566Y-89013434D01*
X244922537Y-88892475D01*
X244709000Y-88850000D01*
X244466000Y-88850000D01*
X244466000Y-88808600D01*
X244423525Y-88595063D01*
X244302566Y-88414034D01*
X244121537Y-88293075D01*
X243908000Y-88250600D01*
X229909000Y-88250600D01*
X229695463Y-88293075D01*
X229514434Y-88414034D01*
X229393475Y-88595063D01*
X229351000Y-88808600D01*
X229351000Y-88850000D01*
X229108000Y-88850000D01*
X228894463Y-88892475D01*
X228713434Y-89013434D01*
X228592475Y-89194463D01*
X228550000Y-89408000D01*
X226217000Y-89408000D01*
X226174525Y-89194463D01*
X226053566Y-89013434D01*
X225872537Y-88892475D01*
X225659000Y-88850000D01*
X225416000Y-88850000D01*
X225416000Y-88808600D01*
X225373525Y-88595063D01*
X225252566Y-88414034D01*
X225071537Y-88293075D01*
X224858000Y-88250600D01*
X210859000Y-88250600D01*
X210645463Y-88293075D01*
X210464434Y-88414034D01*
X210343475Y-88595063D01*
X210301000Y-88808600D01*
X210301000Y-88850000D01*
X210058000Y-88850000D01*
X209844463Y-88892475D01*
X209663434Y-89013434D01*
X209542475Y-89194463D01*
X209500000Y-89408000D01*
X207167000Y-89408000D01*
X207124525Y-89194463D01*
X207003566Y-89013434D01*
X206822537Y-88892475D01*
X206609000Y-88850000D01*
X206366000Y-88850000D01*
X206366000Y-88808600D01*
X206323525Y-88595063D01*
X206202566Y-88414034D01*
X206021537Y-88293075D01*
X205808000Y-88250600D01*
X191809000Y-88250600D01*
X191595463Y-88293075D01*
X191414434Y-88414034D01*
X191293475Y-88595063D01*
X191251000Y-88808600D01*
X191251000Y-88850000D01*
X191008000Y-88850000D01*
X190794463Y-88892475D01*
X190613434Y-89013434D01*
X190492475Y-89194463D01*
X190450000Y-89408000D01*
X188117000Y-89408000D01*
X188074525Y-89194463D01*
X187953566Y-89013434D01*
X187772537Y-88892475D01*
X187559000Y-88850000D01*
X187316000Y-88850000D01*
X187316000Y-88808600D01*
X187273525Y-88595063D01*
X187152566Y-88414034D01*
X186971537Y-88293075D01*
X186758000Y-88250600D01*
X172759000Y-88250600D01*
X172545463Y-88293075D01*
X172364434Y-88414034D01*
X172243475Y-88595063D01*
X172201000Y-88808600D01*
X172201000Y-88850000D01*
X171958000Y-88850000D01*
X171744463Y-88892475D01*
X171563434Y-89013434D01*
X171442475Y-89194463D01*
X171400000Y-89408000D01*
X169067000Y-89408000D01*
X169024525Y-89194463D01*
X168903566Y-89013434D01*
X168722537Y-88892475D01*
X168509000Y-88850000D01*
X168266000Y-88850000D01*
X168266000Y-88808600D01*
X168223525Y-88595063D01*
X168102566Y-88414034D01*
X167921537Y-88293075D01*
X167708000Y-88250600D01*
X153708000Y-88250600D01*
X153494463Y-88293075D01*
X153313434Y-88414034D01*
X153192475Y-88595063D01*
X153150000Y-88808600D01*
X153150000Y-88850000D01*
X152907000Y-88850000D01*
X152693463Y-88892475D01*
X152512434Y-89013434D01*
X152391475Y-89194463D01*
X152349000Y-89408000D01*
X150016000Y-89408000D01*
X149973525Y-89194463D01*
X149852566Y-89013434D01*
X149671537Y-88892475D01*
X149458000Y-88850000D01*
X149215000Y-88850000D01*
X149215000Y-88808600D01*
X149172525Y-88595063D01*
X149051566Y-88414034D01*
X148870537Y-88293075D01*
X148657000Y-88250600D01*
X134657800Y-88250600D01*
X134444263Y-88293075D01*
X134263234Y-88414034D01*
X134142275Y-88595063D01*
X134099800Y-88808600D01*
X134099800Y-88850000D01*
X133858400Y-88850000D01*
X133644863Y-88892475D01*
X133463834Y-89013434D01*
X133342875Y-89194463D01*
X133300400Y-89408000D01*
X130965900Y-89408000D01*
X130923425Y-89194463D01*
X130802466Y-89013434D01*
X130621437Y-88892475D01*
X130407900Y-88850000D01*
X130166500Y-88850000D01*
X130166500Y-88808600D01*
X130124025Y-88595063D01*
X130003066Y-88414034D01*
X129822037Y-88293075D01*
X129608500Y-88250600D01*
X115609200Y-88250600D01*
X115395663Y-88293075D01*
X115214634Y-88414034D01*
X115093675Y-88595063D01*
X115051200Y-88808600D01*
X115051200Y-88850000D01*
X114808400Y-88850000D01*
X114594863Y-88892475D01*
X114413834Y-89013434D01*
X114292875Y-89194463D01*
X114250400Y-89408000D01*
X111917300Y-89408000D01*
X111874825Y-89194463D01*
X111753866Y-89013434D01*
X111572837Y-88892475D01*
X111359300Y-88850000D01*
X111116500Y-88850000D01*
X111116500Y-88808600D01*
X111074025Y-88595063D01*
X110953066Y-88414034D01*
X110772037Y-88293075D01*
X110558500Y-88250600D01*
X96559200Y-88250600D01*
X96345663Y-88293075D01*
X96164634Y-88414034D01*
X96043675Y-88595063D01*
X96001200Y-88808600D01*
X96001200Y-88850000D01*
X95758400Y-88850000D01*
X95544863Y-88892475D01*
X95363834Y-89013434D01*
X95242875Y-89194463D01*
X95200400Y-89408000D01*
X92867300Y-89408000D01*
X92824825Y-89194463D01*
X92703866Y-89013434D01*
X92522837Y-88892475D01*
X92309300Y-88850000D01*
X92066500Y-88850000D01*
X92066500Y-88808600D01*
X92024025Y-88595063D01*
X91903066Y-88414034D01*
X91722037Y-88293075D01*
X91508500Y-88250600D01*
X77509200Y-88250600D01*
X77295663Y-88293075D01*
X77114634Y-88414034D01*
X76993675Y-88595063D01*
X76951200Y-88808600D01*
X76951200Y-88850000D01*
X76708400Y-88850000D01*
X76494863Y-88892475D01*
X76313834Y-89013434D01*
X76192875Y-89194463D01*
X76150400Y-89408000D01*
X73817300Y-89408000D01*
X73774825Y-89194463D01*
X73653866Y-89013434D01*
X73472837Y-88892475D01*
X73259300Y-88850000D01*
X73016500Y-88850000D01*
X73016500Y-88808600D01*
X72974025Y-88595063D01*
X72853066Y-88414034D01*
X72672037Y-88293075D01*
X72458500Y-88250600D01*
X58459100Y-88250600D01*
X58245563Y-88293075D01*
X58064534Y-88414034D01*
X57943575Y-88595063D01*
X57901100Y-88808600D01*
X57901100Y-88850000D01*
X57658500Y-88850000D01*
X57444963Y-88892475D01*
X57263934Y-89013434D01*
X57142975Y-89194463D01*
X57100500Y-89408000D01*
X54767200Y-89408000D01*
X54724725Y-89194463D01*
X54603766Y-89013434D01*
X54422737Y-88892475D01*
X54209200Y-88850000D01*
X53966600Y-88850000D01*
X53966600Y-88808600D01*
X53924125Y-88595063D01*
X53803166Y-88414034D01*
X53622137Y-88293075D01*
X53408600Y-88250600D01*
X39409100Y-88250600D01*
X39195563Y-88293075D01*
X39014534Y-88414034D01*
X38893575Y-88595063D01*
X38851100Y-88808600D01*
X38851100Y-88850000D01*
X38608470Y-88850000D01*
X38394933Y-88892475D01*
X38213904Y-89013434D01*
X38092945Y-89194463D01*
X38050470Y-89408000D01*
X36441702Y-89408000D01*
X36441751Y-86856683D01*
X53498565Y-86856683D01*
X53879581Y-87778812D01*
X54584477Y-88484939D01*
X55505939Y-88867564D01*
X56503683Y-88868435D01*
X57425812Y-88487419D01*
X58131939Y-87782523D01*
X58514564Y-86861061D01*
X58514678Y-86729683D01*
X243871565Y-86729683D01*
X244252581Y-87651812D01*
X244957477Y-88357939D01*
X245878939Y-88740564D01*
X246876683Y-88741435D01*
X247798812Y-88360419D01*
X248504939Y-87655523D01*
X248887564Y-86734061D01*
X248888435Y-85736317D01*
X248507419Y-84814188D01*
X247802523Y-84108061D01*
X246881061Y-83725436D01*
X245883317Y-83724565D01*
X244961188Y-84105581D01*
X244255061Y-84810477D01*
X243872436Y-85731939D01*
X243871565Y-86729683D01*
X58514678Y-86729683D01*
X58515435Y-85863317D01*
X58134419Y-84941188D01*
X57429523Y-84235061D01*
X56508061Y-83852436D01*
X55510317Y-83851565D01*
X54588188Y-84232581D01*
X53882061Y-84937477D01*
X53499436Y-85858939D01*
X53498565Y-86856683D01*
X36441751Y-86856683D01*
X36442070Y-70358000D01*
X38050470Y-70358000D01*
X38050470Y-83158600D01*
X38092945Y-83372137D01*
X38213904Y-83553166D01*
X38394933Y-83674125D01*
X38608470Y-83716600D01*
X38851100Y-83716600D01*
X38851100Y-83757900D01*
X38893575Y-83971437D01*
X39014534Y-84152466D01*
X39195563Y-84273425D01*
X39409100Y-84315900D01*
X53408600Y-84315900D01*
X53622137Y-84273425D01*
X53803166Y-84152466D01*
X53924125Y-83971437D01*
X53966600Y-83757900D01*
X53966600Y-83716600D01*
X54209200Y-83716600D01*
X54422737Y-83674125D01*
X54603766Y-83553166D01*
X54724725Y-83372137D01*
X54767200Y-83158600D01*
X54767200Y-70358000D01*
X57100500Y-70358000D01*
X57100500Y-83158600D01*
X57142975Y-83372137D01*
X57263934Y-83553166D01*
X57444963Y-83674125D01*
X57658500Y-83716600D01*
X57901100Y-83716600D01*
X57901100Y-83757900D01*
X57943575Y-83971437D01*
X58064534Y-84152466D01*
X58245563Y-84273425D01*
X58459100Y-84315900D01*
X72458500Y-84315900D01*
X72672037Y-84273425D01*
X72853066Y-84152466D01*
X72974025Y-83971437D01*
X73016500Y-83757900D01*
X73016500Y-83716600D01*
X73259300Y-83716600D01*
X73472837Y-83674125D01*
X73653866Y-83553166D01*
X73774825Y-83372137D01*
X73817300Y-83158600D01*
X73817300Y-70358000D01*
X76150400Y-70358000D01*
X76150400Y-83158600D01*
X76192875Y-83372137D01*
X76313834Y-83553166D01*
X76494863Y-83674125D01*
X76708400Y-83716600D01*
X76951200Y-83716600D01*
X76951200Y-83757900D01*
X76993675Y-83971437D01*
X77114634Y-84152466D01*
X77295663Y-84273425D01*
X77509200Y-84315900D01*
X91508500Y-84315900D01*
X91722037Y-84273425D01*
X91903066Y-84152466D01*
X92024025Y-83971437D01*
X92066500Y-83757900D01*
X92066500Y-83716600D01*
X92309300Y-83716600D01*
X92522837Y-83674125D01*
X92703866Y-83553166D01*
X92824825Y-83372137D01*
X92867300Y-83158600D01*
X92867300Y-70358000D01*
X95200400Y-70358000D01*
X95200400Y-83158600D01*
X95242875Y-83372137D01*
X95363834Y-83553166D01*
X95544863Y-83674125D01*
X95758400Y-83716600D01*
X96001200Y-83716600D01*
X96001200Y-83757900D01*
X96043675Y-83971437D01*
X96164634Y-84152466D01*
X96345663Y-84273425D01*
X96559200Y-84315900D01*
X110558500Y-84315900D01*
X110772037Y-84273425D01*
X110953066Y-84152466D01*
X111074025Y-83971437D01*
X111116500Y-83757900D01*
X111116500Y-83716600D01*
X111359300Y-83716600D01*
X111572837Y-83674125D01*
X111753866Y-83553166D01*
X111874825Y-83372137D01*
X111917300Y-83158600D01*
X111917300Y-70358000D01*
X114250400Y-70358000D01*
X114250400Y-83158600D01*
X114292875Y-83372137D01*
X114413834Y-83553166D01*
X114594863Y-83674125D01*
X114808400Y-83716600D01*
X115051200Y-83716600D01*
X115051200Y-83757900D01*
X115093675Y-83971437D01*
X115214634Y-84152466D01*
X115395663Y-84273425D01*
X115609200Y-84315900D01*
X129608500Y-84315900D01*
X129822037Y-84273425D01*
X130003066Y-84152466D01*
X130124025Y-83971437D01*
X130166500Y-83757900D01*
X130166500Y-83716600D01*
X130407900Y-83716600D01*
X130621437Y-83674125D01*
X130802466Y-83553166D01*
X130923425Y-83372137D01*
X130965900Y-83158600D01*
X130965900Y-70358000D01*
X133300400Y-70358000D01*
X133300400Y-83158600D01*
X133342875Y-83372137D01*
X133463834Y-83553166D01*
X133644863Y-83674125D01*
X133858400Y-83716600D01*
X134099800Y-83716600D01*
X134099800Y-83757900D01*
X134142275Y-83971437D01*
X134263234Y-84152466D01*
X134444263Y-84273425D01*
X134657800Y-84315900D01*
X148657000Y-84315900D01*
X148870537Y-84273425D01*
X149051566Y-84152466D01*
X149172525Y-83971437D01*
X149215000Y-83757900D01*
X149215000Y-83716600D01*
X149458000Y-83716600D01*
X149671537Y-83674125D01*
X149852566Y-83553166D01*
X149973525Y-83372137D01*
X150016000Y-83158600D01*
X150016000Y-70358000D01*
X152349000Y-70358000D01*
X152349000Y-83158600D01*
X152391475Y-83372137D01*
X152512434Y-83553166D01*
X152693463Y-83674125D01*
X152907000Y-83716600D01*
X153150000Y-83716600D01*
X153150000Y-83757900D01*
X153192475Y-83971437D01*
X153313434Y-84152466D01*
X153494463Y-84273425D01*
X153708000Y-84315900D01*
X167708000Y-84315900D01*
X167921537Y-84273425D01*
X168102566Y-84152466D01*
X168223525Y-83971437D01*
X168266000Y-83757900D01*
X168266000Y-83716600D01*
X168509000Y-83716600D01*
X168722537Y-83674125D01*
X168903566Y-83553166D01*
X169024525Y-83372137D01*
X169067000Y-83158600D01*
X169067000Y-70358000D01*
X171400000Y-70358000D01*
X171400000Y-83158600D01*
X171442475Y-83372137D01*
X171563434Y-83553166D01*
X171744463Y-83674125D01*
X171958000Y-83716600D01*
X172201000Y-83716600D01*
X172201000Y-83757900D01*
X172243475Y-83971437D01*
X172364434Y-84152466D01*
X172545463Y-84273425D01*
X172759000Y-84315900D01*
X186758000Y-84315900D01*
X186971537Y-84273425D01*
X187152566Y-84152466D01*
X187273525Y-83971437D01*
X187316000Y-83757900D01*
X187316000Y-83716600D01*
X187559000Y-83716600D01*
X187772537Y-83674125D01*
X187953566Y-83553166D01*
X188074525Y-83372137D01*
X188117000Y-83158600D01*
X188117000Y-70358000D01*
X190450000Y-70358000D01*
X190450000Y-83158600D01*
X190492475Y-83372137D01*
X190613434Y-83553166D01*
X190794463Y-83674125D01*
X191008000Y-83716600D01*
X191251000Y-83716600D01*
X191251000Y-83757900D01*
X191293475Y-83971437D01*
X191414434Y-84152466D01*
X191595463Y-84273425D01*
X191809000Y-84315900D01*
X205808000Y-84315900D01*
X206021537Y-84273425D01*
X206202566Y-84152466D01*
X206323525Y-83971437D01*
X206366000Y-83757900D01*
X206366000Y-83716600D01*
X206609000Y-83716600D01*
X206822537Y-83674125D01*
X207003566Y-83553166D01*
X207124525Y-83372137D01*
X207167000Y-83158600D01*
X207167000Y-70358000D01*
X209500000Y-70358000D01*
X209500000Y-83158600D01*
X209542475Y-83372137D01*
X209663434Y-83553166D01*
X209844463Y-83674125D01*
X210058000Y-83716600D01*
X210301000Y-83716600D01*
X210301000Y-83757900D01*
X210343475Y-83971437D01*
X210464434Y-84152466D01*
X210645463Y-84273425D01*
X210859000Y-84315900D01*
X224858000Y-84315900D01*
X225071537Y-84273425D01*
X225252566Y-84152466D01*
X225373525Y-83971437D01*
X225416000Y-83757900D01*
X225416000Y-83716600D01*
X225659000Y-83716600D01*
X225872537Y-83674125D01*
X226053566Y-83553166D01*
X226174525Y-83372137D01*
X226217000Y-83158600D01*
X226217000Y-70358000D01*
X228550000Y-70358000D01*
X228550000Y-83158600D01*
X228592475Y-83372137D01*
X228713434Y-83553166D01*
X228894463Y-83674125D01*
X229108000Y-83716600D01*
X229351000Y-83716600D01*
X229351000Y-83757900D01*
X229393475Y-83971437D01*
X229514434Y-84152466D01*
X229695463Y-84273425D01*
X229909000Y-84315900D01*
X243908000Y-84315900D01*
X244121537Y-84273425D01*
X244302566Y-84152466D01*
X244423525Y-83971437D01*
X244466000Y-83757900D01*
X244466000Y-83716600D01*
X244709000Y-83716600D01*
X244922537Y-83674125D01*
X245103566Y-83553166D01*
X245224525Y-83372137D01*
X245267000Y-83158600D01*
X245267000Y-70358000D01*
X247600000Y-70358000D01*
X247600000Y-83158600D01*
X247642475Y-83372137D01*
X247763434Y-83553166D01*
X247944463Y-83674125D01*
X248158000Y-83716600D01*
X248401000Y-83716600D01*
X248401000Y-83757900D01*
X248443475Y-83971437D01*
X248564434Y-84152466D01*
X248745463Y-84273425D01*
X248959000Y-84315900D01*
X262958000Y-84315900D01*
X263171537Y-84273425D01*
X263352566Y-84152466D01*
X263473525Y-83971437D01*
X263516000Y-83757900D01*
X263516000Y-83716600D01*
X263759000Y-83716600D01*
X263972537Y-83674125D01*
X264153566Y-83553166D01*
X264274525Y-83372137D01*
X264317000Y-83158600D01*
X264317000Y-70358000D01*
X264274525Y-70144463D01*
X264153566Y-69963434D01*
X263972537Y-69842475D01*
X263759000Y-69800000D01*
X263516000Y-69800000D01*
X263516000Y-69758600D01*
X263473525Y-69545063D01*
X263352566Y-69364034D01*
X263171537Y-69243075D01*
X262958000Y-69200600D01*
X248959000Y-69200600D01*
X248745463Y-69243075D01*
X248564434Y-69364034D01*
X248443475Y-69545063D01*
X248401000Y-69758600D01*
X248401000Y-69800000D01*
X248158000Y-69800000D01*
X247944463Y-69842475D01*
X247763434Y-69963434D01*
X247642475Y-70144463D01*
X247600000Y-70358000D01*
X245267000Y-70358000D01*
X245224525Y-70144463D01*
X245103566Y-69963434D01*
X244922537Y-69842475D01*
X244709000Y-69800000D01*
X244466000Y-69800000D01*
X244466000Y-69758600D01*
X244423525Y-69545063D01*
X244302566Y-69364034D01*
X244121537Y-69243075D01*
X243908000Y-69200600D01*
X229909000Y-69200600D01*
X229695463Y-69243075D01*
X229514434Y-69364034D01*
X229393475Y-69545063D01*
X229351000Y-69758600D01*
X229351000Y-69800000D01*
X229108000Y-69800000D01*
X228894463Y-69842475D01*
X228713434Y-69963434D01*
X228592475Y-70144463D01*
X228550000Y-70358000D01*
X226217000Y-70358000D01*
X226174525Y-70144463D01*
X226053566Y-69963434D01*
X225872537Y-69842475D01*
X225659000Y-69800000D01*
X225416000Y-69800000D01*
X225416000Y-69758600D01*
X225373525Y-69545063D01*
X225252566Y-69364034D01*
X225071537Y-69243075D01*
X224858000Y-69200600D01*
X210859000Y-69200600D01*
X210645463Y-69243075D01*
X210464434Y-69364034D01*
X210343475Y-69545063D01*
X210301000Y-69758600D01*
X210301000Y-69800000D01*
X210058000Y-69800000D01*
X209844463Y-69842475D01*
X209663434Y-69963434D01*
X209542475Y-70144463D01*
X209500000Y-70358000D01*
X207167000Y-70358000D01*
X207124525Y-70144463D01*
X207003566Y-69963434D01*
X206822537Y-69842475D01*
X206609000Y-69800000D01*
X206366000Y-69800000D01*
X206366000Y-69758600D01*
X206323525Y-69545063D01*
X206202566Y-69364034D01*
X206021537Y-69243075D01*
X205808000Y-69200600D01*
X191809000Y-69200600D01*
X191595463Y-69243075D01*
X191414434Y-69364034D01*
X191293475Y-69545063D01*
X191251000Y-69758600D01*
X191251000Y-69800000D01*
X191008000Y-69800000D01*
X190794463Y-69842475D01*
X190613434Y-69963434D01*
X190492475Y-70144463D01*
X190450000Y-70358000D01*
X188117000Y-70358000D01*
X188074525Y-70144463D01*
X187953566Y-69963434D01*
X187772537Y-69842475D01*
X187559000Y-69800000D01*
X187316000Y-69800000D01*
X187316000Y-69758600D01*
X187273525Y-69545063D01*
X187152566Y-69364034D01*
X186971537Y-69243075D01*
X186758000Y-69200600D01*
X172759000Y-69200600D01*
X172545463Y-69243075D01*
X172364434Y-69364034D01*
X172243475Y-69545063D01*
X172201000Y-69758600D01*
X172201000Y-69800000D01*
X171958000Y-69800000D01*
X171744463Y-69842475D01*
X171563434Y-69963434D01*
X171442475Y-70144463D01*
X171400000Y-70358000D01*
X169067000Y-70358000D01*
X169024525Y-70144463D01*
X168903566Y-69963434D01*
X168722537Y-69842475D01*
X168509000Y-69800000D01*
X168266000Y-69800000D01*
X168266000Y-69758600D01*
X168223525Y-69545063D01*
X168102566Y-69364034D01*
X167921537Y-69243075D01*
X167708000Y-69200600D01*
X153708000Y-69200600D01*
X153494463Y-69243075D01*
X153313434Y-69364034D01*
X153192475Y-69545063D01*
X153150000Y-69758600D01*
X153150000Y-69800000D01*
X152907000Y-69800000D01*
X152693463Y-69842475D01*
X152512434Y-69963434D01*
X152391475Y-70144463D01*
X152349000Y-70358000D01*
X150016000Y-70358000D01*
X149973525Y-70144463D01*
X149852566Y-69963434D01*
X149671537Y-69842475D01*
X149458000Y-69800000D01*
X149215000Y-69800000D01*
X149215000Y-69758600D01*
X149172525Y-69545063D01*
X149051566Y-69364034D01*
X148870537Y-69243075D01*
X148657000Y-69200600D01*
X134657800Y-69200600D01*
X134444263Y-69243075D01*
X134263234Y-69364034D01*
X134142275Y-69545063D01*
X134099800Y-69758600D01*
X134099800Y-69800000D01*
X133858400Y-69800000D01*
X133644863Y-69842475D01*
X133463834Y-69963434D01*
X133342875Y-70144463D01*
X133300400Y-70358000D01*
X130965900Y-70358000D01*
X130923425Y-70144463D01*
X130802466Y-69963434D01*
X130621437Y-69842475D01*
X130407900Y-69800000D01*
X130166500Y-69800000D01*
X130166500Y-69758600D01*
X130124025Y-69545063D01*
X130003066Y-69364034D01*
X129822037Y-69243075D01*
X129608500Y-69200600D01*
X115609200Y-69200600D01*
X115395663Y-69243075D01*
X115214634Y-69364034D01*
X115093675Y-69545063D01*
X115051200Y-69758600D01*
X115051200Y-69800000D01*
X114808400Y-69800000D01*
X114594863Y-69842475D01*
X114413834Y-69963434D01*
X114292875Y-70144463D01*
X114250400Y-70358000D01*
X111917300Y-70358000D01*
X111874825Y-70144463D01*
X111753866Y-69963434D01*
X111572837Y-69842475D01*
X111359300Y-69800000D01*
X111116500Y-69800000D01*
X111116500Y-69758600D01*
X111074025Y-69545063D01*
X110953066Y-69364034D01*
X110772037Y-69243075D01*
X110558500Y-69200600D01*
X96559200Y-69200600D01*
X96345663Y-69243075D01*
X96164634Y-69364034D01*
X96043675Y-69545063D01*
X96001200Y-69758600D01*
X96001200Y-69800000D01*
X95758400Y-69800000D01*
X95544863Y-69842475D01*
X95363834Y-69963434D01*
X95242875Y-70144463D01*
X95200400Y-70358000D01*
X92867300Y-70358000D01*
X92824825Y-70144463D01*
X92703866Y-69963434D01*
X92522837Y-69842475D01*
X92309300Y-69800000D01*
X92066500Y-69800000D01*
X92066500Y-69758600D01*
X92024025Y-69545063D01*
X91903066Y-69364034D01*
X91722037Y-69243075D01*
X91508500Y-69200600D01*
X77509200Y-69200600D01*
X77295663Y-69243075D01*
X77114634Y-69364034D01*
X76993675Y-69545063D01*
X76951200Y-69758600D01*
X76951200Y-69800000D01*
X76708400Y-69800000D01*
X76494863Y-69842475D01*
X76313834Y-69963434D01*
X76192875Y-70144463D01*
X76150400Y-70358000D01*
X73817300Y-70358000D01*
X73774825Y-70144463D01*
X73653866Y-69963434D01*
X73472837Y-69842475D01*
X73259300Y-69800000D01*
X73016500Y-69800000D01*
X73016500Y-69758600D01*
X72974025Y-69545063D01*
X72853066Y-69364034D01*
X72672037Y-69243075D01*
X72458500Y-69200600D01*
X58459100Y-69200600D01*
X58245563Y-69243075D01*
X58064534Y-69364034D01*
X57943575Y-69545063D01*
X57901100Y-69758600D01*
X57901100Y-69800000D01*
X57658500Y-69800000D01*
X57444963Y-69842475D01*
X57263934Y-69963434D01*
X57142975Y-70144463D01*
X57100500Y-70358000D01*
X54767200Y-70358000D01*
X54724725Y-70144463D01*
X54603766Y-69963434D01*
X54422737Y-69842475D01*
X54209200Y-69800000D01*
X53966600Y-69800000D01*
X53966600Y-69758600D01*
X53924125Y-69545063D01*
X53803166Y-69364034D01*
X53622137Y-69243075D01*
X53408600Y-69200600D01*
X39409100Y-69200600D01*
X39195563Y-69243075D01*
X39014534Y-69364034D01*
X38893575Y-69545063D01*
X38851100Y-69758600D01*
X38851100Y-69800000D01*
X38608470Y-69800000D01*
X38394933Y-69842475D01*
X38213904Y-69963434D01*
X38092945Y-70144463D01*
X38050470Y-70358000D01*
X36442070Y-70358000D01*
X36442085Y-69624231D01*
X36447766Y-69469471D01*
X36464678Y-69326877D01*
X36491966Y-69187193D01*
X36530634Y-69051520D01*
X36580563Y-68916385D01*
X36640907Y-68785170D01*
X36710135Y-68661404D01*
X36789285Y-68543314D01*
X36876861Y-68431797D01*
X36976144Y-68326050D01*
X37081722Y-68226915D01*
X37193231Y-68139419D01*
X37311597Y-68060120D01*
X37435558Y-67990749D01*
X37566595Y-67930396D01*
X37701477Y-67880688D01*
X37837906Y-67841695D01*
X37976889Y-67814396D01*
X38121122Y-67797495D01*
X38276023Y-67790800D01*
X264094351Y-67791800D01*
M02*
