%TF.GenerationSoftware,KiCad,Pcbnew,4.0.6*%
%TF.CreationDate,2017-12-10T16:43:08-08:00*%
%TF.ProjectId,DanckTopPlate,44616E636B546F70506C6174652E6B69,rev?*%
%TF.FileFunction,Soldermask,Bot*%
%FSLAX46Y46*%
G04 Gerber Fmt 4.6, Leading zero omitted, Abs format (unit mm)*
G04 Created by KiCad (PCBNEW 4.0.6) date 12/10/17 16:43:08*
%MOMM*%
%LPD*%
G01*
G04 APERTURE LIST*
%ADD10C,0.100000*%
%ADD11C,0.300000*%
%ADD12C,4.400000*%
G04 APERTURE END LIST*
D10*
D11*
X242132714Y-125011571D02*
X242632714Y-124297286D01*
X242989857Y-125011571D02*
X242989857Y-123511571D01*
X242418429Y-123511571D01*
X242275571Y-123583000D01*
X242204143Y-123654429D01*
X242132714Y-123797286D01*
X242132714Y-124011571D01*
X242204143Y-124154429D01*
X242275571Y-124225857D01*
X242418429Y-124297286D01*
X242989857Y-124297286D01*
X240918429Y-124940143D02*
X241061286Y-125011571D01*
X241347000Y-125011571D01*
X241489857Y-124940143D01*
X241561286Y-124797286D01*
X241561286Y-124225857D01*
X241489857Y-124083000D01*
X241347000Y-124011571D01*
X241061286Y-124011571D01*
X240918429Y-124083000D01*
X240847000Y-124225857D01*
X240847000Y-124368714D01*
X241561286Y-124511571D01*
X240347000Y-124011571D02*
X239989857Y-125011571D01*
X239632715Y-124011571D01*
X239061286Y-125011571D02*
X239061286Y-124011571D01*
X239061286Y-123511571D02*
X239132715Y-123583000D01*
X239061286Y-123654429D01*
X238989858Y-123583000D01*
X239061286Y-123511571D01*
X239061286Y-123654429D01*
X238418429Y-124940143D02*
X238275572Y-125011571D01*
X237989857Y-125011571D01*
X237847000Y-124940143D01*
X237775572Y-124797286D01*
X237775572Y-124725857D01*
X237847000Y-124583000D01*
X237989857Y-124511571D01*
X238204143Y-124511571D01*
X238347000Y-124440143D01*
X238418429Y-124297286D01*
X238418429Y-124225857D01*
X238347000Y-124083000D01*
X238204143Y-124011571D01*
X237989857Y-124011571D01*
X237847000Y-124083000D01*
X237132714Y-125011571D02*
X237132714Y-124011571D01*
X237132714Y-123511571D02*
X237204143Y-123583000D01*
X237132714Y-123654429D01*
X237061286Y-123583000D01*
X237132714Y-123511571D01*
X237132714Y-123654429D01*
X236204142Y-125011571D02*
X236347000Y-124940143D01*
X236418428Y-124868714D01*
X236489857Y-124725857D01*
X236489857Y-124297286D01*
X236418428Y-124154429D01*
X236347000Y-124083000D01*
X236204142Y-124011571D01*
X235989857Y-124011571D01*
X235847000Y-124083000D01*
X235775571Y-124154429D01*
X235704142Y-124297286D01*
X235704142Y-124725857D01*
X235775571Y-124868714D01*
X235847000Y-124940143D01*
X235989857Y-125011571D01*
X236204142Y-125011571D01*
X235061285Y-124011571D02*
X235061285Y-125011571D01*
X235061285Y-124154429D02*
X234989857Y-124083000D01*
X234846999Y-124011571D01*
X234632714Y-124011571D01*
X234489857Y-124083000D01*
X234418428Y-124225857D01*
X234418428Y-125011571D01*
X231775571Y-125011571D02*
X232632714Y-125011571D01*
X232204142Y-125011571D02*
X232204142Y-123511571D01*
X232346999Y-123725857D01*
X232489857Y-123868714D01*
X232632714Y-123940143D01*
X231132714Y-124868714D02*
X231061286Y-124940143D01*
X231132714Y-125011571D01*
X231204143Y-124940143D01*
X231132714Y-124868714D01*
X231132714Y-125011571D01*
X230132714Y-123511571D02*
X229989857Y-123511571D01*
X229847000Y-123583000D01*
X229775571Y-123654429D01*
X229704142Y-123797286D01*
X229632714Y-124083000D01*
X229632714Y-124440143D01*
X229704142Y-124725857D01*
X229775571Y-124868714D01*
X229847000Y-124940143D01*
X229989857Y-125011571D01*
X230132714Y-125011571D01*
X230275571Y-124940143D01*
X230347000Y-124868714D01*
X230418428Y-124725857D01*
X230489857Y-124440143D01*
X230489857Y-124083000D01*
X230418428Y-123797286D01*
X230347000Y-123654429D01*
X230275571Y-123583000D01*
X230132714Y-123511571D01*
X243147428Y-106088571D02*
X243147428Y-104588571D01*
X242790285Y-104588571D01*
X242576000Y-104660000D01*
X242433142Y-104802857D01*
X242361714Y-104945714D01*
X242290285Y-105231429D01*
X242290285Y-105445714D01*
X242361714Y-105731429D01*
X242433142Y-105874286D01*
X242576000Y-106017143D01*
X242790285Y-106088571D01*
X243147428Y-106088571D01*
X241076000Y-106017143D02*
X241218857Y-106088571D01*
X241504571Y-106088571D01*
X241647428Y-106017143D01*
X241718857Y-105874286D01*
X241718857Y-105302857D01*
X241647428Y-105160000D01*
X241504571Y-105088571D01*
X241218857Y-105088571D01*
X241076000Y-105160000D01*
X241004571Y-105302857D01*
X241004571Y-105445714D01*
X241718857Y-105588571D01*
X240433143Y-106017143D02*
X240290286Y-106088571D01*
X240004571Y-106088571D01*
X239861714Y-106017143D01*
X239790286Y-105874286D01*
X239790286Y-105802857D01*
X239861714Y-105660000D01*
X240004571Y-105588571D01*
X240218857Y-105588571D01*
X240361714Y-105517143D01*
X240433143Y-105374286D01*
X240433143Y-105302857D01*
X240361714Y-105160000D01*
X240218857Y-105088571D01*
X240004571Y-105088571D01*
X239861714Y-105160000D01*
X239147428Y-106088571D02*
X239147428Y-105088571D01*
X239147428Y-104588571D02*
X239218857Y-104660000D01*
X239147428Y-104731429D01*
X239076000Y-104660000D01*
X239147428Y-104588571D01*
X239147428Y-104731429D01*
X237790285Y-105088571D02*
X237790285Y-106302857D01*
X237861714Y-106445714D01*
X237933142Y-106517143D01*
X238075999Y-106588571D01*
X238290285Y-106588571D01*
X238433142Y-106517143D01*
X237790285Y-106017143D02*
X237933142Y-106088571D01*
X238218856Y-106088571D01*
X238361714Y-106017143D01*
X238433142Y-105945714D01*
X238504571Y-105802857D01*
X238504571Y-105374286D01*
X238433142Y-105231429D01*
X238361714Y-105160000D01*
X238218856Y-105088571D01*
X237933142Y-105088571D01*
X237790285Y-105160000D01*
X237075999Y-105088571D02*
X237075999Y-106088571D01*
X237075999Y-105231429D02*
X237004571Y-105160000D01*
X236861713Y-105088571D01*
X236647428Y-105088571D01*
X236504571Y-105160000D01*
X236433142Y-105302857D01*
X236433142Y-106088571D01*
X235147428Y-106017143D02*
X235290285Y-106088571D01*
X235575999Y-106088571D01*
X235718856Y-106017143D01*
X235790285Y-105874286D01*
X235790285Y-105302857D01*
X235718856Y-105160000D01*
X235575999Y-105088571D01*
X235290285Y-105088571D01*
X235147428Y-105160000D01*
X235075999Y-105302857D01*
X235075999Y-105445714D01*
X235790285Y-105588571D01*
X233790285Y-106088571D02*
X233790285Y-104588571D01*
X233790285Y-106017143D02*
X233933142Y-106088571D01*
X234218856Y-106088571D01*
X234361714Y-106017143D01*
X234433142Y-105945714D01*
X234504571Y-105802857D01*
X234504571Y-105374286D01*
X234433142Y-105231429D01*
X234361714Y-105160000D01*
X234218856Y-105088571D01*
X233933142Y-105088571D01*
X233790285Y-105160000D01*
X231933142Y-106088571D02*
X231933142Y-104588571D01*
X231933142Y-105160000D02*
X231790285Y-105088571D01*
X231504571Y-105088571D01*
X231361714Y-105160000D01*
X231290285Y-105231429D01*
X231218856Y-105374286D01*
X231218856Y-105802857D01*
X231290285Y-105945714D01*
X231361714Y-106017143D01*
X231504571Y-106088571D01*
X231790285Y-106088571D01*
X231933142Y-106017143D01*
X230718856Y-105088571D02*
X230361713Y-106088571D01*
X230004571Y-105088571D02*
X230361713Y-106088571D01*
X230504571Y-106445714D01*
X230575999Y-106517143D01*
X230718856Y-106588571D01*
X227433142Y-105945714D02*
X227504571Y-106017143D01*
X227718857Y-106088571D01*
X227861714Y-106088571D01*
X228075999Y-106017143D01*
X228218857Y-105874286D01*
X228290285Y-105731429D01*
X228361714Y-105445714D01*
X228361714Y-105231429D01*
X228290285Y-104945714D01*
X228218857Y-104802857D01*
X228075999Y-104660000D01*
X227861714Y-104588571D01*
X227718857Y-104588571D01*
X227504571Y-104660000D01*
X227433142Y-104731429D01*
X226147428Y-106088571D02*
X226147428Y-105302857D01*
X226218857Y-105160000D01*
X226361714Y-105088571D01*
X226647428Y-105088571D01*
X226790285Y-105160000D01*
X226147428Y-106017143D02*
X226290285Y-106088571D01*
X226647428Y-106088571D01*
X226790285Y-106017143D01*
X226861714Y-105874286D01*
X226861714Y-105731429D01*
X226790285Y-105588571D01*
X226647428Y-105517143D01*
X226290285Y-105517143D01*
X226147428Y-105445714D01*
X225433142Y-106088571D02*
X225433142Y-105088571D01*
X225433142Y-105374286D02*
X225361714Y-105231429D01*
X225290285Y-105160000D01*
X225147428Y-105088571D01*
X225004571Y-105088571D01*
X224718857Y-105088571D02*
X224147428Y-105088571D01*
X224504571Y-104588571D02*
X224504571Y-105874286D01*
X224433143Y-106017143D01*
X224290285Y-106088571D01*
X224147428Y-106088571D01*
X223076000Y-106017143D02*
X223218857Y-106088571D01*
X223504571Y-106088571D01*
X223647428Y-106017143D01*
X223718857Y-105874286D01*
X223718857Y-105302857D01*
X223647428Y-105160000D01*
X223504571Y-105088571D01*
X223218857Y-105088571D01*
X223076000Y-105160000D01*
X223004571Y-105302857D01*
X223004571Y-105445714D01*
X223718857Y-105588571D01*
X222147428Y-106088571D02*
X222290286Y-106017143D01*
X222361714Y-105874286D01*
X222361714Y-104588571D01*
X219790286Y-106088571D02*
X219790286Y-105302857D01*
X219861715Y-105160000D01*
X220004572Y-105088571D01*
X220290286Y-105088571D01*
X220433143Y-105160000D01*
X219790286Y-106017143D02*
X219933143Y-106088571D01*
X220290286Y-106088571D01*
X220433143Y-106017143D01*
X220504572Y-105874286D01*
X220504572Y-105731429D01*
X220433143Y-105588571D01*
X220290286Y-105517143D01*
X219933143Y-105517143D01*
X219790286Y-105445714D01*
X219076000Y-105088571D02*
X219076000Y-106088571D01*
X219076000Y-105231429D02*
X219004572Y-105160000D01*
X218861714Y-105088571D01*
X218647429Y-105088571D01*
X218504572Y-105160000D01*
X218433143Y-105302857D01*
X218433143Y-106088571D01*
X217076000Y-106088571D02*
X217076000Y-104588571D01*
X217076000Y-106017143D02*
X217218857Y-106088571D01*
X217504571Y-106088571D01*
X217647429Y-106017143D01*
X217718857Y-105945714D01*
X217790286Y-105802857D01*
X217790286Y-105374286D01*
X217718857Y-105231429D01*
X217647429Y-105160000D01*
X217504571Y-105088571D01*
X217218857Y-105088571D01*
X217076000Y-105160000D01*
X214576000Y-106088571D02*
X214576000Y-105302857D01*
X214647429Y-105160000D01*
X214790286Y-105088571D01*
X215076000Y-105088571D01*
X215218857Y-105160000D01*
X214576000Y-106017143D02*
X214718857Y-106088571D01*
X215076000Y-106088571D01*
X215218857Y-106017143D01*
X215290286Y-105874286D01*
X215290286Y-105731429D01*
X215218857Y-105588571D01*
X215076000Y-105517143D01*
X214718857Y-105517143D01*
X214576000Y-105445714D01*
X213861714Y-106088571D02*
X213861714Y-105088571D01*
X213861714Y-104588571D02*
X213933143Y-104660000D01*
X213861714Y-104731429D01*
X213790286Y-104660000D01*
X213861714Y-104588571D01*
X213861714Y-104731429D01*
X212861714Y-104588571D02*
X212718857Y-104588571D01*
X212576000Y-104660000D01*
X212504571Y-104731429D01*
X212433142Y-104874286D01*
X212361714Y-105160000D01*
X212361714Y-105517143D01*
X212433142Y-105802857D01*
X212504571Y-105945714D01*
X212576000Y-106017143D01*
X212718857Y-106088571D01*
X212861714Y-106088571D01*
X213004571Y-106017143D01*
X213076000Y-105945714D01*
X213147428Y-105802857D01*
X213218857Y-105517143D01*
X213218857Y-105160000D01*
X213147428Y-104874286D01*
X213076000Y-104731429D01*
X213004571Y-104660000D01*
X212861714Y-104588571D01*
X211861714Y-104588571D02*
X210933143Y-104588571D01*
X211433143Y-105160000D01*
X211218857Y-105160000D01*
X211076000Y-105231429D01*
X211004571Y-105302857D01*
X210933143Y-105445714D01*
X210933143Y-105802857D01*
X211004571Y-105945714D01*
X211076000Y-106017143D01*
X211218857Y-106088571D01*
X211647429Y-106088571D01*
X211790286Y-106017143D01*
X211861714Y-105945714D01*
X243028571Y-87038571D02*
X243028571Y-85538571D01*
X242671428Y-85538571D01*
X242457143Y-85610000D01*
X242314285Y-85752857D01*
X242242857Y-85895714D01*
X242171428Y-86181429D01*
X242171428Y-86395714D01*
X242242857Y-86681429D01*
X242314285Y-86824286D01*
X242457143Y-86967143D01*
X242671428Y-87038571D01*
X243028571Y-87038571D01*
X240885714Y-87038571D02*
X240885714Y-86252857D01*
X240957143Y-86110000D01*
X241100000Y-86038571D01*
X241385714Y-86038571D01*
X241528571Y-86110000D01*
X240885714Y-86967143D02*
X241028571Y-87038571D01*
X241385714Y-87038571D01*
X241528571Y-86967143D01*
X241600000Y-86824286D01*
X241600000Y-86681429D01*
X241528571Y-86538571D01*
X241385714Y-86467143D01*
X241028571Y-86467143D01*
X240885714Y-86395714D01*
X240171428Y-86038571D02*
X240171428Y-87038571D01*
X240171428Y-86181429D02*
X240100000Y-86110000D01*
X239957142Y-86038571D01*
X239742857Y-86038571D01*
X239600000Y-86110000D01*
X239528571Y-86252857D01*
X239528571Y-87038571D01*
X238171428Y-86967143D02*
X238314285Y-87038571D01*
X238599999Y-87038571D01*
X238742857Y-86967143D01*
X238814285Y-86895714D01*
X238885714Y-86752857D01*
X238885714Y-86324286D01*
X238814285Y-86181429D01*
X238742857Y-86110000D01*
X238599999Y-86038571D01*
X238314285Y-86038571D01*
X238171428Y-86110000D01*
X237528571Y-87038571D02*
X237528571Y-85538571D01*
X237385714Y-86467143D02*
X236957143Y-87038571D01*
X236957143Y-86038571D02*
X237528571Y-86610000D01*
X234885714Y-85538571D02*
X234600000Y-85538571D01*
X234457142Y-85610000D01*
X234314285Y-85752857D01*
X234242857Y-86038571D01*
X234242857Y-86538571D01*
X234314285Y-86824286D01*
X234457142Y-86967143D01*
X234600000Y-87038571D01*
X234885714Y-87038571D01*
X235028571Y-86967143D01*
X235171428Y-86824286D01*
X235242857Y-86538571D01*
X235242857Y-86038571D01*
X235171428Y-85752857D01*
X235028571Y-85610000D01*
X234885714Y-85538571D01*
X233599999Y-87038571D02*
X233599999Y-86038571D01*
X233599999Y-86324286D02*
X233528571Y-86181429D01*
X233457142Y-86110000D01*
X233314285Y-86038571D01*
X233171428Y-86038571D01*
X232885714Y-86038571D02*
X232314285Y-86038571D01*
X232671428Y-85538571D02*
X232671428Y-86824286D01*
X232600000Y-86967143D01*
X232457142Y-87038571D01*
X232314285Y-87038571D01*
X231814285Y-87038571D02*
X231814285Y-85538571D01*
X231171428Y-87038571D02*
X231171428Y-86252857D01*
X231242857Y-86110000D01*
X231385714Y-86038571D01*
X231599999Y-86038571D01*
X231742857Y-86110000D01*
X231814285Y-86181429D01*
X230242856Y-87038571D02*
X230385714Y-86967143D01*
X230457142Y-86895714D01*
X230528571Y-86752857D01*
X230528571Y-86324286D01*
X230457142Y-86181429D01*
X230385714Y-86110000D01*
X230242856Y-86038571D01*
X230028571Y-86038571D01*
X229885714Y-86110000D01*
X229814285Y-86181429D01*
X229742856Y-86324286D01*
X229742856Y-86752857D01*
X229814285Y-86895714D01*
X229885714Y-86967143D01*
X230028571Y-87038571D01*
X230242856Y-87038571D01*
X227957142Y-87038571D02*
X227957142Y-85538571D01*
X227099999Y-87038571D02*
X227742856Y-86181429D01*
X227099999Y-85538571D02*
X227957142Y-86395714D01*
X225885714Y-86967143D02*
X226028571Y-87038571D01*
X226314285Y-87038571D01*
X226457142Y-86967143D01*
X226528571Y-86824286D01*
X226528571Y-86252857D01*
X226457142Y-86110000D01*
X226314285Y-86038571D01*
X226028571Y-86038571D01*
X225885714Y-86110000D01*
X225814285Y-86252857D01*
X225814285Y-86395714D01*
X226528571Y-86538571D01*
X225314285Y-86038571D02*
X224957142Y-87038571D01*
X224600000Y-86038571D02*
X224957142Y-87038571D01*
X225100000Y-87395714D01*
X225171428Y-87467143D01*
X225314285Y-87538571D01*
X224028571Y-87038571D02*
X224028571Y-85538571D01*
X224028571Y-86110000D02*
X223885714Y-86038571D01*
X223600000Y-86038571D01*
X223457143Y-86110000D01*
X223385714Y-86181429D01*
X223314285Y-86324286D01*
X223314285Y-86752857D01*
X223385714Y-86895714D01*
X223457143Y-86967143D01*
X223600000Y-87038571D01*
X223885714Y-87038571D01*
X224028571Y-86967143D01*
X222457142Y-87038571D02*
X222600000Y-86967143D01*
X222671428Y-86895714D01*
X222742857Y-86752857D01*
X222742857Y-86324286D01*
X222671428Y-86181429D01*
X222600000Y-86110000D01*
X222457142Y-86038571D01*
X222242857Y-86038571D01*
X222100000Y-86110000D01*
X222028571Y-86181429D01*
X221957142Y-86324286D01*
X221957142Y-86752857D01*
X222028571Y-86895714D01*
X222100000Y-86967143D01*
X222242857Y-87038571D01*
X222457142Y-87038571D01*
X220671428Y-87038571D02*
X220671428Y-86252857D01*
X220742857Y-86110000D01*
X220885714Y-86038571D01*
X221171428Y-86038571D01*
X221314285Y-86110000D01*
X220671428Y-86967143D02*
X220814285Y-87038571D01*
X221171428Y-87038571D01*
X221314285Y-86967143D01*
X221385714Y-86824286D01*
X221385714Y-86681429D01*
X221314285Y-86538571D01*
X221171428Y-86467143D01*
X220814285Y-86467143D01*
X220671428Y-86395714D01*
X219957142Y-87038571D02*
X219957142Y-86038571D01*
X219957142Y-86324286D02*
X219885714Y-86181429D01*
X219814285Y-86110000D01*
X219671428Y-86038571D01*
X219528571Y-86038571D01*
X218385714Y-87038571D02*
X218385714Y-85538571D01*
X218385714Y-86967143D02*
X218528571Y-87038571D01*
X218814285Y-87038571D01*
X218957143Y-86967143D01*
X219028571Y-86895714D01*
X219100000Y-86752857D01*
X219100000Y-86324286D01*
X219028571Y-86181429D01*
X218957143Y-86110000D01*
X218814285Y-86038571D01*
X218528571Y-86038571D01*
X218385714Y-86110000D01*
X216528571Y-87038571D02*
X216528571Y-85538571D01*
X215671428Y-87038571D02*
X216314285Y-86181429D01*
X215671428Y-85538571D02*
X216528571Y-86395714D01*
X215028571Y-87038571D02*
X215028571Y-86038571D01*
X215028571Y-85538571D02*
X215100000Y-85610000D01*
X215028571Y-85681429D01*
X214957143Y-85610000D01*
X215028571Y-85538571D01*
X215028571Y-85681429D01*
X214528571Y-86038571D02*
X213957142Y-86038571D01*
X214314285Y-85538571D02*
X214314285Y-86824286D01*
X214242857Y-86967143D01*
X214099999Y-87038571D01*
X213957142Y-87038571D01*
D12*
X56007000Y-86360000D03*
X55880000Y-124460000D03*
X151257000Y-105410000D03*
X246380000Y-86233000D03*
X246380000Y-124460000D03*
M02*
