  0
SECTION
  2
HEADER
  9
$ANGBASE
  50
0.0
  9
$ANGDIR
  70
  1
  9
$MEASUREMENT
  70
0
  0
ENDSEC
  0
SECTION
  2
TABLES
  0
TABLE
  2
LTYPE
  70
1
  0
LTYPE
  2
CONTINUOUS
  70
0
  3
Solid line
  72
65
  73
0
  40
0.0
  0
ENDTAB
  0
TABLE
  2
STYLE
  70
4
  0
STYLE
  2
KICAD
  70
0
  40
0
  41
1
  42
1
  50
0
  71
0
  3
isocp.shx
  0
STYLE
  2
KICADB
  70
0
  40
0
  41
1
  42
1
  50
0
  71
0
  3
isocp.shx
  0
STYLE
  2
KICADI
  70
0
  40
0
  41
1
  42
1
  50
15
  71
0
  3
isocp.shx
  0
STYLE
  2
KICADBI
  70
0
  40
0
  41
1
  42
1
  50
15
  71
0
  3
isocp.shx
  0
ENDTAB
  0
TABLE
  2
LAYER
  70
30
  0
LAYER
  2
BLACK
  70
0
  62
7
  6
CONTINUOUS
  0
LAYER
  2
GRAY1
  70
0
  62
251
  6
CONTINUOUS
  0
LAYER
  2
GRAY2
  70
0
  62
8
  6
CONTINUOUS
  0
LAYER
  2
GRAY3
  70
0
  62
9
  6
CONTINUOUS
  0
LAYER
  2
WHITE
  70
0
  62
7
  6
CONTINUOUS
  0
LAYER
  2
LYELLOW
  70
0
  62
51
  6
CONTINUOUS
  0
LAYER
  2
BLUE1
  70
0
  62
178
  6
CONTINUOUS
  0
LAYER
  2
GREEN1
  70
0
  62
98
  6
CONTINUOUS
  0
LAYER
  2
CYAN1
  70
0
  62
138
  6
CONTINUOUS
  0
LAYER
  2
RED1
  70
0
  62
18
  6
CONTINUOUS
  0
LAYER
  2
MAGENTA1
  70
0
  62
228
  6
CONTINUOUS
  0
LAYER
  2
BROWN1
  70
0
  62
58
  6
CONTINUOUS
  0
LAYER
  2
BLUE2
  70
0
  62
5
  6
CONTINUOUS
  0
LAYER
  2
GREEN2
  70
0
  62
3
  6
CONTINUOUS
  0
LAYER
  2
CYAN2
  70
0
  62
4
  6
CONTINUOUS
  0
LAYER
  2
RED2
  70
0
  62
1
  6
CONTINUOUS
  0
LAYER
  2
MAGENTA2
  70
0
  62
6
  6
CONTINUOUS
  0
LAYER
  2
BROWN2
  70
0
  62
54
  6
CONTINUOUS
  0
LAYER
  2
BLUE3
  70
0
  62
171
  6
CONTINUOUS
  0
LAYER
  2
GREEN3
  70
0
  62
91
  6
CONTINUOUS
  0
LAYER
  2
CYAN3
  70
0
  62
131
  6
CONTINUOUS
  0
LAYER
  2
RED3
  70
0
  62
11
  6
CONTINUOUS
  0
LAYER
  2
MAGENTA3
  70
0
  62
221
  6
CONTINUOUS
  0
LAYER
  2
YELLOW3
  70
0
  62
2
  6
CONTINUOUS
  0
LAYER
  2
BLUE4
  70
0
  62
5
  6
CONTINUOUS
  0
LAYER
  2
GREEN4
  70
0
  62
3
  6
CONTINUOUS
  0
LAYER
  2
CYAN4
  70
0
  62
4
  6
CONTINUOUS
  0
LAYER
  2
RED4
  70
0
  62
1
  6
CONTINUOUS
  0
LAYER
  2
MAGENTA4
  70
0
  62
6
  6
CONTINUOUS
  0
LAYER
  2
YELLOW4
  70
0
  62
2
  6
CONTINUOUS
  0
ENDTAB
  0
ENDSEC
  0
SECTION
  2
ENTITIES
0
LINE
8
Black
10
265.849
20
-48.2102
11
265.861
21
-48.2104
0
LINE
8
Black
10
265.861
20
-48.2104
11
266.565
21
-48.3505
0
LINE
8
Black
10
266.565
20
-48.3505
11
266.568
21
-48.3515
0
LINE
8
Black
10
266.568
20
-48.3515
11
266.571
21
-48.3517
0
LINE
8
Black
10
266.571
20
-48.3517
11
266.588
21
-48.3595
0
LINE
8
Black
10
266.588
20
-48.3595
11
266.606
21
-48.3665
0
LINE
8
Black
10
266.606
20
-48.3665
11
266.608
21
-48.3683
0
LINE
8
Black
10
266.608
20
-48.3683
11
266.611
21
-48.3695
0
LINE
8
Black
10
266.611
20
-48.3695
11
267.149
21
-48.7287
0
LINE
8
Black
10
267.149
20
-48.7287
11
267.151
21
-48.7307
0
LINE
8
Black
10
267.151
20
-48.7307
11
267.153
21
-48.7319
0
LINE
8
Black
10
267.153
20
-48.7319
11
267.167
21
-48.7459
0
LINE
8
Black
10
267.167
20
-48.7459
11
267.181
21
-48.7592
0
LINE
8
Black
10
267.181
20
-48.7592
11
267.182
21
-48.7618
0
LINE
8
Black
10
267.182
20
-48.7618
11
267.184
21
-48.7638
0
LINE
8
Black
10
267.184
20
-48.7638
11
267.543
21
-49.3015
0
LINE
8
Black
10
267.543
20
-49.3015
11
267.544
21
-49.304
0
LINE
8
Black
10
267.544
20
-49.304
11
267.546
21
-49.3061
0
LINE
8
Black
10
267.546
20
-49.3061
11
267.553
21
-49.3241
0
LINE
8
Black
10
267.553
20
-49.3241
11
267.561
21
-49.3418
0
LINE
8
Black
10
267.561
20
-49.3418
11
267.561
21
-49.3446
0
LINE
8
Black
10
267.561
20
-49.3446
11
267.562
21
-49.3472
0
LINE
8
Black
10
267.562
20
-49.3472
11
267.702
21
-50.0514
0
LINE
8
Black
10
267.702
20
-50.0514
11
267.702
21
-50.0639
0
LINE
8
Black
10
267.702
20
-50.0639
11
267.704
21
-50.0762
0
LINE
8
Black
10
267.704
20
-50.0762
11
267.704
21
-121.374
0
LINE
8
Black
10
267.704
20
-121.374
11
267.702
21
-121.386
0
LINE
8
Black
10
267.702
20
-121.386
11
267.702
21
-121.399
0
LINE
8
Black
10
267.702
20
-121.399
11
267.562
21
-122.103
0
LINE
8
Black
10
267.562
20
-122.103
11
267.561
21
-122.105
0
LINE
8
Black
10
267.561
20
-122.105
11
267.561
21
-122.108
0
LINE
8
Black
10
267.561
20
-122.108
11
267.553
21
-122.126
0
LINE
8
Black
10
267.553
20
-122.126
11
267.546
21
-122.144
0
LINE
8
Black
10
267.546
20
-122.144
11
267.544
21
-122.146
0
LINE
8
Black
10
267.544
20
-122.146
11
267.543
21
-122.149
0
LINE
8
Black
10
267.543
20
-122.149
11
267.184
21
-122.686
0
LINE
8
Black
10
267.184
20
-122.686
11
267.182
21
-122.688
0
LINE
8
Black
10
267.182
20
-122.688
11
267.181
21
-122.691
0
LINE
8
Black
10
267.181
20
-122.691
11
267.167
21
-122.704
0
LINE
8
Black
10
267.167
20
-122.704
11
267.153
21
-122.718
0
LINE
8
Black
10
267.153
20
-122.718
11
267.151
21
-122.719
0
LINE
8
Black
10
267.151
20
-122.719
11
267.149
21
-122.721
0
LINE
8
Black
10
267.149
20
-122.721
11
266.611
21
-123.081
0
LINE
8
Black
10
266.611
20
-123.081
11
266.608
21
-123.082
0
LINE
8
Black
10
266.608
20
-123.082
11
266.606
21
-123.084
0
LINE
8
Black
10
266.606
20
-123.084
11
266.588
21
-123.091
0
LINE
8
Black
10
266.588
20
-123.091
11
266.571
21
-123.098
0
LINE
8
Black
10
266.571
20
-123.098
11
266.568
21
-123.098
0
LINE
8
Black
10
266.568
20
-123.098
11
266.565
21
-123.099
0
LINE
8
Black
10
266.565
20
-123.099
11
265.861
21
-123.24
0
LINE
8
Black
10
265.861
20
-123.24
11
265.849
21
-123.24
0
LINE
8
Black
10
265.849
20
-123.24
11
265.836
21
-123.242
0
LINE
8
Black
10
265.836
20
-123.242
11
42.1387
21
-123.242
0
LINE
8
Black
10
42.1387
20
-123.242
11
42.1264
21
-123.24
0
LINE
8
Black
10
42.1264
20
-123.24
11
42.1139
21
-123.24
0
LINE
8
Black
10
42.1139
20
-123.24
11
41.4097
21
-123.099
0
LINE
8
Black
10
41.4097
20
-123.099
11
41.4071
21
-123.098
0
LINE
8
Black
10
41.4071
20
-123.098
11
41.4043
21
-123.098
0
LINE
8
Black
10
41.4043
20
-123.098
11
41.3866
21
-123.091
0
LINE
8
Black
10
41.3866
20
-123.091
11
41.3686
21
-123.084
0
LINE
8
Black
10
41.3686
20
-123.084
11
41.3665
21
-123.082
0
LINE
8
Black
10
41.3665
20
-123.082
11
41.364
21
-123.081
0
LINE
8
Black
10
41.364
20
-123.081
11
40.8263
21
-122.721
0
LINE
8
Black
10
40.8263
20
-122.721
11
40.8243
21
-122.719
0
LINE
8
Black
10
40.8243
20
-122.719
11
40.8217
21
-122.718
0
LINE
8
Black
10
40.8217
20
-122.718
11
40.8084
21
-122.704
0
LINE
8
Black
10
40.8084
20
-122.704
11
40.7944
21
-122.691
0
LINE
8
Black
10
40.7944
20
-122.691
11
40.7932
21
-122.688
0
LINE
8
Black
10
40.7932
20
-122.688
11
40.7912
21
-122.686
0
LINE
8
Black
10
40.7912
20
-122.686
11
40.432
21
-122.149
0
LINE
8
Black
10
40.432
20
-122.149
11
40.4308
21
-122.146
0
LINE
8
Black
10
40.4308
20
-122.146
11
40.429
21
-122.144
0
LINE
8
Black
10
40.429
20
-122.144
11
40.422
21
-122.126
0
LINE
8
Black
10
40.422
20
-122.126
11
40.4142
21
-122.108
0
LINE
8
Black
10
40.4142
20
-122.108
11
40.414
21
-122.105
0
LINE
8
Black
10
40.414
20
-122.105
11
40.413
21
-122.103
0
LINE
8
Black
10
40.413
20
-122.103
11
40.2729
21
-121.399
0
LINE
8
Black
10
40.2729
20
-121.399
11
40.2727
21
-121.386
0
LINE
8
Black
10
40.2727
20
-121.386
11
40.2705
21
-121.374
0
LINE
8
Black
10
40.2705
20
-121.374
11
40.2705
21
-105.297
0
LINE
8
Black
10
40.2705
20
-105.297
11
40.2705
21
-86.2468
0
LINE
8
Black
10
40.2705
20
-86.2468
11
40.2705
21
-67.1968
0
LINE
8
Black
10
40.2705
20
-67.1968
11
40.2705
21
-50.0762
0
LINE
8
Black
10
40.2705
20
-50.0762
11
40.2727
21
-50.0639
0
LINE
8
Black
10
40.2727
20
-50.0639
11
40.2729
21
-50.0514
0
LINE
8
Black
10
40.2729
20
-50.0514
11
40.413
21
-49.3472
0
LINE
8
Black
10
40.413
20
-49.3472
11
40.414
21
-49.3446
0
LINE
8
Black
10
40.414
20
-49.3446
11
40.4142
21
-49.3418
0
LINE
8
Black
10
40.4142
20
-49.3418
11
40.422
21
-49.3241
0
LINE
8
Black
10
40.422
20
-49.3241
11
40.429
21
-49.3061
0
LINE
8
Black
10
40.429
20
-49.3061
11
40.4308
21
-49.304
0
LINE
8
Black
10
40.4308
20
-49.304
11
40.432
21
-49.3015
0
LINE
8
Black
10
40.432
20
-49.3015
11
40.7912
21
-48.7638
0
LINE
8
Black
10
40.7912
20
-48.7638
11
40.7932
21
-48.7618
0
LINE
8
Black
10
40.7932
20
-48.7618
11
40.7944
21
-48.7592
0
LINE
8
Black
10
40.7944
20
-48.7592
11
40.8084
21
-48.7459
0
LINE
8
Black
10
40.8084
20
-48.7459
11
40.8217
21
-48.7319
0
LINE
8
Black
10
40.8217
20
-48.7319
11
40.8243
21
-48.7307
0
LINE
8
Black
10
40.8243
20
-48.7307
11
40.8263
21
-48.7287
0
LINE
8
Black
10
40.8263
20
-48.7287
11
41.364
21
-48.3695
0
LINE
8
Black
10
41.364
20
-48.3695
11
41.3665
21
-48.3683
0
LINE
8
Black
10
41.3665
20
-48.3683
11
41.3686
21
-48.3665
0
LINE
8
Black
10
41.3686
20
-48.3665
11
41.3866
21
-48.3595
0
LINE
8
Black
10
41.3866
20
-48.3595
11
41.4043
21
-48.3517
0
LINE
8
Black
10
41.4043
20
-48.3517
11
41.4071
21
-48.3515
0
LINE
8
Black
10
41.4071
20
-48.3515
11
41.4097
21
-48.3505
0
LINE
8
Black
10
41.4097
20
-48.3505
11
42.1139
21
-48.2104
0
LINE
8
Black
10
42.1139
20
-48.2104
11
42.1264
21
-48.2102
0
LINE
8
Black
10
42.1264
20
-48.2102
11
42.1387
21
-48.208
0
LINE
8
Black
10
42.1387
20
-48.208
11
265.836
21
-48.208
0
LINE
8
Black
10
265.836
20
-48.208
11
265.849
21
-48.2102
0
LINE
8
Black
10
57.3187
20
-102.648
11
56.6126
21
-103.352
0
LINE
8
Black
10
56.6126
20
-103.352
11
56.2299
21
-104.274
0
LINE
8
Black
10
56.2299
20
-104.274
11
56.2291
21
-105.272
0
LINE
8
Black
10
56.2291
20
-105.272
11
56.6101
21
-106.194
0
LINE
8
Black
10
56.6101
20
-106.194
11
57.315
21
-106.9
0
LINE
8
Black
10
57.315
20
-106.9
11
58.2364
21
-107.283
0
LINE
8
Black
10
58.2364
20
-107.283
11
59.2342
21
-107.283
0
LINE
8
Black
10
59.2342
20
-107.283
11
60.1563
21
-106.902
0
LINE
8
Black
10
60.1563
20
-106.902
11
60.8624
21
-106.198
0
LINE
8
Black
10
60.8624
20
-106.198
11
61.2451
21
-105.276
0
LINE
8
Black
10
61.2451
20
-105.276
11
61.2459
21
-104.278
0
LINE
8
Black
10
61.2459
20
-104.278
11
60.8649
21
-103.356
0
LINE
8
Black
10
60.8649
20
-103.356
11
60.16
21
-102.65
0
LINE
8
Black
10
60.16
20
-102.65
11
59.2386
21
-102.267
0
LINE
8
Black
10
59.2386
20
-102.267
11
58.2408
21
-102.267
0
LINE
8
Black
10
58.2408
20
-102.267
11
57.3187
21
-102.648
0
LINE
8
Black
10
247.819
20
-102.648
11
247.113
21
-103.352
0
LINE
8
Black
10
247.113
20
-103.352
11
246.73
21
-104.274
0
LINE
8
Black
10
246.73
20
-104.274
11
246.729
21
-105.272
0
LINE
8
Black
10
246.729
20
-105.272
11
247.11
21
-106.194
0
LINE
8
Black
10
247.11
20
-106.194
11
247.815
21
-106.9
0
LINE
8
Black
10
247.815
20
-106.9
11
248.736
21
-107.283
0
LINE
8
Black
10
248.736
20
-107.283
11
249.734
21
-107.283
0
LINE
8
Black
10
249.734
20
-107.283
11
250.656
21
-106.902
0
LINE
8
Black
10
250.656
20
-106.902
11
251.362
21
-106.198
0
LINE
8
Black
10
251.362
20
-106.198
11
251.745
21
-105.276
0
LINE
8
Black
10
251.745
20
-105.276
11
251.746
21
-104.278
0
LINE
8
Black
10
251.746
20
-104.278
11
251.365
21
-103.356
0
LINE
8
Black
10
251.365
20
-103.356
11
250.66
21
-102.65
0
LINE
8
Black
10
250.66
20
-102.65
11
249.739
21
-102.267
0
LINE
8
Black
10
249.739
20
-102.267
11
248.741
21
-102.267
0
LINE
8
Black
10
248.741
20
-102.267
11
247.819
21
-102.648
0
LINE
8
Black
10
57.3187
20
-83.5976
11
56.6126
21
-84.3025
0
LINE
8
Black
10
56.6126
20
-84.3025
11
56.2299
21
-85.2239
0
LINE
8
Black
10
56.2299
20
-85.2239
11
56.2291
21
-86.2217
0
LINE
8
Black
10
56.2291
20
-86.2217
11
56.6101
21
-87.1438
0
LINE
8
Black
10
56.6101
20
-87.1438
11
57.315
21
-87.8499
0
LINE
8
Black
10
57.315
20
-87.8499
11
58.2364
21
-88.2326
0
LINE
8
Black
10
58.2364
20
-88.2326
11
59.2342
21
-88.2334
0
LINE
8
Black
10
59.2342
20
-88.2334
11
60.1563
21
-87.8524
0
LINE
8
Black
10
60.1563
20
-87.8524
11
60.8624
21
-87.1475
0
LINE
8
Black
10
60.8624
20
-87.1475
11
61.2451
21
-86.2261
0
LINE
8
Black
10
61.2451
20
-86.2261
11
61.2459
21
-85.2283
0
LINE
8
Black
10
61.2459
20
-85.2283
11
60.8649
21
-84.3062
0
LINE
8
Black
10
60.8649
20
-84.3062
11
60.16
21
-83.6001
0
LINE
8
Black
10
60.16
20
-83.6001
11
59.2386
21
-83.2174
0
LINE
8
Black
10
59.2386
20
-83.2174
11
58.2408
21
-83.2166
0
LINE
8
Black
10
58.2408
20
-83.2166
11
57.3187
21
-83.5976
0
LINE
8
Black
10
152.569
20
-83.5976
11
151.863
21
-84.3025
0
LINE
8
Black
10
151.863
20
-84.3025
11
151.48
21
-85.2239
0
LINE
8
Black
10
151.48
20
-85.2239
11
151.479
21
-86.2217
0
LINE
8
Black
10
151.479
20
-86.2217
11
151.86
21
-87.1438
0
LINE
8
Black
10
151.86
20
-87.1438
11
152.565
21
-87.8499
0
LINE
8
Black
10
152.565
20
-87.8499
11
153.486
21
-88.2326
0
LINE
8
Black
10
153.486
20
-88.2326
11
154.484
21
-88.2334
0
LINE
8
Black
10
154.484
20
-88.2334
11
155.406
21
-87.8524
0
LINE
8
Black
10
155.406
20
-87.8524
11
156.112
21
-87.1475
0
LINE
8
Black
10
156.112
20
-87.1475
11
156.495
21
-86.2261
0
LINE
8
Black
10
156.495
20
-86.2261
11
156.496
21
-85.2283
0
LINE
8
Black
10
156.496
20
-85.2283
11
156.115
21
-84.3062
0
LINE
8
Black
10
156.115
20
-84.3062
11
155.41
21
-83.6001
0
LINE
8
Black
10
155.41
20
-83.6001
11
154.489
21
-83.2174
0
LINE
8
Black
10
154.489
20
-83.2174
11
153.491
21
-83.2166
0
LINE
8
Black
10
153.491
20
-83.2166
11
152.569
21
-83.5976
0
LINE
8
Black
10
247.819
20
-83.5976
11
247.113
21
-84.3025
0
LINE
8
Black
10
247.113
20
-84.3025
11
246.73
21
-85.2239
0
LINE
8
Black
10
246.73
20
-85.2239
11
246.729
21
-86.2217
0
LINE
8
Black
10
246.729
20
-86.2217
11
247.11
21
-87.1438
0
LINE
8
Black
10
247.11
20
-87.1438
11
247.815
21
-87.8499
0
LINE
8
Black
10
247.815
20
-87.8499
11
248.736
21
-88.2326
0
LINE
8
Black
10
248.736
20
-88.2326
11
249.734
21
-88.2334
0
LINE
8
Black
10
249.734
20
-88.2334
11
250.656
21
-87.8524
0
LINE
8
Black
10
250.656
20
-87.8524
11
251.362
21
-87.1475
0
LINE
8
Black
10
251.362
20
-87.1475
11
251.745
21
-86.2261
0
LINE
8
Black
10
251.745
20
-86.2261
11
251.746
21
-85.2283
0
LINE
8
Black
10
251.746
20
-85.2283
11
251.365
21
-84.3062
0
LINE
8
Black
10
251.365
20
-84.3062
11
250.66
21
-83.6001
0
LINE
8
Black
10
250.66
20
-83.6001
11
249.739
21
-83.2174
0
LINE
8
Black
10
249.739
20
-83.2174
11
248.741
21
-83.2166
0
LINE
8
Black
10
248.741
20
-83.2166
11
247.819
21
-83.5976
0
LINE
8
Black
10
57.3187
20
-64.5476
11
56.6126
21
-65.2525
0
LINE
8
Black
10
56.6126
20
-65.2525
11
56.2299
21
-66.1739
0
LINE
8
Black
10
56.2299
20
-66.1739
11
56.2291
21
-67.1717
0
LINE
8
Black
10
56.2291
20
-67.1717
11
56.6101
21
-68.0938
0
LINE
8
Black
10
56.6101
20
-68.0938
11
57.315
21
-68.7999
0
LINE
8
Black
10
57.315
20
-68.7999
11
58.2364
21
-69.1826
0
LINE
8
Black
10
58.2364
20
-69.1826
11
59.2342
21
-69.1834
0
LINE
8
Black
10
59.2342
20
-69.1834
11
60.1563
21
-68.8024
0
LINE
8
Black
10
60.1563
20
-68.8024
11
60.8624
21
-68.0975
0
LINE
8
Black
10
60.8624
20
-68.0975
11
61.2451
21
-67.1761
0
LINE
8
Black
10
61.2451
20
-67.1761
11
61.2459
21
-66.1783
0
LINE
8
Black
10
61.2459
20
-66.1783
11
60.8649
21
-65.2562
0
LINE
8
Black
10
60.8649
20
-65.2562
11
60.16
21
-64.5501
0
LINE
8
Black
10
60.16
20
-64.5501
11
59.2386
21
-64.1674
0
LINE
8
Black
10
59.2386
20
-64.1674
11
58.2408
21
-64.1666
0
LINE
8
Black
10
58.2408
20
-64.1666
11
57.3187
21
-64.5476
0
LINE
8
Black
10
247.819
20
-64.5476
11
247.113
21
-65.2525
0
LINE
8
Black
10
247.113
20
-65.2525
11
246.73
21
-66.1739
0
LINE
8
Black
10
246.73
20
-66.1739
11
246.729
21
-67.1717
0
LINE
8
Black
10
246.729
20
-67.1717
11
247.11
21
-68.0938
0
LINE
8
Black
10
247.11
20
-68.0938
11
247.815
21
-68.7999
0
LINE
8
Black
10
247.815
20
-68.7999
11
248.736
21
-69.1826
0
LINE
8
Black
10
248.736
20
-69.1826
11
249.734
21
-69.1834
0
LINE
8
Black
10
249.734
20
-69.1834
11
250.656
21
-68.8024
0
LINE
8
Black
10
250.656
20
-68.8024
11
251.362
21
-68.0975
0
LINE
8
Black
10
251.362
20
-68.0975
11
251.745
21
-67.1761
0
LINE
8
Black
10
251.745
20
-67.1761
11
251.746
21
-66.1783
0
LINE
8
Black
10
251.746
20
-66.1783
11
251.365
21
-65.2562
0
LINE
8
Black
10
251.365
20
-65.2562
11
250.66
21
-64.5501
0
LINE
8
Black
10
250.66
20
-64.5501
11
249.739
21
-64.1674
0
LINE
8
Black
10
249.739
20
-64.1674
11
248.741
21
-64.1666
0
LINE
8
Black
10
248.741
20
-64.1666
11
247.819
21
-64.5476
0
LINE
8
Black
10
59.4242
20
-102.888
11
60.028
21
-103.237
0
LINE
8
Black
10
60.028
20
-103.237
11
60.4762
21
-103.771
0
LINE
8
Black
10
60.4762
20
-103.771
11
60.7146
21
-104.426
0
LINE
8
Black
10
60.7146
20
-104.426
11
60.7146
21
-105.124
0
LINE
8
Black
10
60.7146
20
-105.124
11
60.4762
21
-105.779
0
LINE
8
Black
10
60.4762
20
-105.779
11
60.028
21
-106.313
0
LINE
8
Black
10
60.028
20
-106.313
11
59.4242
21
-106.662
0
LINE
8
Black
10
59.4242
20
-106.662
11
58.7375
21
-106.783
0
LINE
8
Black
10
58.7375
20
-106.783
11
58.0508
21
-106.662
0
LINE
8
Black
10
58.0508
20
-106.662
11
57.447
21
-106.313
0
LINE
8
Black
10
57.447
20
-106.313
11
56.9988
21
-105.779
0
LINE
8
Black
10
56.9988
20
-105.779
11
56.7604
21
-105.124
0
LINE
8
Black
10
56.7604
20
-105.124
11
56.7604
21
-104.426
0
LINE
8
Black
10
56.7604
20
-104.426
11
56.9988
21
-103.771
0
LINE
8
Black
10
56.9988
20
-103.771
11
57.447
21
-103.237
0
LINE
8
Black
10
57.447
20
-103.237
11
58.0508
21
-102.888
0
LINE
8
Black
10
58.0508
20
-102.888
11
58.7375
21
-102.767
0
LINE
8
Black
10
58.7375
20
-102.767
11
59.4242
21
-102.888
0
LINE
8
Black
10
249.924
20
-102.888
11
250.528
21
-103.237
0
LINE
8
Black
10
250.528
20
-103.237
11
250.976
21
-103.771
0
LINE
8
Black
10
250.976
20
-103.771
11
251.215
21
-104.426
0
LINE
8
Black
10
251.215
20
-104.426
11
251.215
21
-105.124
0
LINE
8
Black
10
251.215
20
-105.124
11
250.976
21
-105.779
0
LINE
8
Black
10
250.976
20
-105.779
11
250.528
21
-106.313
0
LINE
8
Black
10
250.528
20
-106.313
11
249.924
21
-106.662
0
LINE
8
Black
10
249.924
20
-106.662
11
249.237
21
-106.783
0
LINE
8
Black
10
249.237
20
-106.783
11
248.551
21
-106.662
0
LINE
8
Black
10
248.551
20
-106.662
11
247.947
21
-106.313
0
LINE
8
Black
10
247.947
20
-106.313
11
247.499
21
-105.779
0
LINE
8
Black
10
247.499
20
-105.779
11
247.26
21
-105.124
0
LINE
8
Black
10
247.26
20
-105.124
11
247.26
21
-104.426
0
LINE
8
Black
10
247.26
20
-104.426
11
247.499
21
-103.771
0
LINE
8
Black
10
247.499
20
-103.771
11
247.947
21
-103.237
0
LINE
8
Black
10
247.947
20
-103.237
11
248.551
21
-102.888
0
LINE
8
Black
10
248.551
20
-102.888
11
249.237
21
-102.767
0
LINE
8
Black
10
249.237
20
-102.767
11
249.924
21
-102.888
0
LINE
8
Black
10
59.4242
20
-83.8384
11
60.028
21
-84.1871
0
LINE
8
Black
10
60.028
20
-84.1871
11
60.4762
21
-84.7212
0
LINE
8
Black
10
60.4762
20
-84.7212
11
60.7146
21
-85.3764
0
LINE
8
Black
10
60.7146
20
-85.3764
11
60.7146
21
-86.0736
0
LINE
8
Black
10
60.7146
20
-86.0736
11
60.4762
21
-86.7288
0
LINE
8
Black
10
60.4762
20
-86.7288
11
60.028
21
-87.2629
0
LINE
8
Black
10
60.028
20
-87.2629
11
59.4242
21
-87.6116
0
LINE
8
Black
10
59.4242
20
-87.6116
11
58.7375
21
-87.7326
0
LINE
8
Black
10
58.7375
20
-87.7326
11
58.0508
21
-87.6116
0
LINE
8
Black
10
58.0508
20
-87.6116
11
57.447
21
-87.2629
0
LINE
8
Black
10
57.447
20
-87.2629
11
56.9988
21
-86.7288
0
LINE
8
Black
10
56.9988
20
-86.7288
11
56.7604
21
-86.0736
0
LINE
8
Black
10
56.7604
20
-86.0736
11
56.7604
21
-85.3764
0
LINE
8
Black
10
56.7604
20
-85.3764
11
56.9988
21
-84.7212
0
LINE
8
Black
10
56.9988
20
-84.7212
11
57.447
21
-84.1871
0
LINE
8
Black
10
57.447
20
-84.1871
11
58.0508
21
-83.8384
0
LINE
8
Black
10
58.0508
20
-83.8384
11
58.7375
21
-83.7174
0
LINE
8
Black
10
58.7375
20
-83.7174
11
59.4242
21
-83.8384
0
LINE
8
Black
10
154.674
20
-83.8384
11
155.278
21
-84.1871
0
LINE
8
Black
10
155.278
20
-84.1871
11
155.726
21
-84.7212
0
LINE
8
Black
10
155.726
20
-84.7212
11
155.965
21
-85.3764
0
LINE
8
Black
10
155.965
20
-85.3764
11
155.965
21
-86.0736
0
LINE
8
Black
10
155.965
20
-86.0736
11
155.726
21
-86.7288
0
LINE
8
Black
10
155.726
20
-86.7288
11
155.278
21
-87.2629
0
LINE
8
Black
10
155.278
20
-87.2629
11
154.674
21
-87.6116
0
LINE
8
Black
10
154.674
20
-87.6116
11
153.987
21
-87.7326
0
LINE
8
Black
10
153.987
20
-87.7326
11
153.301
21
-87.6116
0
LINE
8
Black
10
153.301
20
-87.6116
11
152.697
21
-87.2629
0
LINE
8
Black
10
152.697
20
-87.2629
11
152.249
21
-86.7288
0
LINE
8
Black
10
152.249
20
-86.7288
11
152.01
21
-86.0736
0
LINE
8
Black
10
152.01
20
-86.0736
11
152.01
21
-85.3764
0
LINE
8
Black
10
152.01
20
-85.3764
11
152.249
21
-84.7212
0
LINE
8
Black
10
152.249
20
-84.7212
11
152.697
21
-84.1871
0
LINE
8
Black
10
152.697
20
-84.1871
11
153.301
21
-83.8384
0
LINE
8
Black
10
153.301
20
-83.8384
11
153.987
21
-83.7174
0
LINE
8
Black
10
153.987
20
-83.7174
11
154.674
21
-83.8384
0
LINE
8
Black
10
249.924
20
-83.8384
11
250.528
21
-84.1871
0
LINE
8
Black
10
250.528
20
-84.1871
11
250.976
21
-84.7212
0
LINE
8
Black
10
250.976
20
-84.7212
11
251.215
21
-85.3764
0
LINE
8
Black
10
251.215
20
-85.3764
11
251.215
21
-86.0736
0
LINE
8
Black
10
251.215
20
-86.0736
11
250.976
21
-86.7288
0
LINE
8
Black
10
250.976
20
-86.7288
11
250.528
21
-87.2629
0
LINE
8
Black
10
250.528
20
-87.2629
11
249.924
21
-87.6116
0
LINE
8
Black
10
249.924
20
-87.6116
11
249.237
21
-87.7326
0
LINE
8
Black
10
249.237
20
-87.7326
11
248.551
21
-87.6116
0
LINE
8
Black
10
248.551
20
-87.6116
11
247.947
21
-87.2629
0
LINE
8
Black
10
247.947
20
-87.2629
11
247.499
21
-86.7288
0
LINE
8
Black
10
247.499
20
-86.7288
11
247.26
21
-86.0736
0
LINE
8
Black
10
247.26
20
-86.0736
11
247.26
21
-85.3764
0
LINE
8
Black
10
247.26
20
-85.3764
11
247.499
21
-84.7212
0
LINE
8
Black
10
247.499
20
-84.7212
11
247.947
21
-84.1871
0
LINE
8
Black
10
247.947
20
-84.1871
11
248.551
21
-83.8384
0
LINE
8
Black
10
248.551
20
-83.8384
11
249.237
21
-83.7174
0
LINE
8
Black
10
249.237
20
-83.7174
11
249.924
21
-83.8384
0
LINE
8
Black
10
59.4242
20
-64.7884
11
60.028
21
-65.1371
0
LINE
8
Black
10
60.028
20
-65.1371
11
60.4762
21
-65.6712
0
LINE
8
Black
10
60.4762
20
-65.6712
11
60.7146
21
-66.3264
0
LINE
8
Black
10
60.7146
20
-66.3264
11
60.7146
21
-67.0236
0
LINE
8
Black
10
60.7146
20
-67.0236
11
60.4762
21
-67.6788
0
LINE
8
Black
10
60.4762
20
-67.6788
11
60.028
21
-68.2129
0
LINE
8
Black
10
60.028
20
-68.2129
11
59.4242
21
-68.5616
0
LINE
8
Black
10
59.4242
20
-68.5616
11
58.7375
21
-68.6826
0
LINE
8
Black
10
58.7375
20
-68.6826
11
58.0508
21
-68.5616
0
LINE
8
Black
10
58.0508
20
-68.5616
11
57.447
21
-68.2129
0
LINE
8
Black
10
57.447
20
-68.2129
11
56.9988
21
-67.6788
0
LINE
8
Black
10
56.9988
20
-67.6788
11
56.7604
21
-67.0236
0
LINE
8
Black
10
56.7604
20
-67.0236
11
56.7604
21
-66.3264
0
LINE
8
Black
10
56.7604
20
-66.3264
11
56.9988
21
-65.6712
0
LINE
8
Black
10
56.9988
20
-65.6712
11
57.447
21
-65.1371
0
LINE
8
Black
10
57.447
20
-65.1371
11
58.0508
21
-64.7884
0
LINE
8
Black
10
58.0508
20
-64.7884
11
58.7375
21
-64.6674
0
LINE
8
Black
10
58.7375
20
-64.6674
11
59.4242
21
-64.7884
0
LINE
8
Black
10
249.924
20
-64.7884
11
250.528
21
-65.1371
0
LINE
8
Black
10
250.528
20
-65.1371
11
250.976
21
-65.6712
0
LINE
8
Black
10
250.976
20
-65.6712
11
251.215
21
-66.3264
0
LINE
8
Black
10
251.215
20
-66.3264
11
251.215
21
-67.0236
0
LINE
8
Black
10
251.215
20
-67.0236
11
250.976
21
-67.6788
0
LINE
8
Black
10
250.976
20
-67.6788
11
250.528
21
-68.2129
0
LINE
8
Black
10
250.528
20
-68.2129
11
249.924
21
-68.5616
0
LINE
8
Black
10
249.924
20
-68.5616
11
249.237
21
-68.6826
0
LINE
8
Black
10
249.237
20
-68.6826
11
248.551
21
-68.5616
0
LINE
8
Black
10
248.551
20
-68.5616
11
247.947
21
-68.2129
0
LINE
8
Black
10
247.947
20
-68.2129
11
247.499
21
-67.6788
0
LINE
8
Black
10
247.499
20
-67.6788
11
247.26
21
-67.0236
0
LINE
8
Black
10
247.26
20
-67.0236
11
247.26
21
-66.3264
0
LINE
8
Black
10
247.26
20
-66.3264
11
247.499
21
-65.6712
0
LINE
8
Black
10
247.499
20
-65.6712
11
247.947
21
-65.1371
0
LINE
8
Black
10
247.947
20
-65.1371
11
248.551
21
-64.7884
0
LINE
8
Black
10
248.551
20
-64.7884
11
249.237
21
-64.6674
0
LINE
8
Black
10
249.237
20
-64.6674
11
249.924
21
-64.7884
  0
ENDSEC
  0
EOF
