  0
SECTION
  2
HEADER
  9
$ANGBASE
  50
0.0
  9
$ANGDIR
  70
  1
  9
$MEASUREMENT
  70
0
  0
ENDSEC
  0
SECTION
  2
TABLES
  0
TABLE
  2
LTYPE
  70
1
  0
LTYPE
  2
CONTINUOUS
  70
0
  3
Solid line
  72
65
  73
0
  40
0.0
  0
ENDTAB
  0
TABLE
  2
STYLE
  70
4
  0
STYLE
  2
KICAD
  70
0
  40
0
  41
1
  42
1
  50
0
  71
0
  3
isocp.shx
  0
STYLE
  2
KICADB
  70
0
  40
0
  41
1
  42
1
  50
0
  71
0
  3
isocp.shx
  0
STYLE
  2
KICADI
  70
0
  40
0
  41
1
  42
1
  50
15
  71
0
  3
isocp.shx
  0
STYLE
  2
KICADBI
  70
0
  40
0
  41
1
  42
1
  50
15
  71
0
  3
isocp.shx
  0
ENDTAB
  0
TABLE
  2
LAYER
  70
30
  0
LAYER
  2
BLACK
  70
0
  62
7
  6
CONTINUOUS
  0
LAYER
  2
GRAY1
  70
0
  62
251
  6
CONTINUOUS
  0
LAYER
  2
GRAY2
  70
0
  62
8
  6
CONTINUOUS
  0
LAYER
  2
GRAY3
  70
0
  62
9
  6
CONTINUOUS
  0
LAYER
  2
WHITE
  70
0
  62
7
  6
CONTINUOUS
  0
LAYER
  2
LYELLOW
  70
0
  62
51
  6
CONTINUOUS
  0
LAYER
  2
BLUE1
  70
0
  62
178
  6
CONTINUOUS
  0
LAYER
  2
GREEN1
  70
0
  62
98
  6
CONTINUOUS
  0
LAYER
  2
CYAN1
  70
0
  62
138
  6
CONTINUOUS
  0
LAYER
  2
RED1
  70
0
  62
18
  6
CONTINUOUS
  0
LAYER
  2
MAGENTA1
  70
0
  62
228
  6
CONTINUOUS
  0
LAYER
  2
BROWN1
  70
0
  62
58
  6
CONTINUOUS
  0
LAYER
  2
BLUE2
  70
0
  62
5
  6
CONTINUOUS
  0
LAYER
  2
GREEN2
  70
0
  62
3
  6
CONTINUOUS
  0
LAYER
  2
CYAN2
  70
0
  62
4
  6
CONTINUOUS
  0
LAYER
  2
RED2
  70
0
  62
1
  6
CONTINUOUS
  0
LAYER
  2
MAGENTA2
  70
0
  62
6
  6
CONTINUOUS
  0
LAYER
  2
BROWN2
  70
0
  62
54
  6
CONTINUOUS
  0
LAYER
  2
BLUE3
  70
0
  62
171
  6
CONTINUOUS
  0
LAYER
  2
GREEN3
  70
0
  62
91
  6
CONTINUOUS
  0
LAYER
  2
CYAN3
  70
0
  62
131
  6
CONTINUOUS
  0
LAYER
  2
RED3
  70
0
  62
11
  6
CONTINUOUS
  0
LAYER
  2
MAGENTA3
  70
0
  62
221
  6
CONTINUOUS
  0
LAYER
  2
YELLOW3
  70
0
  62
2
  6
CONTINUOUS
  0
LAYER
  2
BLUE4
  70
0
  62
5
  6
CONTINUOUS
  0
LAYER
  2
GREEN4
  70
0
  62
3
  6
CONTINUOUS
  0
LAYER
  2
CYAN4
  70
0
  62
4
  6
CONTINUOUS
  0
LAYER
  2
RED4
  70
0
  62
1
  6
CONTINUOUS
  0
LAYER
  2
MAGENTA4
  70
0
  62
6
  6
CONTINUOUS
  0
LAYER
  2
YELLOW4
  70
0
  62
2
  6
CONTINUOUS
  0
ENDTAB
  0
ENDSEC
  0
SECTION
  2
ENTITIES
0
LINE
8
Black
10
265.913
20
-47.5511
11
265.919
21
-47.5511
0
LINE
8
Black
10
265.919
20
-47.5511
11
266.734
21
-47.6947
0
LINE
8
Black
10
266.734
20
-47.6947
11
266.758
21
-47.7037
0
LINE
8
Black
10
266.758
20
-47.7037
11
266.758
21
-47.7037
0
LINE
8
Black
10
266.758
20
-47.7037
11
267.474
21
-48.1172
0
LINE
8
Black
10
267.474
20
-48.1172
11
267.494
21
-48.1339
0
LINE
8
Black
10
267.494
20
-48.1339
11
267.494
21
-48.1339
0
LINE
8
Black
10
267.494
20
-48.1339
11
268.026
21
-48.7674
0
LINE
8
Black
10
268.026
20
-48.7674
11
268.026
21
-48.7674
0
LINE
8
Black
10
268.026
20
-48.7674
11
268.039
21
-48.79
0
LINE
8
Black
10
268.039
20
-48.79
11
268.322
21
-49.5671
0
LINE
8
Black
10
268.322
20
-49.5671
11
268.324
21
-49.5767
0
LINE
8
Black
10
268.324
20
-49.5767
11
268.326
21
-49.5862
0
LINE
8
Black
10
268.326
20
-49.5862
11
268.362
21
-49.9997
0
LINE
8
Black
10
268.362
20
-49.9997
11
268.362
21
-50.003
0
LINE
8
Black
10
268.362
20
-50.003
11
268.363
21
-50.0062
0
LINE
8
Black
10
268.363
20
-50.0062
11
268.363
21
-121.444
0
LINE
8
Black
10
268.363
20
-121.444
11
268.361
21
-121.45
0
LINE
8
Black
10
268.361
20
-121.45
11
268.361
21
-121.457
0
LINE
8
Black
10
268.361
20
-121.457
11
268.218
21
-122.271
0
LINE
8
Black
10
268.218
20
-122.271
11
268.209
21
-122.296
0
LINE
8
Black
10
268.209
20
-122.296
11
268.209
21
-122.296
0
LINE
8
Black
10
268.209
20
-122.296
11
267.795
21
-123.012
0
LINE
8
Black
10
267.795
20
-123.012
11
267.779
21
-123.032
0
LINE
8
Black
10
267.779
20
-123.032
11
267.779
21
-123.032
0
LINE
8
Black
10
267.779
20
-123.032
11
267.145
21
-123.563
0
LINE
8
Black
10
267.145
20
-123.563
11
267.145
21
-123.563
0
LINE
8
Black
10
267.145
20
-123.563
11
267.123
21
-123.576
0
LINE
8
Black
10
267.123
20
-123.576
11
266.345
21
-123.859
0
LINE
8
Black
10
266.345
20
-123.859
11
266.336
21
-123.861
0
LINE
8
Black
10
266.336
20
-123.861
11
266.326
21
-123.864
0
LINE
8
Black
10
266.326
20
-123.864
11
265.913
21
-123.9
0
LINE
8
Black
10
265.913
20
-123.9
11
265.909
21
-123.899
0
LINE
8
Black
10
265.909
20
-123.899
11
265.906
21
-123.9
0
LINE
8
Black
10
265.906
20
-123.9
11
42.0688
21
-123.9
0
LINE
8
Black
10
42.0688
20
-123.9
11
42.0623
21
-123.899
0
LINE
8
Black
10
42.0623
20
-123.899
11
42.0557
21
-123.899
0
LINE
8
Black
10
42.0557
20
-123.899
11
41.2413
21
-123.755
0
LINE
8
Black
10
41.2413
20
-123.755
11
41.2168
21
-123.746
0
LINE
8
Black
10
41.2168
20
-123.746
11
41.2168
21
-123.746
0
LINE
8
Black
10
41.2168
20
-123.746
11
40.5006
21
-123.333
0
LINE
8
Black
10
40.5006
20
-123.333
11
40.4807
21
-123.316
0
LINE
8
Black
10
40.4807
20
-123.316
11
40.4807
21
-123.316
0
LINE
8
Black
10
40.4807
20
-123.316
11
39.9491
21
-122.683
0
LINE
8
Black
10
39.9491
20
-122.683
11
39.9491
21
-122.683
0
LINE
8
Black
10
39.9491
20
-122.683
11
39.9361
21
-122.66
0
LINE
8
Black
10
39.9361
20
-122.66
11
39.6532
21
-121.883
0
LINE
8
Black
10
39.6532
20
-121.883
11
39.6515
21
-121.873
0
LINE
8
Black
10
39.6515
20
-121.873
11
39.649
21
-121.864
0
LINE
8
Black
10
39.649
20
-121.864
11
39.6128
21
-121.45
0
LINE
8
Black
10
39.6128
20
-121.45
11
39.6131
21
-121.447
0
LINE
8
Black
10
39.6131
20
-121.447
11
39.6125
21
-121.444
0
LINE
8
Black
10
39.6125
20
-121.444
11
39.6125
21
-50.0062
0
LINE
8
Black
10
39.6125
20
-50.0062
11
39.6136
21
-49.9998
0
LINE
8
Black
10
39.6136
20
-49.9998
11
39.6136
21
-49.9932
0
LINE
8
Black
10
39.6136
20
-49.9932
11
39.7572
21
-49.1788
0
LINE
8
Black
10
39.7572
20
-49.1788
11
39.7662
21
-49.1543
0
LINE
8
Black
10
39.7662
20
-49.1543
11
39.7662
21
-49.1543
0
LINE
8
Black
10
39.7662
20
-49.1543
11
40.1797
21
-48.4381
0
LINE
8
Black
10
40.1797
20
-48.4381
11
40.1964
21
-48.4182
0
LINE
8
Black
10
40.1964
20
-48.4182
11
40.1964
21
-48.4182
0
LINE
8
Black
10
40.1964
20
-48.4182
11
40.8299
21
-47.8866
0
LINE
8
Black
10
40.8299
20
-47.8866
11
40.8299
21
-47.8866
0
LINE
8
Black
10
40.8299
20
-47.8866
11
40.8525
21
-47.8735
0
LINE
8
Black
10
40.8525
20
-47.8735
11
41.6296
21
-47.5907
0
LINE
8
Black
10
41.6296
20
-47.5907
11
41.6392
21
-47.589
0
LINE
8
Black
10
41.6392
20
-47.589
11
41.6487
21
-47.5865
0
LINE
8
Black
10
41.6487
20
-47.5865
11
42.0622
21
-47.5503
0
LINE
8
Black
10
42.0622
20
-47.5503
11
42.0655
21
-47.5506
0
LINE
8
Black
10
42.0655
20
-47.5506
11
42.0688
21
-47.55
0
LINE
8
Black
10
42.0688
20
-47.55
11
265.906
21
-47.55
0
LINE
8
Black
10
265.906
20
-47.55
11
265.913
21
-47.5511
0
LINE
8
Black
10
42.072
20
-47.7
11
41.6716
21
-47.735
0
LINE
8
Black
10
41.6716
20
-47.735
11
40.9162
21
-48.01
0
LINE
8
Black
10
40.9162
20
-48.01
11
40.3029
21
-48.5246
0
LINE
8
Black
10
40.3029
20
-48.5246
11
39.9027
21
-49.2179
0
LINE
8
Black
10
39.9027
20
-49.2179
11
39.7625
21
-50.0128
0
LINE
8
Black
10
39.7625
20
-50.0128
11
39.7625
21
-121.44
0
LINE
8
Black
10
39.7625
20
-121.44
11
39.7975
21
-121.841
0
LINE
8
Black
10
39.7975
20
-121.841
11
40.0725
21
-122.596
0
LINE
8
Black
10
40.0725
20
-122.596
11
40.5871
21
-123.21
0
LINE
8
Black
10
40.5871
20
-123.21
11
41.2804
21
-123.61
0
LINE
8
Black
10
41.2804
20
-123.61
11
42.0753
21
-123.75
0
LINE
8
Black
10
42.0753
20
-123.75
11
265.903
21
-123.75
0
LINE
8
Black
10
265.903
20
-123.75
11
266.303
21
-123.715
0
LINE
8
Black
10
266.303
20
-123.715
11
267.059
21
-123.44
0
LINE
8
Black
10
267.059
20
-123.44
11
267.672
21
-122.925
0
LINE
8
Black
10
267.672
20
-122.925
11
268.072
21
-122.232
0
LINE
8
Black
10
268.072
20
-122.232
11
268.212
21
-121.437
0
LINE
8
Black
10
268.212
20
-121.437
11
268.212
21
-50.0095
0
LINE
8
Black
10
268.212
20
-50.0095
11
268.177
21
-49.6091
0
LINE
8
Black
10
268.177
20
-49.6091
11
267.903
21
-48.8537
0
LINE
8
Black
10
267.903
20
-48.8537
11
267.388
21
-48.2404
0
LINE
8
Black
10
267.388
20
-48.2404
11
266.695
21
-47.8402
0
LINE
8
Black
10
266.695
20
-47.8402
11
265.9
21
-47.7
0
LINE
8
Black
10
265.9
20
-47.7
11
42.072
21
-47.7
  0
ENDSEC
  0
EOF
