  0
SECTION
  2
HEADER
  9
$ANGBASE
  50
0.0
  9
$ANGDIR
  70
  1
  9
$MEASUREMENT
  70
0
  0
ENDSEC
  0
SECTION
  2
TABLES
  0
TABLE
  2
LTYPE
  70
1
  0
LTYPE
  2
CONTINUOUS
  70
0
  3
Solid line
  72
65
  73
0
  40
0.0
  0
ENDTAB
  0
TABLE
  2
STYLE
  70
4
  0
STYLE
  2
KICAD
  70
0
  40
0
  41
1
  42
1
  50
0
  71
0
  3
isocp.shx
  0
STYLE
  2
KICADB
  70
0
  40
0
  41
1
  42
1
  50
0
  71
0
  3
isocp.shx
  0
STYLE
  2
KICADI
  70
0
  40
0
  41
1
  42
1
  50
15
  71
0
  3
isocp.shx
  0
STYLE
  2
KICADBI
  70
0
  40
0
  41
1
  42
1
  50
15
  71
0
  3
isocp.shx
  0
ENDTAB
  0
TABLE
  2
LAYER
  70
30
  0
LAYER
  2
BLACK
  70
0
  62
7
  6
CONTINUOUS
  0
LAYER
  2
GRAY1
  70
0
  62
251
  6
CONTINUOUS
  0
LAYER
  2
GRAY2
  70
0
  62
8
  6
CONTINUOUS
  0
LAYER
  2
GRAY3
  70
0
  62
9
  6
CONTINUOUS
  0
LAYER
  2
WHITE
  70
0
  62
7
  6
CONTINUOUS
  0
LAYER
  2
LYELLOW
  70
0
  62
51
  6
CONTINUOUS
  0
LAYER
  2
BLUE1
  70
0
  62
178
  6
CONTINUOUS
  0
LAYER
  2
GREEN1
  70
0
  62
98
  6
CONTINUOUS
  0
LAYER
  2
CYAN1
  70
0
  62
138
  6
CONTINUOUS
  0
LAYER
  2
RED1
  70
0
  62
18
  6
CONTINUOUS
  0
LAYER
  2
MAGENTA1
  70
0
  62
228
  6
CONTINUOUS
  0
LAYER
  2
BROWN1
  70
0
  62
58
  6
CONTINUOUS
  0
LAYER
  2
BLUE2
  70
0
  62
5
  6
CONTINUOUS
  0
LAYER
  2
GREEN2
  70
0
  62
3
  6
CONTINUOUS
  0
LAYER
  2
CYAN2
  70
0
  62
4
  6
CONTINUOUS
  0
LAYER
  2
RED2
  70
0
  62
1
  6
CONTINUOUS
  0
LAYER
  2
MAGENTA2
  70
0
  62
6
  6
CONTINUOUS
  0
LAYER
  2
BROWN2
  70
0
  62
54
  6
CONTINUOUS
  0
LAYER
  2
BLUE3
  70
0
  62
171
  6
CONTINUOUS
  0
LAYER
  2
GREEN3
  70
0
  62
91
  6
CONTINUOUS
  0
LAYER
  2
CYAN3
  70
0
  62
131
  6
CONTINUOUS
  0
LAYER
  2
RED3
  70
0
  62
11
  6
CONTINUOUS
  0
LAYER
  2
MAGENTA3
  70
0
  62
221
  6
CONTINUOUS
  0
LAYER
  2
YELLOW3
  70
0
  62
2
  6
CONTINUOUS
  0
LAYER
  2
BLUE4
  70
0
  62
5
  6
CONTINUOUS
  0
LAYER
  2
GREEN4
  70
0
  62
3
  6
CONTINUOUS
  0
LAYER
  2
CYAN4
  70
0
  62
4
  6
CONTINUOUS
  0
LAYER
  2
RED4
  70
0
  62
1
  6
CONTINUOUS
  0
LAYER
  2
MAGENTA4
  70
0
  62
6
  6
CONTINUOUS
  0
LAYER
  2
YELLOW4
  70
0
  62
2
  6
CONTINUOUS
  0
ENDTAB
  0
ENDSEC
  0
SECTION
  2
ENTITIES
0
LINE
8
Black
10
254.31
20
-119.469
11
254.319
21
-119.468
0
LINE
8
Black
10
254.319
20
-119.468
11
254.336
21
-119.473
0
LINE
8
Black
10
254.336
20
-119.473
11
254.353
21
-119.476
0
LINE
8
Black
10
254.353
20
-119.476
11
254.361
21
-119.481
0
LINE
8
Black
10
254.361
20
-119.481
11
254.369
21
-119.483
0
LINE
8
Black
10
254.369
20
-119.483
11
254.559
21
-119.578
0
LINE
8
Black
10
254.559
20
-119.578
11
254.579
21
-119.593
0
LINE
8
Black
10
254.579
20
-119.593
11
254.598
21
-119.606
0
LINE
8
Black
10
254.598
20
-119.606
11
254.694
21
-119.702
0
LINE
8
Black
10
254.694
20
-119.702
11
254.707
21
-119.721
0
LINE
8
Black
10
254.707
20
-119.721
11
254.722
21
-119.741
0
LINE
8
Black
10
254.722
20
-119.741
11
254.817
21
-119.931
0
LINE
8
Black
10
254.817
20
-119.931
11
254.822
21
-119.947
0
LINE
8
Black
10
254.822
20
-119.947
11
254.828
21
-119.962
0
LINE
8
Black
10
254.828
20
-119.962
11
254.923
21
-120.343
0
LINE
8
Black
10
254.923
20
-120.343
11
254.925
21
-120.361
0
LINE
8
Black
10
254.925
20
-120.361
11
254.928
21
-120.379
0
LINE
8
Black
10
254.928
20
-120.379
11
254.928
21
-120.855
0
LINE
8
Black
10
254.928
20
-120.855
11
254.925
21
-120.873
0
LINE
8
Black
10
254.925
20
-120.873
11
254.923
21
-120.892
0
LINE
8
Black
10
254.923
20
-120.892
11
254.828
21
-121.273
0
LINE
8
Black
10
254.828
20
-121.273
11
254.822
21
-121.288
0
LINE
8
Black
10
254.822
20
-121.288
11
254.817
21
-121.303
0
LINE
8
Black
10
254.817
20
-121.303
11
254.722
21
-121.494
0
LINE
8
Black
10
254.722
20
-121.494
11
254.707
21
-121.513
0
LINE
8
Black
10
254.707
20
-121.513
11
254.694
21
-121.533
0
LINE
8
Black
10
254.694
20
-121.533
11
254.598
21
-121.628
0
LINE
8
Black
10
254.598
20
-121.628
11
254.579
21
-121.642
0
LINE
8
Black
10
254.579
20
-121.642
11
254.559
21
-121.656
0
LINE
8
Black
10
254.559
20
-121.656
11
254.369
21
-121.751
0
LINE
8
Black
10
254.369
20
-121.751
11
254.361
21
-121.754
0
LINE
8
Black
10
254.361
20
-121.754
11
254.353
21
-121.758
0
LINE
8
Black
10
254.353
20
-121.758
11
254.336
21
-121.761
0
LINE
8
Black
10
254.336
20
-121.761
11
254.319
21
-121.766
0
LINE
8
Black
10
254.319
20
-121.766
11
254.31
21
-121.766
0
LINE
8
Black
10
254.31
20
-121.766
11
254.302
21
-121.767
0
LINE
8
Black
10
254.302
20
-121.767
11
254.111
21
-121.767
0
LINE
8
Black
10
254.111
20
-121.767
11
254.103
21
-121.766
0
LINE
8
Black
10
254.103
20
-121.766
11
254.094
21
-121.766
0
LINE
8
Black
10
254.094
20
-121.766
11
254.077
21
-121.761
0
LINE
8
Black
10
254.077
20
-121.761
11
254.06
21
-121.758
0
LINE
8
Black
10
254.06
20
-121.758
11
254.053
21
-121.754
0
LINE
8
Black
10
254.053
20
-121.754
11
254.044
21
-121.751
0
LINE
8
Black
10
254.044
20
-121.751
11
253.854
21
-121.656
0
LINE
8
Black
10
253.854
20
-121.656
11
253.834
21
-121.642
0
LINE
8
Black
10
253.834
20
-121.642
11
253.815
21
-121.628
0
LINE
8
Black
10
253.815
20
-121.628
11
253.72
21
-121.533
0
LINE
8
Black
10
253.72
20
-121.533
11
253.706
21
-121.513
0
LINE
8
Black
10
253.706
20
-121.513
11
253.691
21
-121.494
0
LINE
8
Black
10
253.691
20
-121.494
11
253.596
21
-121.303
0
LINE
8
Black
10
253.596
20
-121.303
11
253.592
21
-121.288
0
LINE
8
Black
10
253.592
20
-121.288
11
253.585
21
-121.273
0
LINE
8
Black
10
253.585
20
-121.273
11
253.49
21
-120.892
0
LINE
8
Black
10
253.49
20
-120.892
11
253.488
21
-120.873
0
LINE
8
Black
10
253.488
20
-120.873
11
253.485
21
-120.855
0
LINE
8
Black
10
253.485
20
-120.855
11
253.485
21
-120.379
0
LINE
8
Black
10
253.485
20
-120.379
11
253.488
21
-120.361
0
LINE
8
Black
10
253.488
20
-120.361
11
253.49
21
-120.343
0
LINE
8
Black
10
253.49
20
-120.343
11
253.585
21
-119.962
0
LINE
8
Black
10
253.585
20
-119.962
11
253.592
21
-119.947
0
LINE
8
Black
10
253.592
20
-119.947
11
253.596
21
-119.931
0
LINE
8
Black
10
253.596
20
-119.931
11
253.691
21
-119.741
0
LINE
8
Black
10
253.691
20
-119.741
11
253.706
21
-119.721
0
LINE
8
Black
10
253.706
20
-119.721
11
253.72
21
-119.702
0
LINE
8
Black
10
253.72
20
-119.702
11
253.815
21
-119.606
0
LINE
8
Black
10
253.815
20
-119.606
11
253.834
21
-119.593
0
LINE
8
Black
10
253.834
20
-119.593
11
253.854
21
-119.578
0
LINE
8
Black
10
253.854
20
-119.578
11
254.044
21
-119.483
0
LINE
8
Black
10
254.044
20
-119.483
11
254.053
21
-119.481
0
LINE
8
Black
10
254.053
20
-119.481
11
254.06
21
-119.476
0
LINE
8
Black
10
254.06
20
-119.476
11
254.077
21
-119.473
0
LINE
8
Black
10
254.077
20
-119.473
11
254.094
21
-119.468
0
LINE
8
Black
10
254.094
20
-119.468
11
254.103
21
-119.469
0
LINE
8
Black
10
254.103
20
-119.469
11
254.111
21
-119.467
0
LINE
8
Black
10
254.111
20
-119.467
11
254.302
21
-119.467
0
LINE
8
Black
10
254.302
20
-119.467
11
254.31
21
-119.469
0
LINE
8
Black
10
254.147
20
-119.767
11
254.01
21
-119.836
0
LINE
8
Black
10
254.01
20
-119.836
11
253.949
21
-119.897
0
LINE
8
Black
10
253.949
20
-119.897
11
253.872
21
-120.051
0
LINE
8
Black
10
253.872
20
-120.051
11
253.785
21
-120.398
0
LINE
8
Black
10
253.785
20
-120.398
11
253.785
21
-120.837
0
LINE
8
Black
10
253.785
20
-120.837
11
253.872
21
-121.184
0
LINE
8
Black
10
253.872
20
-121.184
11
253.949
21
-121.338
0
LINE
8
Black
10
253.949
20
-121.338
11
254.01
21
-121.399
0
LINE
8
Black
10
254.01
20
-121.399
11
254.147
21
-121.467
0
LINE
8
Black
10
254.147
20
-121.467
11
254.266
21
-121.467
0
LINE
8
Black
10
254.266
20
-121.467
11
254.403
21
-121.399
0
LINE
8
Black
10
254.403
20
-121.399
11
254.464
21
-121.338
0
LINE
8
Black
10
254.464
20
-121.338
11
254.541
21
-121.184
0
LINE
8
Black
10
254.541
20
-121.184
11
254.628
21
-120.837
0
LINE
8
Black
10
254.628
20
-120.837
11
254.628
21
-120.398
0
LINE
8
Black
10
254.628
20
-120.398
11
254.541
21
-120.051
0
LINE
8
Black
10
254.541
20
-120.051
11
254.464
21
-119.897
0
LINE
8
Black
10
254.464
20
-119.897
11
254.403
21
-119.836
0
LINE
8
Black
10
254.403
20
-119.836
11
254.266
21
-119.767
0
LINE
8
Black
10
254.266
20
-119.767
11
254.147
21
-119.767
0
LINE
8
Black
10
257.263
20
-120.135
11
257.271
21
-120.135
0
LINE
8
Black
10
257.271
20
-120.135
11
257.288
21
-120.14
0
LINE
8
Black
10
257.288
20
-120.14
11
257.305
21
-120.143
0
LINE
8
Black
10
257.305
20
-120.143
11
257.313
21
-120.147
0
LINE
8
Black
10
257.313
20
-120.147
11
257.321
21
-120.15
0
LINE
8
Black
10
257.321
20
-120.15
11
257.512
21
-120.245
0
LINE
8
Black
10
257.512
20
-120.245
11
257.554
21
-120.276
0
LINE
8
Black
10
257.554
20
-120.276
11
257.582
21
-120.32
0
LINE
8
Black
10
257.582
20
-120.32
11
257.594
21
-120.37
0
LINE
8
Black
10
257.594
20
-120.37
11
257.588
21
-120.422
0
LINE
8
Black
10
257.588
20
-120.422
11
257.565
21
-120.469
0
LINE
8
Black
10
257.565
20
-120.469
11
257.527
21
-120.504
0
LINE
8
Black
10
257.527
20
-120.504
11
257.479
21
-120.525
0
LINE
8
Black
10
257.479
20
-120.525
11
257.427
21
-120.528
0
LINE
8
Black
10
257.427
20
-120.528
11
257.378
21
-120.513
0
LINE
8
Black
10
257.378
20
-120.513
11
257.219
21
-120.434
0
LINE
8
Black
10
257.219
20
-120.434
11
256.909
21
-120.434
0
LINE
8
Black
10
256.909
20
-120.434
11
256.795
21
-120.491
0
LINE
8
Black
10
256.795
20
-120.491
11
256.738
21
-120.605
0
LINE
8
Black
10
256.738
20
-120.605
11
256.738
21
-120.667
0
LINE
8
Black
10
256.738
20
-120.667
11
256.813
21
-120.705
0
LINE
8
Black
10
256.813
20
-120.705
11
257.254
21
-120.705
0
LINE
8
Black
10
257.254
20
-120.705
11
257.263
21
-120.707
0
LINE
8
Black
10
257.263
20
-120.707
11
257.271
21
-120.706
0
LINE
8
Black
10
257.271
20
-120.706
11
257.288
21
-120.711
0
LINE
8
Black
10
257.288
20
-120.711
11
257.305
21
-120.714
0
LINE
8
Black
10
257.305
20
-120.714
11
257.313
21
-120.719
0
LINE
8
Black
10
257.313
20
-120.719
11
257.321
21
-120.721
0
LINE
8
Black
10
257.321
20
-120.721
11
257.512
21
-120.816
0
LINE
8
Black
10
257.512
20
-120.816
11
257.529
21
-120.83
0
LINE
8
Black
10
257.529
20
-120.83
11
257.548
21
-120.842
0
LINE
8
Black
10
257.548
20
-120.842
11
257.55
21
-120.845
0
LINE
8
Black
10
257.55
20
-120.845
11
257.554
21
-120.847
0
LINE
8
Black
10
257.554
20
-120.847
11
257.566
21
-120.866
0
LINE
8
Black
10
257.566
20
-120.866
11
257.579
21
-120.884
0
LINE
8
Black
10
257.579
20
-120.884
11
257.674
21
-121.074
0
LINE
8
Black
10
257.674
20
-121.074
11
257.677
21
-121.082
0
LINE
8
Black
10
257.677
20
-121.082
11
257.681
21
-121.09
0
LINE
8
Black
10
257.681
20
-121.09
11
257.684
21
-121.107
0
LINE
8
Black
10
257.684
20
-121.107
11
257.689
21
-121.124
0
LINE
8
Black
10
257.689
20
-121.124
11
257.688
21
-121.133
0
LINE
8
Black
10
257.688
20
-121.133
11
257.69
21
-121.141
0
LINE
8
Black
10
257.69
20
-121.141
11
257.69
21
-121.332
0
LINE
8
Black
10
257.69
20
-121.332
11
257.688
21
-121.34
0
LINE
8
Black
10
257.688
20
-121.34
11
257.689
21
-121.349
0
LINE
8
Black
10
257.689
20
-121.349
11
257.684
21
-121.366
0
LINE
8
Black
10
257.684
20
-121.366
11
257.681
21
-121.383
0
LINE
8
Black
10
257.681
20
-121.383
11
257.677
21
-121.39
0
LINE
8
Black
10
257.677
20
-121.39
11
257.674
21
-121.399
0
LINE
8
Black
10
257.674
20
-121.399
11
257.579
21
-121.589
0
LINE
8
Black
10
257.579
20
-121.589
11
257.566
21
-121.607
0
LINE
8
Black
10
257.566
20
-121.607
11
257.554
21
-121.625
0
LINE
8
Black
10
257.554
20
-121.625
11
257.55
21
-121.628
0
LINE
8
Black
10
257.55
20
-121.628
11
257.548
21
-121.631
0
LINE
8
Black
10
257.548
20
-121.631
11
257.529
21
-121.643
0
LINE
8
Black
10
257.529
20
-121.643
11
257.512
21
-121.656
0
LINE
8
Black
10
257.512
20
-121.656
11
257.321
21
-121.751
0
LINE
8
Black
10
257.321
20
-121.751
11
257.313
21
-121.754
0
LINE
8
Black
10
257.313
20
-121.754
11
257.305
21
-121.758
0
LINE
8
Black
10
257.305
20
-121.758
11
257.288
21
-121.761
0
LINE
8
Black
10
257.288
20
-121.761
11
257.271
21
-121.766
0
LINE
8
Black
10
257.271
20
-121.766
11
257.263
21
-121.766
0
LINE
8
Black
10
257.263
20
-121.766
11
257.254
21
-121.767
0
LINE
8
Black
10
257.254
20
-121.767
11
256.778
21
-121.767
0
LINE
8
Black
10
256.778
20
-121.767
11
256.769
21
-121.766
0
LINE
8
Black
10
256.769
20
-121.766
11
256.761
21
-121.766
0
LINE
8
Black
10
256.761
20
-121.766
11
256.744
21
-121.761
0
LINE
8
Black
10
256.744
20
-121.761
11
256.727
21
-121.758
0
LINE
8
Black
10
256.727
20
-121.758
11
256.719
21
-121.754
0
LINE
8
Black
10
256.719
20
-121.754
11
256.711
21
-121.751
0
LINE
8
Black
10
256.711
20
-121.751
11
256.677
21
-121.735
0
LINE
8
Black
10
256.677
20
-121.735
11
256.663
21
-121.747
0
LINE
8
Black
10
256.663
20
-121.747
11
256.614
21
-121.765
0
LINE
8
Black
10
256.614
20
-121.765
11
256.561
21
-121.765
0
LINE
8
Black
10
256.561
20
-121.765
11
256.513
21
-121.747
0
LINE
8
Black
10
256.513
20
-121.747
11
256.473
21
-121.714
0
LINE
8
Black
10
256.473
20
-121.714
11
256.447
21
-121.669
0
LINE
8
Black
10
256.447
20
-121.669
11
256.438
21
-121.617
0
LINE
8
Black
10
256.438
20
-121.617
11
256.438
21
-120.57
0
LINE
8
Black
10
256.438
20
-120.57
11
256.439
21
-120.561
0
LINE
8
Black
10
256.439
20
-120.561
11
256.438
21
-120.552
0
LINE
8
Black
10
256.438
20
-120.552
11
256.443
21
-120.536
0
LINE
8
Black
10
256.443
20
-120.536
11
256.447
21
-120.518
0
LINE
8
Black
10
256.447
20
-120.518
11
256.451
21
-120.511
0
LINE
8
Black
10
256.451
20
-120.511
11
256.453
21
-120.503
0
LINE
8
Black
10
256.453
20
-120.503
11
256.549
21
-120.312
0
LINE
8
Black
10
256.549
20
-120.312
11
256.562
21
-120.294
0
LINE
8
Black
10
256.562
20
-120.294
11
256.574
21
-120.276
0
LINE
8
Black
10
256.574
20
-120.276
11
256.577
21
-120.274
0
LINE
8
Black
10
256.577
20
-120.274
11
256.58
21
-120.27
0
LINE
8
Black
10
256.58
20
-120.27
11
256.598
21
-120.258
0
LINE
8
Black
10
256.598
20
-120.258
11
256.616
21
-120.245
0
LINE
8
Black
10
256.616
20
-120.245
11
256.806
21
-120.15
0
LINE
8
Black
10
256.806
20
-120.15
11
256.814
21
-120.147
0
LINE
8
Black
10
256.814
20
-120.147
11
256.822
21
-120.143
0
LINE
8
Black
10
256.822
20
-120.143
11
256.839
21
-120.14
0
LINE
8
Black
10
256.839
20
-120.14
11
256.856
21
-120.135
0
LINE
8
Black
10
256.856
20
-120.135
11
256.865
21
-120.135
0
LINE
8
Black
10
256.865
20
-120.135
11
256.873
21
-120.134
0
LINE
8
Black
10
256.873
20
-120.134
11
257.254
21
-120.134
0
LINE
8
Black
10
257.254
20
-120.134
11
257.263
21
-120.135
0
LINE
8
Black
10
256.738
20
-121.429
11
256.813
21
-121.467
0
LINE
8
Black
10
256.813
20
-121.467
11
257.219
21
-121.467
0
LINE
8
Black
10
257.219
20
-121.467
11
257.333
21
-121.41
0
LINE
8
Black
10
257.333
20
-121.41
11
257.39
21
-121.296
0
LINE
8
Black
10
257.39
20
-121.296
11
257.39
21
-121.176
0
LINE
8
Black
10
257.39
20
-121.176
11
257.333
21
-121.062
0
LINE
8
Black
10
257.333
20
-121.062
11
257.219
21
-121.005
0
LINE
8
Black
10
257.219
20
-121.005
11
256.778
21
-121.005
0
LINE
8
Black
10
256.778
20
-121.005
11
256.769
21
-121.004
0
LINE
8
Black
10
256.769
20
-121.004
11
256.761
21
-121.004
0
LINE
8
Black
10
256.761
20
-121.004
11
256.744
21
-120.999
0
LINE
8
Black
10
256.744
20
-120.999
11
256.738
21
-120.998
0
LINE
8
Black
10
256.738
20
-120.998
11
256.738
21
-121.429
0
LINE
8
Black
10
253.02
20
-119.476
11
253.065
21
-119.502
0
LINE
8
Black
10
253.065
20
-119.502
11
253.098
21
-119.542
0
LINE
8
Black
10
253.098
20
-119.542
11
253.116
21
-119.591
0
LINE
8
Black
10
253.116
20
-119.591
11
253.116
21
-119.643
0
LINE
8
Black
10
253.116
20
-119.643
11
253.098
21
-119.692
0
LINE
8
Black
10
253.098
20
-119.692
11
253.065
21
-119.732
0
LINE
8
Black
10
253.065
20
-119.732
11
253.02
21
-119.758
0
LINE
8
Black
10
253.02
20
-119.758
11
252.968
21
-119.767
0
LINE
8
Black
10
252.968
20
-119.767
11
252.061
21
-119.767
0
LINE
8
Black
10
252.061
20
-119.767
11
252.51
21
-120.28
0
LINE
8
Black
10
252.51
20
-120.28
11
252.518
21
-120.293
0
LINE
8
Black
10
252.518
20
-120.293
11
252.527
21
-120.304
0
LINE
8
Black
10
252.527
20
-120.304
11
252.531
21
-120.315
0
LINE
8
Black
10
252.531
20
-120.315
11
252.537
21
-120.325
0
LINE
8
Black
10
252.537
20
-120.325
11
252.54
21
-120.339
0
LINE
8
Black
10
252.54
20
-120.339
11
252.545
21
-120.353
0
LINE
8
Black
10
252.545
20
-120.353
11
252.545
21
-120.365
0
LINE
8
Black
10
252.545
20
-120.365
11
252.547
21
-120.376
0
LINE
8
Black
10
252.547
20
-120.376
11
252.545
21
-120.391
0
LINE
8
Black
10
252.545
20
-120.391
11
252.545
21
-120.405
0
LINE
8
Black
10
252.545
20
-120.405
11
252.541
21
-120.416
0
LINE
8
Black
10
252.541
20
-120.416
11
252.539
21
-120.428
0
LINE
8
Black
10
252.539
20
-120.428
11
252.532
21
-120.44
0
LINE
8
Black
10
252.532
20
-120.44
11
252.527
21
-120.454
0
LINE
8
Black
10
252.527
20
-120.454
11
252.519
21
-120.463
0
LINE
8
Black
10
252.519
20
-120.463
11
252.514
21
-120.473
0
LINE
8
Black
10
252.514
20
-120.473
11
252.503
21
-120.483
0
LINE
8
Black
10
252.503
20
-120.483
11
252.493
21
-120.494
0
LINE
8
Black
10
252.493
20
-120.494
11
252.483
21
-120.5
0
LINE
8
Black
10
252.483
20
-120.5
11
252.475
21
-120.507
0
LINE
8
Black
10
252.475
20
-120.507
11
252.461
21
-120.513
0
LINE
8
Black
10
252.461
20
-120.513
11
252.448
21
-120.52
0
LINE
8
Black
10
252.448
20
-120.52
11
252.437
21
-120.522
0
LINE
8
Black
10
252.437
20
-120.522
11
252.426
21
-120.526
0
LINE
8
Black
10
252.426
20
-120.526
11
252.411
21
-120.527
0
LINE
8
Black
10
252.411
20
-120.527
11
252.397
21
-120.529
0
LINE
8
Black
10
252.397
20
-120.529
11
252.147
21
-120.529
0
LINE
8
Black
10
252.147
20
-120.529
11
252.01
21
-120.598
0
LINE
8
Black
10
252.01
20
-120.598
11
251.949
21
-120.658
0
LINE
8
Black
10
251.949
20
-120.658
11
251.88
21
-120.796
0
LINE
8
Black
10
251.88
20
-120.796
11
251.88
21
-121.201
0
LINE
8
Black
10
251.88
20
-121.201
11
251.949
21
-121.338
0
LINE
8
Black
10
251.949
20
-121.338
11
252.01
21
-121.399
0
LINE
8
Black
10
252.01
20
-121.399
11
252.147
21
-121.467
0
LINE
8
Black
10
252.147
20
-121.467
11
252.647
21
-121.467
0
LINE
8
Black
10
252.647
20
-121.467
11
252.784
21
-121.399
0
LINE
8
Black
10
252.784
20
-121.399
11
252.862
21
-121.321
0
LINE
8
Black
10
252.862
20
-121.321
11
252.905
21
-121.291
0
LINE
8
Black
10
252.905
20
-121.291
11
252.955
21
-121.277
0
LINE
8
Black
10
252.955
20
-121.277
11
253.007
21
-121.282
0
LINE
8
Black
10
253.007
20
-121.282
11
253.054
21
-121.304
0
LINE
8
Black
10
253.054
20
-121.304
11
253.091
21
-121.341
0
LINE
8
Black
10
253.091
20
-121.341
11
253.113
21
-121.388
0
LINE
8
Black
10
253.113
20
-121.388
11
253.118
21
-121.44
0
LINE
8
Black
10
253.118
20
-121.44
11
253.104
21
-121.49
0
LINE
8
Black
10
253.104
20
-121.49
11
253.075
21
-121.533
0
LINE
8
Black
10
253.075
20
-121.533
11
252.979
21
-121.628
0
LINE
8
Black
10
252.979
20
-121.628
11
252.96
21
-121.642
0
LINE
8
Black
10
252.96
20
-121.642
11
252.94
21
-121.656
0
LINE
8
Black
10
252.94
20
-121.656
11
252.75
21
-121.751
0
LINE
8
Black
10
252.75
20
-121.751
11
252.742
21
-121.754
0
LINE
8
Black
10
252.742
20
-121.754
11
252.734
21
-121.758
0
LINE
8
Black
10
252.734
20
-121.758
11
252.717
21
-121.761
0
LINE
8
Black
10
252.717
20
-121.761
11
252.7
21
-121.766
0
LINE
8
Black
10
252.7
20
-121.766
11
252.691
21
-121.766
0
LINE
8
Black
10
252.691
20
-121.766
11
252.683
21
-121.767
0
LINE
8
Black
10
252.683
20
-121.767
11
252.111
21
-121.767
0
LINE
8
Black
10
252.111
20
-121.767
11
252.103
21
-121.766
0
LINE
8
Black
10
252.103
20
-121.766
11
252.094
21
-121.766
0
LINE
8
Black
10
252.094
20
-121.766
11
252.077
21
-121.761
0
LINE
8
Black
10
252.077
20
-121.761
11
252.06
21
-121.758
0
LINE
8
Black
10
252.06
20
-121.758
11
252.053
21
-121.754
0
LINE
8
Black
10
252.053
20
-121.754
11
252.044
21
-121.751
0
LINE
8
Black
10
252.044
20
-121.751
11
251.854
21
-121.656
0
LINE
8
Black
10
251.854
20
-121.656
11
251.834
21
-121.642
0
LINE
8
Black
10
251.834
20
-121.642
11
251.815
21
-121.628
0
LINE
8
Black
10
251.815
20
-121.628
11
251.72
21
-121.533
0
LINE
8
Black
10
251.72
20
-121.533
11
251.706
21
-121.513
0
LINE
8
Black
10
251.706
20
-121.513
11
251.691
21
-121.494
0
LINE
8
Black
10
251.691
20
-121.494
11
251.596
21
-121.303
0
LINE
8
Black
10
251.596
20
-121.303
11
251.594
21
-121.295
0
LINE
8
Black
10
251.594
20
-121.295
11
251.589
21
-121.288
0
LINE
8
Black
10
251.589
20
-121.288
11
251.586
21
-121.27
0
LINE
8
Black
10
251.586
20
-121.27
11
251.581
21
-121.253
0
LINE
8
Black
10
251.581
20
-121.253
11
251.582
21
-121.245
0
LINE
8
Black
10
251.582
20
-121.245
11
251.58
21
-121.236
0
LINE
8
Black
10
251.58
20
-121.236
11
251.58
21
-120.76
0
LINE
8
Black
10
251.58
20
-120.76
11
251.582
21
-120.752
0
LINE
8
Black
10
251.582
20
-120.752
11
251.581
21
-120.743
0
LINE
8
Black
10
251.581
20
-120.743
11
251.586
21
-120.726
0
LINE
8
Black
10
251.586
20
-120.726
11
251.589
21
-120.709
0
LINE
8
Black
10
251.589
20
-120.709
11
251.594
21
-120.701
0
LINE
8
Black
10
251.594
20
-120.701
11
251.596
21
-120.693
0
LINE
8
Black
10
251.596
20
-120.693
11
251.691
21
-120.503
0
LINE
8
Black
10
251.691
20
-120.503
11
251.706
21
-120.483
0
LINE
8
Black
10
251.706
20
-120.483
11
251.72
21
-120.464
0
LINE
8
Black
10
251.72
20
-120.464
11
251.815
21
-120.368
0
LINE
8
Black
10
251.815
20
-120.368
11
251.834
21
-120.355
0
LINE
8
Black
10
251.834
20
-120.355
11
251.854
21
-120.34
0
LINE
8
Black
10
251.854
20
-120.34
11
252.044
21
-120.245
0
LINE
8
Black
10
252.044
20
-120.245
11
252.053
21
-120.243
0
LINE
8
Black
10
252.053
20
-120.243
11
252.06
21
-120.238
0
LINE
8
Black
10
252.06
20
-120.238
11
252.072
21
-120.236
0
LINE
8
Black
10
252.072
20
-120.236
11
251.617
21
-119.716
0
LINE
8
Black
10
251.617
20
-119.716
11
251.61
21
-119.703
0
LINE
8
Black
10
251.61
20
-119.703
11
251.6
21
-119.692
0
LINE
8
Black
10
251.6
20
-119.692
11
251.596
21
-119.681
0
LINE
8
Black
10
251.596
20
-119.681
11
251.59
21
-119.671
0
LINE
8
Black
10
251.59
20
-119.671
11
251.588
21
-119.657
0
LINE
8
Black
10
251.588
20
-119.657
11
251.583
21
-119.643
0
LINE
8
Black
10
251.583
20
-119.643
11
251.583
21
-119.632
0
LINE
8
Black
10
251.583
20
-119.632
11
251.58
21
-119.62
0
LINE
8
Black
10
251.58
20
-119.62
11
251.583
21
-119.606
0
LINE
8
Black
10
251.583
20
-119.606
11
251.583
21
-119.591
0
LINE
8
Black
10
251.583
20
-119.591
11
251.587
21
-119.58
0
LINE
8
Black
10
251.587
20
-119.58
11
251.588
21
-119.569
0
LINE
8
Black
10
251.588
20
-119.569
11
251.595
21
-119.556
0
LINE
8
Black
10
251.595
20
-119.556
11
251.6
21
-119.542
0
LINE
8
Black
10
251.6
20
-119.542
11
251.608
21
-119.533
0
LINE
8
Black
10
251.608
20
-119.533
11
251.613
21
-119.523
0
LINE
8
Black
10
251.613
20
-119.523
11
251.625
21
-119.514
0
LINE
8
Black
10
251.625
20
-119.514
11
251.634
21
-119.502
0
LINE
8
Black
10
251.634
20
-119.502
11
251.644
21
-119.497
0
LINE
8
Black
10
251.644
20
-119.497
11
251.653
21
-119.489
0
LINE
8
Black
10
251.653
20
-119.489
11
251.666
21
-119.484
0
LINE
8
Black
10
251.666
20
-119.484
11
251.679
21
-119.476
0
LINE
8
Black
10
251.679
20
-119.476
11
251.69
21
-119.474
0
LINE
8
Black
10
251.69
20
-119.474
11
251.701
21
-119.47
0
LINE
8
Black
10
251.701
20
-119.47
11
251.716
21
-119.47
0
LINE
8
Black
10
251.716
20
-119.47
11
251.73
21
-119.467
0
LINE
8
Black
10
251.73
20
-119.467
11
252.968
21
-119.467
0
LINE
8
Black
10
252.968
20
-119.467
11
253.02
21
-119.476
0
LINE
8
Black
10
247.072
20
-120.135
11
247.081
21
-120.135
0
LINE
8
Black
10
247.081
20
-120.135
11
247.098
21
-120.14
0
LINE
8
Black
10
247.098
20
-120.14
11
247.115
21
-120.143
0
LINE
8
Black
10
247.115
20
-120.143
11
247.122
21
-120.147
0
LINE
8
Black
10
247.122
20
-120.147
11
247.131
21
-120.15
0
LINE
8
Black
10
247.131
20
-120.15
11
247.321
21
-120.245
0
LINE
8
Black
10
247.321
20
-120.245
11
247.339
21
-120.258
0
LINE
8
Black
10
247.339
20
-120.258
11
247.357
21
-120.27
0
LINE
8
Black
10
247.357
20
-120.27
11
247.36
21
-120.274
0
LINE
8
Black
10
247.36
20
-120.274
11
247.363
21
-120.276
0
LINE
8
Black
10
247.363
20
-120.276
11
247.375
21
-120.294
0
LINE
8
Black
10
247.375
20
-120.294
11
247.388
21
-120.312
0
LINE
8
Black
10
247.388
20
-120.312
11
247.484
21
-120.503
0
LINE
8
Black
10
247.484
20
-120.503
11
247.486
21
-120.511
0
LINE
8
Black
10
247.486
20
-120.511
11
247.49
21
-120.518
0
LINE
8
Black
10
247.49
20
-120.518
11
247.493
21
-120.536
0
LINE
8
Black
10
247.493
20
-120.536
11
247.498
21
-120.552
0
LINE
8
Black
10
247.498
20
-120.552
11
247.498
21
-120.561
0
LINE
8
Black
10
247.498
20
-120.561
11
247.499
21
-120.57
0
LINE
8
Black
10
247.499
20
-120.57
11
247.499
21
-121.332
0
LINE
8
Black
10
247.499
20
-121.332
11
247.498
21
-121.34
0
LINE
8
Black
10
247.498
20
-121.34
11
247.498
21
-121.349
0
LINE
8
Black
10
247.498
20
-121.349
11
247.493
21
-121.366
0
LINE
8
Black
10
247.493
20
-121.366
11
247.49
21
-121.383
0
LINE
8
Black
10
247.49
20
-121.383
11
247.486
21
-121.39
0
LINE
8
Black
10
247.486
20
-121.39
11
247.484
21
-121.399
0
LINE
8
Black
10
247.484
20
-121.399
11
247.388
21
-121.589
0
LINE
8
Black
10
247.388
20
-121.589
11
247.375
21
-121.607
0
LINE
8
Black
10
247.375
20
-121.607
11
247.363
21
-121.625
0
LINE
8
Black
10
247.363
20
-121.625
11
247.36
21
-121.628
0
LINE
8
Black
10
247.36
20
-121.628
11
247.357
21
-121.631
0
LINE
8
Black
10
247.357
20
-121.631
11
247.339
21
-121.643
0
LINE
8
Black
10
247.339
20
-121.643
11
247.321
21
-121.656
0
LINE
8
Black
10
247.321
20
-121.656
11
247.131
21
-121.751
0
LINE
8
Black
10
247.131
20
-121.751
11
247.122
21
-121.754
0
LINE
8
Black
10
247.122
20
-121.754
11
247.115
21
-121.758
0
LINE
8
Black
10
247.115
20
-121.758
11
247.098
21
-121.761
0
LINE
8
Black
10
247.098
20
-121.761
11
247.081
21
-121.766
0
LINE
8
Black
10
247.081
20
-121.766
11
247.072
21
-121.766
0
LINE
8
Black
10
247.072
20
-121.766
11
247.064
21
-121.767
0
LINE
8
Black
10
247.064
20
-121.767
11
246.683
21
-121.767
0
LINE
8
Black
10
246.683
20
-121.767
11
246.674
21
-121.766
0
LINE
8
Black
10
246.674
20
-121.766
11
246.666
21
-121.766
0
LINE
8
Black
10
246.666
20
-121.766
11
246.649
21
-121.761
0
LINE
8
Black
10
246.649
20
-121.761
11
246.631
21
-121.758
0
LINE
8
Black
10
246.631
20
-121.758
11
246.624
21
-121.754
0
LINE
8
Black
10
246.624
20
-121.754
11
246.616
21
-121.751
0
LINE
8
Black
10
246.616
20
-121.751
11
246.425
21
-121.656
0
LINE
8
Black
10
246.425
20
-121.656
11
246.383
21
-121.625
0
LINE
8
Black
10
246.383
20
-121.625
11
246.355
21
-121.582
0
LINE
8
Black
10
246.355
20
-121.582
11
246.343
21
-121.531
0
LINE
8
Black
10
246.343
20
-121.531
11
246.348
21
-121.479
0
LINE
8
Black
10
246.348
20
-121.479
11
246.372
21
-121.433
0
LINE
8
Black
10
246.372
20
-121.433
11
246.41
21
-121.397
0
LINE
8
Black
10
246.41
20
-121.397
11
246.457
21
-121.376
0
LINE
8
Black
10
246.457
20
-121.376
11
246.509
21
-121.373
0
LINE
8
Black
10
246.509
20
-121.373
11
246.559
21
-121.388
0
LINE
8
Black
10
246.559
20
-121.388
11
246.718
21
-121.467
0
LINE
8
Black
10
246.718
20
-121.467
11
247.028
21
-121.467
0
LINE
8
Black
10
247.028
20
-121.467
11
247.142
21
-121.41
0
LINE
8
Black
10
247.142
20
-121.41
11
247.199
21
-121.296
0
LINE
8
Black
10
247.199
20
-121.296
11
247.199
21
-121.074
0
LINE
8
Black
10
247.199
20
-121.074
11
246.368
21
-120.907
0
LINE
8
Black
10
246.368
20
-120.907
11
246.345
21
-120.898
0
LINE
8
Black
10
246.345
20
-120.898
11
246.322
21
-120.89
0
LINE
8
Black
10
246.322
20
-120.89
11
246.321
21
-120.889
0
LINE
8
Black
10
246.321
20
-120.889
11
246.319
21
-120.888
0
LINE
8
Black
10
246.319
20
-120.888
11
246.301
21
-120.872
0
LINE
8
Black
10
246.301
20
-120.872
11
246.282
21
-120.857
0
LINE
8
Black
10
246.282
20
-120.857
11
246.281
21
-120.855
0
LINE
8
Black
10
246.281
20
-120.855
11
246.28
21
-120.854
0
LINE
8
Black
10
246.28
20
-120.854
11
246.268
21
-120.833
0
LINE
8
Black
10
246.268
20
-120.833
11
246.256
21
-120.811
0
LINE
8
Black
10
246.256
20
-120.811
11
246.256
21
-120.81
0
LINE
8
Black
10
246.256
20
-120.81
11
246.255
21
-120.808
0
LINE
8
Black
10
246.255
20
-120.808
11
246.251
21
-120.784
0
LINE
8
Black
10
246.251
20
-120.784
11
246.247
21
-120.76
0
LINE
8
Black
10
246.247
20
-120.76
11
246.247
21
-120.57
0
LINE
8
Black
10
246.247
20
-120.57
11
246.249
21
-120.561
0
LINE
8
Black
10
246.249
20
-120.561
11
246.248
21
-120.552
0
LINE
8
Black
10
246.248
20
-120.552
11
246.253
21
-120.536
0
LINE
8
Black
10
246.253
20
-120.536
11
246.256
21
-120.518
0
LINE
8
Black
10
246.256
20
-120.518
11
246.26
21
-120.511
0
LINE
8
Black
10
246.26
20
-120.511
11
246.263
21
-120.503
0
LINE
8
Black
10
246.263
20
-120.503
11
246.358
21
-120.312
0
LINE
8
Black
10
246.358
20
-120.312
11
246.371
21
-120.294
0
LINE
8
Black
10
246.371
20
-120.294
11
246.383
21
-120.276
0
LINE
8
Black
10
246.383
20
-120.276
11
246.387
21
-120.274
0
LINE
8
Black
10
246.387
20
-120.274
11
246.389
21
-120.27
0
LINE
8
Black
10
246.389
20
-120.27
11
246.408
21
-120.258
0
LINE
8
Black
10
246.408
20
-120.258
11
246.425
21
-120.245
0
LINE
8
Black
10
246.425
20
-120.245
11
246.616
21
-120.15
0
LINE
8
Black
10
246.616
20
-120.15
11
246.624
21
-120.147
0
LINE
8
Black
10
246.624
20
-120.147
11
246.631
21
-120.143
0
LINE
8
Black
10
246.631
20
-120.143
11
246.649
21
-120.14
0
LINE
8
Black
10
246.649
20
-120.14
11
246.666
21
-120.135
0
LINE
8
Black
10
246.666
20
-120.135
11
246.674
21
-120.135
0
LINE
8
Black
10
246.674
20
-120.135
11
246.683
21
-120.134
0
LINE
8
Black
10
246.683
20
-120.134
11
247.064
21
-120.134
0
LINE
8
Black
10
247.064
20
-120.134
11
247.072
21
-120.135
0
LINE
8
Black
10
246.718
20
-120.434
11
246.604
21
-120.491
0
LINE
8
Black
10
246.604
20
-120.491
11
246.547
21
-120.605
0
LINE
8
Black
10
246.547
20
-120.605
11
246.547
21
-120.637
0
LINE
8
Black
10
246.547
20
-120.637
11
247.199
21
-120.768
0
LINE
8
Black
10
247.199
20
-120.768
11
247.199
21
-120.605
0
LINE
8
Black
10
247.199
20
-120.605
11
247.142
21
-120.491
0
LINE
8
Black
10
247.142
20
-120.491
11
247.028
21
-120.434
0
LINE
8
Black
10
247.028
20
-120.434
11
246.718
21
-120.434
0
LINE
8
Black
10
250.873
20
-121.278
11
250.886
21
-121.277
0
LINE
8
Black
10
250.886
20
-121.277
11
250.893
21
-121.279
0
LINE
8
Black
10
250.893
20
-121.279
11
250.899
21
-121.279
0
LINE
8
Black
10
250.899
20
-121.279
11
250.905
21
-121.281
0
LINE
8
Black
10
250.905
20
-121.281
11
250.912
21
-121.282
0
LINE
8
Black
10
250.912
20
-121.282
11
250.924
21
-121.287
0
LINE
8
Black
10
250.924
20
-121.287
11
250.937
21
-121.291
0
LINE
8
Black
10
250.937
20
-121.291
11
250.942
21
-121.295
0
LINE
8
Black
10
250.942
20
-121.295
11
250.948
21
-121.297
0
LINE
8
Black
10
250.948
20
-121.297
11
250.953
21
-121.301
0
LINE
8
Black
10
250.953
20
-121.301
11
250.959
21
-121.304
0
LINE
8
Black
10
250.959
20
-121.304
11
250.969
21
-121.313
0
LINE
8
Black
10
250.969
20
-121.313
11
250.979
21
-121.321
0
LINE
8
Black
10
250.979
20
-121.321
11
251.075
21
-121.416
0
LINE
8
Black
10
251.075
20
-121.416
11
251.082
21
-121.427
0
LINE
8
Black
10
251.082
20
-121.427
11
251.091
21
-121.436
0
LINE
8
Black
10
251.091
20
-121.436
11
251.097
21
-121.448
0
LINE
8
Black
10
251.097
20
-121.448
11
251.104
21
-121.459
0
LINE
8
Black
10
251.104
20
-121.459
11
251.108
21
-121.471
0
LINE
8
Black
10
251.108
20
-121.471
11
251.113
21
-121.483
0
LINE
8
Black
10
251.113
20
-121.483
11
251.114
21
-121.496
0
LINE
8
Black
10
251.114
20
-121.496
11
251.118
21
-121.509
0
LINE
8
Black
10
251.118
20
-121.509
11
251.117
21
-121.522
0
LINE
8
Black
10
251.117
20
-121.522
11
251.118
21
-121.535
0
LINE
8
Black
10
251.118
20
-121.535
11
251.114
21
-121.548
0
LINE
8
Black
10
251.114
20
-121.548
11
251.113
21
-121.561
0
LINE
8
Black
10
251.113
20
-121.561
11
251.108
21
-121.573
0
LINE
8
Black
10
251.108
20
-121.573
11
251.104
21
-121.585
0
LINE
8
Black
10
251.104
20
-121.585
11
251.097
21
-121.596
0
LINE
8
Black
10
251.097
20
-121.596
11
251.091
21
-121.608
0
LINE
8
Black
10
251.091
20
-121.608
11
251.082
21
-121.617
0
LINE
8
Black
10
251.082
20
-121.617
11
251.075
21
-121.628
0
LINE
8
Black
10
251.075
20
-121.628
11
250.979
21
-121.723
0
LINE
8
Black
10
250.979
20
-121.723
11
250.969
21
-121.731
0
LINE
8
Black
10
250.969
20
-121.731
11
250.959
21
-121.74
0
LINE
8
Black
10
250.959
20
-121.74
11
250.953
21
-121.743
0
LINE
8
Black
10
250.953
20
-121.743
11
250.948
21
-121.747
0
LINE
8
Black
10
250.948
20
-121.747
11
250.942
21
-121.749
0
LINE
8
Black
10
250.942
20
-121.749
11
250.937
21
-121.753
0
LINE
8
Black
10
250.937
20
-121.753
11
250.924
21
-121.757
0
LINE
8
Black
10
250.924
20
-121.757
11
250.912
21
-121.762
0
LINE
8
Black
10
250.912
20
-121.762
11
250.905
21
-121.763
0
LINE
8
Black
10
250.905
20
-121.763
11
250.899
21
-121.765
0
LINE
8
Black
10
250.899
20
-121.765
11
250.893
21
-121.765
0
LINE
8
Black
10
250.893
20
-121.765
11
250.886
21
-121.767
0
LINE
8
Black
10
250.886
20
-121.767
11
250.873
21
-121.766
0
LINE
8
Black
10
250.873
20
-121.766
11
250.86
21
-121.767
0
LINE
8
Black
10
250.86
20
-121.767
11
250.854
21
-121.765
0
LINE
8
Black
10
250.854
20
-121.765
11
250.847
21
-121.765
0
LINE
8
Black
10
250.847
20
-121.765
11
250.841
21
-121.763
0
LINE
8
Black
10
250.841
20
-121.763
11
250.834
21
-121.762
0
LINE
8
Black
10
250.834
20
-121.762
11
250.822
21
-121.757
0
LINE
8
Black
10
250.822
20
-121.757
11
250.81
21
-121.753
0
LINE
8
Black
10
250.81
20
-121.753
11
250.804
21
-121.749
0
LINE
8
Black
10
250.804
20
-121.749
11
250.798
21
-121.747
0
LINE
8
Black
10
250.798
20
-121.747
11
250.793
21
-121.743
0
LINE
8
Black
10
250.793
20
-121.743
11
250.787
21
-121.74
0
LINE
8
Black
10
250.787
20
-121.74
11
250.778
21
-121.731
0
LINE
8
Black
10
250.778
20
-121.731
11
250.767
21
-121.723
0
LINE
8
Black
10
250.767
20
-121.723
11
250.672
21
-121.628
0
LINE
8
Black
10
250.672
20
-121.628
11
250.664
21
-121.617
0
LINE
8
Black
10
250.664
20
-121.617
11
250.655
21
-121.608
0
LINE
8
Black
10
250.655
20
-121.608
11
250.65
21
-121.596
0
LINE
8
Black
10
250.65
20
-121.596
11
250.642
21
-121.585
0
LINE
8
Black
10
250.642
20
-121.585
11
250.639
21
-121.573
0
LINE
8
Black
10
250.639
20
-121.573
11
250.633
21
-121.561
0
LINE
8
Black
10
250.633
20
-121.561
11
250.632
21
-121.548
0
LINE
8
Black
10
250.632
20
-121.548
11
250.629
21
-121.535
0
LINE
8
Black
10
250.629
20
-121.535
11
250.63
21
-121.522
0
LINE
8
Black
10
250.63
20
-121.522
11
250.629
21
-121.509
0
LINE
8
Black
10
250.629
20
-121.509
11
250.632
21
-121.496
0
LINE
8
Black
10
250.632
20
-121.496
11
250.633
21
-121.483
0
LINE
8
Black
10
250.633
20
-121.483
11
250.639
21
-121.471
0
LINE
8
Black
10
250.639
20
-121.471
11
250.642
21
-121.459
0
LINE
8
Black
10
250.642
20
-121.459
11
250.65
21
-121.448
0
LINE
8
Black
10
250.65
20
-121.448
11
250.655
21
-121.436
0
LINE
8
Black
10
250.655
20
-121.436
11
250.664
21
-121.427
0
LINE
8
Black
10
250.664
20
-121.427
11
250.672
21
-121.416
0
LINE
8
Black
10
250.672
20
-121.416
11
250.767
21
-121.321
0
LINE
8
Black
10
250.767
20
-121.321
11
250.778
21
-121.313
0
LINE
8
Black
10
250.778
20
-121.313
11
250.787
21
-121.304
0
LINE
8
Black
10
250.787
20
-121.304
11
250.793
21
-121.301
0
LINE
8
Black
10
250.793
20
-121.301
11
250.798
21
-121.297
0
LINE
8
Black
10
250.798
20
-121.297
11
250.804
21
-121.295
0
LINE
8
Black
10
250.804
20
-121.295
11
250.81
21
-121.291
0
LINE
8
Black
10
250.81
20
-121.291
11
250.822
21
-121.287
0
LINE
8
Black
10
250.822
20
-121.287
11
250.834
21
-121.282
0
LINE
8
Black
10
250.834
20
-121.282
11
250.841
21
-121.281
0
LINE
8
Black
10
250.841
20
-121.281
11
250.847
21
-121.279
0
LINE
8
Black
10
250.847
20
-121.279
11
250.854
21
-121.279
0
LINE
8
Black
10
250.854
20
-121.279
11
250.86
21
-121.277
0
LINE
8
Black
10
250.86
20
-121.277
11
250.873
21
-121.278
0
LINE
8
Black
10
258.397
20
-121.278
11
258.41
21
-121.277
0
LINE
8
Black
10
258.41
20
-121.277
11
258.416
21
-121.279
0
LINE
8
Black
10
258.416
20
-121.279
11
258.423
21
-121.279
0
LINE
8
Black
10
258.423
20
-121.279
11
258.429
21
-121.281
0
LINE
8
Black
10
258.429
20
-121.281
11
258.436
21
-121.282
0
LINE
8
Black
10
258.436
20
-121.282
11
258.448
21
-121.287
0
LINE
8
Black
10
258.448
20
-121.287
11
258.46
21
-121.291
0
LINE
8
Black
10
258.46
20
-121.291
11
258.466
21
-121.295
0
LINE
8
Black
10
258.466
20
-121.295
11
258.472
21
-121.297
0
LINE
8
Black
10
258.472
20
-121.297
11
258.477
21
-121.301
0
LINE
8
Black
10
258.477
20
-121.301
11
258.483
21
-121.304
0
LINE
8
Black
10
258.483
20
-121.304
11
258.492
21
-121.313
0
LINE
8
Black
10
258.492
20
-121.313
11
258.503
21
-121.321
0
LINE
8
Black
10
258.503
20
-121.321
11
258.598
21
-121.416
0
LINE
8
Black
10
258.598
20
-121.416
11
258.606
21
-121.427
0
LINE
8
Black
10
258.606
20
-121.427
11
258.615
21
-121.436
0
LINE
8
Black
10
258.615
20
-121.436
11
258.621
21
-121.448
0
LINE
8
Black
10
258.621
20
-121.448
11
258.628
21
-121.459
0
LINE
8
Black
10
258.628
20
-121.459
11
258.632
21
-121.471
0
LINE
8
Black
10
258.632
20
-121.471
11
258.637
21
-121.483
0
LINE
8
Black
10
258.637
20
-121.483
11
258.638
21
-121.496
0
LINE
8
Black
10
258.638
20
-121.496
11
258.642
21
-121.509
0
LINE
8
Black
10
258.642
20
-121.509
11
258.641
21
-121.522
0
LINE
8
Black
10
258.641
20
-121.522
11
258.642
21
-121.535
0
LINE
8
Black
10
258.642
20
-121.535
11
258.638
21
-121.548
0
LINE
8
Black
10
258.638
20
-121.548
11
258.637
21
-121.561
0
LINE
8
Black
10
258.637
20
-121.561
11
258.632
21
-121.573
0
LINE
8
Black
10
258.632
20
-121.573
11
258.628
21
-121.585
0
LINE
8
Black
10
258.628
20
-121.585
11
258.621
21
-121.596
0
LINE
8
Black
10
258.621
20
-121.596
11
258.615
21
-121.608
0
LINE
8
Black
10
258.615
20
-121.608
11
258.606
21
-121.617
0
LINE
8
Black
10
258.606
20
-121.617
11
258.598
21
-121.628
0
LINE
8
Black
10
258.598
20
-121.628
11
258.503
21
-121.723
0
LINE
8
Black
10
258.503
20
-121.723
11
258.492
21
-121.731
0
LINE
8
Black
10
258.492
20
-121.731
11
258.483
21
-121.74
0
LINE
8
Black
10
258.483
20
-121.74
11
258.477
21
-121.743
0
LINE
8
Black
10
258.477
20
-121.743
11
258.472
21
-121.747
0
LINE
8
Black
10
258.472
20
-121.747
11
258.466
21
-121.749
0
LINE
8
Black
10
258.466
20
-121.749
11
258.46
21
-121.753
0
LINE
8
Black
10
258.46
20
-121.753
11
258.448
21
-121.757
0
LINE
8
Black
10
258.448
20
-121.757
11
258.436
21
-121.762
0
LINE
8
Black
10
258.436
20
-121.762
11
258.429
21
-121.763
0
LINE
8
Black
10
258.429
20
-121.763
11
258.423
21
-121.765
0
LINE
8
Black
10
258.423
20
-121.765
11
258.416
21
-121.765
0
LINE
8
Black
10
258.416
20
-121.765
11
258.41
21
-121.767
0
LINE
8
Black
10
258.41
20
-121.767
11
258.397
21
-121.766
0
LINE
8
Black
10
258.397
20
-121.766
11
258.384
21
-121.767
0
LINE
8
Black
10
258.384
20
-121.767
11
258.378
21
-121.765
0
LINE
8
Black
10
258.378
20
-121.765
11
258.371
21
-121.765
0
LINE
8
Black
10
258.371
20
-121.765
11
258.365
21
-121.763
0
LINE
8
Black
10
258.365
20
-121.763
11
258.358
21
-121.762
0
LINE
8
Black
10
258.358
20
-121.762
11
258.346
21
-121.757
0
LINE
8
Black
10
258.346
20
-121.757
11
258.334
21
-121.753
0
LINE
8
Black
10
258.334
20
-121.753
11
258.328
21
-121.749
0
LINE
8
Black
10
258.328
20
-121.749
11
258.322
21
-121.747
0
LINE
8
Black
10
258.322
20
-121.747
11
258.317
21
-121.743
0
LINE
8
Black
10
258.317
20
-121.743
11
258.311
21
-121.74
0
LINE
8
Black
10
258.311
20
-121.74
11
258.302
21
-121.731
0
LINE
8
Black
10
258.302
20
-121.731
11
258.291
21
-121.723
0
LINE
8
Black
10
258.291
20
-121.723
11
258.196
21
-121.628
0
LINE
8
Black
10
258.196
20
-121.628
11
258.188
21
-121.617
0
LINE
8
Black
10
258.188
20
-121.617
11
258.179
21
-121.608
0
LINE
8
Black
10
258.179
20
-121.608
11
258.173
21
-121.596
0
LINE
8
Black
10
258.173
20
-121.596
11
258.166
21
-121.585
0
LINE
8
Black
10
258.166
20
-121.585
11
258.162
21
-121.573
0
LINE
8
Black
10
258.162
20
-121.573
11
258.157
21
-121.561
0
LINE
8
Black
10
258.157
20
-121.561
11
258.156
21
-121.548
0
LINE
8
Black
10
258.156
20
-121.548
11
258.152
21
-121.535
0
LINE
8
Black
10
258.152
20
-121.535
11
258.154
21
-121.522
0
LINE
8
Black
10
258.154
20
-121.522
11
258.152
21
-121.509
0
LINE
8
Black
10
258.152
20
-121.509
11
258.156
21
-121.496
0
LINE
8
Black
10
258.156
20
-121.496
11
258.157
21
-121.483
0
LINE
8
Black
10
258.157
20
-121.483
11
258.162
21
-121.471
0
LINE
8
Black
10
258.162
20
-121.471
11
258.166
21
-121.459
0
LINE
8
Black
10
258.166
20
-121.459
11
258.173
21
-121.448
0
LINE
8
Black
10
258.173
20
-121.448
11
258.179
21
-121.436
0
LINE
8
Black
10
258.179
20
-121.436
11
258.188
21
-121.427
0
LINE
8
Black
10
258.188
20
-121.427
11
258.196
21
-121.416
0
LINE
8
Black
10
258.196
20
-121.416
11
258.291
21
-121.321
0
LINE
8
Black
10
258.291
20
-121.321
11
258.302
21
-121.313
0
LINE
8
Black
10
258.302
20
-121.313
11
258.311
21
-121.304
0
LINE
8
Black
10
258.311
20
-121.304
11
258.317
21
-121.301
0
LINE
8
Black
10
258.317
20
-121.301
11
258.322
21
-121.297
0
LINE
8
Black
10
258.322
20
-121.297
11
258.328
21
-121.295
0
LINE
8
Black
10
258.328
20
-121.295
11
258.334
21
-121.291
0
LINE
8
Black
10
258.334
20
-121.291
11
258.346
21
-121.287
0
LINE
8
Black
10
258.346
20
-121.287
11
258.358
21
-121.282
0
LINE
8
Black
10
258.358
20
-121.282
11
258.365
21
-121.281
0
LINE
8
Black
10
258.365
20
-121.281
11
258.371
21
-121.279
0
LINE
8
Black
10
258.371
20
-121.279
11
258.378
21
-121.279
0
LINE
8
Black
10
258.378
20
-121.279
11
258.384
21
-121.277
0
LINE
8
Black
10
258.384
20
-121.277
11
258.397
21
-121.278
0
LINE
8
Black
10
264.939
20
-120.149
11
264.981
21
-120.18
0
LINE
8
Black
10
264.981
20
-120.18
11
265.01
21
-120.223
0
LINE
8
Black
10
265.01
20
-120.223
11
265.023
21
-120.273
0
LINE
8
Black
10
265.023
20
-120.273
11
265.017
21
-120.325
0
LINE
8
Black
10
265.017
20
-120.325
11
264.636
21
-121.658
0
LINE
8
Black
10
264.636
20
-121.658
11
264.635
21
-121.661
0
LINE
8
Black
10
264.635
20
-121.661
11
264.635
21
-121.664
0
LINE
8
Black
10
264.635
20
-121.664
11
264.624
21
-121.685
0
LINE
8
Black
10
264.624
20
-121.685
11
264.614
21
-121.705
0
LINE
8
Black
10
264.614
20
-121.705
11
264.612
21
-121.707
0
LINE
8
Black
10
264.612
20
-121.707
11
264.61
21
-121.71
0
LINE
8
Black
10
264.61
20
-121.71
11
264.593
21
-121.725
0
LINE
8
Black
10
264.593
20
-121.725
11
264.576
21
-121.742
0
LINE
8
Black
10
264.576
20
-121.742
11
264.574
21
-121.743
0
LINE
8
Black
10
264.574
20
-121.743
11
264.571
21
-121.745
0
LINE
8
Black
10
264.571
20
-121.745
11
264.55
21
-121.753
0
LINE
8
Black
10
264.55
20
-121.753
11
264.529
21
-121.763
0
LINE
8
Black
10
264.529
20
-121.763
11
264.526
21
-121.763
0
LINE
8
Black
10
264.526
20
-121.763
11
264.523
21
-121.764
0
LINE
8
Black
10
264.523
20
-121.764
11
264.5
21
-121.765
0
LINE
8
Black
10
264.5
20
-121.765
11
264.477
21
-121.766
0
LINE
8
Black
10
264.477
20
-121.766
11
264.474
21
-121.766
0
LINE
8
Black
10
264.474
20
-121.766
11
264.471
21
-121.766
0
LINE
8
Black
10
264.471
20
-121.766
11
264.449
21
-121.758
0
LINE
8
Black
10
264.449
20
-121.758
11
264.427
21
-121.752
0
LINE
8
Black
10
264.427
20
-121.752
11
264.424
21
-121.75
0
LINE
8
Black
10
264.424
20
-121.75
11
264.421
21
-121.749
0
LINE
8
Black
10
264.421
20
-121.749
11
264.403
21
-121.735
0
LINE
8
Black
10
264.403
20
-121.735
11
264.384
21
-121.722
0
LINE
8
Black
10
264.384
20
-121.722
11
264.383
21
-121.719
0
LINE
8
Black
10
264.383
20
-121.719
11
264.38
21
-121.717
0
LINE
8
Black
10
264.38
20
-121.717
11
264.368
21
-121.698
0
LINE
8
Black
10
264.368
20
-121.698
11
264.355
21
-121.678
0
LINE
8
Black
10
264.355
20
-121.678
11
264.355
21
-121.676
0
LINE
8
Black
10
264.355
20
-121.676
11
264.353
21
-121.673
0
LINE
8
Black
10
264.353
20
-121.673
11
264.111
21
-121.069
0
LINE
8
Black
10
264.111
20
-121.069
11
263.87
21
-121.673
0
LINE
8
Black
10
263.87
20
-121.673
11
263.868
21
-121.676
0
LINE
8
Black
10
263.868
20
-121.676
11
263.867
21
-121.678
0
LINE
8
Black
10
263.867
20
-121.678
11
263.854
21
-121.698
0
LINE
8
Black
10
263.854
20
-121.698
11
263.842
21
-121.717
0
LINE
8
Black
10
263.842
20
-121.717
11
263.84
21
-121.719
0
LINE
8
Black
10
263.84
20
-121.719
11
263.838
21
-121.722
0
LINE
8
Black
10
263.838
20
-121.722
11
263.819
21
-121.735
0
LINE
8
Black
10
263.819
20
-121.735
11
263.801
21
-121.749
0
LINE
8
Black
10
263.801
20
-121.749
11
263.798
21
-121.75
0
LINE
8
Black
10
263.798
20
-121.75
11
263.796
21
-121.752
0
LINE
8
Black
10
263.796
20
-121.752
11
263.774
21
-121.758
0
LINE
8
Black
10
263.774
20
-121.758
11
263.752
21
-121.766
0
LINE
8
Black
10
263.752
20
-121.766
11
263.749
21
-121.766
0
LINE
8
Black
10
263.749
20
-121.766
11
263.746
21
-121.766
0
LINE
8
Black
10
263.746
20
-121.766
11
263.723
21
-121.765
0
LINE
8
Black
10
263.723
20
-121.765
11
263.7
21
-121.764
0
LINE
8
Black
10
263.7
20
-121.764
11
263.697
21
-121.763
0
LINE
8
Black
10
263.697
20
-121.763
11
263.694
21
-121.763
0
LINE
8
Black
10
263.694
20
-121.763
11
263.673
21
-121.753
0
LINE
8
Black
10
263.673
20
-121.753
11
263.651
21
-121.745
0
LINE
8
Black
10
263.651
20
-121.745
11
263.649
21
-121.743
0
LINE
8
Black
10
263.649
20
-121.743
11
263.646
21
-121.742
0
LINE
8
Black
10
263.646
20
-121.742
11
263.63
21
-121.725
0
LINE
8
Black
10
263.63
20
-121.725
11
263.612
21
-121.71
0
LINE
8
Black
10
263.612
20
-121.71
11
263.611
21
-121.707
0
LINE
8
Black
10
263.611
20
-121.707
11
263.609
21
-121.705
0
LINE
8
Black
10
263.609
20
-121.705
11
263.599
21
-121.685
0
LINE
8
Black
10
263.599
20
-121.685
11
263.588
21
-121.664
0
LINE
8
Black
10
263.588
20
-121.664
11
263.587
21
-121.661
0
LINE
8
Black
10
263.587
20
-121.661
11
263.586
21
-121.658
0
LINE
8
Black
10
263.586
20
-121.658
11
263.205
21
-120.325
0
LINE
8
Black
10
263.205
20
-120.325
11
263.2
21
-120.273
0
LINE
8
Black
10
263.2
20
-120.273
11
263.212
21
-120.223
0
LINE
8
Black
10
263.212
20
-120.223
11
263.242
21
-120.18
0
LINE
8
Black
10
263.242
20
-120.18
11
263.284
21
-120.149
0
LINE
8
Black
10
263.284
20
-120.149
11
263.334
21
-120.135
0
LINE
8
Black
10
263.334
20
-120.135
11
263.386
21
-120.138
0
LINE
8
Black
10
263.386
20
-120.138
11
263.433
21
-120.16
0
LINE
8
Black
10
263.433
20
-120.16
11
263.471
21
-120.196
0
LINE
8
Black
10
263.471
20
-120.196
11
263.494
21
-120.243
0
LINE
8
Black
10
263.494
20
-120.243
11
263.754
21
-121.154
0
LINE
8
Black
10
263.754
20
-121.154
11
263.972
21
-120.609
0
LINE
8
Black
10
263.972
20
-120.609
11
263.983
21
-120.591
0
LINE
8
Black
10
263.983
20
-120.591
11
263.993
21
-120.572
0
LINE
8
Black
10
263.993
20
-120.572
11
263.997
21
-120.569
0
LINE
8
Black
10
263.997
20
-120.569
11
263.999
21
-120.565
0
LINE
8
Black
10
263.999
20
-120.565
11
264.016
21
-120.552
0
LINE
8
Black
10
264.016
20
-120.552
11
264.032
21
-120.537
0
LINE
8
Black
10
264.032
20
-120.537
11
264.037
21
-120.536
0
LINE
8
Black
10
264.037
20
-120.536
11
264.04
21
-120.533
0
LINE
8
Black
10
264.04
20
-120.533
11
264.061
21
-120.526
0
LINE
8
Black
10
264.061
20
-120.526
11
264.081
21
-120.518
0
LINE
8
Black
10
264.081
20
-120.518
11
264.085
21
-120.518
0
LINE
8
Black
10
264.085
20
-120.518
11
264.09
21
-120.516
0
LINE
8
Black
10
264.09
20
-120.516
11
264.111
21
-120.517
0
LINE
8
Black
10
264.111
20
-120.517
11
264.133
21
-120.516
0
LINE
8
Black
10
264.133
20
-120.516
11
264.137
21
-120.518
0
LINE
8
Black
10
264.137
20
-120.518
11
264.142
21
-120.518
0
LINE
8
Black
10
264.142
20
-120.518
11
264.162
21
-120.526
0
LINE
8
Black
10
264.162
20
-120.526
11
264.182
21
-120.533
0
LINE
8
Black
10
264.182
20
-120.533
11
264.186
21
-120.536
0
LINE
8
Black
10
264.186
20
-120.536
11
264.19
21
-120.537
0
LINE
8
Black
10
264.19
20
-120.537
11
264.206
21
-120.552
0
LINE
8
Black
10
264.206
20
-120.552
11
264.223
21
-120.565
0
LINE
8
Black
10
264.223
20
-120.565
11
264.226
21
-120.569
0
LINE
8
Black
10
264.226
20
-120.569
11
264.229
21
-120.572
0
LINE
8
Black
10
264.229
20
-120.572
11
264.239
21
-120.591
0
LINE
8
Black
10
264.239
20
-120.591
11
264.251
21
-120.609
0
LINE
8
Black
10
264.251
20
-120.609
11
264.469
21
-121.154
0
LINE
8
Black
10
264.469
20
-121.154
11
264.729
21
-120.243
0
LINE
8
Black
10
264.729
20
-120.243
11
264.752
21
-120.196
0
LINE
8
Black
10
264.752
20
-120.196
11
264.789
21
-120.16
0
LINE
8
Black
10
264.789
20
-120.16
11
264.837
21
-120.138
0
LINE
8
Black
10
264.837
20
-120.138
11
264.889
21
-120.135
0
LINE
8
Black
10
264.889
20
-120.135
11
264.939
21
-120.149
0
LINE
8
Black
10
260.748
20
-120.149
11
260.791
21
-120.18
0
LINE
8
Black
10
260.791
20
-120.18
11
260.82
21
-120.223
0
LINE
8
Black
10
260.82
20
-120.223
11
260.832
21
-120.273
0
LINE
8
Black
10
260.832
20
-120.273
11
260.827
21
-120.325
0
LINE
8
Black
10
260.827
20
-120.325
11
260.446
21
-121.658
0
LINE
8
Black
10
260.446
20
-121.658
11
260.445
21
-121.661
0
LINE
8
Black
10
260.445
20
-121.661
11
260.444
21
-121.664
0
LINE
8
Black
10
260.444
20
-121.664
11
260.433
21
-121.685
0
LINE
8
Black
10
260.433
20
-121.685
11
260.423
21
-121.705
0
LINE
8
Black
10
260.423
20
-121.705
11
260.421
21
-121.707
0
LINE
8
Black
10
260.421
20
-121.707
11
260.42
21
-121.71
0
LINE
8
Black
10
260.42
20
-121.71
11
260.402
21
-121.725
0
LINE
8
Black
10
260.402
20
-121.725
11
260.386
21
-121.742
0
LINE
8
Black
10
260.386
20
-121.742
11
260.383
21
-121.743
0
LINE
8
Black
10
260.383
20
-121.743
11
260.381
21
-121.745
0
LINE
8
Black
10
260.381
20
-121.745
11
260.359
21
-121.753
0
LINE
8
Black
10
260.359
20
-121.753
11
260.338
21
-121.763
0
LINE
8
Black
10
260.338
20
-121.763
11
260.335
21
-121.763
0
LINE
8
Black
10
260.335
20
-121.763
11
260.332
21
-121.764
0
LINE
8
Black
10
260.332
20
-121.764
11
260.309
21
-121.765
0
LINE
8
Black
10
260.309
20
-121.765
11
260.286
21
-121.766
0
LINE
8
Black
10
260.286
20
-121.766
11
260.283
21
-121.766
0
LINE
8
Black
10
260.283
20
-121.766
11
260.28
21
-121.766
0
LINE
8
Black
10
260.28
20
-121.766
11
260.258
21
-121.758
0
LINE
8
Black
10
260.258
20
-121.758
11
260.236
21
-121.752
0
LINE
8
Black
10
260.236
20
-121.752
11
260.234
21
-121.75
0
LINE
8
Black
10
260.234
20
-121.75
11
260.231
21
-121.749
0
LINE
8
Black
10
260.231
20
-121.749
11
260.213
21
-121.735
0
LINE
8
Black
10
260.213
20
-121.735
11
260.194
21
-121.722
0
LINE
8
Black
10
260.194
20
-121.722
11
260.192
21
-121.719
0
LINE
8
Black
10
260.192
20
-121.719
11
260.19
21
-121.717
0
LINE
8
Black
10
260.19
20
-121.717
11
260.178
21
-121.698
0
LINE
8
Black
10
260.178
20
-121.698
11
260.165
21
-121.678
0
LINE
8
Black
10
260.165
20
-121.678
11
260.164
21
-121.676
0
LINE
8
Black
10
260.164
20
-121.676
11
260.163
21
-121.673
0
LINE
8
Black
10
260.163
20
-121.673
11
259.921
21
-121.069
0
LINE
8
Black
10
259.921
20
-121.069
11
259.679
21
-121.673
0
LINE
8
Black
10
259.679
20
-121.673
11
259.678
21
-121.676
0
LINE
8
Black
10
259.678
20
-121.676
11
259.677
21
-121.678
0
LINE
8
Black
10
259.677
20
-121.678
11
259.664
21
-121.698
0
LINE
8
Black
10
259.664
20
-121.698
11
259.652
21
-121.717
0
LINE
8
Black
10
259.652
20
-121.717
11
259.649
21
-121.719
0
LINE
8
Black
10
259.649
20
-121.719
11
259.648
21
-121.722
0
LINE
8
Black
10
259.648
20
-121.722
11
259.629
21
-121.735
0
LINE
8
Black
10
259.629
20
-121.735
11
259.611
21
-121.749
0
LINE
8
Black
10
259.611
20
-121.749
11
259.608
21
-121.75
0
LINE
8
Black
10
259.608
20
-121.75
11
259.606
21
-121.752
0
LINE
8
Black
10
259.606
20
-121.752
11
259.583
21
-121.758
0
LINE
8
Black
10
259.583
20
-121.758
11
259.561
21
-121.766
0
LINE
8
Black
10
259.561
20
-121.766
11
259.558
21
-121.766
0
LINE
8
Black
10
259.558
20
-121.766
11
259.555
21
-121.766
0
LINE
8
Black
10
259.555
20
-121.766
11
259.532
21
-121.765
0
LINE
8
Black
10
259.532
20
-121.765
11
259.509
21
-121.764
0
LINE
8
Black
10
259.509
20
-121.764
11
259.506
21
-121.763
0
LINE
8
Black
10
259.506
20
-121.763
11
259.503
21
-121.763
0
LINE
8
Black
10
259.503
20
-121.763
11
259.482
21
-121.753
0
LINE
8
Black
10
259.482
20
-121.753
11
259.461
21
-121.745
0
LINE
8
Black
10
259.461
20
-121.745
11
259.459
21
-121.743
0
LINE
8
Black
10
259.459
20
-121.743
11
259.456
21
-121.742
0
LINE
8
Black
10
259.456
20
-121.742
11
259.439
21
-121.725
0
LINE
8
Black
10
259.439
20
-121.725
11
259.422
21
-121.71
0
LINE
8
Black
10
259.422
20
-121.71
11
259.421
21
-121.707
0
LINE
8
Black
10
259.421
20
-121.707
11
259.418
21
-121.705
0
LINE
8
Black
10
259.418
20
-121.705
11
259.408
21
-121.685
0
LINE
8
Black
10
259.408
20
-121.685
11
259.397
21
-121.664
0
LINE
8
Black
10
259.397
20
-121.664
11
259.397
21
-121.661
0
LINE
8
Black
10
259.397
20
-121.661
11
259.396
21
-121.658
0
LINE
8
Black
10
259.396
20
-121.658
11
259.015
21
-120.325
0
LINE
8
Black
10
259.015
20
-120.325
11
259.009
21
-120.273
0
LINE
8
Black
10
259.009
20
-120.273
11
259.022
21
-120.223
0
LINE
8
Black
10
259.022
20
-120.223
11
259.051
21
-120.18
0
LINE
8
Black
10
259.051
20
-120.18
11
259.093
21
-120.149
0
LINE
8
Black
10
259.093
20
-120.149
11
259.143
21
-120.135
0
LINE
8
Black
10
259.143
20
-120.135
11
259.195
21
-120.138
0
LINE
8
Black
10
259.195
20
-120.138
11
259.243
21
-120.16
0
LINE
8
Black
10
259.243
20
-120.16
11
259.28
21
-120.196
0
LINE
8
Black
10
259.28
20
-120.196
11
259.303
21
-120.243
0
LINE
8
Black
10
259.303
20
-120.243
11
259.564
21
-121.154
0
LINE
8
Black
10
259.564
20
-121.154
11
259.782
21
-120.609
0
LINE
8
Black
10
259.782
20
-120.609
11
259.793
21
-120.591
0
LINE
8
Black
10
259.793
20
-120.591
11
259.803
21
-120.572
0
LINE
8
Black
10
259.803
20
-120.572
11
259.807
21
-120.569
0
LINE
8
Black
10
259.807
20
-120.569
11
259.809
21
-120.565
0
LINE
8
Black
10
259.809
20
-120.565
11
259.826
21
-120.552
0
LINE
8
Black
10
259.826
20
-120.552
11
259.842
21
-120.537
0
LINE
8
Black
10
259.842
20
-120.537
11
259.846
21
-120.536
0
LINE
8
Black
10
259.846
20
-120.536
11
259.85
21
-120.533
0
LINE
8
Black
10
259.85
20
-120.533
11
259.87
21
-120.526
0
LINE
8
Black
10
259.87
20
-120.526
11
259.89
21
-120.518
0
LINE
8
Black
10
259.89
20
-120.518
11
259.895
21
-120.518
0
LINE
8
Black
10
259.895
20
-120.518
11
259.899
21
-120.516
0
LINE
8
Black
10
259.899
20
-120.516
11
259.921
21
-120.517
0
LINE
8
Black
10
259.921
20
-120.517
11
259.942
21
-120.516
0
LINE
8
Black
10
259.942
20
-120.516
11
259.947
21
-120.518
0
LINE
8
Black
10
259.947
20
-120.518
11
259.952
21
-120.518
0
LINE
8
Black
10
259.952
20
-120.518
11
259.971
21
-120.526
0
LINE
8
Black
10
259.971
20
-120.526
11
259.992
21
-120.533
0
LINE
8
Black
10
259.992
20
-120.533
11
259.995
21
-120.536
0
LINE
8
Black
10
259.995
20
-120.536
11
260
21
-120.537
0
LINE
8
Black
10
260
20
-120.537
11
260.016
21
-120.552
0
LINE
8
Black
10
260.016
20
-120.552
11
260.033
21
-120.565
0
LINE
8
Black
10
260.033
20
-120.565
11
260.035
21
-120.569
0
LINE
8
Black
10
260.035
20
-120.569
11
260.039
21
-120.572
0
LINE
8
Black
10
260.039
20
-120.572
11
260.049
21
-120.591
0
LINE
8
Black
10
260.049
20
-120.591
11
260.06
21
-120.609
0
LINE
8
Black
10
260.06
20
-120.609
11
260.278
21
-121.154
0
LINE
8
Black
10
260.278
20
-121.154
11
260.539
21
-120.243
0
LINE
8
Black
10
260.539
20
-120.243
11
260.561
21
-120.196
0
LINE
8
Black
10
260.561
20
-120.196
11
260.599
21
-120.16
0
LINE
8
Black
10
260.599
20
-120.16
11
260.646
21
-120.138
0
LINE
8
Black
10
260.646
20
-120.138
11
260.698
21
-120.135
0
LINE
8
Black
10
260.698
20
-120.135
11
260.748
21
-120.149
0
LINE
8
Black
10
262.844
20
-120.149
11
262.886
21
-120.18
0
LINE
8
Black
10
262.886
20
-120.18
11
262.915
21
-120.223
0
LINE
8
Black
10
262.915
20
-120.223
11
262.928
21
-120.273
0
LINE
8
Black
10
262.928
20
-120.273
11
262.922
21
-120.325
0
LINE
8
Black
10
262.922
20
-120.325
11
262.541
21
-121.658
0
LINE
8
Black
10
262.541
20
-121.658
11
262.54
21
-121.661
0
LINE
8
Black
10
262.54
20
-121.661
11
262.54
21
-121.664
0
LINE
8
Black
10
262.54
20
-121.664
11
262.529
21
-121.685
0
LINE
8
Black
10
262.529
20
-121.685
11
262.518
21
-121.705
0
LINE
8
Black
10
262.518
20
-121.705
11
262.516
21
-121.707
0
LINE
8
Black
10
262.516
20
-121.707
11
262.515
21
-121.71
0
LINE
8
Black
10
262.515
20
-121.71
11
262.498
21
-121.725
0
LINE
8
Black
10
262.498
20
-121.725
11
262.481
21
-121.742
0
LINE
8
Black
10
262.481
20
-121.742
11
262.478
21
-121.743
0
LINE
8
Black
10
262.478
20
-121.743
11
262.476
21
-121.745
0
LINE
8
Black
10
262.476
20
-121.745
11
262.455
21
-121.753
0
LINE
8
Black
10
262.455
20
-121.753
11
262.433
21
-121.763
0
LINE
8
Black
10
262.433
20
-121.763
11
262.43
21
-121.763
0
LINE
8
Black
10
262.43
20
-121.763
11
262.428
21
-121.764
0
LINE
8
Black
10
262.428
20
-121.764
11
262.405
21
-121.765
0
LINE
8
Black
10
262.405
20
-121.765
11
262.381
21
-121.766
0
LINE
8
Black
10
262.381
20
-121.766
11
262.379
21
-121.766
0
LINE
8
Black
10
262.379
20
-121.766
11
262.376
21
-121.766
0
LINE
8
Black
10
262.376
20
-121.766
11
262.354
21
-121.758
0
LINE
8
Black
10
262.354
20
-121.758
11
262.331
21
-121.752
0
LINE
8
Black
10
262.331
20
-121.752
11
262.329
21
-121.75
0
LINE
8
Black
10
262.329
20
-121.75
11
262.326
21
-121.749
0
LINE
8
Black
10
262.326
20
-121.749
11
262.308
21
-121.735
0
LINE
8
Black
10
262.308
20
-121.735
11
262.289
21
-121.722
0
LINE
8
Black
10
262.289
20
-121.722
11
262.288
21
-121.719
0
LINE
8
Black
10
262.288
20
-121.719
11
262.285
21
-121.717
0
LINE
8
Black
10
262.285
20
-121.717
11
262.273
21
-121.698
0
LINE
8
Black
10
262.273
20
-121.698
11
262.26
21
-121.678
0
LINE
8
Black
10
262.26
20
-121.678
11
262.259
21
-121.676
0
LINE
8
Black
10
262.259
20
-121.676
11
262.258
21
-121.673
0
LINE
8
Black
10
262.258
20
-121.673
11
262.016
21
-121.069
0
LINE
8
Black
10
262.016
20
-121.069
11
261.774
21
-121.673
0
LINE
8
Black
10
261.774
20
-121.673
11
261.773
21
-121.676
0
LINE
8
Black
10
261.773
20
-121.676
11
261.772
21
-121.678
0
LINE
8
Black
10
261.772
20
-121.678
11
261.759
21
-121.698
0
LINE
8
Black
10
261.759
20
-121.698
11
261.747
21
-121.717
0
LINE
8
Black
10
261.747
20
-121.717
11
261.745
21
-121.719
0
LINE
8
Black
10
261.745
20
-121.719
11
261.743
21
-121.722
0
LINE
8
Black
10
261.743
20
-121.722
11
261.724
21
-121.735
0
LINE
8
Black
10
261.724
20
-121.735
11
261.706
21
-121.749
0
LINE
8
Black
10
261.706
20
-121.749
11
261.703
21
-121.75
0
LINE
8
Black
10
261.703
20
-121.75
11
261.701
21
-121.752
0
LINE
8
Black
10
261.701
20
-121.752
11
261.679
21
-121.758
0
LINE
8
Black
10
261.679
20
-121.758
11
261.657
21
-121.766
0
LINE
8
Black
10
261.657
20
-121.766
11
261.654
21
-121.766
0
LINE
8
Black
10
261.654
20
-121.766
11
261.651
21
-121.766
0
LINE
8
Black
10
261.651
20
-121.766
11
261.628
21
-121.765
0
LINE
8
Black
10
261.628
20
-121.765
11
261.604
21
-121.764
0
LINE
8
Black
10
261.604
20
-121.764
11
261.602
21
-121.763
0
LINE
8
Black
10
261.602
20
-121.763
11
261.599
21
-121.763
0
LINE
8
Black
10
261.599
20
-121.763
11
261.578
21
-121.753
0
LINE
8
Black
10
261.578
20
-121.753
11
261.556
21
-121.745
0
LINE
8
Black
10
261.556
20
-121.745
11
261.554
21
-121.743
0
LINE
8
Black
10
261.554
20
-121.743
11
261.551
21
-121.742
0
LINE
8
Black
10
261.551
20
-121.742
11
261.534
21
-121.725
0
LINE
8
Black
10
261.534
20
-121.725
11
261.517
21
-121.71
0
LINE
8
Black
10
261.517
20
-121.71
11
261.516
21
-121.707
0
LINE
8
Black
10
261.516
20
-121.707
11
261.514
21
-121.705
0
LINE
8
Black
10
261.514
20
-121.705
11
261.504
21
-121.685
0
LINE
8
Black
10
261.504
20
-121.685
11
261.493
21
-121.664
0
LINE
8
Black
10
261.493
20
-121.664
11
261.492
21
-121.661
0
LINE
8
Black
10
261.492
20
-121.661
11
261.491
21
-121.658
0
LINE
8
Black
10
261.491
20
-121.658
11
261.11
21
-120.325
0
LINE
8
Black
10
261.11
20
-120.325
11
261.105
21
-120.273
0
LINE
8
Black
10
261.105
20
-120.273
11
261.117
21
-120.223
0
LINE
8
Black
10
261.117
20
-120.223
11
261.146
21
-120.18
0
LINE
8
Black
10
261.146
20
-120.18
11
261.189
21
-120.149
0
LINE
8
Black
10
261.189
20
-120.149
11
261.239
21
-120.135
0
LINE
8
Black
10
261.239
20
-120.135
11
261.291
21
-120.138
0
LINE
8
Black
10
261.291
20
-120.138
11
261.338
21
-120.16
0
LINE
8
Black
10
261.338
20
-120.16
11
261.376
21
-120.196
0
LINE
8
Black
10
261.376
20
-120.196
11
261.398
21
-120.243
0
LINE
8
Black
10
261.398
20
-120.243
11
261.659
21
-121.154
0
LINE
8
Black
10
261.659
20
-121.154
11
261.877
21
-120.609
0
LINE
8
Black
10
261.877
20
-120.609
11
261.888
21
-120.591
0
LINE
8
Black
10
261.888
20
-120.591
11
261.898
21
-120.572
0
LINE
8
Black
10
261.898
20
-120.572
11
261.902
21
-120.569
0
LINE
8
Black
10
261.902
20
-120.569
11
261.904
21
-120.565
0
LINE
8
Black
10
261.904
20
-120.565
11
261.921
21
-120.552
0
LINE
8
Black
10
261.921
20
-120.552
11
261.937
21
-120.537
0
LINE
8
Black
10
261.937
20
-120.537
11
261.941
21
-120.536
0
LINE
8
Black
10
261.941
20
-120.536
11
261.945
21
-120.533
0
LINE
8
Black
10
261.945
20
-120.533
11
261.966
21
-120.526
0
LINE
8
Black
10
261.966
20
-120.526
11
261.985
21
-120.518
0
LINE
8
Black
10
261.985
20
-120.518
11
261.99
21
-120.518
0
LINE
8
Black
10
261.99
20
-120.518
11
261.995
21
-120.516
0
LINE
8
Black
10
261.995
20
-120.516
11
262.016
21
-120.517
0
LINE
8
Black
10
262.016
20
-120.517
11
262.037
21
-120.516
0
LINE
8
Black
10
262.037
20
-120.516
11
262.042
21
-120.518
0
LINE
8
Black
10
262.042
20
-120.518
11
262.047
21
-120.518
0
LINE
8
Black
10
262.047
20
-120.518
11
262.067
21
-120.526
0
LINE
8
Black
10
262.067
20
-120.526
11
262.087
21
-120.533
0
LINE
8
Black
10
262.087
20
-120.533
11
262.091
21
-120.536
0
LINE
8
Black
10
262.091
20
-120.536
11
262.095
21
-120.537
0
LINE
8
Black
10
262.095
20
-120.537
11
262.111
21
-120.552
0
LINE
8
Black
10
262.111
20
-120.552
11
262.128
21
-120.565
0
LINE
8
Black
10
262.128
20
-120.565
11
262.13
21
-120.569
0
LINE
8
Black
10
262.13
20
-120.569
11
262.134
21
-120.572
0
LINE
8
Black
10
262.134
20
-120.572
11
262.144
21
-120.591
0
LINE
8
Black
10
262.144
20
-120.591
11
262.155
21
-120.609
0
LINE
8
Black
10
262.155
20
-120.609
11
262.373
21
-121.154
0
LINE
8
Black
10
262.373
20
-121.154
11
262.634
21
-120.243
0
LINE
8
Black
10
262.634
20
-120.243
11
262.657
21
-120.196
0
LINE
8
Black
10
262.657
20
-120.196
11
262.694
21
-120.16
0
LINE
8
Black
10
262.694
20
-120.16
11
262.742
21
-120.138
0
LINE
8
Black
10
262.742
20
-120.138
11
262.794
21
-120.135
0
LINE
8
Black
10
262.794
20
-120.135
11
262.844
21
-120.149
0
LINE
8
Black
10
255.71
20
-120.154
11
255.75
21
-120.188
0
LINE
8
Black
10
255.75
20
-120.188
11
255.776
21
-120.233
0
LINE
8
Black
10
255.776
20
-120.233
11
255.785
21
-120.284
0
LINE
8
Black
10
255.785
20
-120.284
11
255.785
21
-121.617
0
LINE
8
Black
10
255.785
20
-121.617
11
255.776
21
-121.669
0
LINE
8
Black
10
255.776
20
-121.669
11
255.75
21
-121.714
0
LINE
8
Black
10
255.75
20
-121.714
11
255.71
21
-121.747
0
LINE
8
Black
10
255.71
20
-121.747
11
255.661
21
-121.765
0
LINE
8
Black
10
255.661
20
-121.765
11
255.609
21
-121.765
0
LINE
8
Black
10
255.609
20
-121.765
11
255.56
21
-121.747
0
LINE
8
Black
10
255.56
20
-121.747
11
255.52
21
-121.714
0
LINE
8
Black
10
255.52
20
-121.714
11
255.494
21
-121.669
0
LINE
8
Black
10
255.494
20
-121.669
11
255.485
21
-121.617
0
LINE
8
Black
10
255.485
20
-121.617
11
255.485
21
-120.284
0
LINE
8
Black
10
255.485
20
-120.284
11
255.494
21
-120.233
0
LINE
8
Black
10
255.494
20
-120.233
11
255.52
21
-120.188
0
LINE
8
Black
10
255.52
20
-120.188
11
255.56
21
-120.154
0
LINE
8
Black
10
255.56
20
-120.154
11
255.609
21
-120.136
0
LINE
8
Black
10
255.609
20
-120.136
11
255.661
21
-120.136
0
LINE
8
Black
10
255.661
20
-120.136
11
255.71
21
-120.154
0
LINE
8
Black
10
248.786
20
-120.135
11
248.795
21
-120.135
0
LINE
8
Black
10
248.795
20
-120.135
11
248.812
21
-120.14
0
LINE
8
Black
10
248.812
20
-120.14
11
248.829
21
-120.143
0
LINE
8
Black
10
248.829
20
-120.143
11
248.837
21
-120.147
0
LINE
8
Black
10
248.837
20
-120.147
11
248.845
21
-120.15
0
LINE
8
Black
10
248.845
20
-120.15
11
249.036
21
-120.245
0
LINE
8
Black
10
249.036
20
-120.245
11
249.053
21
-120.258
0
LINE
8
Black
10
249.053
20
-120.258
11
249.064
21
-120.265
0
LINE
8
Black
10
249.064
20
-120.265
11
249.074
21
-120.258
0
LINE
8
Black
10
249.074
20
-120.258
11
249.092
21
-120.245
0
LINE
8
Black
10
249.092
20
-120.245
11
249.282
21
-120.15
0
LINE
8
Black
10
249.282
20
-120.15
11
249.291
21
-120.147
0
LINE
8
Black
10
249.291
20
-120.147
11
249.298
21
-120.143
0
LINE
8
Black
10
249.298
20
-120.143
11
249.315
21
-120.14
0
LINE
8
Black
10
249.315
20
-120.14
11
249.332
21
-120.135
0
LINE
8
Black
10
249.332
20
-120.135
11
249.341
21
-120.135
0
LINE
8
Black
10
249.341
20
-120.135
11
249.349
21
-120.134
0
LINE
8
Black
10
249.349
20
-120.134
11
249.635
21
-120.134
0
LINE
8
Black
10
249.635
20
-120.134
11
249.644
21
-120.135
0
LINE
8
Black
10
249.644
20
-120.135
11
249.652
21
-120.135
0
LINE
8
Black
10
249.652
20
-120.135
11
249.669
21
-120.14
0
LINE
8
Black
10
249.669
20
-120.14
11
249.686
21
-120.143
0
LINE
8
Black
10
249.686
20
-120.143
11
249.694
21
-120.147
0
LINE
8
Black
10
249.694
20
-120.147
11
249.702
21
-120.15
0
LINE
8
Black
10
249.702
20
-120.15
11
249.8
21
-120.198
0
LINE
8
Black
10
249.8
20
-120.198
11
249.806
21
-120.188
0
LINE
8
Black
10
249.806
20
-120.188
11
249.846
21
-120.154
0
LINE
8
Black
10
249.846
20
-120.154
11
249.895
21
-120.136
0
LINE
8
Black
10
249.895
20
-120.136
11
249.947
21
-120.136
0
LINE
8
Black
10
249.947
20
-120.136
11
249.996
21
-120.154
0
LINE
8
Black
10
249.996
20
-120.154
11
250.036
21
-120.188
0
LINE
8
Black
10
250.036
20
-120.188
11
250.062
21
-120.233
0
LINE
8
Black
10
250.062
20
-120.233
11
250.071
21
-120.284
0
LINE
8
Black
10
250.071
20
-120.284
11
250.071
21
-121.617
0
LINE
8
Black
10
250.071
20
-121.617
11
250.062
21
-121.669
0
LINE
8
Black
10
250.062
20
-121.669
11
250.036
21
-121.714
0
LINE
8
Black
10
250.036
20
-121.714
11
249.996
21
-121.747
0
LINE
8
Black
10
249.996
20
-121.747
11
249.947
21
-121.765
0
LINE
8
Black
10
249.947
20
-121.765
11
249.895
21
-121.765
0
LINE
8
Black
10
249.895
20
-121.765
11
249.846
21
-121.747
0
LINE
8
Black
10
249.846
20
-121.747
11
249.806
21
-121.714
0
LINE
8
Black
10
249.806
20
-121.714
11
249.78
21
-121.669
0
LINE
8
Black
10
249.78
20
-121.669
11
249.771
21
-121.617
0
LINE
8
Black
10
249.771
20
-121.617
11
249.771
21
-120.537
0
LINE
8
Black
10
249.771
20
-120.537
11
249.737
21
-120.502
0
LINE
8
Black
10
249.737
20
-120.502
11
249.6
21
-120.434
0
LINE
8
Black
10
249.6
20
-120.434
11
249.385
21
-120.434
0
LINE
8
Black
10
249.385
20
-120.434
11
249.271
21
-120.491
0
LINE
8
Black
10
249.271
20
-120.491
11
249.214
21
-120.605
0
LINE
8
Black
10
249.214
20
-120.605
11
249.214
21
-121.617
0
LINE
8
Black
10
249.214
20
-121.617
11
249.205
21
-121.669
0
LINE
8
Black
10
249.205
20
-121.669
11
249.179
21
-121.714
0
LINE
8
Black
10
249.179
20
-121.714
11
249.139
21
-121.747
0
LINE
8
Black
10
249.139
20
-121.747
11
249.09
21
-121.765
0
LINE
8
Black
10
249.09
20
-121.765
11
249.038
21
-121.765
0
LINE
8
Black
10
249.038
20
-121.765
11
248.989
21
-121.747
0
LINE
8
Black
10
248.989
20
-121.747
11
248.949
21
-121.714
0
LINE
8
Black
10
248.949
20
-121.714
11
248.923
21
-121.669
0
LINE
8
Black
10
248.923
20
-121.669
11
248.914
21
-121.617
0
LINE
8
Black
10
248.914
20
-121.617
11
248.914
21
-120.605
0
LINE
8
Black
10
248.914
20
-120.605
11
248.857
21
-120.491
0
LINE
8
Black
10
248.857
20
-120.491
11
248.743
21
-120.434
0
LINE
8
Black
10
248.743
20
-120.434
11
248.528
21
-120.434
0
LINE
8
Black
10
248.528
20
-120.434
11
248.414
21
-120.491
0
LINE
8
Black
10
248.414
20
-120.491
11
248.357
21
-120.605
0
LINE
8
Black
10
248.357
20
-120.605
11
248.357
21
-121.617
0
LINE
8
Black
10
248.357
20
-121.617
11
248.348
21
-121.669
0
LINE
8
Black
10
248.348
20
-121.669
11
248.321
21
-121.714
0
LINE
8
Black
10
248.321
20
-121.714
11
248.282
21
-121.747
0
LINE
8
Black
10
248.282
20
-121.747
11
248.233
21
-121.765
0
LINE
8
Black
10
248.233
20
-121.765
11
248.181
21
-121.765
0
LINE
8
Black
10
248.181
20
-121.765
11
248.132
21
-121.747
0
LINE
8
Black
10
248.132
20
-121.747
11
248.092
21
-121.714
0
LINE
8
Black
10
248.092
20
-121.714
11
248.066
21
-121.669
0
LINE
8
Black
10
248.066
20
-121.669
11
248.057
21
-121.617
0
LINE
8
Black
10
248.057
20
-121.617
11
248.057
21
-120.57
0
LINE
8
Black
10
248.057
20
-120.57
11
248.058
21
-120.561
0
LINE
8
Black
10
248.058
20
-120.561
11
248.058
21
-120.552
0
LINE
8
Black
10
248.058
20
-120.552
11
248.063
21
-120.536
0
LINE
8
Black
10
248.063
20
-120.536
11
248.066
21
-120.518
0
LINE
8
Black
10
248.066
20
-120.518
11
248.07
21
-120.511
0
LINE
8
Black
10
248.07
20
-120.511
11
248.072
21
-120.503
0
LINE
8
Black
10
248.072
20
-120.503
11
248.168
21
-120.312
0
LINE
8
Black
10
248.168
20
-120.312
11
248.181
21
-120.294
0
LINE
8
Black
10
248.181
20
-120.294
11
248.193
21
-120.276
0
LINE
8
Black
10
248.193
20
-120.276
11
248.196
21
-120.274
0
LINE
8
Black
10
248.196
20
-120.274
11
248.199
21
-120.27
0
LINE
8
Black
10
248.199
20
-120.27
11
248.217
21
-120.258
0
LINE
8
Black
10
248.217
20
-120.258
11
248.235
21
-120.245
0
LINE
8
Black
10
248.235
20
-120.245
11
248.425
21
-120.15
0
LINE
8
Black
10
248.425
20
-120.15
11
248.433
21
-120.147
0
LINE
8
Black
10
248.433
20
-120.147
11
248.441
21
-120.143
0
LINE
8
Black
10
248.441
20
-120.143
11
248.458
21
-120.14
0
LINE
8
Black
10
248.458
20
-120.14
11
248.475
21
-120.135
0
LINE
8
Black
10
248.475
20
-120.135
11
248.484
21
-120.135
0
LINE
8
Black
10
248.484
20
-120.135
11
248.492
21
-120.134
0
LINE
8
Black
10
248.492
20
-120.134
11
248.778
21
-120.134
0
LINE
8
Black
10
248.778
20
-120.134
11
248.786
21
-120.135
0
LINE
8
Black
10
255.635
20
-119.469
11
255.648
21
-119.468
0
LINE
8
Black
10
255.648
20
-119.468
11
255.655
21
-119.47
0
LINE
8
Black
10
255.655
20
-119.47
11
255.661
21
-119.47
0
LINE
8
Black
10
255.661
20
-119.47
11
255.667
21
-119.472
0
LINE
8
Black
10
255.667
20
-119.472
11
255.674
21
-119.472
0
LINE
8
Black
10
255.674
20
-119.472
11
255.686
21
-119.478
0
LINE
8
Black
10
255.686
20
-119.478
11
255.699
21
-119.481
0
LINE
8
Black
10
255.699
20
-119.481
11
255.704
21
-119.485
0
LINE
8
Black
10
255.704
20
-119.485
11
255.71
21
-119.487
0
LINE
8
Black
10
255.71
20
-119.487
11
255.715
21
-119.492
0
LINE
8
Black
10
255.715
20
-119.492
11
255.721
21
-119.494
0
LINE
8
Black
10
255.721
20
-119.494
11
255.73
21
-119.504
0
LINE
8
Black
10
255.73
20
-119.504
11
255.741
21
-119.511
0
LINE
8
Black
10
255.741
20
-119.511
11
255.836
21
-119.606
0
LINE
8
Black
10
255.836
20
-119.606
11
255.844
21
-119.617
0
LINE
8
Black
10
255.844
20
-119.617
11
255.853
21
-119.626
0
LINE
8
Black
10
255.853
20
-119.626
11
255.859
21
-119.638
0
LINE
8
Black
10
255.859
20
-119.638
11
255.866
21
-119.649
0
LINE
8
Black
10
255.866
20
-119.649
11
255.87
21
-119.662
0
LINE
8
Black
10
255.87
20
-119.662
11
255.875
21
-119.674
0
LINE
8
Black
10
255.875
20
-119.674
11
255.876
21
-119.687
0
LINE
8
Black
10
255.876
20
-119.687
11
255.88
21
-119.699
0
LINE
8
Black
10
255.88
20
-119.699
11
255.879
21
-119.712
0
LINE
8
Black
10
255.879
20
-119.712
11
255.88
21
-119.726
0
LINE
8
Black
10
255.88
20
-119.726
11
255.876
21
-119.738
0
LINE
8
Black
10
255.876
20
-119.738
11
255.875
21
-119.751
0
LINE
8
Black
10
255.875
20
-119.751
11
255.87
21
-119.763
0
LINE
8
Black
10
255.87
20
-119.763
11
255.866
21
-119.776
0
LINE
8
Black
10
255.866
20
-119.776
11
255.859
21
-119.787
0
LINE
8
Black
10
255.859
20
-119.787
11
255.853
21
-119.799
0
LINE
8
Black
10
255.853
20
-119.799
11
255.844
21
-119.808
0
LINE
8
Black
10
255.844
20
-119.808
11
255.836
21
-119.819
0
LINE
8
Black
10
255.836
20
-119.819
11
255.741
21
-119.914
0
LINE
8
Black
10
255.741
20
-119.914
11
255.73
21
-119.921
0
LINE
8
Black
10
255.73
20
-119.921
11
255.721
21
-119.931
0
LINE
8
Black
10
255.721
20
-119.931
11
255.715
21
-119.933
0
LINE
8
Black
10
255.715
20
-119.933
11
255.71
21
-119.938
0
LINE
8
Black
10
255.71
20
-119.938
11
255.704
21
-119.94
0
LINE
8
Black
10
255.704
20
-119.94
11
255.699
21
-119.944
0
LINE
8
Black
10
255.699
20
-119.944
11
255.686
21
-119.947
0
LINE
8
Black
10
255.686
20
-119.947
11
255.674
21
-119.953
0
LINE
8
Black
10
255.674
20
-119.953
11
255.667
21
-119.953
0
LINE
8
Black
10
255.667
20
-119.953
11
255.661
21
-119.955
0
LINE
8
Black
10
255.661
20
-119.955
11
255.655
21
-119.955
0
LINE
8
Black
10
255.655
20
-119.955
11
255.648
21
-119.957
0
LINE
8
Black
10
255.648
20
-119.957
11
255.635
21
-119.956
0
LINE
8
Black
10
255.635
20
-119.956
11
255.622
21
-119.957
0
LINE
8
Black
10
255.622
20
-119.957
11
255.616
21
-119.955
0
LINE
8
Black
10
255.616
20
-119.955
11
255.609
21
-119.955
0
LINE
8
Black
10
255.609
20
-119.955
11
255.603
21
-119.953
0
LINE
8
Black
10
255.603
20
-119.953
11
255.596
21
-119.953
0
LINE
8
Black
10
255.596
20
-119.953
11
255.584
21
-119.947
0
LINE
8
Black
10
255.584
20
-119.947
11
255.572
21
-119.944
0
LINE
8
Black
10
255.572
20
-119.944
11
255.566
21
-119.94
0
LINE
8
Black
10
255.566
20
-119.94
11
255.56
21
-119.938
0
LINE
8
Black
10
255.56
20
-119.938
11
255.555
21
-119.933
0
LINE
8
Black
10
255.555
20
-119.933
11
255.549
21
-119.931
0
LINE
8
Black
10
255.549
20
-119.931
11
255.54
21
-119.921
0
LINE
8
Black
10
255.54
20
-119.921
11
255.529
21
-119.914
0
LINE
8
Black
10
255.529
20
-119.914
11
255.434
21
-119.819
0
LINE
8
Black
10
255.434
20
-119.819
11
255.426
21
-119.808
0
LINE
8
Black
10
255.426
20
-119.808
11
255.417
21
-119.799
0
LINE
8
Black
10
255.417
20
-119.799
11
255.411
21
-119.787
0
LINE
8
Black
10
255.411
20
-119.787
11
255.404
21
-119.776
0
LINE
8
Black
10
255.404
20
-119.776
11
255.401
21
-119.763
0
LINE
8
Black
10
255.401
20
-119.763
11
255.395
21
-119.751
0
LINE
8
Black
10
255.395
20
-119.751
11
255.394
21
-119.738
0
LINE
8
Black
10
255.394
20
-119.738
11
255.39
21
-119.726
0
LINE
8
Black
10
255.39
20
-119.726
11
255.392
21
-119.712
0
LINE
8
Black
10
255.392
20
-119.712
11
255.39
21
-119.699
0
LINE
8
Black
10
255.39
20
-119.699
11
255.394
21
-119.687
0
LINE
8
Black
10
255.394
20
-119.687
11
255.395
21
-119.674
0
LINE
8
Black
10
255.395
20
-119.674
11
255.401
21
-119.662
0
LINE
8
Black
10
255.401
20
-119.662
11
255.404
21
-119.649
0
LINE
8
Black
10
255.404
20
-119.649
11
255.411
21
-119.638
0
LINE
8
Black
10
255.411
20
-119.638
11
255.417
21
-119.626
0
LINE
8
Black
10
255.417
20
-119.626
11
255.426
21
-119.617
0
LINE
8
Black
10
255.426
20
-119.617
11
255.434
21
-119.606
0
LINE
8
Black
10
255.434
20
-119.606
11
255.529
21
-119.511
0
LINE
8
Black
10
255.529
20
-119.511
11
255.54
21
-119.504
0
LINE
8
Black
10
255.54
20
-119.504
11
255.549
21
-119.494
0
LINE
8
Black
10
255.549
20
-119.494
11
255.555
21
-119.492
0
LINE
8
Black
10
255.555
20
-119.492
11
255.56
21
-119.487
0
LINE
8
Black
10
255.56
20
-119.487
11
255.566
21
-119.485
0
LINE
8
Black
10
255.566
20
-119.485
11
255.572
21
-119.481
0
LINE
8
Black
10
255.572
20
-119.481
11
255.584
21
-119.478
0
LINE
8
Black
10
255.584
20
-119.478
11
255.596
21
-119.472
0
LINE
8
Black
10
255.596
20
-119.472
11
255.603
21
-119.472
0
LINE
8
Black
10
255.603
20
-119.472
11
255.609
21
-119.47
0
LINE
8
Black
10
255.609
20
-119.47
11
255.616
21
-119.47
0
LINE
8
Black
10
255.616
20
-119.47
11
255.622
21
-119.468
0
LINE
8
Black
10
255.622
20
-119.468
11
255.635
21
-119.469
0
LINE
8
Black
10
252.215
20
-116.835
11
252.224
21
-116.835
0
LINE
8
Black
10
252.224
20
-116.835
11
252.241
21
-116.84
0
LINE
8
Black
10
252.241
20
-116.84
11
252.258
21
-116.843
0
LINE
8
Black
10
252.258
20
-116.843
11
252.265
21
-116.847
0
LINE
8
Black
10
252.265
20
-116.847
11
252.274
21
-116.85
0
LINE
8
Black
10
252.274
20
-116.85
11
252.464
21
-116.945
0
LINE
8
Black
10
252.464
20
-116.945
11
252.482
21
-116.958
0
LINE
8
Black
10
252.482
20
-116.958
11
252.5
21
-116.97
0
LINE
8
Black
10
252.5
20
-116.97
11
252.503
21
-116.974
0
LINE
8
Black
10
252.503
20
-116.974
11
252.506
21
-116.976
0
LINE
8
Black
10
252.506
20
-116.976
11
252.518
21
-116.994
0
LINE
8
Black
10
252.518
20
-116.994
11
252.531
21
-117.012
0
LINE
8
Black
10
252.531
20
-117.012
11
252.626
21
-117.203
0
LINE
8
Black
10
252.626
20
-117.203
11
252.629
21
-117.211
0
LINE
8
Black
10
252.629
20
-117.211
11
252.633
21
-117.218
0
LINE
8
Black
10
252.633
20
-117.218
11
252.636
21
-117.236
0
LINE
8
Black
10
252.636
20
-117.236
11
252.641
21
-117.252
0
LINE
8
Black
10
252.641
20
-117.252
11
252.641
21
-117.261
0
LINE
8
Black
10
252.641
20
-117.261
11
252.642
21
-117.27
0
LINE
8
Black
10
252.642
20
-117.27
11
252.642
21
-118.032
0
LINE
8
Black
10
252.642
20
-118.032
11
252.641
21
-118.04
0
LINE
8
Black
10
252.641
20
-118.04
11
252.641
21
-118.049
0
LINE
8
Black
10
252.641
20
-118.049
11
252.636
21
-118.066
0
LINE
8
Black
10
252.636
20
-118.066
11
252.633
21
-118.083
0
LINE
8
Black
10
252.633
20
-118.083
11
252.629
21
-118.09
0
LINE
8
Black
10
252.629
20
-118.09
11
252.626
21
-118.099
0
LINE
8
Black
10
252.626
20
-118.099
11
252.531
21
-118.289
0
LINE
8
Black
10
252.531
20
-118.289
11
252.518
21
-118.307
0
LINE
8
Black
10
252.518
20
-118.307
11
252.506
21
-118.325
0
LINE
8
Black
10
252.506
20
-118.325
11
252.503
21
-118.328
0
LINE
8
Black
10
252.503
20
-118.328
11
252.5
21
-118.331
0
LINE
8
Black
10
252.5
20
-118.331
11
252.482
21
-118.343
0
LINE
8
Black
10
252.482
20
-118.343
11
252.464
21
-118.356
0
LINE
8
Black
10
252.464
20
-118.356
11
252.274
21
-118.451
0
LINE
8
Black
10
252.274
20
-118.451
11
252.265
21
-118.454
0
LINE
8
Black
10
252.265
20
-118.454
11
252.258
21
-118.458
0
LINE
8
Black
10
252.258
20
-118.458
11
252.241
21
-118.461
0
LINE
8
Black
10
252.241
20
-118.461
11
252.224
21
-118.466
0
LINE
8
Black
10
252.224
20
-118.466
11
252.215
21
-118.466
0
LINE
8
Black
10
252.215
20
-118.466
11
252.207
21
-118.467
0
LINE
8
Black
10
252.207
20
-118.467
11
251.826
21
-118.467
0
LINE
8
Black
10
251.826
20
-118.467
11
251.817
21
-118.466
0
LINE
8
Black
10
251.817
20
-118.466
11
251.808
21
-118.466
0
LINE
8
Black
10
251.808
20
-118.466
11
251.792
21
-118.461
0
LINE
8
Black
10
251.792
20
-118.461
11
251.774
21
-118.458
0
LINE
8
Black
10
251.774
20
-118.458
11
251.767
21
-118.454
0
LINE
8
Black
10
251.767
20
-118.454
11
251.759
21
-118.451
0
LINE
8
Black
10
251.759
20
-118.451
11
251.568
21
-118.356
0
LINE
8
Black
10
251.568
20
-118.356
11
251.526
21
-118.325
0
LINE
8
Black
10
251.526
20
-118.325
11
251.497
21
-118.282
0
LINE
8
Black
10
251.497
20
-118.282
11
251.485
21
-118.231
0
LINE
8
Black
10
251.485
20
-118.231
11
251.491
21
-118.179
0
LINE
8
Black
10
251.491
20
-118.179
11
251.515
21
-118.133
0
LINE
8
Black
10
251.515
20
-118.133
11
251.552
21
-118.097
0
LINE
8
Black
10
251.552
20
-118.097
11
251.6
21
-118.076
0
LINE
8
Black
10
251.6
20
-118.076
11
251.652
21
-118.073
0
LINE
8
Black
10
251.652
20
-118.073
11
251.702
21
-118.088
0
LINE
8
Black
10
251.702
20
-118.088
11
251.861
21
-118.167
0
LINE
8
Black
10
251.861
20
-118.167
11
252.171
21
-118.167
0
LINE
8
Black
10
252.171
20
-118.167
11
252.285
21
-118.11
0
LINE
8
Black
10
252.285
20
-118.11
11
252.342
21
-117.996
0
LINE
8
Black
10
252.342
20
-117.996
11
252.342
21
-117.774
0
LINE
8
Black
10
252.342
20
-117.774
11
251.51
21
-117.607
0
LINE
8
Black
10
251.51
20
-117.607
11
251.488
21
-117.598
0
LINE
8
Black
10
251.488
20
-117.598
11
251.465
21
-117.59
0
LINE
8
Black
10
251.465
20
-117.59
11
251.464
21
-117.589
0
LINE
8
Black
10
251.464
20
-117.589
11
251.462
21
-117.588
0
LINE
8
Black
10
251.462
20
-117.588
11
251.444
21
-117.572
0
LINE
8
Black
10
251.444
20
-117.572
11
251.425
21
-117.557
0
LINE
8
Black
10
251.425
20
-117.557
11
251.424
21
-117.555
0
LINE
8
Black
10
251.424
20
-117.555
11
251.423
21
-117.554
0
LINE
8
Black
10
251.423
20
-117.554
11
251.411
21
-117.533
0
LINE
8
Black
10
251.411
20
-117.533
11
251.399
21
-117.511
0
LINE
8
Black
10
251.399
20
-117.511
11
251.399
21
-117.51
0
LINE
8
Black
10
251.399
20
-117.51
11
251.398
21
-117.508
0
LINE
8
Black
10
251.398
20
-117.508
11
251.394
21
-117.484
0
LINE
8
Black
10
251.394
20
-117.484
11
251.39
21
-117.46
0
LINE
8
Black
10
251.39
20
-117.46
11
251.39
21
-117.27
0
LINE
8
Black
10
251.39
20
-117.27
11
251.391
21
-117.261
0
LINE
8
Black
10
251.391
20
-117.261
11
251.391
21
-117.252
0
LINE
8
Black
10
251.391
20
-117.252
11
251.396
21
-117.236
0
LINE
8
Black
10
251.396
20
-117.236
11
251.399
21
-117.218
0
LINE
8
Black
10
251.399
20
-117.218
11
251.403
21
-117.211
0
LINE
8
Black
10
251.403
20
-117.211
11
251.406
21
-117.203
0
LINE
8
Black
10
251.406
20
-117.203
11
251.501
21
-117.012
0
LINE
8
Black
10
251.501
20
-117.012
11
251.514
21
-116.994
0
LINE
8
Black
10
251.514
20
-116.994
11
251.526
21
-116.976
0
LINE
8
Black
10
251.526
20
-116.976
11
251.53
21
-116.974
0
LINE
8
Black
10
251.53
20
-116.974
11
251.532
21
-116.97
0
LINE
8
Black
10
251.532
20
-116.97
11
251.55
21
-116.958
0
LINE
8
Black
10
251.55
20
-116.958
11
251.568
21
-116.945
0
LINE
8
Black
10
251.568
20
-116.945
11
251.759
21
-116.85
0
LINE
8
Black
10
251.759
20
-116.85
11
251.767
21
-116.847
0
LINE
8
Black
10
251.767
20
-116.847
11
251.774
21
-116.843
0
LINE
8
Black
10
251.774
20
-116.843
11
251.792
21
-116.84
0
LINE
8
Black
10
251.792
20
-116.84
11
251.808
21
-116.835
0
LINE
8
Black
10
251.808
20
-116.835
11
251.817
21
-116.835
0
LINE
8
Black
10
251.817
20
-116.835
11
251.826
21
-116.834
0
LINE
8
Black
10
251.826
20
-116.834
11
252.207
21
-116.834
0
LINE
8
Black
10
252.207
20
-116.834
11
252.215
21
-116.835
0
LINE
8
Black
10
251.861
20
-117.134
11
251.747
21
-117.191
0
LINE
8
Black
10
251.747
20
-117.191
11
251.69
21
-117.305
0
LINE
8
Black
10
251.69
20
-117.305
11
251.69
21
-117.337
0
LINE
8
Black
10
251.69
20
-117.337
11
252.342
21
-117.468
0
LINE
8
Black
10
252.342
20
-117.468
11
252.342
21
-117.305
0
LINE
8
Black
10
252.342
20
-117.305
11
252.285
21
-117.191
0
LINE
8
Black
10
252.285
20
-117.191
11
252.171
21
-117.134
0
LINE
8
Black
10
252.171
20
-117.134
11
251.861
21
-117.134
0
LINE
8
Black
10
256.406
20
-116.835
11
256.414
21
-116.835
0
LINE
8
Black
10
256.414
20
-116.835
11
256.431
21
-116.84
0
LINE
8
Black
10
256.431
20
-116.84
11
256.448
21
-116.843
0
LINE
8
Black
10
256.448
20
-116.843
11
256.456
21
-116.847
0
LINE
8
Black
10
256.456
20
-116.847
11
256.464
21
-116.85
0
LINE
8
Black
10
256.464
20
-116.85
11
256.655
21
-116.945
0
LINE
8
Black
10
256.655
20
-116.945
11
256.696
21
-116.976
0
LINE
8
Black
10
256.696
20
-116.976
11
256.725
21
-117.02
0
LINE
8
Black
10
256.725
20
-117.02
11
256.737
21
-117.07
0
LINE
8
Black
10
256.737
20
-117.07
11
256.731
21
-117.122
0
LINE
8
Black
10
256.731
20
-117.122
11
256.708
21
-117.169
0
LINE
8
Black
10
256.708
20
-117.169
11
256.67
21
-117.204
0
LINE
8
Black
10
256.67
20
-117.204
11
256.622
21
-117.225
0
LINE
8
Black
10
256.622
20
-117.225
11
256.57
21
-117.228
0
LINE
8
Black
10
256.57
20
-117.228
11
256.52
21
-117.213
0
LINE
8
Black
10
256.52
20
-117.213
11
256.362
21
-117.134
0
LINE
8
Black
10
256.362
20
-117.134
11
256.051
21
-117.134
0
LINE
8
Black
10
256.051
20
-117.134
11
255.937
21
-117.191
0
LINE
8
Black
10
255.937
20
-117.191
11
255.88
21
-117.305
0
LINE
8
Black
10
255.88
20
-117.305
11
255.88
21
-117.367
0
LINE
8
Black
10
255.88
20
-117.367
11
255.956
21
-117.405
0
LINE
8
Black
10
255.956
20
-117.405
11
256.397
21
-117.405
0
LINE
8
Black
10
256.397
20
-117.405
11
256.406
21
-117.407
0
LINE
8
Black
10
256.406
20
-117.407
11
256.414
21
-117.406
0
LINE
8
Black
10
256.414
20
-117.406
11
256.431
21
-117.411
0
LINE
8
Black
10
256.431
20
-117.411
11
256.448
21
-117.414
0
LINE
8
Black
10
256.448
20
-117.414
11
256.456
21
-117.419
0
LINE
8
Black
10
256.456
20
-117.419
11
256.464
21
-117.421
0
LINE
8
Black
10
256.464
20
-117.421
11
256.655
21
-117.516
0
LINE
8
Black
10
256.655
20
-117.516
11
256.672
21
-117.53
0
LINE
8
Black
10
256.672
20
-117.53
11
256.691
21
-117.542
0
LINE
8
Black
10
256.691
20
-117.542
11
256.693
21
-117.545
0
LINE
8
Black
10
256.693
20
-117.545
11
256.696
21
-117.547
0
LINE
8
Black
10
256.696
20
-117.547
11
256.709
21
-117.566
0
LINE
8
Black
10
256.709
20
-117.566
11
256.722
21
-117.584
0
LINE
8
Black
10
256.722
20
-117.584
11
256.817
21
-117.774
0
LINE
8
Black
10
256.817
20
-117.774
11
256.819
21
-117.782
0
LINE
8
Black
10
256.819
20
-117.782
11
256.824
21
-117.79
0
LINE
8
Black
10
256.824
20
-117.79
11
256.827
21
-117.807
0
LINE
8
Black
10
256.827
20
-117.807
11
256.832
21
-117.824
0
LINE
8
Black
10
256.832
20
-117.824
11
256.831
21
-117.833
0
LINE
8
Black
10
256.831
20
-117.833
11
256.833
21
-117.841
0
LINE
8
Black
10
256.833
20
-117.841
11
256.833
21
-118.032
0
LINE
8
Black
10
256.833
20
-118.032
11
256.831
21
-118.04
0
LINE
8
Black
10
256.831
20
-118.04
11
256.832
21
-118.049
0
LINE
8
Black
10
256.832
20
-118.049
11
256.827
21
-118.066
0
LINE
8
Black
10
256.827
20
-118.066
11
256.824
21
-118.083
0
LINE
8
Black
10
256.824
20
-118.083
11
256.819
21
-118.09
0
LINE
8
Black
10
256.819
20
-118.09
11
256.817
21
-118.099
0
LINE
8
Black
10
256.817
20
-118.099
11
256.722
21
-118.289
0
LINE
8
Black
10
256.722
20
-118.289
11
256.709
21
-118.307
0
LINE
8
Black
10
256.709
20
-118.307
11
256.696
21
-118.325
0
LINE
8
Black
10
256.696
20
-118.325
11
256.693
21
-118.328
0
LINE
8
Black
10
256.693
20
-118.328
11
256.691
21
-118.331
0
LINE
8
Black
10
256.691
20
-118.331
11
256.672
21
-118.343
0
LINE
8
Black
10
256.672
20
-118.343
11
256.655
21
-118.356
0
LINE
8
Black
10
256.655
20
-118.356
11
256.464
21
-118.451
0
LINE
8
Black
10
256.464
20
-118.451
11
256.456
21
-118.454
0
LINE
8
Black
10
256.456
20
-118.454
11
256.448
21
-118.458
0
LINE
8
Black
10
256.448
20
-118.458
11
256.431
21
-118.461
0
LINE
8
Black
10
256.431
20
-118.461
11
256.414
21
-118.466
0
LINE
8
Black
10
256.414
20
-118.466
11
256.406
21
-118.466
0
LINE
8
Black
10
256.406
20
-118.466
11
256.397
21
-118.467
0
LINE
8
Black
10
256.397
20
-118.467
11
255.921
21
-118.467
0
LINE
8
Black
10
255.921
20
-118.467
11
255.912
21
-118.466
0
LINE
8
Black
10
255.912
20
-118.466
11
255.904
21
-118.466
0
LINE
8
Black
10
255.904
20
-118.466
11
255.887
21
-118.461
0
LINE
8
Black
10
255.887
20
-118.461
11
255.87
21
-118.458
0
LINE
8
Black
10
255.87
20
-118.458
11
255.862
21
-118.454
0
LINE
8
Black
10
255.862
20
-118.454
11
255.854
21
-118.451
0
LINE
8
Black
10
255.854
20
-118.451
11
255.82
21
-118.435
0
LINE
8
Black
10
255.82
20
-118.435
11
255.805
21
-118.447
0
LINE
8
Black
10
255.805
20
-118.447
11
255.756
21
-118.465
0
LINE
8
Black
10
255.756
20
-118.465
11
255.704
21
-118.465
0
LINE
8
Black
10
255.704
20
-118.465
11
255.655
21
-118.447
0
LINE
8
Black
10
255.655
20
-118.447
11
255.615
21
-118.414
0
LINE
8
Black
10
255.615
20
-118.414
11
255.589
21
-118.369
0
LINE
8
Black
10
255.589
20
-118.369
11
255.58
21
-118.317
0
LINE
8
Black
10
255.58
20
-118.317
11
255.58
21
-117.27
0
LINE
8
Black
10
255.58
20
-117.27
11
255.582
21
-117.261
0
LINE
8
Black
10
255.582
20
-117.261
11
255.581
21
-117.252
0
LINE
8
Black
10
255.581
20
-117.252
11
255.586
21
-117.236
0
LINE
8
Black
10
255.586
20
-117.236
11
255.589
21
-117.218
0
LINE
8
Black
10
255.589
20
-117.218
11
255.594
21
-117.211
0
LINE
8
Black
10
255.594
20
-117.211
11
255.596
21
-117.203
0
LINE
8
Black
10
255.596
20
-117.203
11
255.691
21
-117.012
0
LINE
8
Black
10
255.691
20
-117.012
11
255.705
21
-116.994
0
LINE
8
Black
10
255.705
20
-116.994
11
255.717
21
-116.976
0
LINE
8
Black
10
255.717
20
-116.976
11
255.72
21
-116.974
0
LINE
8
Black
10
255.72
20
-116.974
11
255.722
21
-116.97
0
LINE
8
Black
10
255.722
20
-116.97
11
255.741
21
-116.958
0
LINE
8
Black
10
255.741
20
-116.958
11
255.759
21
-116.945
0
LINE
8
Black
10
255.759
20
-116.945
11
255.949
21
-116.85
0
LINE
8
Black
10
255.949
20
-116.85
11
255.957
21
-116.847
0
LINE
8
Black
10
255.957
20
-116.847
11
255.965
21
-116.843
0
LINE
8
Black
10
255.965
20
-116.843
11
255.982
21
-116.84
0
LINE
8
Black
10
255.982
20
-116.84
11
255.999
21
-116.835
0
LINE
8
Black
10
255.999
20
-116.835
11
256.008
21
-116.835
0
LINE
8
Black
10
256.008
20
-116.835
11
256.016
21
-116.834
0
LINE
8
Black
10
256.016
20
-116.834
11
256.397
21
-116.834
0
LINE
8
Black
10
256.397
20
-116.834
11
256.406
21
-116.835
0
LINE
8
Black
10
255.88
20
-118.129
11
255.956
21
-118.167
0
LINE
8
Black
10
255.956
20
-118.167
11
256.362
21
-118.167
0
LINE
8
Black
10
256.362
20
-118.167
11
256.476
21
-118.11
0
LINE
8
Black
10
256.476
20
-118.11
11
256.533
21
-117.996
0
LINE
8
Black
10
256.533
20
-117.996
11
256.533
21
-117.876
0
LINE
8
Black
10
256.533
20
-117.876
11
256.476
21
-117.762
0
LINE
8
Black
10
256.476
20
-117.762
11
256.362
21
-117.705
0
LINE
8
Black
10
256.362
20
-117.705
11
255.921
21
-117.705
0
LINE
8
Black
10
255.921
20
-117.705
11
255.912
21
-117.704
0
LINE
8
Black
10
255.912
20
-117.704
11
255.904
21
-117.704
0
LINE
8
Black
10
255.904
20
-117.704
11
255.887
21
-117.699
0
LINE
8
Black
10
255.887
20
-117.699
11
255.88
21
-117.698
0
LINE
8
Black
10
255.88
20
-117.698
11
255.88
21
-118.129
0
LINE
8
Black
10
247.71
20
-116.187
11
247.75
21
-116.221
0
LINE
8
Black
10
247.75
20
-116.221
11
247.776
21
-116.266
0
LINE
8
Black
10
247.776
20
-116.266
11
247.785
21
-116.317
0
LINE
8
Black
10
247.785
20
-116.317
11
247.785
21
-116.834
0
LINE
8
Black
10
247.785
20
-116.834
11
247.921
21
-116.834
0
LINE
8
Black
10
247.921
20
-116.834
11
247.972
21
-116.843
0
LINE
8
Black
10
247.972
20
-116.843
11
248.017
21
-116.869
0
LINE
8
Black
10
248.017
20
-116.869
11
248.051
21
-116.909
0
LINE
8
Black
10
248.051
20
-116.909
11
248.069
21
-116.958
0
LINE
8
Black
10
248.069
20
-116.958
11
248.069
21
-117.01
0
LINE
8
Black
10
248.069
20
-117.01
11
248.051
21
-117.059
0
LINE
8
Black
10
248.051
20
-117.059
11
248.017
21
-117.099
0
LINE
8
Black
10
248.017
20
-117.099
11
247.972
21
-117.125
0
LINE
8
Black
10
247.972
20
-117.125
11
247.921
21
-117.134
0
LINE
8
Black
10
247.921
20
-117.134
11
247.785
21
-117.134
0
LINE
8
Black
10
247.785
20
-117.134
11
247.785
21
-118.032
0
LINE
8
Black
10
247.785
20
-118.032
11
247.784
21
-118.04
0
LINE
8
Black
10
247.784
20
-118.04
11
247.784
21
-118.049
0
LINE
8
Black
10
247.784
20
-118.049
11
247.779
21
-118.066
0
LINE
8
Black
10
247.779
20
-118.066
11
247.776
21
-118.083
0
LINE
8
Black
10
247.776
20
-118.083
11
247.772
21
-118.09
0
LINE
8
Black
10
247.772
20
-118.09
11
247.769
21
-118.099
0
LINE
8
Black
10
247.769
20
-118.099
11
247.674
21
-118.289
0
LINE
8
Black
10
247.674
20
-118.289
11
247.661
21
-118.307
0
LINE
8
Black
10
247.661
20
-118.307
11
247.649
21
-118.325
0
LINE
8
Black
10
247.649
20
-118.325
11
247.645
21
-118.328
0
LINE
8
Black
10
247.645
20
-118.328
11
247.643
21
-118.331
0
LINE
8
Black
10
247.643
20
-118.331
11
247.625
21
-118.343
0
LINE
8
Black
10
247.625
20
-118.343
11
247.607
21
-118.356
0
LINE
8
Black
10
247.607
20
-118.356
11
247.416
21
-118.451
0
LINE
8
Black
10
247.416
20
-118.451
11
247.408
21
-118.454
0
LINE
8
Black
10
247.408
20
-118.454
11
247.401
21
-118.458
0
LINE
8
Black
10
247.401
20
-118.458
11
247.383
21
-118.461
0
LINE
8
Black
10
247.383
20
-118.461
11
247.367
21
-118.466
0
LINE
8
Black
10
247.367
20
-118.466
11
247.358
21
-118.466
0
LINE
8
Black
10
247.358
20
-118.466
11
247.349
21
-118.467
0
LINE
8
Black
10
247.349
20
-118.467
11
247.159
21
-118.467
0
LINE
8
Black
10
247.159
20
-118.467
11
247.108
21
-118.458
0
LINE
8
Black
10
247.108
20
-118.458
11
247.063
21
-118.432
0
LINE
8
Black
10
247.063
20
-118.432
11
247.029
21
-118.392
0
LINE
8
Black
10
247.029
20
-118.392
11
247.011
21
-118.343
0
LINE
8
Black
10
247.011
20
-118.343
11
247.011
21
-118.291
0
LINE
8
Black
10
247.011
20
-118.291
11
247.029
21
-118.242
0
LINE
8
Black
10
247.029
20
-118.242
11
247.063
21
-118.202
0
LINE
8
Black
10
247.063
20
-118.202
11
247.108
21
-118.176
0
LINE
8
Black
10
247.108
20
-118.176
11
247.159
21
-118.167
0
LINE
8
Black
10
247.159
20
-118.167
11
247.314
21
-118.167
0
LINE
8
Black
10
247.314
20
-118.167
11
247.428
21
-118.11
0
LINE
8
Black
10
247.428
20
-118.11
11
247.485
21
-117.996
0
LINE
8
Black
10
247.485
20
-117.996
11
247.485
21
-117.134
0
LINE
8
Black
10
247.485
20
-117.134
11
247.159
21
-117.134
0
LINE
8
Black
10
247.159
20
-117.134
11
247.108
21
-117.125
0
LINE
8
Black
10
247.108
20
-117.125
11
247.063
21
-117.099
0
LINE
8
Black
10
247.063
20
-117.099
11
247.029
21
-117.059
0
LINE
8
Black
10
247.029
20
-117.059
11
247.011
21
-117.01
0
LINE
8
Black
10
247.011
20
-117.01
11
247.011
21
-116.958
0
LINE
8
Black
10
247.011
20
-116.958
11
247.029
21
-116.909
0
LINE
8
Black
10
247.029
20
-116.909
11
247.063
21
-116.869
0
LINE
8
Black
10
247.063
20
-116.869
11
247.108
21
-116.843
0
LINE
8
Black
10
247.108
20
-116.843
11
247.159
21
-116.834
0
LINE
8
Black
10
247.159
20
-116.834
11
247.485
21
-116.834
0
LINE
8
Black
10
247.485
20
-116.834
11
247.485
21
-116.317
0
LINE
8
Black
10
247.485
20
-116.317
11
247.494
21
-116.266
0
LINE
8
Black
10
247.494
20
-116.266
11
247.52
21
-116.221
0
LINE
8
Black
10
247.52
20
-116.221
11
247.56
21
-116.187
0
LINE
8
Black
10
247.56
20
-116.187
11
247.609
21
-116.17
0
LINE
8
Black
10
247.609
20
-116.17
11
247.661
21
-116.17
0
LINE
8
Black
10
247.661
20
-116.17
11
247.71
21
-116.187
0
LINE
8
Black
10
258.025
20
-116.835
11
258.033
21
-116.835
0
LINE
8
Black
10
258.033
20
-116.835
11
258.05
21
-116.84
0
LINE
8
Black
10
258.05
20
-116.84
11
258.067
21
-116.843
0
LINE
8
Black
10
258.067
20
-116.843
11
258.075
21
-116.847
0
LINE
8
Black
10
258.075
20
-116.847
11
258.083
21
-116.85
0
LINE
8
Black
10
258.083
20
-116.85
11
258.274
21
-116.945
0
LINE
8
Black
10
258.274
20
-116.945
11
258.293
21
-116.959
0
LINE
8
Black
10
258.293
20
-116.959
11
258.313
21
-116.973
0
LINE
8
Black
10
258.313
20
-116.973
11
258.408
21
-117.068
0
LINE
8
Black
10
258.408
20
-117.068
11
258.422
21
-117.088
0
LINE
8
Black
10
258.422
20
-117.088
11
258.436
21
-117.107
0
LINE
8
Black
10
258.436
20
-117.107
11
258.531
21
-117.298
0
LINE
8
Black
10
258.531
20
-117.298
11
258.534
21
-117.306
0
LINE
8
Black
10
258.534
20
-117.306
11
258.538
21
-117.314
0
LINE
8
Black
10
258.538
20
-117.314
11
258.541
21
-117.331
0
LINE
8
Black
10
258.541
20
-117.331
11
258.546
21
-117.348
0
LINE
8
Black
10
258.546
20
-117.348
11
258.546
21
-117.356
0
LINE
8
Black
10
258.546
20
-117.356
11
258.547
21
-117.365
0
LINE
8
Black
10
258.547
20
-117.365
11
258.547
21
-117.936
0
LINE
8
Black
10
258.547
20
-117.936
11
258.546
21
-117.945
0
LINE
8
Black
10
258.546
20
-117.945
11
258.546
21
-117.953
0
LINE
8
Black
10
258.546
20
-117.953
11
258.541
21
-117.97
0
LINE
8
Black
10
258.541
20
-117.97
11
258.538
21
-117.988
0
LINE
8
Black
10
258.538
20
-117.988
11
258.534
21
-117.995
0
LINE
8
Black
10
258.534
20
-117.995
11
258.531
21
-118.003
0
LINE
8
Black
10
258.531
20
-118.003
11
258.436
21
-118.194
0
LINE
8
Black
10
258.436
20
-118.194
11
258.422
21
-118.213
0
LINE
8
Black
10
258.422
20
-118.213
11
258.408
21
-118.233
0
LINE
8
Black
10
258.408
20
-118.233
11
258.313
21
-118.328
0
LINE
8
Black
10
258.313
20
-118.328
11
258.293
21
-118.342
0
LINE
8
Black
10
258.293
20
-118.342
11
258.274
21
-118.356
0
LINE
8
Black
10
258.274
20
-118.356
11
258.083
21
-118.451
0
LINE
8
Black
10
258.083
20
-118.451
11
258.075
21
-118.454
0
LINE
8
Black
10
258.075
20
-118.454
11
258.067
21
-118.458
0
LINE
8
Black
10
258.067
20
-118.458
11
258.05
21
-118.461
0
LINE
8
Black
10
258.05
20
-118.461
11
258.033
21
-118.466
0
LINE
8
Black
10
258.033
20
-118.466
11
258.025
21
-118.466
0
LINE
8
Black
10
258.025
20
-118.466
11
258.016
21
-118.467
0
LINE
8
Black
10
258.016
20
-118.467
11
257.635
21
-118.467
0
LINE
8
Black
10
257.635
20
-118.467
11
257.627
21
-118.466
0
LINE
8
Black
10
257.627
20
-118.466
11
257.618
21
-118.466
0
LINE
8
Black
10
257.618
20
-118.466
11
257.601
21
-118.461
0
LINE
8
Black
10
257.601
20
-118.461
11
257.584
21
-118.458
0
LINE
8
Black
10
257.584
20
-118.458
11
257.576
21
-118.454
0
LINE
8
Black
10
257.576
20
-118.454
11
257.568
21
-118.451
0
LINE
8
Black
10
257.568
20
-118.451
11
257.378
21
-118.356
0
LINE
8
Black
10
257.378
20
-118.356
11
257.336
21
-118.325
0
LINE
8
Black
10
257.336
20
-118.325
11
257.307
21
-118.282
0
LINE
8
Black
10
257.307
20
-118.282
11
257.295
21
-118.231
0
LINE
8
Black
10
257.295
20
-118.231
11
257.301
21
-118.179
0
LINE
8
Black
10
257.301
20
-118.179
11
257.324
21
-118.133
0
LINE
8
Black
10
257.324
20
-118.133
11
257.362
21
-118.097
0
LINE
8
Black
10
257.362
20
-118.097
11
257.41
21
-118.076
0
LINE
8
Black
10
257.41
20
-118.076
11
257.462
21
-118.073
0
LINE
8
Black
10
257.462
20
-118.073
11
257.512
21
-118.088
0
LINE
8
Black
10
257.512
20
-118.088
11
257.671
21
-118.167
0
LINE
8
Black
10
257.671
20
-118.167
11
257.981
21
-118.167
0
LINE
8
Black
10
257.981
20
-118.167
11
258.118
21
-118.099
0
LINE
8
Black
10
258.118
20
-118.099
11
258.179
21
-118.038
0
LINE
8
Black
10
258.179
20
-118.038
11
258.247
21
-117.901
0
LINE
8
Black
10
258.247
20
-117.901
11
258.247
21
-117.4
0
LINE
8
Black
10
258.247
20
-117.4
11
258.179
21
-117.263
0
LINE
8
Black
10
258.179
20
-117.263
11
258.118
21
-117.202
0
LINE
8
Black
10
258.118
20
-117.202
11
257.981
21
-117.134
0
LINE
8
Black
10
257.981
20
-117.134
11
257.671
21
-117.134
0
LINE
8
Black
10
257.671
20
-117.134
11
257.512
21
-117.213
0
LINE
8
Black
10
257.512
20
-117.213
11
257.462
21
-117.228
0
LINE
8
Black
10
257.462
20
-117.228
11
257.41
21
-117.225
0
LINE
8
Black
10
257.41
20
-117.225
11
257.362
21
-117.204
0
LINE
8
Black
10
257.362
20
-117.204
11
257.324
21
-117.169
0
LINE
8
Black
10
257.324
20
-117.169
11
257.301
21
-117.122
0
LINE
8
Black
10
257.301
20
-117.122
11
257.295
21
-117.07
0
LINE
8
Black
10
257.295
20
-117.07
11
257.307
21
-117.02
0
LINE
8
Black
10
257.307
20
-117.02
11
257.336
21
-116.976
0
LINE
8
Black
10
257.336
20
-116.976
11
257.378
21
-116.945
0
LINE
8
Black
10
257.378
20
-116.945
11
257.568
21
-116.85
0
LINE
8
Black
10
257.568
20
-116.85
11
257.576
21
-116.847
0
LINE
8
Black
10
257.576
20
-116.847
11
257.584
21
-116.843
0
LINE
8
Black
10
257.584
20
-116.843
11
257.601
21
-116.84
0
LINE
8
Black
10
257.601
20
-116.84
11
257.618
21
-116.835
0
LINE
8
Black
10
257.618
20
-116.835
11
257.627
21
-116.835
0
LINE
8
Black
10
257.627
20
-116.835
11
257.635
21
-116.834
0
LINE
8
Black
10
257.635
20
-116.834
11
258.016
21
-116.834
0
LINE
8
Black
10
258.016
20
-116.834
11
258.025
21
-116.835
0
LINE
8
Black
10
253.615
20
-116.187
11
253.655
21
-116.221
0
LINE
8
Black
10
253.655
20
-116.221
11
253.681
21
-116.266
0
LINE
8
Black
10
253.681
20
-116.266
11
253.69
21
-116.317
0
LINE
8
Black
10
253.69
20
-116.317
11
253.69
21
-116.834
0
LINE
8
Black
10
253.69
20
-116.834
11
253.826
21
-116.834
0
LINE
8
Black
10
253.826
20
-116.834
11
253.877
21
-116.843
0
LINE
8
Black
10
253.877
20
-116.843
11
253.922
21
-116.869
0
LINE
8
Black
10
253.922
20
-116.869
11
253.955
21
-116.909
0
LINE
8
Black
10
253.955
20
-116.909
11
253.973
21
-116.958
0
LINE
8
Black
10
253.973
20
-116.958
11
253.973
21
-117.01
0
LINE
8
Black
10
253.973
20
-117.01
11
253.955
21
-117.059
0
LINE
8
Black
10
253.955
20
-117.059
11
253.922
21
-117.099
0
LINE
8
Black
10
253.922
20
-117.099
11
253.877
21
-117.125
0
LINE
8
Black
10
253.877
20
-117.125
11
253.826
21
-117.134
0
LINE
8
Black
10
253.826
20
-117.134
11
253.69
21
-117.134
0
LINE
8
Black
10
253.69
20
-117.134
11
253.69
21
-118.032
0
LINE
8
Black
10
253.69
20
-118.032
11
253.688
21
-118.04
0
LINE
8
Black
10
253.688
20
-118.04
11
253.689
21
-118.049
0
LINE
8
Black
10
253.689
20
-118.049
11
253.684
21
-118.066
0
LINE
8
Black
10
253.684
20
-118.066
11
253.681
21
-118.083
0
LINE
8
Black
10
253.681
20
-118.083
11
253.677
21
-118.09
0
LINE
8
Black
10
253.677
20
-118.09
11
253.674
21
-118.099
0
LINE
8
Black
10
253.674
20
-118.099
11
253.579
21
-118.289
0
LINE
8
Black
10
253.579
20
-118.289
11
253.566
21
-118.307
0
LINE
8
Black
10
253.566
20
-118.307
11
253.554
21
-118.325
0
LINE
8
Black
10
253.554
20
-118.325
11
253.55
21
-118.328
0
LINE
8
Black
10
253.55
20
-118.328
11
253.548
21
-118.331
0
LINE
8
Black
10
253.548
20
-118.331
11
253.529
21
-118.343
0
LINE
8
Black
10
253.529
20
-118.343
11
253.512
21
-118.356
0
LINE
8
Black
10
253.512
20
-118.356
11
253.321
21
-118.451
0
LINE
8
Black
10
253.321
20
-118.451
11
253.313
21
-118.454
0
LINE
8
Black
10
253.313
20
-118.454
11
253.305
21
-118.458
0
LINE
8
Black
10
253.305
20
-118.458
11
253.288
21
-118.461
0
LINE
8
Black
10
253.288
20
-118.461
11
253.271
21
-118.466
0
LINE
8
Black
10
253.271
20
-118.466
11
253.263
21
-118.466
0
LINE
8
Black
10
253.263
20
-118.466
11
253.254
21
-118.467
0
LINE
8
Black
10
253.254
20
-118.467
11
253.064
21
-118.467
0
LINE
8
Black
10
253.064
20
-118.467
11
253.012
21
-118.458
0
LINE
8
Black
10
253.012
20
-118.458
11
252.967
21
-118.432
0
LINE
8
Black
10
252.967
20
-118.432
11
252.934
21
-118.392
0
LINE
8
Black
10
252.934
20
-118.392
11
252.916
21
-118.343
0
LINE
8
Black
10
252.916
20
-118.343
11
252.916
21
-118.291
0
LINE
8
Black
10
252.916
20
-118.291
11
252.934
21
-118.242
0
LINE
8
Black
10
252.934
20
-118.242
11
252.967
21
-118.202
0
LINE
8
Black
10
252.967
20
-118.202
11
253.012
21
-118.176
0
LINE
8
Black
10
253.012
20
-118.176
11
253.064
21
-118.167
0
LINE
8
Black
10
253.064
20
-118.167
11
253.219
21
-118.167
0
LINE
8
Black
10
253.219
20
-118.167
11
253.333
21
-118.11
0
LINE
8
Black
10
253.333
20
-118.11
11
253.39
21
-117.996
0
LINE
8
Black
10
253.39
20
-117.996
11
253.39
21
-117.134
0
LINE
8
Black
10
253.39
20
-117.134
11
253.064
21
-117.134
0
LINE
8
Black
10
253.064
20
-117.134
11
253.012
21
-117.125
0
LINE
8
Black
10
253.012
20
-117.125
11
252.967
21
-117.099
0
LINE
8
Black
10
252.967
20
-117.099
11
252.934
21
-117.059
0
LINE
8
Black
10
252.934
20
-117.059
11
252.916
21
-117.01
0
LINE
8
Black
10
252.916
20
-117.01
11
252.916
21
-116.958
0
LINE
8
Black
10
252.916
20
-116.958
11
252.934
21
-116.909
0
LINE
8
Black
10
252.934
20
-116.909
11
252.967
21
-116.869
0
LINE
8
Black
10
252.967
20
-116.869
11
253.012
21
-116.843
0
LINE
8
Black
10
253.012
20
-116.843
11
253.064
21
-116.834
0
LINE
8
Black
10
253.064
20
-116.834
11
253.39
21
-116.834
0
LINE
8
Black
10
253.39
20
-116.834
11
253.39
21
-116.317
0
LINE
8
Black
10
253.39
20
-116.317
11
253.399
21
-116.266
0
LINE
8
Black
10
253.399
20
-116.266
11
253.425
21
-116.221
0
LINE
8
Black
10
253.425
20
-116.221
11
253.465
21
-116.187
0
LINE
8
Black
10
253.465
20
-116.187
11
253.514
21
-116.17
0
LINE
8
Black
10
253.514
20
-116.17
11
253.566
21
-116.17
0
LINE
8
Black
10
253.566
20
-116.17
11
253.615
21
-116.187
0
LINE
8
Black
10
245.71
20
-116.187
11
245.75
21
-116.221
0
LINE
8
Black
10
245.75
20
-116.221
11
245.776
21
-116.266
0
LINE
8
Black
10
245.776
20
-116.266
11
245.785
21
-116.317
0
LINE
8
Black
10
245.785
20
-116.317
11
245.785
21
-116.841
0
LINE
8
Black
10
245.785
20
-116.841
11
245.792
21
-116.84
0
LINE
8
Black
10
245.792
20
-116.84
11
245.808
21
-116.835
0
LINE
8
Black
10
245.808
20
-116.835
11
245.817
21
-116.835
0
LINE
8
Black
10
245.817
20
-116.835
11
245.826
21
-116.834
0
LINE
8
Black
10
245.826
20
-116.834
11
246.207
21
-116.834
0
LINE
8
Black
10
246.207
20
-116.834
11
246.215
21
-116.835
0
LINE
8
Black
10
246.215
20
-116.835
11
246.224
21
-116.835
0
LINE
8
Black
10
246.224
20
-116.835
11
246.241
21
-116.84
0
LINE
8
Black
10
246.241
20
-116.84
11
246.258
21
-116.843
0
LINE
8
Black
10
246.258
20
-116.843
11
246.265
21
-116.847
0
LINE
8
Black
10
246.265
20
-116.847
11
246.274
21
-116.85
0
LINE
8
Black
10
246.274
20
-116.85
11
246.464
21
-116.945
0
LINE
8
Black
10
246.464
20
-116.945
11
246.483
21
-116.959
0
LINE
8
Black
10
246.483
20
-116.959
11
246.503
21
-116.973
0
LINE
8
Black
10
246.503
20
-116.973
11
246.598
21
-117.068
0
LINE
8
Black
10
246.598
20
-117.068
11
246.612
21
-117.088
0
LINE
8
Black
10
246.612
20
-117.088
11
246.626
21
-117.107
0
LINE
8
Black
10
246.626
20
-117.107
11
246.722
21
-117.298
0
LINE
8
Black
10
246.722
20
-117.298
11
246.724
21
-117.306
0
LINE
8
Black
10
246.724
20
-117.306
11
246.728
21
-117.314
0
LINE
8
Black
10
246.728
20
-117.314
11
246.732
21
-117.331
0
LINE
8
Black
10
246.732
20
-117.331
11
246.737
21
-117.348
0
LINE
8
Black
10
246.737
20
-117.348
11
246.736
21
-117.356
0
LINE
8
Black
10
246.736
20
-117.356
11
246.737
21
-117.365
0
LINE
8
Black
10
246.737
20
-117.365
11
246.737
21
-117.936
0
LINE
8
Black
10
246.737
20
-117.936
11
246.736
21
-117.945
0
LINE
8
Black
10
246.736
20
-117.945
11
246.737
21
-117.953
0
LINE
8
Black
10
246.737
20
-117.953
11
246.732
21
-117.97
0
LINE
8
Black
10
246.732
20
-117.97
11
246.728
21
-117.988
0
LINE
8
Black
10
246.728
20
-117.988
11
246.724
21
-117.995
0
LINE
8
Black
10
246.724
20
-117.995
11
246.722
21
-118.003
0
LINE
8
Black
10
246.722
20
-118.003
11
246.626
21
-118.194
0
LINE
8
Black
10
246.626
20
-118.194
11
246.612
21
-118.213
0
LINE
8
Black
10
246.612
20
-118.213
11
246.598
21
-118.233
0
LINE
8
Black
10
246.598
20
-118.233
11
246.503
21
-118.328
0
LINE
8
Black
10
246.503
20
-118.328
11
246.483
21
-118.342
0
LINE
8
Black
10
246.483
20
-118.342
11
246.464
21
-118.356
0
LINE
8
Black
10
246.464
20
-118.356
11
246.274
21
-118.451
0
LINE
8
Black
10
246.274
20
-118.451
11
246.265
21
-118.454
0
LINE
8
Black
10
246.265
20
-118.454
11
246.258
21
-118.458
0
LINE
8
Black
10
246.258
20
-118.458
11
246.241
21
-118.461
0
LINE
8
Black
10
246.241
20
-118.461
11
246.224
21
-118.466
0
LINE
8
Black
10
246.224
20
-118.466
11
246.215
21
-118.466
0
LINE
8
Black
10
246.215
20
-118.466
11
246.207
21
-118.467
0
LINE
8
Black
10
246.207
20
-118.467
11
245.826
21
-118.467
0
LINE
8
Black
10
245.826
20
-118.467
11
245.817
21
-118.466
0
LINE
8
Black
10
245.817
20
-118.466
11
245.808
21
-118.466
0
LINE
8
Black
10
245.808
20
-118.466
11
245.792
21
-118.461
0
LINE
8
Black
10
245.792
20
-118.461
11
245.774
21
-118.458
0
LINE
8
Black
10
245.774
20
-118.458
11
245.767
21
-118.454
0
LINE
8
Black
10
245.767
20
-118.454
11
245.759
21
-118.451
0
LINE
8
Black
10
245.759
20
-118.451
11
245.725
21
-118.435
0
LINE
8
Black
10
245.725
20
-118.435
11
245.71
21
-118.447
0
LINE
8
Black
10
245.71
20
-118.447
11
245.661
21
-118.465
0
LINE
8
Black
10
245.661
20
-118.465
11
245.609
21
-118.465
0
LINE
8
Black
10
245.609
20
-118.465
11
245.56
21
-118.447
0
LINE
8
Black
10
245.56
20
-118.447
11
245.52
21
-118.414
0
LINE
8
Black
10
245.52
20
-118.414
11
245.494
21
-118.369
0
LINE
8
Black
10
245.494
20
-118.369
11
245.485
21
-118.317
0
LINE
8
Black
10
245.485
20
-118.317
11
245.485
21
-116.317
0
LINE
8
Black
10
245.485
20
-116.317
11
245.494
21
-116.266
0
LINE
8
Black
10
245.494
20
-116.266
11
245.52
21
-116.221
0
LINE
8
Black
10
245.52
20
-116.221
11
245.56
21
-116.187
0
LINE
8
Black
10
245.56
20
-116.187
11
245.609
21
-116.17
0
LINE
8
Black
10
245.609
20
-116.17
11
245.661
21
-116.17
0
LINE
8
Black
10
245.661
20
-116.17
11
245.71
21
-116.187
0
LINE
8
Black
10
245.861
20
-117.134
11
245.785
21
-117.172
0
LINE
8
Black
10
245.785
20
-117.172
11
245.785
21
-118.129
0
LINE
8
Black
10
245.785
20
-118.129
11
245.861
21
-118.167
0
LINE
8
Black
10
245.861
20
-118.167
11
246.171
21
-118.167
0
LINE
8
Black
10
246.171
20
-118.167
11
246.308
21
-118.099
0
LINE
8
Black
10
246.308
20
-118.099
11
246.369
21
-118.038
0
LINE
8
Black
10
246.369
20
-118.038
11
246.438
21
-117.901
0
LINE
8
Black
10
246.438
20
-117.901
11
246.438
21
-117.4
0
LINE
8
Black
10
246.438
20
-117.4
11
246.369
21
-117.263
0
LINE
8
Black
10
246.369
20
-117.263
11
246.308
21
-117.202
0
LINE
8
Black
10
246.308
20
-117.202
11
246.171
21
-117.134
0
LINE
8
Black
10
246.171
20
-117.134
11
245.861
21
-117.134
0
LINE
8
Black
10
259.254
20
-117.978
11
259.267
21
-117.977
0
LINE
8
Black
10
259.267
20
-117.977
11
259.274
21
-117.979
0
LINE
8
Black
10
259.274
20
-117.979
11
259.28
21
-117.979
0
LINE
8
Black
10
259.28
20
-117.979
11
259.286
21
-117.981
0
LINE
8
Black
10
259.286
20
-117.981
11
259.293
21
-117.982
0
LINE
8
Black
10
259.293
20
-117.982
11
259.305
21
-117.987
0
LINE
8
Black
10
259.305
20
-117.987
11
259.318
21
-117.991
0
LINE
8
Black
10
259.318
20
-117.991
11
259.323
21
-117.995
0
LINE
8
Black
10
259.323
20
-117.995
11
259.329
21
-117.997
0
LINE
8
Black
10
259.329
20
-117.997
11
259.334
21
-118.001
0
LINE
8
Black
10
259.334
20
-118.001
11
259.34
21
-118.004
0
LINE
8
Black
10
259.34
20
-118.004
11
259.349
21
-118.013
0
LINE
8
Black
10
259.349
20
-118.013
11
259.36
21
-118.021
0
LINE
8
Black
10
259.36
20
-118.021
11
259.455
21
-118.116
0
LINE
8
Black
10
259.455
20
-118.116
11
259.463
21
-118.127
0
LINE
8
Black
10
259.463
20
-118.127
11
259.472
21
-118.136
0
LINE
8
Black
10
259.472
20
-118.136
11
259.478
21
-118.148
0
LINE
8
Black
10
259.478
20
-118.148
11
259.485
21
-118.159
0
LINE
8
Black
10
259.485
20
-118.159
11
259.489
21
-118.171
0
LINE
8
Black
10
259.489
20
-118.171
11
259.494
21
-118.183
0
LINE
8
Black
10
259.494
20
-118.183
11
259.495
21
-118.196
0
LINE
8
Black
10
259.495
20
-118.196
11
259.499
21
-118.209
0
LINE
8
Black
10
259.499
20
-118.209
11
259.498
21
-118.222
0
LINE
8
Black
10
259.498
20
-118.222
11
259.499
21
-118.235
0
LINE
8
Black
10
259.499
20
-118.235
11
259.495
21
-118.248
0
LINE
8
Black
10
259.495
20
-118.248
11
259.494
21
-118.261
0
LINE
8
Black
10
259.494
20
-118.261
11
259.489
21
-118.273
0
LINE
8
Black
10
259.489
20
-118.273
11
259.485
21
-118.285
0
LINE
8
Black
10
259.485
20
-118.285
11
259.478
21
-118.296
0
LINE
8
Black
10
259.478
20
-118.296
11
259.472
21
-118.308
0
LINE
8
Black
10
259.472
20
-118.308
11
259.463
21
-118.317
0
LINE
8
Black
10
259.463
20
-118.317
11
259.455
21
-118.328
0
LINE
8
Black
10
259.455
20
-118.328
11
259.36
21
-118.423
0
LINE
8
Black
10
259.36
20
-118.423
11
259.349
21
-118.431
0
LINE
8
Black
10
259.349
20
-118.431
11
259.34
21
-118.44
0
LINE
8
Black
10
259.34
20
-118.44
11
259.334
21
-118.443
0
LINE
8
Black
10
259.334
20
-118.443
11
259.329
21
-118.447
0
LINE
8
Black
10
259.329
20
-118.447
11
259.323
21
-118.449
0
LINE
8
Black
10
259.323
20
-118.449
11
259.318
21
-118.453
0
LINE
8
Black
10
259.318
20
-118.453
11
259.305
21
-118.457
0
LINE
8
Black
10
259.305
20
-118.457
11
259.293
21
-118.462
0
LINE
8
Black
10
259.293
20
-118.462
11
259.286
21
-118.463
0
LINE
8
Black
10
259.286
20
-118.463
11
259.28
21
-118.465
0
LINE
8
Black
10
259.28
20
-118.465
11
259.274
21
-118.465
0
LINE
8
Black
10
259.274
20
-118.465
11
259.267
21
-118.467
0
LINE
8
Black
10
259.267
20
-118.467
11
259.254
21
-118.466
0
LINE
8
Black
10
259.254
20
-118.466
11
259.241
21
-118.467
0
LINE
8
Black
10
259.241
20
-118.467
11
259.235
21
-118.465
0
LINE
8
Black
10
259.235
20
-118.465
11
259.228
21
-118.465
0
LINE
8
Black
10
259.228
20
-118.465
11
259.222
21
-118.463
0
LINE
8
Black
10
259.222
20
-118.463
11
259.215
21
-118.462
0
LINE
8
Black
10
259.215
20
-118.462
11
259.203
21
-118.457
0
LINE
8
Black
10
259.203
20
-118.457
11
259.191
21
-118.453
0
LINE
8
Black
10
259.191
20
-118.453
11
259.185
21
-118.449
0
LINE
8
Black
10
259.185
20
-118.449
11
259.179
21
-118.447
0
LINE
8
Black
10
259.179
20
-118.447
11
259.174
21
-118.443
0
LINE
8
Black
10
259.174
20
-118.443
11
259.168
21
-118.44
0
LINE
8
Black
10
259.168
20
-118.44
11
259.159
21
-118.431
0
LINE
8
Black
10
259.159
20
-118.431
11
259.148
21
-118.423
0
LINE
8
Black
10
259.148
20
-118.423
11
259.053
21
-118.328
0
LINE
8
Black
10
259.053
20
-118.328
11
259.045
21
-118.317
0
LINE
8
Black
10
259.045
20
-118.317
11
259.036
21
-118.308
0
LINE
8
Black
10
259.036
20
-118.308
11
259.031
21
-118.296
0
LINE
8
Black
10
259.031
20
-118.296
11
259.023
21
-118.285
0
LINE
8
Black
10
259.023
20
-118.285
11
259.02
21
-118.273
0
LINE
8
Black
10
259.02
20
-118.273
11
259.014
21
-118.261
0
LINE
8
Black
10
259.014
20
-118.261
11
259.013
21
-118.248
0
LINE
8
Black
10
259.013
20
-118.248
11
259.009
21
-118.235
0
LINE
8
Black
10
259.009
20
-118.235
11
259.011
21
-118.222
0
LINE
8
Black
10
259.011
20
-118.222
11
259.009
21
-118.209
0
LINE
8
Black
10
259.009
20
-118.209
11
259.013
21
-118.196
0
LINE
8
Black
10
259.013
20
-118.196
11
259.014
21
-118.183
0
LINE
8
Black
10
259.014
20
-118.183
11
259.02
21
-118.171
0
LINE
8
Black
10
259.02
20
-118.171
11
259.023
21
-118.159
0
LINE
8
Black
10
259.023
20
-118.159
11
259.031
21
-118.148
0
LINE
8
Black
10
259.031
20
-118.148
11
259.036
21
-118.136
0
LINE
8
Black
10
259.036
20
-118.136
11
259.045
21
-118.127
0
LINE
8
Black
10
259.045
20
-118.127
11
259.053
21
-118.116
0
LINE
8
Black
10
259.053
20
-118.116
11
259.148
21
-118.021
0
LINE
8
Black
10
259.148
20
-118.021
11
259.159
21
-118.013
0
LINE
8
Black
10
259.159
20
-118.013
11
259.168
21
-118.004
0
LINE
8
Black
10
259.168
20
-118.004
11
259.174
21
-118.001
0
LINE
8
Black
10
259.174
20
-118.001
11
259.179
21
-117.997
0
LINE
8
Black
10
259.179
20
-117.997
11
259.185
21
-117.995
0
LINE
8
Black
10
259.185
20
-117.995
11
259.191
21
-117.991
0
LINE
8
Black
10
259.191
20
-117.991
11
259.203
21
-117.987
0
LINE
8
Black
10
259.203
20
-117.987
11
259.215
21
-117.982
0
LINE
8
Black
10
259.215
20
-117.982
11
259.222
21
-117.981
0
LINE
8
Black
10
259.222
20
-117.981
11
259.228
21
-117.979
0
LINE
8
Black
10
259.228
20
-117.979
11
259.235
21
-117.979
0
LINE
8
Black
10
259.235
20
-117.979
11
259.241
21
-117.977
0
LINE
8
Black
10
259.241
20
-117.977
11
259.254
21
-117.978
0
LINE
8
Black
10
249.635
20
-117.978
11
249.648
21
-117.977
0
LINE
8
Black
10
249.648
20
-117.977
11
249.655
21
-117.979
0
LINE
8
Black
10
249.655
20
-117.979
11
249.661
21
-117.979
0
LINE
8
Black
10
249.661
20
-117.979
11
249.667
21
-117.981
0
LINE
8
Black
10
249.667
20
-117.981
11
249.674
21
-117.982
0
LINE
8
Black
10
249.674
20
-117.982
11
249.686
21
-117.987
0
LINE
8
Black
10
249.686
20
-117.987
11
249.699
21
-117.991
0
LINE
8
Black
10
249.699
20
-117.991
11
249.704
21
-117.995
0
LINE
8
Black
10
249.704
20
-117.995
11
249.71
21
-117.997
0
LINE
8
Black
10
249.71
20
-117.997
11
249.715
21
-118.001
0
LINE
8
Black
10
249.715
20
-118.001
11
249.721
21
-118.004
0
LINE
8
Black
10
249.721
20
-118.004
11
249.73
21
-118.013
0
LINE
8
Black
10
249.73
20
-118.013
11
249.741
21
-118.021
0
LINE
8
Black
10
249.741
20
-118.021
11
249.836
21
-118.116
0
LINE
8
Black
10
249.836
20
-118.116
11
249.844
21
-118.127
0
LINE
8
Black
10
249.844
20
-118.127
11
249.853
21
-118.136
0
LINE
8
Black
10
249.853
20
-118.136
11
249.859
21
-118.148
0
LINE
8
Black
10
249.859
20
-118.148
11
249.866
21
-118.159
0
LINE
8
Black
10
249.866
20
-118.159
11
249.87
21
-118.171
0
LINE
8
Black
10
249.87
20
-118.171
11
249.875
21
-118.183
0
LINE
8
Black
10
249.875
20
-118.183
11
249.876
21
-118.196
0
LINE
8
Black
10
249.876
20
-118.196
11
249.88
21
-118.209
0
LINE
8
Black
10
249.88
20
-118.209
11
249.879
21
-118.222
0
LINE
8
Black
10
249.879
20
-118.222
11
249.88
21
-118.235
0
LINE
8
Black
10
249.88
20
-118.235
11
249.876
21
-118.248
0
LINE
8
Black
10
249.876
20
-118.248
11
249.875
21
-118.261
0
LINE
8
Black
10
249.875
20
-118.261
11
249.87
21
-118.273
0
LINE
8
Black
10
249.87
20
-118.273
11
249.866
21
-118.285
0
LINE
8
Black
10
249.866
20
-118.285
11
249.859
21
-118.296
0
LINE
8
Black
10
249.859
20
-118.296
11
249.853
21
-118.308
0
LINE
8
Black
10
249.853
20
-118.308
11
249.844
21
-118.317
0
LINE
8
Black
10
249.844
20
-118.317
11
249.836
21
-118.328
0
LINE
8
Black
10
249.836
20
-118.328
11
249.741
21
-118.423
0
LINE
8
Black
10
249.741
20
-118.423
11
249.73
21
-118.431
0
LINE
8
Black
10
249.73
20
-118.431
11
249.721
21
-118.44
0
LINE
8
Black
10
249.721
20
-118.44
11
249.715
21
-118.443
0
LINE
8
Black
10
249.715
20
-118.443
11
249.71
21
-118.447
0
LINE
8
Black
10
249.71
20
-118.447
11
249.704
21
-118.449
0
LINE
8
Black
10
249.704
20
-118.449
11
249.699
21
-118.453
0
LINE
8
Black
10
249.699
20
-118.453
11
249.686
21
-118.457
0
LINE
8
Black
10
249.686
20
-118.457
11
249.674
21
-118.462
0
LINE
8
Black
10
249.674
20
-118.462
11
249.667
21
-118.463
0
LINE
8
Black
10
249.667
20
-118.463
11
249.661
21
-118.465
0
LINE
8
Black
10
249.661
20
-118.465
11
249.655
21
-118.465
0
LINE
8
Black
10
249.655
20
-118.465
11
249.648
21
-118.467
0
LINE
8
Black
10
249.648
20
-118.467
11
249.635
21
-118.466
0
LINE
8
Black
10
249.635
20
-118.466
11
249.622
21
-118.467
0
LINE
8
Black
10
249.622
20
-118.467
11
249.616
21
-118.465
0
LINE
8
Black
10
249.616
20
-118.465
11
249.609
21
-118.465
0
LINE
8
Black
10
249.609
20
-118.465
11
249.603
21
-118.463
0
LINE
8
Black
10
249.603
20
-118.463
11
249.596
21
-118.462
0
LINE
8
Black
10
249.596
20
-118.462
11
249.584
21
-118.457
0
LINE
8
Black
10
249.584
20
-118.457
11
249.572
21
-118.453
0
LINE
8
Black
10
249.572
20
-118.453
11
249.566
21
-118.449
0
LINE
8
Black
10
249.566
20
-118.449
11
249.56
21
-118.447
0
LINE
8
Black
10
249.56
20
-118.447
11
249.555
21
-118.443
0
LINE
8
Black
10
249.555
20
-118.443
11
249.549
21
-118.44
0
LINE
8
Black
10
249.549
20
-118.44
11
249.54
21
-118.431
0
LINE
8
Black
10
249.54
20
-118.431
11
249.529
21
-118.423
0
LINE
8
Black
10
249.529
20
-118.423
11
249.434
21
-118.328
0
LINE
8
Black
10
249.434
20
-118.328
11
249.426
21
-118.317
0
LINE
8
Black
10
249.426
20
-118.317
11
249.417
21
-118.308
0
LINE
8
Black
10
249.417
20
-118.308
11
249.411
21
-118.296
0
LINE
8
Black
10
249.411
20
-118.296
11
249.404
21
-118.285
0
LINE
8
Black
10
249.404
20
-118.285
11
249.401
21
-118.273
0
LINE
8
Black
10
249.401
20
-118.273
11
249.395
21
-118.261
0
LINE
8
Black
10
249.395
20
-118.261
11
249.394
21
-118.248
0
LINE
8
Black
10
249.394
20
-118.248
11
249.39
21
-118.235
0
LINE
8
Black
10
249.39
20
-118.235
11
249.392
21
-118.222
0
LINE
8
Black
10
249.392
20
-118.222
11
249.39
21
-118.209
0
LINE
8
Black
10
249.39
20
-118.209
11
249.394
21
-118.196
0
LINE
8
Black
10
249.394
20
-118.196
11
249.395
21
-118.183
0
LINE
8
Black
10
249.395
20
-118.183
11
249.401
21
-118.171
0
LINE
8
Black
10
249.401
20
-118.171
11
249.404
21
-118.159
0
LINE
8
Black
10
249.404
20
-118.159
11
249.411
21
-118.148
0
LINE
8
Black
10
249.411
20
-118.148
11
249.417
21
-118.136
0
LINE
8
Black
10
249.417
20
-118.136
11
249.426
21
-118.127
0
LINE
8
Black
10
249.426
20
-118.127
11
249.434
21
-118.116
0
LINE
8
Black
10
249.434
20
-118.116
11
249.529
21
-118.021
0
LINE
8
Black
10
249.529
20
-118.021
11
249.54
21
-118.013
0
LINE
8
Black
10
249.54
20
-118.013
11
249.549
21
-118.004
0
LINE
8
Black
10
249.549
20
-118.004
11
249.555
21
-118.001
0
LINE
8
Black
10
249.555
20
-118.001
11
249.56
21
-117.997
0
LINE
8
Black
10
249.56
20
-117.997
11
249.566
21
-117.995
0
LINE
8
Black
10
249.566
20
-117.995
11
249.572
21
-117.991
0
LINE
8
Black
10
249.572
20
-117.991
11
249.584
21
-117.987
0
LINE
8
Black
10
249.584
20
-117.987
11
249.596
21
-117.982
0
LINE
8
Black
10
249.596
20
-117.982
11
249.603
21
-117.981
0
LINE
8
Black
10
249.603
20
-117.981
11
249.609
21
-117.979
0
LINE
8
Black
10
249.609
20
-117.979
11
249.616
21
-117.979
0
LINE
8
Black
10
249.616
20
-117.979
11
249.622
21
-117.977
0
LINE
8
Black
10
249.622
20
-117.977
11
249.635
21
-117.978
0
LINE
8
Black
10
263.701
20
-116.849
11
263.743
21
-116.88
0
LINE
8
Black
10
263.743
20
-116.88
11
263.772
21
-116.923
0
LINE
8
Black
10
263.772
20
-116.923
11
263.785
21
-116.973
0
LINE
8
Black
10
263.785
20
-116.973
11
263.779
21
-117.025
0
LINE
8
Black
10
263.779
20
-117.025
11
263.398
21
-118.358
0
LINE
8
Black
10
263.398
20
-118.358
11
263.397
21
-118.361
0
LINE
8
Black
10
263.397
20
-118.361
11
263.397
21
-118.364
0
LINE
8
Black
10
263.397
20
-118.364
11
263.386
21
-118.385
0
LINE
8
Black
10
263.386
20
-118.385
11
263.376
21
-118.405
0
LINE
8
Black
10
263.376
20
-118.405
11
263.373
21
-118.407
0
LINE
8
Black
10
263.373
20
-118.407
11
263.372
21
-118.41
0
LINE
8
Black
10
263.372
20
-118.41
11
263.355
21
-118.425
0
LINE
8
Black
10
263.355
20
-118.425
11
263.338
21
-118.442
0
LINE
8
Black
10
263.338
20
-118.442
11
263.335
21
-118.443
0
LINE
8
Black
10
263.335
20
-118.443
11
263.333
21
-118.445
0
LINE
8
Black
10
263.333
20
-118.445
11
263.312
21
-118.453
0
LINE
8
Black
10
263.312
20
-118.453
11
263.291
21
-118.463
0
LINE
8
Black
10
263.291
20
-118.463
11
263.288
21
-118.463
0
LINE
8
Black
10
263.288
20
-118.463
11
263.285
21
-118.464
0
LINE
8
Black
10
263.285
20
-118.464
11
263.262
21
-118.465
0
LINE
8
Black
10
263.262
20
-118.465
11
263.239
21
-118.466
0
LINE
8
Black
10
263.239
20
-118.466
11
263.236
21
-118.466
0
LINE
8
Black
10
263.236
20
-118.466
11
263.233
21
-118.466
0
LINE
8
Black
10
263.233
20
-118.466
11
263.211
21
-118.458
0
LINE
8
Black
10
263.211
20
-118.458
11
263.189
21
-118.452
0
LINE
8
Black
10
263.189
20
-118.452
11
263.186
21
-118.45
0
LINE
8
Black
10
263.186
20
-118.45
11
263.183
21
-118.449
0
LINE
8
Black
10
263.183
20
-118.449
11
263.165
21
-118.435
0
LINE
8
Black
10
263.165
20
-118.435
11
263.146
21
-118.422
0
LINE
8
Black
10
263.146
20
-118.422
11
263.145
21
-118.419
0
LINE
8
Black
10
263.145
20
-118.419
11
263.142
21
-118.417
0
LINE
8
Black
10
263.142
20
-118.417
11
263.13
21
-118.398
0
LINE
8
Black
10
263.13
20
-118.398
11
263.117
21
-118.378
0
LINE
8
Black
10
263.117
20
-118.378
11
263.116
21
-118.376
0
LINE
8
Black
10
263.116
20
-118.376
11
263.115
21
-118.373
0
LINE
8
Black
10
263.115
20
-118.373
11
262.873
21
-117.769
0
LINE
8
Black
10
262.873
20
-117.769
11
262.632
21
-118.373
0
LINE
8
Black
10
262.632
20
-118.373
11
262.63
21
-118.376
0
LINE
8
Black
10
262.63
20
-118.376
11
262.629
21
-118.378
0
LINE
8
Black
10
262.629
20
-118.378
11
262.616
21
-118.398
0
LINE
8
Black
10
262.616
20
-118.398
11
262.604
21
-118.417
0
LINE
8
Black
10
262.604
20
-118.417
11
262.602
21
-118.419
0
LINE
8
Black
10
262.602
20
-118.419
11
262.6
21
-118.422
0
LINE
8
Black
10
262.6
20
-118.422
11
262.581
21
-118.435
0
LINE
8
Black
10
262.581
20
-118.435
11
262.563
21
-118.449
0
LINE
8
Black
10
262.563
20
-118.449
11
262.56
21
-118.45
0
LINE
8
Black
10
262.56
20
-118.45
11
262.558
21
-118.452
0
LINE
8
Black
10
262.558
20
-118.452
11
262.536
21
-118.458
0
LINE
8
Black
10
262.536
20
-118.458
11
262.514
21
-118.466
0
LINE
8
Black
10
262.514
20
-118.466
11
262.511
21
-118.466
0
LINE
8
Black
10
262.511
20
-118.466
11
262.508
21
-118.466
0
LINE
8
Black
10
262.508
20
-118.466
11
262.485
21
-118.465
0
LINE
8
Black
10
262.485
20
-118.465
11
262.462
21
-118.464
0
LINE
8
Black
10
262.462
20
-118.464
11
262.459
21
-118.463
0
LINE
8
Black
10
262.459
20
-118.463
11
262.456
21
-118.463
0
LINE
8
Black
10
262.456
20
-118.463
11
262.435
21
-118.453
0
LINE
8
Black
10
262.435
20
-118.453
11
262.413
21
-118.445
0
LINE
8
Black
10
262.413
20
-118.445
11
262.411
21
-118.443
0
LINE
8
Black
10
262.411
20
-118.443
11
262.408
21
-118.442
0
LINE
8
Black
10
262.408
20
-118.442
11
262.392
21
-118.425
0
LINE
8
Black
10
262.392
20
-118.425
11
262.374
21
-118.41
0
LINE
8
Black
10
262.374
20
-118.41
11
262.373
21
-118.407
0
LINE
8
Black
10
262.373
20
-118.407
11
262.371
21
-118.405
0
LINE
8
Black
10
262.371
20
-118.405
11
262.361
21
-118.385
0
LINE
8
Black
10
262.361
20
-118.385
11
262.35
21
-118.364
0
LINE
8
Black
10
262.35
20
-118.364
11
262.349
21
-118.361
0
LINE
8
Black
10
262.349
20
-118.361
11
262.348
21
-118.358
0
LINE
8
Black
10
262.348
20
-118.358
11
261.967
21
-117.025
0
LINE
8
Black
10
261.967
20
-117.025
11
261.962
21
-116.973
0
LINE
8
Black
10
261.962
20
-116.973
11
261.974
21
-116.923
0
LINE
8
Black
10
261.974
20
-116.923
11
262.004
21
-116.88
0
LINE
8
Black
10
262.004
20
-116.88
11
262.046
21
-116.849
0
LINE
8
Black
10
262.046
20
-116.849
11
262.096
21
-116.835
0
LINE
8
Black
10
262.096
20
-116.835
11
262.148
21
-116.838
0
LINE
8
Black
10
262.148
20
-116.838
11
262.195
21
-116.86
0
LINE
8
Black
10
262.195
20
-116.86
11
262.233
21
-116.896
0
LINE
8
Black
10
262.233
20
-116.896
11
262.256
21
-116.943
0
LINE
8
Black
10
262.256
20
-116.943
11
262.516
21
-117.854
0
LINE
8
Black
10
262.516
20
-117.854
11
262.734
21
-117.309
0
LINE
8
Black
10
262.734
20
-117.309
11
262.745
21
-117.291
0
LINE
8
Black
10
262.745
20
-117.291
11
262.755
21
-117.272
0
LINE
8
Black
10
262.755
20
-117.272
11
262.759
21
-117.269
0
LINE
8
Black
10
262.759
20
-117.269
11
262.761
21
-117.265
0
LINE
8
Black
10
262.761
20
-117.265
11
262.778
21
-117.252
0
LINE
8
Black
10
262.778
20
-117.252
11
262.794
21
-117.237
0
LINE
8
Black
10
262.794
20
-117.237
11
262.799
21
-117.236
0
LINE
8
Black
10
262.799
20
-117.236
11
262.802
21
-117.233
0
LINE
8
Black
10
262.802
20
-117.233
11
262.823
21
-117.226
0
LINE
8
Black
10
262.823
20
-117.226
11
262.843
21
-117.218
0
LINE
8
Black
10
262.843
20
-117.218
11
262.847
21
-117.218
0
LINE
8
Black
10
262.847
20
-117.218
11
262.852
21
-117.216
0
LINE
8
Black
10
262.852
20
-117.216
11
262.873
21
-117.217
0
LINE
8
Black
10
262.873
20
-117.217
11
262.895
21
-117.216
0
LINE
8
Black
10
262.895
20
-117.216
11
262.899
21
-117.218
0
LINE
8
Black
10
262.899
20
-117.218
11
262.904
21
-117.218
0
LINE
8
Black
10
262.904
20
-117.218
11
262.924
21
-117.226
0
LINE
8
Black
10
262.924
20
-117.226
11
262.944
21
-117.233
0
LINE
8
Black
10
262.944
20
-117.233
11
262.948
21
-117.236
0
LINE
8
Black
10
262.948
20
-117.236
11
262.952
21
-117.237
0
LINE
8
Black
10
262.952
20
-117.237
11
262.968
21
-117.252
0
LINE
8
Black
10
262.968
20
-117.252
11
262.985
21
-117.265
0
LINE
8
Black
10
262.985
20
-117.265
11
262.988
21
-117.269
0
LINE
8
Black
10
262.988
20
-117.269
11
262.991
21
-117.272
0
LINE
8
Black
10
262.991
20
-117.272
11
263.001
21
-117.291
0
LINE
8
Black
10
263.001
20
-117.291
11
263.012
21
-117.309
0
LINE
8
Black
10
263.012
20
-117.309
11
263.23
21
-117.854
0
LINE
8
Black
10
263.23
20
-117.854
11
263.491
21
-116.943
0
LINE
8
Black
10
263.491
20
-116.943
11
263.514
21
-116.896
0
LINE
8
Black
10
263.514
20
-116.896
11
263.551
21
-116.86
0
LINE
8
Black
10
263.551
20
-116.86
11
263.599
21
-116.838
0
LINE
8
Black
10
263.599
20
-116.838
11
263.651
21
-116.835
0
LINE
8
Black
10
263.651
20
-116.835
11
263.701
21
-116.849
0
LINE
8
Black
10
265.796
20
-116.849
11
265.838
21
-116.88
0
LINE
8
Black
10
265.838
20
-116.88
11
265.867
21
-116.923
0
LINE
8
Black
10
265.867
20
-116.923
11
265.88
21
-116.973
0
LINE
8
Black
10
265.88
20
-116.973
11
265.875
21
-117.025
0
LINE
8
Black
10
265.875
20
-117.025
11
265.494
21
-118.358
0
LINE
8
Black
10
265.494
20
-118.358
11
265.492
21
-118.361
0
LINE
8
Black
10
265.492
20
-118.361
11
265.492
21
-118.364
0
LINE
8
Black
10
265.492
20
-118.364
11
265.481
21
-118.385
0
LINE
8
Black
10
265.481
20
-118.385
11
265.471
21
-118.405
0
LINE
8
Black
10
265.471
20
-118.405
11
265.469
21
-118.407
0
LINE
8
Black
10
265.469
20
-118.407
11
265.467
21
-118.41
0
LINE
8
Black
10
265.467
20
-118.41
11
265.45
21
-118.425
0
LINE
8
Black
10
265.45
20
-118.425
11
265.433
21
-118.442
0
LINE
8
Black
10
265.433
20
-118.442
11
265.431
21
-118.443
0
LINE
8
Black
10
265.431
20
-118.443
11
265.428
21
-118.445
0
LINE
8
Black
10
265.428
20
-118.445
11
265.407
21
-118.453
0
LINE
8
Black
10
265.407
20
-118.453
11
265.386
21
-118.463
0
LINE
8
Black
10
265.386
20
-118.463
11
265.383
21
-118.463
0
LINE
8
Black
10
265.383
20
-118.463
11
265.38
21
-118.464
0
LINE
8
Black
10
265.38
20
-118.464
11
265.357
21
-118.465
0
LINE
8
Black
10
265.357
20
-118.465
11
265.334
21
-118.466
0
LINE
8
Black
10
265.334
20
-118.466
11
265.331
21
-118.466
0
LINE
8
Black
10
265.331
20
-118.466
11
265.328
21
-118.466
0
LINE
8
Black
10
265.328
20
-118.466
11
265.306
21
-118.458
0
LINE
8
Black
10
265.306
20
-118.458
11
265.284
21
-118.452
0
LINE
8
Black
10
265.284
20
-118.452
11
265.281
21
-118.45
0
LINE
8
Black
10
265.281
20
-118.45
11
265.279
21
-118.449
0
LINE
8
Black
10
265.279
20
-118.449
11
265.26
21
-118.435
0
LINE
8
Black
10
265.26
20
-118.435
11
265.242
21
-118.422
0
LINE
8
Black
10
265.242
20
-118.422
11
265.24
21
-118.419
0
LINE
8
Black
10
265.24
20
-118.419
11
265.238
21
-118.417
0
LINE
8
Black
10
265.238
20
-118.417
11
265.225
21
-118.398
0
LINE
8
Black
10
265.225
20
-118.398
11
265.212
21
-118.378
0
LINE
8
Black
10
265.212
20
-118.378
11
265.212
21
-118.376
0
LINE
8
Black
10
265.212
20
-118.376
11
265.21
21
-118.373
0
LINE
8
Black
10
265.21
20
-118.373
11
264.968
21
-117.769
0
LINE
8
Black
10
264.968
20
-117.769
11
264.727
21
-118.373
0
LINE
8
Black
10
264.727
20
-118.373
11
264.725
21
-118.376
0
LINE
8
Black
10
264.725
20
-118.376
11
264.724
21
-118.378
0
LINE
8
Black
10
264.724
20
-118.378
11
264.712
21
-118.398
0
LINE
8
Black
10
264.712
20
-118.398
11
264.699
21
-118.417
0
LINE
8
Black
10
264.699
20
-118.417
11
264.697
21
-118.419
0
LINE
8
Black
10
264.697
20
-118.419
11
264.695
21
-118.422
0
LINE
8
Black
10
264.695
20
-118.422
11
264.677
21
-118.435
0
LINE
8
Black
10
264.677
20
-118.435
11
264.658
21
-118.449
0
LINE
8
Black
10
264.658
20
-118.449
11
264.656
21
-118.45
0
LINE
8
Black
10
264.656
20
-118.45
11
264.653
21
-118.452
0
LINE
8
Black
10
264.653
20
-118.452
11
264.631
21
-118.458
0
LINE
8
Black
10
264.631
20
-118.458
11
264.609
21
-118.466
0
LINE
8
Black
10
264.609
20
-118.466
11
264.606
21
-118.466
0
LINE
8
Black
10
264.606
20
-118.466
11
264.603
21
-118.466
0
LINE
8
Black
10
264.603
20
-118.466
11
264.58
21
-118.465
0
LINE
8
Black
10
264.58
20
-118.465
11
264.557
21
-118.464
0
LINE
8
Black
10
264.557
20
-118.464
11
264.554
21
-118.463
0
LINE
8
Black
10
264.554
20
-118.463
11
264.551
21
-118.463
0
LINE
8
Black
10
264.551
20
-118.463
11
264.53
21
-118.453
0
LINE
8
Black
10
264.53
20
-118.453
11
264.508
21
-118.445
0
LINE
8
Black
10
264.508
20
-118.445
11
264.506
21
-118.443
0
LINE
8
Black
10
264.506
20
-118.443
11
264.504
21
-118.442
0
LINE
8
Black
10
264.504
20
-118.442
11
264.487
21
-118.425
0
LINE
8
Black
10
264.487
20
-118.425
11
264.47
21
-118.41
0
LINE
8
Black
10
264.47
20
-118.41
11
264.468
21
-118.407
0
LINE
8
Black
10
264.468
20
-118.407
11
264.466
21
-118.405
0
LINE
8
Black
10
264.466
20
-118.405
11
264.456
21
-118.385
0
LINE
8
Black
10
264.456
20
-118.385
11
264.445
21
-118.364
0
LINE
8
Black
10
264.445
20
-118.364
11
264.445
21
-118.361
0
LINE
8
Black
10
264.445
20
-118.361
11
264.443
21
-118.358
0
LINE
8
Black
10
264.443
20
-118.358
11
264.062
21
-117.025
0
LINE
8
Black
10
264.062
20
-117.025
11
264.057
21
-116.973
0
LINE
8
Black
10
264.057
20
-116.973
11
264.07
21
-116.923
0
LINE
8
Black
10
264.07
20
-116.923
11
264.099
21
-116.88
0
LINE
8
Black
10
264.099
20
-116.88
11
264.141
21
-116.849
0
LINE
8
Black
10
264.141
20
-116.849
11
264.191
21
-116.835
0
LINE
8
Black
10
264.191
20
-116.835
11
264.243
21
-116.838
0
LINE
8
Black
10
264.243
20
-116.838
11
264.291
21
-116.86
0
LINE
8
Black
10
264.291
20
-116.86
11
264.328
21
-116.896
0
LINE
8
Black
10
264.328
20
-116.896
11
264.351
21
-116.943
0
LINE
8
Black
10
264.351
20
-116.943
11
264.611
21
-117.854
0
LINE
8
Black
10
264.611
20
-117.854
11
264.829
21
-117.309
0
LINE
8
Black
10
264.829
20
-117.309
11
264.84
21
-117.291
0
LINE
8
Black
10
264.84
20
-117.291
11
264.851
21
-117.272
0
LINE
8
Black
10
264.851
20
-117.272
11
264.854
21
-117.269
0
LINE
8
Black
10
264.854
20
-117.269
11
264.857
21
-117.265
0
LINE
8
Black
10
264.857
20
-117.265
11
264.873
21
-117.252
0
LINE
8
Black
10
264.873
20
-117.252
11
264.889
21
-117.237
0
LINE
8
Black
10
264.889
20
-117.237
11
264.894
21
-117.236
0
LINE
8
Black
10
264.894
20
-117.236
11
264.898
21
-117.233
0
LINE
8
Black
10
264.898
20
-117.233
11
264.918
21
-117.226
0
LINE
8
Black
10
264.918
20
-117.226
11
264.938
21
-117.218
0
LINE
8
Black
10
264.938
20
-117.218
11
264.943
21
-117.218
0
LINE
8
Black
10
264.943
20
-117.218
11
264.947
21
-117.216
0
LINE
8
Black
10
264.947
20
-117.216
11
264.968
21
-117.217
0
LINE
8
Black
10
264.968
20
-117.217
11
264.99
21
-117.216
0
LINE
8
Black
10
264.99
20
-117.216
11
264.994
21
-117.218
0
LINE
8
Black
10
264.994
20
-117.218
11
264.999
21
-117.218
0
LINE
8
Black
10
264.999
20
-117.218
11
265.019
21
-117.226
0
LINE
8
Black
10
265.019
20
-117.226
11
265.039
21
-117.233
0
LINE
8
Black
10
265.039
20
-117.233
11
265.043
21
-117.236
0
LINE
8
Black
10
265.043
20
-117.236
11
265.047
21
-117.237
0
LINE
8
Black
10
265.047
20
-117.237
11
265.063
21
-117.252
0
LINE
8
Black
10
265.063
20
-117.252
11
265.08
21
-117.265
0
LINE
8
Black
10
265.08
20
-117.265
11
265.083
21
-117.269
0
LINE
8
Black
10
265.083
20
-117.269
11
265.086
21
-117.272
0
LINE
8
Black
10
265.086
20
-117.272
11
265.096
21
-117.291
0
LINE
8
Black
10
265.096
20
-117.291
11
265.108
21
-117.309
0
LINE
8
Black
10
265.108
20
-117.309
11
265.326
21
-117.854
0
LINE
8
Black
10
265.326
20
-117.854
11
265.586
21
-116.943
0
LINE
8
Black
10
265.586
20
-116.943
11
265.609
21
-116.896
0
LINE
8
Black
10
265.609
20
-116.896
11
265.646
21
-116.86
0
LINE
8
Black
10
265.646
20
-116.86
11
265.694
21
-116.838
0
LINE
8
Black
10
265.694
20
-116.838
11
265.746
21
-116.835
0
LINE
8
Black
10
265.746
20
-116.835
11
265.796
21
-116.849
0
LINE
8
Black
10
261.606
20
-116.849
11
261.648
21
-116.88
0
LINE
8
Black
10
261.648
20
-116.88
11
261.677
21
-116.923
0
LINE
8
Black
10
261.677
20
-116.923
11
261.69
21
-116.973
0
LINE
8
Black
10
261.69
20
-116.973
11
261.684
21
-117.025
0
LINE
8
Black
10
261.684
20
-117.025
11
261.303
21
-118.358
0
LINE
8
Black
10
261.303
20
-118.358
11
261.302
21
-118.361
0
LINE
8
Black
10
261.302
20
-118.361
11
261.301
21
-118.364
0
LINE
8
Black
10
261.301
20
-118.364
11
261.29
21
-118.385
0
LINE
8
Black
10
261.29
20
-118.385
11
261.28
21
-118.405
0
LINE
8
Black
10
261.28
20
-118.405
11
261.278
21
-118.407
0
LINE
8
Black
10
261.278
20
-118.407
11
261.277
21
-118.41
0
LINE
8
Black
10
261.277
20
-118.41
11
261.26
21
-118.425
0
LINE
8
Black
10
261.26
20
-118.425
11
261.243
21
-118.442
0
LINE
8
Black
10
261.243
20
-118.442
11
261.24
21
-118.443
0
LINE
8
Black
10
261.24
20
-118.443
11
261.238
21
-118.445
0
LINE
8
Black
10
261.238
20
-118.445
11
261.216
21
-118.453
0
LINE
8
Black
10
261.216
20
-118.453
11
261.195
21
-118.463
0
LINE
8
Black
10
261.195
20
-118.463
11
261.192
21
-118.463
0
LINE
8
Black
10
261.192
20
-118.463
11
261.19
21
-118.464
0
LINE
8
Black
10
261.19
20
-118.464
11
261.166
21
-118.465
0
LINE
8
Black
10
261.166
20
-118.465
11
261.143
21
-118.466
0
LINE
8
Black
10
261.143
20
-118.466
11
261.141
21
-118.466
0
LINE
8
Black
10
261.141
20
-118.466
11
261.138
21
-118.466
0
LINE
8
Black
10
261.138
20
-118.466
11
261.116
21
-118.458
0
LINE
8
Black
10
261.116
20
-118.458
11
261.093
21
-118.452
0
LINE
8
Black
10
261.093
20
-118.452
11
261.091
21
-118.45
0
LINE
8
Black
10
261.091
20
-118.45
11
261.088
21
-118.449
0
LINE
8
Black
10
261.088
20
-118.449
11
261.07
21
-118.435
0
LINE
8
Black
10
261.07
20
-118.435
11
261.051
21
-118.422
0
LINE
8
Black
10
261.051
20
-118.422
11
261.049
21
-118.419
0
LINE
8
Black
10
261.049
20
-118.419
11
261.047
21
-118.417
0
LINE
8
Black
10
261.047
20
-118.417
11
261.035
21
-118.398
0
LINE
8
Black
10
261.035
20
-118.398
11
261.022
21
-118.378
0
LINE
8
Black
10
261.022
20
-118.378
11
261.021
21
-118.376
0
LINE
8
Black
10
261.021
20
-118.376
11
261.02
21
-118.373
0
LINE
8
Black
10
261.02
20
-118.373
11
260.778
21
-117.769
0
LINE
8
Black
10
260.778
20
-117.769
11
260.536
21
-118.373
0
LINE
8
Black
10
260.536
20
-118.373
11
260.535
21
-118.376
0
LINE
8
Black
10
260.535
20
-118.376
11
260.534
21
-118.378
0
LINE
8
Black
10
260.534
20
-118.378
11
260.521
21
-118.398
0
LINE
8
Black
10
260.521
20
-118.398
11
260.509
21
-118.417
0
LINE
8
Black
10
260.509
20
-118.417
11
260.506
21
-118.419
0
LINE
8
Black
10
260.506
20
-118.419
11
260.505
21
-118.422
0
LINE
8
Black
10
260.505
20
-118.422
11
260.486
21
-118.435
0
LINE
8
Black
10
260.486
20
-118.435
11
260.468
21
-118.449
0
LINE
8
Black
10
260.468
20
-118.449
11
260.465
21
-118.45
0
LINE
8
Black
10
260.465
20
-118.45
11
260.463
21
-118.452
0
LINE
8
Black
10
260.463
20
-118.452
11
260.44
21
-118.458
0
LINE
8
Black
10
260.44
20
-118.458
11
260.418
21
-118.466
0
LINE
8
Black
10
260.418
20
-118.466
11
260.415
21
-118.466
0
LINE
8
Black
10
260.415
20
-118.466
11
260.413
21
-118.466
0
LINE
8
Black
10
260.413
20
-118.466
11
260.389
21
-118.465
0
LINE
8
Black
10
260.389
20
-118.465
11
260.366
21
-118.464
0
LINE
8
Black
10
260.366
20
-118.464
11
260.364
21
-118.463
0
LINE
8
Black
10
260.364
20
-118.463
11
260.361
21
-118.463
0
LINE
8
Black
10
260.361
20
-118.463
11
260.339
21
-118.453
0
LINE
8
Black
10
260.339
20
-118.453
11
260.318
21
-118.445
0
LINE
8
Black
10
260.318
20
-118.445
11
260.316
21
-118.443
0
LINE
8
Black
10
260.316
20
-118.443
11
260.313
21
-118.442
0
LINE
8
Black
10
260.313
20
-118.442
11
260.296
21
-118.425
0
LINE
8
Black
10
260.296
20
-118.425
11
260.279
21
-118.41
0
LINE
8
Black
10
260.279
20
-118.41
11
260.278
21
-118.407
0
LINE
8
Black
10
260.278
20
-118.407
11
260.276
21
-118.405
0
LINE
8
Black
10
260.276
20
-118.405
11
260.265
21
-118.385
0
LINE
8
Black
10
260.265
20
-118.385
11
260.255
21
-118.364
0
LINE
8
Black
10
260.255
20
-118.364
11
260.254
21
-118.361
0
LINE
8
Black
10
260.254
20
-118.361
11
260.253
21
-118.358
0
LINE
8
Black
10
260.253
20
-118.358
11
259.872
21
-117.025
0
LINE
8
Black
10
259.872
20
-117.025
11
259.866
21
-116.973
0
LINE
8
Black
10
259.866
20
-116.973
11
259.879
21
-116.923
0
LINE
8
Black
10
259.879
20
-116.923
11
259.908
21
-116.88
0
LINE
8
Black
10
259.908
20
-116.88
11
259.95
21
-116.849
0
LINE
8
Black
10
259.95
20
-116.849
11
260.001
21
-116.835
0
LINE
8
Black
10
260.001
20
-116.835
11
260.052
21
-116.838
0
LINE
8
Black
10
260.052
20
-116.838
11
260.1
21
-116.86
0
LINE
8
Black
10
260.1
20
-116.86
11
260.138
21
-116.896
0
LINE
8
Black
10
260.138
20
-116.896
11
260.16
21
-116.943
0
LINE
8
Black
10
260.16
20
-116.943
11
260.421
21
-117.854
0
LINE
8
Black
10
260.421
20
-117.854
11
260.639
21
-117.309
0
LINE
8
Black
10
260.639
20
-117.309
11
260.65
21
-117.291
0
LINE
8
Black
10
260.65
20
-117.291
11
260.66
21
-117.272
0
LINE
8
Black
10
260.66
20
-117.272
11
260.664
21
-117.269
0
LINE
8
Black
10
260.664
20
-117.269
11
260.666
21
-117.265
0
LINE
8
Black
10
260.666
20
-117.265
11
260.683
21
-117.252
0
LINE
8
Black
10
260.683
20
-117.252
11
260.699
21
-117.237
0
LINE
8
Black
10
260.699
20
-117.237
11
260.703
21
-117.236
0
LINE
8
Black
10
260.703
20
-117.236
11
260.707
21
-117.233
0
LINE
8
Black
10
260.707
20
-117.233
11
260.727
21
-117.226
0
LINE
8
Black
10
260.727
20
-117.226
11
260.747
21
-117.218
0
LINE
8
Black
10
260.747
20
-117.218
11
260.752
21
-117.218
0
LINE
8
Black
10
260.752
20
-117.218
11
260.757
21
-117.216
0
LINE
8
Black
10
260.757
20
-117.216
11
260.778
21
-117.217
0
LINE
8
Black
10
260.778
20
-117.217
11
260.799
21
-117.216
0
LINE
8
Black
10
260.799
20
-117.216
11
260.804
21
-117.218
0
LINE
8
Black
10
260.804
20
-117.218
11
260.809
21
-117.218
0
LINE
8
Black
10
260.809
20
-117.218
11
260.829
21
-117.226
0
LINE
8
Black
10
260.829
20
-117.226
11
260.849
21
-117.233
0
LINE
8
Black
10
260.849
20
-117.233
11
260.853
21
-117.236
0
LINE
8
Black
10
260.853
20
-117.236
11
260.857
21
-117.237
0
LINE
8
Black
10
260.857
20
-117.237
11
260.873
21
-117.252
0
LINE
8
Black
10
260.873
20
-117.252
11
260.89
21
-117.265
0
LINE
8
Black
10
260.89
20
-117.265
11
260.892
21
-117.269
0
LINE
8
Black
10
260.892
20
-117.269
11
260.896
21
-117.272
0
LINE
8
Black
10
260.896
20
-117.272
11
260.906
21
-117.291
0
LINE
8
Black
10
260.906
20
-117.291
11
260.917
21
-117.309
0
LINE
8
Black
10
260.917
20
-117.309
11
261.135
21
-117.854
0
LINE
8
Black
10
261.135
20
-117.854
11
261.396
21
-116.943
0
LINE
8
Black
10
261.396
20
-116.943
11
261.418
21
-116.896
0
LINE
8
Black
10
261.418
20
-116.896
11
261.456
21
-116.86
0
LINE
8
Black
10
261.456
20
-116.86
11
261.503
21
-116.838
0
LINE
8
Black
10
261.503
20
-116.838
11
261.555
21
-116.835
0
LINE
8
Black
10
261.555
20
-116.835
11
261.606
21
-116.849
0
LINE
8
Black
10
248.758
20
-116.187
11
248.798
21
-116.221
0
LINE
8
Black
10
248.798
20
-116.221
11
248.824
21
-116.266
0
LINE
8
Black
10
248.824
20
-116.266
11
248.833
21
-116.317
0
LINE
8
Black
10
248.833
20
-116.317
11
248.833
21
-118.032
0
LINE
8
Black
10
248.833
20
-118.032
11
248.831
21
-118.04
0
LINE
8
Black
10
248.831
20
-118.04
11
248.832
21
-118.049
0
LINE
8
Black
10
248.832
20
-118.049
11
248.827
21
-118.066
0
LINE
8
Black
10
248.827
20
-118.066
11
248.824
21
-118.083
0
LINE
8
Black
10
248.824
20
-118.083
11
248.819
21
-118.09
0
LINE
8
Black
10
248.819
20
-118.09
11
248.817
21
-118.099
0
LINE
8
Black
10
248.817
20
-118.099
11
248.722
21
-118.289
0
LINE
8
Black
10
248.722
20
-118.289
11
248.709
21
-118.307
0
LINE
8
Black
10
248.709
20
-118.307
11
248.696
21
-118.325
0
LINE
8
Black
10
248.696
20
-118.325
11
248.693
21
-118.328
0
LINE
8
Black
10
248.693
20
-118.328
11
248.691
21
-118.331
0
LINE
8
Black
10
248.691
20
-118.331
11
248.672
21
-118.343
0
LINE
8
Black
10
248.672
20
-118.343
11
248.655
21
-118.356
0
LINE
8
Black
10
248.655
20
-118.356
11
248.464
21
-118.451
0
LINE
8
Black
10
248.464
20
-118.451
11
248.414
21
-118.466
0
LINE
8
Black
10
248.414
20
-118.466
11
248.362
21
-118.463
0
LINE
8
Black
10
248.362
20
-118.463
11
248.314
21
-118.442
0
LINE
8
Black
10
248.314
20
-118.442
11
248.277
21
-118.407
0
LINE
8
Black
10
248.277
20
-118.407
11
248.253
21
-118.36
0
LINE
8
Black
10
248.253
20
-118.36
11
248.247
21
-118.308
0
LINE
8
Black
10
248.247
20
-118.308
11
248.259
21
-118.258
0
LINE
8
Black
10
248.259
20
-118.258
11
248.288
21
-118.214
0
LINE
8
Black
10
248.288
20
-118.214
11
248.33
21
-118.183
0
LINE
8
Black
10
248.33
20
-118.183
11
248.476
21
-118.11
0
LINE
8
Black
10
248.476
20
-118.11
11
248.533
21
-117.996
0
LINE
8
Black
10
248.533
20
-117.996
11
248.533
21
-116.317
0
LINE
8
Black
10
248.533
20
-116.317
11
248.542
21
-116.266
0
LINE
8
Black
10
248.542
20
-116.266
11
248.568
21
-116.221
0
LINE
8
Black
10
248.568
20
-116.221
11
248.608
21
-116.187
0
LINE
8
Black
10
248.608
20
-116.187
11
248.657
21
-116.17
0
LINE
8
Black
10
248.657
20
-116.17
11
248.709
21
-116.17
0
LINE
8
Black
10
248.709
20
-116.17
11
248.758
21
-116.187
0
LINE
8
Black
10
250.758
20
-116.187
11
250.798
21
-116.221
0
LINE
8
Black
10
250.798
20
-116.221
11
250.824
21
-116.266
0
LINE
8
Black
10
250.824
20
-116.266
11
250.833
21
-116.317
0
LINE
8
Black
10
250.833
20
-116.317
11
250.833
21
-118.032
0
LINE
8
Black
10
250.833
20
-118.032
11
250.831
21
-118.04
0
LINE
8
Black
10
250.831
20
-118.04
11
250.832
21
-118.049
0
LINE
8
Black
10
250.832
20
-118.049
11
250.827
21
-118.066
0
LINE
8
Black
10
250.827
20
-118.066
11
250.824
21
-118.083
0
LINE
8
Black
10
250.824
20
-118.083
11
250.819
21
-118.09
0
LINE
8
Black
10
250.819
20
-118.09
11
250.817
21
-118.099
0
LINE
8
Black
10
250.817
20
-118.099
11
250.722
21
-118.289
0
LINE
8
Black
10
250.722
20
-118.289
11
250.709
21
-118.307
0
LINE
8
Black
10
250.709
20
-118.307
11
250.696
21
-118.325
0
LINE
8
Black
10
250.696
20
-118.325
11
250.693
21
-118.328
0
LINE
8
Black
10
250.693
20
-118.328
11
250.691
21
-118.331
0
LINE
8
Black
10
250.691
20
-118.331
11
250.672
21
-118.343
0
LINE
8
Black
10
250.672
20
-118.343
11
250.655
21
-118.356
0
LINE
8
Black
10
250.655
20
-118.356
11
250.464
21
-118.451
0
LINE
8
Black
10
250.464
20
-118.451
11
250.414
21
-118.466
0
LINE
8
Black
10
250.414
20
-118.466
11
250.362
21
-118.463
0
LINE
8
Black
10
250.362
20
-118.463
11
250.314
21
-118.442
0
LINE
8
Black
10
250.314
20
-118.442
11
250.277
21
-118.407
0
LINE
8
Black
10
250.277
20
-118.407
11
250.253
21
-118.36
0
LINE
8
Black
10
250.253
20
-118.36
11
250.247
21
-118.308
0
LINE
8
Black
10
250.247
20
-118.308
11
250.259
21
-118.258
0
LINE
8
Black
10
250.259
20
-118.258
11
250.288
21
-118.214
0
LINE
8
Black
10
250.288
20
-118.214
11
250.33
21
-118.183
0
LINE
8
Black
10
250.33
20
-118.183
11
250.476
21
-118.11
0
LINE
8
Black
10
250.476
20
-118.11
11
250.533
21
-117.996
0
LINE
8
Black
10
250.533
20
-117.996
11
250.533
21
-116.317
0
LINE
8
Black
10
250.533
20
-116.317
11
250.542
21
-116.266
0
LINE
8
Black
10
250.542
20
-116.266
11
250.568
21
-116.221
0
LINE
8
Black
10
250.568
20
-116.221
11
250.608
21
-116.187
0
LINE
8
Black
10
250.608
20
-116.187
11
250.657
21
-116.17
0
LINE
8
Black
10
250.657
20
-116.17
11
250.709
21
-116.17
0
LINE
8
Black
10
250.709
20
-116.17
11
250.758
21
-116.187
0
LINE
8
Black
10
254.406
20
-116.835
11
254.414
21
-116.835
0
LINE
8
Black
10
254.414
20
-116.835
11
254.431
21
-116.84
0
LINE
8
Black
10
254.431
20
-116.84
11
254.448
21
-116.843
0
LINE
8
Black
10
254.448
20
-116.843
11
254.456
21
-116.847
0
LINE
8
Black
10
254.456
20
-116.847
11
254.464
21
-116.85
0
LINE
8
Black
10
254.464
20
-116.85
11
254.636
21
-116.936
0
LINE
8
Black
10
254.636
20
-116.936
11
254.637
21
-116.933
0
LINE
8
Black
10
254.637
20
-116.933
11
254.663
21
-116.888
0
LINE
8
Black
10
254.663
20
-116.888
11
254.703
21
-116.854
0
LINE
8
Black
10
254.703
20
-116.854
11
254.752
21
-116.836
0
LINE
8
Black
10
254.752
20
-116.836
11
254.804
21
-116.836
0
LINE
8
Black
10
254.804
20
-116.836
11
254.853
21
-116.854
0
LINE
8
Black
10
254.853
20
-116.854
11
254.893
21
-116.888
0
LINE
8
Black
10
254.893
20
-116.888
11
254.919
21
-116.933
0
LINE
8
Black
10
254.919
20
-116.933
11
254.928
21
-116.984
0
LINE
8
Black
10
254.928
20
-116.984
11
254.928
21
-118.317
0
LINE
8
Black
10
254.928
20
-118.317
11
254.919
21
-118.369
0
LINE
8
Black
10
254.919
20
-118.369
11
254.893
21
-118.414
0
LINE
8
Black
10
254.893
20
-118.414
11
254.853
21
-118.447
0
LINE
8
Black
10
254.853
20
-118.447
11
254.804
21
-118.465
0
LINE
8
Black
10
254.804
20
-118.465
11
254.752
21
-118.465
0
LINE
8
Black
10
254.752
20
-118.465
11
254.703
21
-118.447
0
LINE
8
Black
10
254.703
20
-118.447
11
254.663
21
-118.414
0
LINE
8
Black
10
254.663
20
-118.414
11
254.637
21
-118.369
0
LINE
8
Black
10
254.637
20
-118.369
11
254.628
21
-118.317
0
LINE
8
Black
10
254.628
20
-118.317
11
254.628
21
-117.4
0
LINE
8
Black
10
254.628
20
-117.4
11
254.559
21
-117.263
0
LINE
8
Black
10
254.559
20
-117.263
11
254.499
21
-117.202
0
LINE
8
Black
10
254.499
20
-117.202
11
254.362
21
-117.134
0
LINE
8
Black
10
254.362
20
-117.134
11
254.207
21
-117.134
0
LINE
8
Black
10
254.207
20
-117.134
11
254.155
21
-117.125
0
LINE
8
Black
10
254.155
20
-117.125
11
254.11
21
-117.099
0
LINE
8
Black
10
254.11
20
-117.099
11
254.077
21
-117.059
0
LINE
8
Black
10
254.077
20
-117.059
11
254.059
21
-117.01
0
LINE
8
Black
10
254.059
20
-117.01
11
254.059
21
-116.958
0
LINE
8
Black
10
254.059
20
-116.958
11
254.077
21
-116.909
0
LINE
8
Black
10
254.077
20
-116.909
11
254.11
21
-116.869
0
LINE
8
Black
10
254.11
20
-116.869
11
254.155
21
-116.843
0
LINE
8
Black
10
254.155
20
-116.843
11
254.207
21
-116.834
0
LINE
8
Black
10
254.207
20
-116.834
11
254.397
21
-116.834
0
LINE
8
Black
10
254.397
20
-116.834
11
254.406
21
-116.835
0
LINE
8
Black
10
249.993
20
-102.7
11
250.657
21
-103.083
0
LINE
8
Black
10
250.657
20
-103.083
11
251.15
21
-103.671
0
LINE
8
Black
10
251.15
20
-103.671
11
251.412
21
-104.392
0
LINE
8
Black
10
251.412
20
-104.392
11
251.412
21
-105.158
0
LINE
8
Black
10
251.412
20
-105.158
11
251.15
21
-105.879
0
LINE
8
Black
10
251.15
20
-105.879
11
250.657
21
-106.467
0
LINE
8
Black
10
250.657
20
-106.467
11
249.993
21
-106.85
0
LINE
8
Black
10
249.993
20
-106.85
11
249.237
21
-106.983
0
LINE
8
Black
10
249.237
20
-106.983
11
248.482
21
-106.85
0
LINE
8
Black
10
248.482
20
-106.85
11
247.818
21
-106.467
0
LINE
8
Black
10
247.818
20
-106.467
11
247.325
21
-105.879
0
LINE
8
Black
10
247.325
20
-105.879
11
247.063
21
-105.158
0
LINE
8
Black
10
247.063
20
-105.158
11
247.063
21
-104.392
0
LINE
8
Black
10
247.063
20
-104.392
11
247.325
21
-103.671
0
LINE
8
Black
10
247.325
20
-103.671
11
247.818
21
-103.083
0
LINE
8
Black
10
247.818
20
-103.083
11
248.482
21
-102.7
0
LINE
8
Black
10
248.482
20
-102.7
11
249.237
21
-102.567
0
LINE
8
Black
10
249.237
20
-102.567
11
249.993
21
-102.7
0
LINE
8
Black
10
59.4928
20
-102.7
11
60.157
21
-103.083
0
LINE
8
Black
10
60.157
20
-103.083
11
60.65
21
-103.671
0
LINE
8
Black
10
60.65
20
-103.671
11
60.9124
21
-104.392
0
LINE
8
Black
10
60.9124
20
-104.392
11
60.9124
21
-105.158
0
LINE
8
Black
10
60.9124
20
-105.158
11
60.65
21
-105.879
0
LINE
8
Black
10
60.65
20
-105.879
11
60.157
21
-106.467
0
LINE
8
Black
10
60.157
20
-106.467
11
59.4928
21
-106.85
0
LINE
8
Black
10
59.4928
20
-106.85
11
58.7375
21
-106.983
0
LINE
8
Black
10
58.7375
20
-106.983
11
57.9822
21
-106.85
0
LINE
8
Black
10
57.9822
20
-106.85
11
57.318
21
-106.467
0
LINE
8
Black
10
57.318
20
-106.467
11
56.825
21
-105.879
0
LINE
8
Black
10
56.825
20
-105.879
11
56.5626
21
-105.158
0
LINE
8
Black
10
56.5626
20
-105.158
11
56.5626
21
-104.392
0
LINE
8
Black
10
56.5626
20
-104.392
11
56.825
21
-103.671
0
LINE
8
Black
10
56.825
20
-103.671
11
57.318
21
-103.083
0
LINE
8
Black
10
57.318
20
-103.083
11
57.9822
21
-102.7
0
LINE
8
Black
10
57.9822
20
-102.7
11
58.7375
21
-102.567
0
LINE
8
Black
10
58.7375
20
-102.567
11
59.4928
21
-102.7
0
LINE
8
Black
10
154.743
20
-83.6498
11
155.407
21
-84.0333
0
LINE
8
Black
10
155.407
20
-84.0333
11
155.9
21
-84.6208
0
LINE
8
Black
10
155.9
20
-84.6208
11
156.162
21
-85.3415
0
LINE
8
Black
10
156.162
20
-85.3415
11
156.162
21
-86.1085
0
LINE
8
Black
10
156.162
20
-86.1085
11
155.9
21
-86.8292
0
LINE
8
Black
10
155.9
20
-86.8292
11
155.407
21
-87.4167
0
LINE
8
Black
10
155.407
20
-87.4167
11
154.743
21
-87.8002
0
LINE
8
Black
10
154.743
20
-87.8002
11
153.987
21
-87.9334
0
LINE
8
Black
10
153.987
20
-87.9334
11
153.232
21
-87.8002
0
LINE
8
Black
10
153.232
20
-87.8002
11
152.568
21
-87.4167
0
LINE
8
Black
10
152.568
20
-87.4167
11
152.075
21
-86.8292
0
LINE
8
Black
10
152.075
20
-86.8292
11
151.813
21
-86.1085
0
LINE
8
Black
10
151.813
20
-86.1085
11
151.813
21
-85.3415
0
LINE
8
Black
10
151.813
20
-85.3415
11
152.075
21
-84.6208
0
LINE
8
Black
10
152.075
20
-84.6208
11
152.568
21
-84.0333
0
LINE
8
Black
10
152.568
20
-84.0333
11
153.232
21
-83.6498
0
LINE
8
Black
10
153.232
20
-83.6498
11
153.987
21
-83.5166
0
LINE
8
Black
10
153.987
20
-83.5166
11
154.743
21
-83.6498
0
LINE
8
Black
10
249.993
20
-83.6498
11
250.657
21
-84.0333
0
LINE
8
Black
10
250.657
20
-84.0333
11
251.15
21
-84.6208
0
LINE
8
Black
10
251.15
20
-84.6208
11
251.412
21
-85.3415
0
LINE
8
Black
10
251.412
20
-85.3415
11
251.412
21
-86.1085
0
LINE
8
Black
10
251.412
20
-86.1085
11
251.15
21
-86.8292
0
LINE
8
Black
10
251.15
20
-86.8292
11
250.657
21
-87.4167
0
LINE
8
Black
10
250.657
20
-87.4167
11
249.993
21
-87.8002
0
LINE
8
Black
10
249.993
20
-87.8002
11
249.237
21
-87.9334
0
LINE
8
Black
10
249.237
20
-87.9334
11
248.482
21
-87.8002
0
LINE
8
Black
10
248.482
20
-87.8002
11
247.818
21
-87.4167
0
LINE
8
Black
10
247.818
20
-87.4167
11
247.325
21
-86.8292
0
LINE
8
Black
10
247.325
20
-86.8292
11
247.063
21
-86.1085
0
LINE
8
Black
10
247.063
20
-86.1085
11
247.063
21
-85.3415
0
LINE
8
Black
10
247.063
20
-85.3415
11
247.325
21
-84.6208
0
LINE
8
Black
10
247.325
20
-84.6208
11
247.818
21
-84.0333
0
LINE
8
Black
10
247.818
20
-84.0333
11
248.482
21
-83.6498
0
LINE
8
Black
10
248.482
20
-83.6498
11
249.237
21
-83.5166
0
LINE
8
Black
10
249.237
20
-83.5166
11
249.993
21
-83.6498
0
LINE
8
Black
10
59.4928
20
-83.6498
11
60.157
21
-84.0333
0
LINE
8
Black
10
60.157
20
-84.0333
11
60.65
21
-84.6208
0
LINE
8
Black
10
60.65
20
-84.6208
11
60.9124
21
-85.3415
0
LINE
8
Black
10
60.9124
20
-85.3415
11
60.9124
21
-86.1085
0
LINE
8
Black
10
60.9124
20
-86.1085
11
60.65
21
-86.8292
0
LINE
8
Black
10
60.65
20
-86.8292
11
60.157
21
-87.4167
0
LINE
8
Black
10
60.157
20
-87.4167
11
59.4928
21
-87.8002
0
LINE
8
Black
10
59.4928
20
-87.8002
11
58.7375
21
-87.9334
0
LINE
8
Black
10
58.7375
20
-87.9334
11
57.9822
21
-87.8002
0
LINE
8
Black
10
57.9822
20
-87.8002
11
57.318
21
-87.4167
0
LINE
8
Black
10
57.318
20
-87.4167
11
56.825
21
-86.8292
0
LINE
8
Black
10
56.825
20
-86.8292
11
56.5626
21
-86.1085
0
LINE
8
Black
10
56.5626
20
-86.1085
11
56.5626
21
-85.3415
0
LINE
8
Black
10
56.5626
20
-85.3415
11
56.825
21
-84.6208
0
LINE
8
Black
10
56.825
20
-84.6208
11
57.318
21
-84.0333
0
LINE
8
Black
10
57.318
20
-84.0333
11
57.9822
21
-83.6498
0
LINE
8
Black
10
57.9822
20
-83.6498
11
58.7375
21
-83.5166
0
LINE
8
Black
10
58.7375
20
-83.5166
11
59.4928
21
-83.6498
0
LINE
8
Black
10
240.198
20
-85.1479
11
240.206
21
-85.1474
0
LINE
8
Black
10
240.206
20
-85.1474
11
240.223
21
-85.1524
0
LINE
8
Black
10
240.223
20
-85.1524
11
240.24
21
-85.1555
0
LINE
8
Black
10
240.24
20
-85.1555
11
240.248
21
-85.1598
0
LINE
8
Black
10
240.248
20
-85.1598
11
240.256
21
-85.1623
0
LINE
8
Black
10
240.256
20
-85.1623
11
240.447
21
-85.2575
0
LINE
8
Black
10
240.447
20
-85.2575
11
240.464
21
-85.2706
0
LINE
8
Black
10
240.464
20
-85.2706
11
240.483
21
-85.2827
0
LINE
8
Black
10
240.483
20
-85.2827
11
240.485
21
-85.2861
0
LINE
8
Black
10
240.485
20
-85.2861
11
240.488
21
-85.2885
0
LINE
8
Black
10
240.488
20
-85.2885
11
240.501
21
-85.3069
0
LINE
8
Black
10
240.501
20
-85.3069
11
240.514
21
-85.3246
0
LINE
8
Black
10
240.514
20
-85.3246
11
240.609
21
-85.5151
0
LINE
8
Black
10
240.609
20
-85.5151
11
240.611
21
-85.5233
0
LINE
8
Black
10
240.611
20
-85.5233
11
240.616
21
-85.5308
0
LINE
8
Black
10
240.616
20
-85.5308
11
240.619
21
-85.5481
0
LINE
8
Black
10
240.619
20
-85.5481
11
240.624
21
-85.565
0
LINE
8
Black
10
240.624
20
-85.565
11
240.623
21
-85.5736
0
LINE
8
Black
10
240.623
20
-85.5736
11
240.625
21
-85.5821
0
LINE
8
Black
10
240.625
20
-85.5821
11
240.625
21
-86.344
0
LINE
8
Black
10
240.625
20
-86.344
11
240.623
21
-86.3526
0
LINE
8
Black
10
240.623
20
-86.3526
11
240.624
21
-86.3612
0
LINE
8
Black
10
240.624
20
-86.3612
11
240.619
21
-86.378
0
LINE
8
Black
10
240.619
20
-86.378
11
240.616
21
-86.3954
0
LINE
8
Black
10
240.616
20
-86.3954
11
240.611
21
-86.4028
0
LINE
8
Black
10
240.611
20
-86.4028
11
240.609
21
-86.4111
0
LINE
8
Black
10
240.609
20
-86.4111
11
240.514
21
-86.6016
0
LINE
8
Black
10
240.514
20
-86.6016
11
240.501
21
-86.6193
0
LINE
8
Black
10
240.501
20
-86.6193
11
240.488
21
-86.6377
0
LINE
8
Black
10
240.488
20
-86.6377
11
240.485
21
-86.6401
0
LINE
8
Black
10
240.485
20
-86.6401
11
240.483
21
-86.6434
0
LINE
8
Black
10
240.483
20
-86.6434
11
240.464
21
-86.6556
0
LINE
8
Black
10
240.464
20
-86.6556
11
240.447
21
-86.6687
0
LINE
8
Black
10
240.447
20
-86.6687
11
240.256
21
-86.7639
0
LINE
8
Black
10
240.256
20
-86.7639
11
240.248
21
-86.7664
0
LINE
8
Black
10
240.248
20
-86.7664
11
240.24
21
-86.7707
0
LINE
8
Black
10
240.24
20
-86.7707
11
240.223
21
-86.7738
0
LINE
8
Black
10
240.223
20
-86.7738
11
240.206
21
-86.7788
0
LINE
8
Black
10
240.206
20
-86.7788
11
240.198
21
-86.7783
0
LINE
8
Black
10
240.198
20
-86.7783
11
240.189
21
-86.7798
0
LINE
8
Black
10
240.189
20
-86.7798
11
239.808
21
-86.7798
0
LINE
8
Black
10
239.808
20
-86.7798
11
239.8
21
-86.7783
0
LINE
8
Black
10
239.8
20
-86.7783
11
239.791
21
-86.7788
0
LINE
8
Black
10
239.791
20
-86.7788
11
239.774
21
-86.7738
0
LINE
8
Black
10
239.774
20
-86.7738
11
239.757
21
-86.7707
0
LINE
8
Black
10
239.757
20
-86.7707
11
239.749
21
-86.7664
0
LINE
8
Black
10
239.749
20
-86.7664
11
239.741
21
-86.7639
0
LINE
8
Black
10
239.741
20
-86.7639
11
239.55
21
-86.6687
0
LINE
8
Black
10
239.55
20
-86.6687
11
239.509
21
-86.6377
0
LINE
8
Black
10
239.509
20
-86.6377
11
239.48
21
-86.5942
0
LINE
8
Black
10
239.48
20
-86.5942
11
239.468
21
-86.5435
0
LINE
8
Black
10
239.468
20
-86.5435
11
239.474
21
-86.4918
0
LINE
8
Black
10
239.474
20
-86.4918
11
239.497
21
-86.4452
0
LINE
8
Black
10
239.497
20
-86.4452
11
239.535
21
-86.4093
0
LINE
8
Black
10
239.535
20
-86.4093
11
239.583
21
-86.3886
0
LINE
8
Black
10
239.583
20
-86.3886
11
239.635
21
-86.3855
0
LINE
8
Black
10
239.635
20
-86.3855
11
239.685
21
-86.4004
0
LINE
8
Black
10
239.685
20
-86.4004
11
239.843
21
-86.4798
0
LINE
8
Black
10
239.843
20
-86.4798
11
240.154
21
-86.4798
0
LINE
8
Black
10
240.154
20
-86.4798
11
240.268
21
-86.4227
0
LINE
8
Black
10
240.268
20
-86.4227
11
240.325
21
-86.3086
0
LINE
8
Black
10
240.325
20
-86.3086
11
240.325
21
-86.0861
0
LINE
8
Black
10
240.325
20
-86.0861
11
239.493
21
-85.9197
0
LINE
8
Black
10
239.493
20
-85.9197
11
239.47
21
-85.9109
0
LINE
8
Black
10
239.47
20
-85.9109
11
239.447
21
-85.9025
0
LINE
8
Black
10
239.447
20
-85.9025
11
239.446
21
-85.9014
0
LINE
8
Black
10
239.446
20
-85.9014
11
239.444
21
-85.9008
0
LINE
8
Black
10
239.444
20
-85.9008
11
239.426
21
-85.8847
0
LINE
8
Black
10
239.426
20
-85.8847
11
239.407
21
-85.869
0
LINE
8
Black
10
239.407
20
-85.869
11
239.407
21
-85.8675
0
LINE
8
Black
10
239.407
20
-85.8675
11
239.405
21
-85.8664
0
LINE
8
Black
10
239.405
20
-85.8664
11
239.394
21
-85.845
0
LINE
8
Black
10
239.394
20
-85.845
11
239.381
21
-85.8239
0
LINE
8
Black
10
239.381
20
-85.8239
11
239.381
21
-85.8222
0
LINE
8
Black
10
239.381
20
-85.8222
11
239.38
21
-85.8207
0
LINE
8
Black
10
239.38
20
-85.8207
11
239.377
21
-85.7966
0
LINE
8
Black
10
239.377
20
-85.7966
11
239.372
21
-85.7726
0
LINE
8
Black
10
239.372
20
-85.7726
11
239.372
21
-85.5821
0
LINE
8
Black
10
239.372
20
-85.5821
11
239.374
21
-85.5736
0
LINE
8
Black
10
239.374
20
-85.5736
11
239.373
21
-85.565
0
LINE
8
Black
10
239.373
20
-85.565
11
239.378
21
-85.5481
0
LINE
8
Black
10
239.378
20
-85.5481
11
239.381
21
-85.5308
0
LINE
8
Black
10
239.381
20
-85.5308
11
239.386
21
-85.5233
0
LINE
8
Black
10
239.386
20
-85.5233
11
239.388
21
-85.5151
0
LINE
8
Black
10
239.388
20
-85.5151
11
239.483
21
-85.3246
0
LINE
8
Black
10
239.483
20
-85.3246
11
239.497
21
-85.3069
0
LINE
8
Black
10
239.497
20
-85.3069
11
239.509
21
-85.2885
0
LINE
8
Black
10
239.509
20
-85.2885
11
239.512
21
-85.2861
0
LINE
8
Black
10
239.512
20
-85.2861
11
239.514
21
-85.2827
0
LINE
8
Black
10
239.514
20
-85.2827
11
239.533
21
-85.2706
0
LINE
8
Black
10
239.533
20
-85.2706
11
239.55
21
-85.2575
0
LINE
8
Black
10
239.55
20
-85.2575
11
239.741
21
-85.1623
0
LINE
8
Black
10
239.741
20
-85.1623
11
239.749
21
-85.1598
0
LINE
8
Black
10
239.749
20
-85.1598
11
239.757
21
-85.1555
0
LINE
8
Black
10
239.757
20
-85.1555
11
239.774
21
-85.1524
0
LINE
8
Black
10
239.774
20
-85.1524
11
239.791
21
-85.1474
0
LINE
8
Black
10
239.791
20
-85.1474
11
239.8
21
-85.1479
0
LINE
8
Black
10
239.8
20
-85.1479
11
239.808
21
-85.1464
0
LINE
8
Black
10
239.808
20
-85.1464
11
240.189
21
-85.1464
0
LINE
8
Black
10
240.189
20
-85.1464
11
240.198
21
-85.1479
0
LINE
8
Black
10
239.843
20
-85.4464
11
239.729
21
-85.5035
0
LINE
8
Black
10
239.729
20
-85.5035
11
239.672
21
-85.6176
0
LINE
8
Black
10
239.672
20
-85.6176
11
239.672
21
-85.6496
0
LINE
8
Black
10
239.672
20
-85.6496
11
240.325
21
-85.7801
0
LINE
8
Black
10
240.325
20
-85.7801
11
240.325
21
-85.6176
0
LINE
8
Black
10
240.325
20
-85.6176
11
240.268
21
-85.5035
0
LINE
8
Black
10
240.268
20
-85.5035
11
240.154
21
-85.4464
0
LINE
8
Black
10
240.154
20
-85.4464
11
239.843
21
-85.4464
0
LINE
8
Black
10
238.74
20
-84.4999
11
238.78
21
-84.5333
0
LINE
8
Black
10
238.78
20
-84.5333
11
238.806
21
-84.5785
0
LINE
8
Black
10
238.806
20
-84.5785
11
238.815
21
-84.6298
0
LINE
8
Black
10
238.815
20
-84.6298
11
238.815
21
-85.1464
0
LINE
8
Black
10
238.815
20
-85.1464
11
238.951
21
-85.1464
0
LINE
8
Black
10
238.951
20
-85.1464
11
239.002
21
-85.1555
0
LINE
8
Black
10
239.002
20
-85.1555
11
239.047
21
-85.1815
0
LINE
8
Black
10
239.047
20
-85.1815
11
239.081
21
-85.2214
0
LINE
8
Black
10
239.081
20
-85.2214
11
239.099
21
-85.2704
0
LINE
8
Black
10
239.099
20
-85.2704
11
239.099
21
-85.3225
0
LINE
8
Black
10
239.099
20
-85.3225
11
239.081
21
-85.3714
0
LINE
8
Black
10
239.081
20
-85.3714
11
239.047
21
-85.4113
0
LINE
8
Black
10
239.047
20
-85.4113
11
239.002
21
-85.4374
0
LINE
8
Black
10
239.002
20
-85.4374
11
238.951
21
-85.4464
0
LINE
8
Black
10
238.951
20
-85.4464
11
238.815
21
-85.4464
0
LINE
8
Black
10
238.815
20
-85.4464
11
238.815
21
-86.344
0
LINE
8
Black
10
238.815
20
-86.344
11
238.814
21
-86.3526
0
LINE
8
Black
10
238.814
20
-86.3526
11
238.814
21
-86.3612
0
LINE
8
Black
10
238.814
20
-86.3612
11
238.809
21
-86.378
0
LINE
8
Black
10
238.809
20
-86.378
11
238.806
21
-86.3954
0
LINE
8
Black
10
238.806
20
-86.3954
11
238.802
21
-86.4028
0
LINE
8
Black
10
238.802
20
-86.4028
11
238.799
21
-86.4111
0
LINE
8
Black
10
238.799
20
-86.4111
11
238.704
21
-86.6016
0
LINE
8
Black
10
238.704
20
-86.6016
11
238.691
21
-86.6193
0
LINE
8
Black
10
238.691
20
-86.6193
11
238.679
21
-86.6377
0
LINE
8
Black
10
238.679
20
-86.6377
11
238.676
21
-86.6401
0
LINE
8
Black
10
238.676
20
-86.6401
11
238.673
21
-86.6434
0
LINE
8
Black
10
238.673
20
-86.6434
11
238.655
21
-86.6556
0
LINE
8
Black
10
238.655
20
-86.6556
11
238.637
21
-86.6687
0
LINE
8
Black
10
238.637
20
-86.6687
11
238.447
21
-86.7639
0
LINE
8
Black
10
238.447
20
-86.7639
11
238.438
21
-86.7664
0
LINE
8
Black
10
238.438
20
-86.7664
11
238.431
21
-86.7707
0
LINE
8
Black
10
238.431
20
-86.7707
11
238.413
21
-86.7738
0
LINE
8
Black
10
238.413
20
-86.7738
11
238.397
21
-86.7788
0
LINE
8
Black
10
238.397
20
-86.7788
11
238.388
21
-86.7783
0
LINE
8
Black
10
238.388
20
-86.7783
11
238.379
21
-86.7798
0
LINE
8
Black
10
238.379
20
-86.7798
11
238.189
21
-86.7798
0
LINE
8
Black
10
238.189
20
-86.7798
11
238.138
21
-86.7707
0
LINE
8
Black
10
238.138
20
-86.7707
11
238.093
21
-86.7447
0
LINE
8
Black
10
238.093
20
-86.7447
11
238.059
21
-86.7048
0
LINE
8
Black
10
238.059
20
-86.7048
11
238.041
21
-86.6558
0
LINE
8
Black
10
238.041
20
-86.6558
11
238.041
21
-86.6037
0
LINE
8
Black
10
238.041
20
-86.6037
11
238.059
21
-86.5548
0
LINE
8
Black
10
238.059
20
-86.5548
11
238.093
21
-86.5149
0
LINE
8
Black
10
238.093
20
-86.5149
11
238.138
21
-86.4888
0
LINE
8
Black
10
238.138
20
-86.4888
11
238.189
21
-86.4798
0
LINE
8
Black
10
238.189
20
-86.4798
11
238.344
21
-86.4798
0
LINE
8
Black
10
238.344
20
-86.4798
11
238.458
21
-86.4227
0
LINE
8
Black
10
238.458
20
-86.4227
11
238.515
21
-86.3086
0
LINE
8
Black
10
238.515
20
-86.3086
11
238.515
21
-85.4464
0
LINE
8
Black
10
238.515
20
-85.4464
11
238.189
21
-85.4464
0
LINE
8
Black
10
238.189
20
-85.4464
11
238.138
21
-85.4374
0
LINE
8
Black
10
238.138
20
-85.4374
11
238.093
21
-85.4113
0
LINE
8
Black
10
238.093
20
-85.4113
11
238.059
21
-85.3714
0
LINE
8
Black
10
238.059
20
-85.3714
11
238.041
21
-85.3225
0
LINE
8
Black
10
238.041
20
-85.3225
11
238.041
21
-85.2704
0
LINE
8
Black
10
238.041
20
-85.2704
11
238.059
21
-85.2214
0
LINE
8
Black
10
238.059
20
-85.2214
11
238.093
21
-85.1815
0
LINE
8
Black
10
238.093
20
-85.1815
11
238.138
21
-85.1555
0
LINE
8
Black
10
238.138
20
-85.1555
11
238.189
21
-85.1464
0
LINE
8
Black
10
238.189
20
-85.1464
11
238.515
21
-85.1464
0
LINE
8
Black
10
238.515
20
-85.1464
11
238.515
21
-84.6298
0
LINE
8
Black
10
238.515
20
-84.6298
11
238.524
21
-84.5785
0
LINE
8
Black
10
238.524
20
-84.5785
11
238.55
21
-84.5333
0
LINE
8
Black
10
238.55
20
-84.5333
11
238.59
21
-84.4999
0
LINE
8
Black
10
238.59
20
-84.4999
11
238.639
21
-84.482
0
LINE
8
Black
10
238.639
20
-84.482
11
238.691
21
-84.482
0
LINE
8
Black
10
238.691
20
-84.482
11
238.74
21
-84.4999
0
LINE
8
Black
10
241.817
20
-85.1479
11
241.825
21
-85.1474
0
LINE
8
Black
10
241.825
20
-85.1474
11
241.842
21
-85.1524
0
LINE
8
Black
10
241.842
20
-85.1524
11
241.859
21
-85.1555
0
LINE
8
Black
10
241.859
20
-85.1555
11
241.867
21
-85.1598
0
LINE
8
Black
10
241.867
20
-85.1598
11
241.875
21
-85.1623
0
LINE
8
Black
10
241.875
20
-85.1623
11
242.066
21
-85.2575
0
LINE
8
Black
10
242.066
20
-85.2575
11
242.083
21
-85.2706
0
LINE
8
Black
10
242.083
20
-85.2706
11
242.102
21
-85.2827
0
LINE
8
Black
10
242.102
20
-85.2827
11
242.104
21
-85.2861
0
LINE
8
Black
10
242.104
20
-85.2861
11
242.107
21
-85.2885
0
LINE
8
Black
10
242.107
20
-85.2885
11
242.12
21
-85.3069
0
LINE
8
Black
10
242.12
20
-85.3069
11
242.133
21
-85.3246
0
LINE
8
Black
10
242.133
20
-85.3246
11
242.228
21
-85.5151
0
LINE
8
Black
10
242.228
20
-85.5151
11
242.23
21
-85.5233
0
LINE
8
Black
10
242.23
20
-85.5233
11
242.235
21
-85.5308
0
LINE
8
Black
10
242.235
20
-85.5308
11
242.238
21
-85.5481
0
LINE
8
Black
10
242.238
20
-85.5481
11
242.243
21
-85.565
0
LINE
8
Black
10
242.243
20
-85.565
11
242.242
21
-85.5736
0
LINE
8
Black
10
242.242
20
-85.5736
11
242.244
21
-85.5821
0
LINE
8
Black
10
242.244
20
-85.5821
11
242.244
21
-85.6774
0
LINE
8
Black
10
242.244
20
-85.6774
11
242.242
21
-85.6859
0
LINE
8
Black
10
242.242
20
-85.6859
11
242.243
21
-85.6945
0
LINE
8
Black
10
242.243
20
-85.6945
11
242.238
21
-85.7114
0
LINE
8
Black
10
242.238
20
-85.7114
11
242.235
21
-85.7287
0
LINE
8
Black
10
242.235
20
-85.7287
11
242.23
21
-85.7362
0
LINE
8
Black
10
242.23
20
-85.7362
11
242.228
21
-85.7445
0
LINE
8
Black
10
242.228
20
-85.7445
11
242.133
21
-85.9349
0
LINE
8
Black
10
242.133
20
-85.9349
11
242.12
21
-85.9526
0
LINE
8
Black
10
242.12
20
-85.9526
11
242.107
21
-85.971
0
LINE
8
Black
10
242.107
20
-85.971
11
242.104
21
-85.9735
0
LINE
8
Black
10
242.104
20
-85.9735
11
242.102
21
-85.9768
0
LINE
8
Black
10
242.102
20
-85.9768
11
242.083
21
-85.9889
0
LINE
8
Black
10
242.083
20
-85.9889
11
242.066
21
-86.002
0
LINE
8
Black
10
242.066
20
-86.002
11
241.875
21
-86.0973
0
LINE
8
Black
10
241.875
20
-86.0973
11
241.867
21
-86.0997
0
LINE
8
Black
10
241.867
20
-86.0997
11
241.859
21
-86.104
0
LINE
8
Black
10
241.859
20
-86.104
11
241.842
21
-86.1071
0
LINE
8
Black
10
241.842
20
-86.1071
11
241.825
21
-86.1121
0
LINE
8
Black
10
241.825
20
-86.1121
11
241.817
21
-86.1116
0
LINE
8
Black
10
241.817
20
-86.1116
11
241.808
21
-86.1131
0
LINE
8
Black
10
241.808
20
-86.1131
11
241.558
21
-86.1131
0
LINE
8
Black
10
241.558
20
-86.1131
11
241.444
21
-86.1701
0
LINE
8
Black
10
241.444
20
-86.1701
11
241.387
21
-86.2842
0
LINE
8
Black
10
241.387
20
-86.2842
11
241.387
21
-86.3086
0
LINE
8
Black
10
241.387
20
-86.3086
11
241.444
21
-86.4227
0
LINE
8
Black
10
241.444
20
-86.4227
11
241.558
21
-86.4798
0
LINE
8
Black
10
241.558
20
-86.4798
11
241.868
21
-86.4798
0
LINE
8
Black
10
241.868
20
-86.4798
11
242.027
21
-86.4004
0
LINE
8
Black
10
242.027
20
-86.4004
11
242.077
21
-86.3855
0
LINE
8
Black
10
242.077
20
-86.3855
11
242.129
21
-86.3886
0
LINE
8
Black
10
242.129
20
-86.3886
11
242.176
21
-86.4093
0
LINE
8
Black
10
242.176
20
-86.4093
11
242.214
21
-86.4452
0
LINE
8
Black
10
242.214
20
-86.4452
11
242.238
21
-86.4918
0
LINE
8
Black
10
242.238
20
-86.4918
11
242.243
21
-86.5435
0
LINE
8
Black
10
242.243
20
-86.5435
11
242.231
21
-86.5942
0
LINE
8
Black
10
242.231
20
-86.5942
11
242.203
21
-86.6377
0
LINE
8
Black
10
242.203
20
-86.6377
11
242.161
21
-86.6687
0
LINE
8
Black
10
242.161
20
-86.6687
11
241.97
21
-86.7639
0
LINE
8
Black
10
241.97
20
-86.7639
11
241.962
21
-86.7664
0
LINE
8
Black
10
241.962
20
-86.7664
11
241.955
21
-86.7707
0
LINE
8
Black
10
241.955
20
-86.7707
11
241.937
21
-86.7738
0
LINE
8
Black
10
241.937
20
-86.7738
11
241.92
21
-86.7788
0
LINE
8
Black
10
241.92
20
-86.7788
11
241.912
21
-86.7783
0
LINE
8
Black
10
241.912
20
-86.7783
11
241.903
21
-86.7798
0
LINE
8
Black
10
241.903
20
-86.7798
11
241.522
21
-86.7798
0
LINE
8
Black
10
241.522
20
-86.7798
11
241.514
21
-86.7783
0
LINE
8
Black
10
241.514
20
-86.7783
11
241.505
21
-86.7788
0
LINE
8
Black
10
241.505
20
-86.7788
11
241.488
21
-86.7738
0
LINE
8
Black
10
241.488
20
-86.7738
11
241.471
21
-86.7707
0
LINE
8
Black
10
241.471
20
-86.7707
11
241.464
21
-86.7664
0
LINE
8
Black
10
241.464
20
-86.7664
11
241.455
21
-86.7639
0
LINE
8
Black
10
241.455
20
-86.7639
11
241.265
21
-86.6687
0
LINE
8
Black
10
241.265
20
-86.6687
11
241.247
21
-86.6556
0
LINE
8
Black
10
241.247
20
-86.6556
11
241.229
21
-86.6434
0
LINE
8
Black
10
241.229
20
-86.6434
11
241.226
21
-86.6401
0
LINE
8
Black
10
241.226
20
-86.6401
11
241.223
21
-86.6377
0
LINE
8
Black
10
241.223
20
-86.6377
11
241.211
21
-86.6193
0
LINE
8
Black
10
241.211
20
-86.6193
11
241.198
21
-86.6016
0
LINE
8
Black
10
241.198
20
-86.6016
11
241.102
21
-86.4111
0
LINE
8
Black
10
241.102
20
-86.4111
11
241.1
21
-86.4028
0
LINE
8
Black
10
241.1
20
-86.4028
11
241.096
21
-86.3954
0
LINE
8
Black
10
241.096
20
-86.3954
11
241.093
21
-86.378
0
LINE
8
Black
10
241.093
20
-86.378
11
241.088
21
-86.3612
0
LINE
8
Black
10
241.088
20
-86.3612
11
241.088
21
-86.3526
0
LINE
8
Black
10
241.088
20
-86.3526
11
241.087
21
-86.344
0
LINE
8
Black
10
241.087
20
-86.344
11
241.087
21
-86.2488
0
LINE
8
Black
10
241.087
20
-86.2488
11
241.088
21
-86.2403
0
LINE
8
Black
10
241.088
20
-86.2403
11
241.088
21
-86.2317
0
LINE
8
Black
10
241.088
20
-86.2317
11
241.093
21
-86.2148
0
LINE
8
Black
10
241.093
20
-86.2148
11
241.096
21
-86.1975
0
LINE
8
Black
10
241.096
20
-86.1975
11
241.1
21
-86.19
0
LINE
8
Black
10
241.1
20
-86.19
11
241.102
21
-86.1817
0
LINE
8
Black
10
241.102
20
-86.1817
11
241.198
21
-85.9913
0
LINE
8
Black
10
241.198
20
-85.9913
11
241.211
21
-85.9736
0
LINE
8
Black
10
241.211
20
-85.9736
11
241.223
21
-85.9552
0
LINE
8
Black
10
241.223
20
-85.9552
11
241.226
21
-85.9527
0
LINE
8
Black
10
241.226
20
-85.9527
11
241.229
21
-85.9494
0
LINE
8
Black
10
241.229
20
-85.9494
11
241.247
21
-85.9373
0
LINE
8
Black
10
241.247
20
-85.9373
11
241.265
21
-85.9242
0
LINE
8
Black
10
241.265
20
-85.9242
11
241.455
21
-85.8289
0
LINE
8
Black
10
241.455
20
-85.8289
11
241.464
21
-85.8265
0
LINE
8
Black
10
241.464
20
-85.8265
11
241.471
21
-85.8221
0
LINE
8
Black
10
241.471
20
-85.8221
11
241.488
21
-85.8191
0
LINE
8
Black
10
241.488
20
-85.8191
11
241.505
21
-85.8141
0
LINE
8
Black
10
241.505
20
-85.8141
11
241.514
21
-85.8146
0
LINE
8
Black
10
241.514
20
-85.8146
11
241.522
21
-85.8131
0
LINE
8
Black
10
241.522
20
-85.8131
11
241.773
21
-85.8131
0
LINE
8
Black
10
241.773
20
-85.8131
11
241.887
21
-85.7561
0
LINE
8
Black
10
241.887
20
-85.7561
11
241.944
21
-85.642
0
LINE
8
Black
10
241.944
20
-85.642
11
241.944
21
-85.6176
0
LINE
8
Black
10
241.944
20
-85.6176
11
241.887
21
-85.5035
0
LINE
8
Black
10
241.887
20
-85.5035
11
241.773
21
-85.4464
0
LINE
8
Black
10
241.773
20
-85.4464
11
241.558
21
-85.4464
0
LINE
8
Black
10
241.558
20
-85.4464
11
241.399
21
-85.5258
0
LINE
8
Black
10
241.399
20
-85.5258
11
241.349
21
-85.5407
0
LINE
8
Black
10
241.349
20
-85.5407
11
241.297
21
-85.5376
0
LINE
8
Black
10
241.297
20
-85.5376
11
241.249
21
-85.5168
0
LINE
8
Black
10
241.249
20
-85.5168
11
241.211
21
-85.481
0
LINE
8
Black
10
241.211
20
-85.481
11
241.188
21
-85.4344
0
LINE
8
Black
10
241.188
20
-85.4344
11
241.182
21
-85.3827
0
LINE
8
Black
10
241.182
20
-85.3827
11
241.194
21
-85.332
0
LINE
8
Black
10
241.194
20
-85.332
11
241.223
21
-85.2885
0
LINE
8
Black
10
241.223
20
-85.2885
11
241.265
21
-85.2575
0
LINE
8
Black
10
241.265
20
-85.2575
11
241.455
21
-85.1623
0
LINE
8
Black
10
241.455
20
-85.1623
11
241.464
21
-85.1598
0
LINE
8
Black
10
241.464
20
-85.1598
11
241.471
21
-85.1555
0
LINE
8
Black
10
241.471
20
-85.1555
11
241.488
21
-85.1524
0
LINE
8
Black
10
241.488
20
-85.1524
11
241.505
21
-85.1474
0
LINE
8
Black
10
241.505
20
-85.1474
11
241.514
21
-85.1479
0
LINE
8
Black
10
241.514
20
-85.1479
11
241.522
21
-85.1464
0
LINE
8
Black
10
241.522
20
-85.1464
11
241.808
21
-85.1464
0
LINE
8
Black
10
241.808
20
-85.1464
11
241.817
21
-85.1479
0
LINE
8
Black
10
243.531
20
-85.1479
11
243.539
21
-85.1474
0
LINE
8
Black
10
243.539
20
-85.1474
11
243.556
21
-85.1524
0
LINE
8
Black
10
243.556
20
-85.1524
11
243.574
21
-85.1555
0
LINE
8
Black
10
243.574
20
-85.1555
11
243.581
21
-85.1598
0
LINE
8
Black
10
243.581
20
-85.1598
11
243.589
21
-85.1623
0
LINE
8
Black
10
243.589
20
-85.1623
11
243.78
21
-85.2575
0
LINE
8
Black
10
243.78
20
-85.2575
11
243.798
21
-85.2706
0
LINE
8
Black
10
243.798
20
-85.2706
11
243.816
21
-85.2827
0
LINE
8
Black
10
243.816
20
-85.2827
11
243.818
21
-85.2861
0
LINE
8
Black
10
243.818
20
-85.2861
11
243.822
21
-85.2885
0
LINE
8
Black
10
243.822
20
-85.2885
11
243.834
21
-85.3069
0
LINE
8
Black
10
243.834
20
-85.3069
11
243.847
21
-85.3246
0
LINE
8
Black
10
243.847
20
-85.3246
11
243.942
21
-85.5151
0
LINE
8
Black
10
243.942
20
-85.5151
11
243.945
21
-85.5233
0
LINE
8
Black
10
243.945
20
-85.5233
11
243.949
21
-85.5308
0
LINE
8
Black
10
243.949
20
-85.5308
11
243.952
21
-85.5481
0
LINE
8
Black
10
243.952
20
-85.5481
11
243.957
21
-85.565
0
LINE
8
Black
10
243.957
20
-85.565
11
243.957
21
-85.5736
0
LINE
8
Black
10
243.957
20
-85.5736
11
243.958
21
-85.5821
0
LINE
8
Black
10
243.958
20
-85.5821
11
243.958
21
-86.344
0
LINE
8
Black
10
243.958
20
-86.344
11
243.957
21
-86.3526
0
LINE
8
Black
10
243.957
20
-86.3526
11
243.957
21
-86.3612
0
LINE
8
Black
10
243.957
20
-86.3612
11
243.952
21
-86.378
0
LINE
8
Black
10
243.952
20
-86.378
11
243.949
21
-86.3954
0
LINE
8
Black
10
243.949
20
-86.3954
11
243.945
21
-86.4028
0
LINE
8
Black
10
243.945
20
-86.4028
11
243.942
21
-86.4111
0
LINE
8
Black
10
243.942
20
-86.4111
11
243.847
21
-86.6016
0
LINE
8
Black
10
243.847
20
-86.6016
11
243.834
21
-86.6193
0
LINE
8
Black
10
243.834
20
-86.6193
11
243.822
21
-86.6377
0
LINE
8
Black
10
243.822
20
-86.6377
11
243.818
21
-86.6401
0
LINE
8
Black
10
243.818
20
-86.6401
11
243.816
21
-86.6434
0
LINE
8
Black
10
243.816
20
-86.6434
11
243.798
21
-86.6556
0
LINE
8
Black
10
243.798
20
-86.6556
11
243.78
21
-86.6687
0
LINE
8
Black
10
243.78
20
-86.6687
11
243.589
21
-86.7639
0
LINE
8
Black
10
243.589
20
-86.7639
11
243.581
21
-86.7664
0
LINE
8
Black
10
243.581
20
-86.7664
11
243.574
21
-86.7707
0
LINE
8
Black
10
243.574
20
-86.7707
11
243.556
21
-86.7738
0
LINE
8
Black
10
243.556
20
-86.7738
11
243.539
21
-86.7788
0
LINE
8
Black
10
243.539
20
-86.7788
11
243.531
21
-86.7783
0
LINE
8
Black
10
243.531
20
-86.7783
11
243.522
21
-86.7798
0
LINE
8
Black
10
243.522
20
-86.7798
11
243.141
21
-86.7798
0
LINE
8
Black
10
243.141
20
-86.7798
11
243.133
21
-86.7783
0
LINE
8
Black
10
243.133
20
-86.7783
11
243.124
21
-86.7788
0
LINE
8
Black
10
243.124
20
-86.7788
11
243.107
21
-86.7738
0
LINE
8
Black
10
243.107
20
-86.7738
11
243.09
21
-86.7707
0
LINE
8
Black
10
243.09
20
-86.7707
11
243.083
21
-86.7664
0
LINE
8
Black
10
243.083
20
-86.7664
11
243.074
21
-86.7639
0
LINE
8
Black
10
243.074
20
-86.7639
11
242.884
21
-86.6687
0
LINE
8
Black
10
242.884
20
-86.6687
11
242.842
21
-86.6377
0
LINE
8
Black
10
242.842
20
-86.6377
11
242.813
21
-86.5942
0
LINE
8
Black
10
242.813
20
-86.5942
11
242.801
21
-86.5435
0
LINE
8
Black
10
242.801
20
-86.5435
11
242.807
21
-86.4918
0
LINE
8
Black
10
242.807
20
-86.4918
11
242.83
21
-86.4452
0
LINE
8
Black
10
242.83
20
-86.4452
11
242.868
21
-86.4093
0
LINE
8
Black
10
242.868
20
-86.4093
11
242.916
21
-86.3886
0
LINE
8
Black
10
242.916
20
-86.3886
11
242.968
21
-86.3855
0
LINE
8
Black
10
242.968
20
-86.3855
11
243.018
21
-86.4004
0
LINE
8
Black
10
243.018
20
-86.4004
11
243.177
21
-86.4798
0
LINE
8
Black
10
243.177
20
-86.4798
11
243.487
21
-86.4798
0
LINE
8
Black
10
243.487
20
-86.4798
11
243.601
21
-86.4227
0
LINE
8
Black
10
243.601
20
-86.4227
11
243.658
21
-86.3086
0
LINE
8
Black
10
243.658
20
-86.3086
11
243.658
21
-86.0861
0
LINE
8
Black
10
243.658
20
-86.0861
11
242.826
21
-85.9197
0
LINE
8
Black
10
242.826
20
-85.9197
11
242.804
21
-85.9109
0
LINE
8
Black
10
242.804
20
-85.9109
11
242.781
21
-85.9025
0
LINE
8
Black
10
242.781
20
-85.9025
11
242.779
21
-85.9014
0
LINE
8
Black
10
242.779
20
-85.9014
11
242.778
21
-85.9008
0
LINE
8
Black
10
242.778
20
-85.9008
11
242.759
21
-85.8847
0
LINE
8
Black
10
242.759
20
-85.8847
11
242.741
21
-85.869
0
LINE
8
Black
10
242.741
20
-85.869
11
242.74
21
-85.8675
0
LINE
8
Black
10
242.74
20
-85.8675
11
242.739
21
-85.8664
0
LINE
8
Black
10
242.739
20
-85.8664
11
242.727
21
-85.845
0
LINE
8
Black
10
242.727
20
-85.845
11
242.715
21
-85.8239
0
LINE
8
Black
10
242.715
20
-85.8239
11
242.714
21
-85.8222
0
LINE
8
Black
10
242.714
20
-85.8222
11
242.714
21
-85.8207
0
LINE
8
Black
10
242.714
20
-85.8207
11
242.71
21
-85.7966
0
LINE
8
Black
10
242.71
20
-85.7966
11
242.706
21
-85.7726
0
LINE
8
Black
10
242.706
20
-85.7726
11
242.706
21
-85.5821
0
LINE
8
Black
10
242.706
20
-85.5821
11
242.707
21
-85.5736
0
LINE
8
Black
10
242.707
20
-85.5736
11
242.707
21
-85.565
0
LINE
8
Black
10
242.707
20
-85.565
11
242.712
21
-85.5481
0
LINE
8
Black
10
242.712
20
-85.5481
11
242.715
21
-85.5308
0
LINE
8
Black
10
242.715
20
-85.5308
11
242.719
21
-85.5233
0
LINE
8
Black
10
242.719
20
-85.5233
11
242.721
21
-85.5151
0
LINE
8
Black
10
242.721
20
-85.5151
11
242.817
21
-85.3246
0
LINE
8
Black
10
242.817
20
-85.3246
11
242.83
21
-85.3069
0
LINE
8
Black
10
242.83
20
-85.3069
11
242.842
21
-85.2885
0
LINE
8
Black
10
242.842
20
-85.2885
11
242.845
21
-85.2861
0
LINE
8
Black
10
242.845
20
-85.2861
11
242.848
21
-85.2827
0
LINE
8
Black
10
242.848
20
-85.2827
11
242.866
21
-85.2706
0
LINE
8
Black
10
242.866
20
-85.2706
11
242.884
21
-85.2575
0
LINE
8
Black
10
242.884
20
-85.2575
11
243.074
21
-85.1623
0
LINE
8
Black
10
243.074
20
-85.1623
11
243.083
21
-85.1598
0
LINE
8
Black
10
243.083
20
-85.1598
11
243.09
21
-85.1555
0
LINE
8
Black
10
243.09
20
-85.1555
11
243.107
21
-85.1524
0
LINE
8
Black
10
243.107
20
-85.1524
11
243.124
21
-85.1474
0
LINE
8
Black
10
243.124
20
-85.1474
11
243.133
21
-85.1479
0
LINE
8
Black
10
243.133
20
-85.1479
11
243.141
21
-85.1464
0
LINE
8
Black
10
243.141
20
-85.1464
11
243.522
21
-85.1464
0
LINE
8
Black
10
243.522
20
-85.1464
11
243.531
21
-85.1479
0
LINE
8
Black
10
243.177
20
-85.4464
11
243.063
21
-85.5035
0
LINE
8
Black
10
243.063
20
-85.5035
11
243.006
21
-85.6176
0
LINE
8
Black
10
243.006
20
-85.6176
11
243.006
21
-85.6496
0
LINE
8
Black
10
243.006
20
-85.6496
11
243.658
21
-85.7801
0
LINE
8
Black
10
243.658
20
-85.7801
11
243.658
21
-85.6176
0
LINE
8
Black
10
243.658
20
-85.6176
11
243.601
21
-85.5035
0
LINE
8
Black
10
243.601
20
-85.5035
11
243.487
21
-85.4464
0
LINE
8
Black
10
243.487
20
-85.4464
11
243.177
21
-85.4464
0
LINE
8
Black
10
245.726
20
-84.482
11
245.739
21
-84.482
0
LINE
8
Black
10
245.739
20
-84.482
11
245.751
21
-84.4865
0
LINE
8
Black
10
245.751
20
-84.4865
11
245.764
21
-84.4888
0
LINE
8
Black
10
245.764
20
-84.4888
11
245.775
21
-84.4954
0
LINE
8
Black
10
245.775
20
-84.4954
11
245.788
21
-84.4999
0
LINE
8
Black
10
245.788
20
-84.4999
11
245.798
21
-84.5083
0
LINE
8
Black
10
245.798
20
-84.5083
11
245.809
21
-84.5149
0
LINE
8
Black
10
245.809
20
-84.5149
11
245.818
21
-84.5249
0
LINE
8
Black
10
245.818
20
-84.5249
11
245.828
21
-84.5333
0
LINE
8
Black
10
245.828
20
-84.5333
11
245.834
21
-84.5447
0
LINE
8
Black
10
245.834
20
-84.5447
11
245.843
21
-84.5548
0
LINE
8
Black
10
245.843
20
-84.5548
11
245.847
21
-84.5671
0
LINE
8
Black
10
245.847
20
-84.5671
11
245.854
21
-84.5785
0
LINE
8
Black
10
245.854
20
-84.5785
11
245.856
21
-84.5914
0
LINE
8
Black
10
245.856
20
-84.5914
11
245.861
21
-84.6037
0
LINE
8
Black
10
245.861
20
-84.6037
11
245.861
21
-84.6168
0
LINE
8
Black
10
245.861
20
-84.6168
11
245.863
21
-84.6298
0
LINE
8
Black
10
245.863
20
-84.6298
11
245.863
21
-86.6298
0
LINE
8
Black
10
245.863
20
-86.6298
11
245.854
21
-86.6811
0
LINE
8
Black
10
245.854
20
-86.6811
11
245.828
21
-86.7262
0
LINE
8
Black
10
245.828
20
-86.7262
11
245.788
21
-86.7597
0
LINE
8
Black
10
245.788
20
-86.7597
11
245.739
21
-86.7775
0
LINE
8
Black
10
245.739
20
-86.7775
11
245.687
21
-86.7775
0
LINE
8
Black
10
245.687
20
-86.7775
11
245.638
21
-86.7597
0
LINE
8
Black
10
245.638
20
-86.7597
11
245.598
21
-86.7262
0
LINE
8
Black
10
245.598
20
-86.7262
11
245.572
21
-86.6811
0
LINE
8
Black
10
245.572
20
-86.6811
11
245.563
21
-86.6298
0
LINE
8
Black
10
245.563
20
-86.6298
11
245.563
21
-85.8274
0
LINE
8
Black
10
245.563
20
-85.8274
11
245.315
21
-85.8274
0
LINE
8
Black
10
245.315
20
-85.8274
11
244.693
21
-86.7158
0
LINE
8
Black
10
244.693
20
-86.7158
11
244.656
21
-86.7526
0
LINE
8
Black
10
244.656
20
-86.7526
11
244.609
21
-86.7746
0
LINE
8
Black
10
244.609
20
-86.7746
11
244.557
21
-86.7792
0
LINE
8
Black
10
244.557
20
-86.7792
11
244.507
21
-86.7657
0
LINE
8
Black
10
244.507
20
-86.7657
11
244.464
21
-86.7358
0
LINE
8
Black
10
244.464
20
-86.7358
11
244.434
21
-86.6932
0
LINE
8
Black
10
244.434
20
-86.6932
11
244.421
21
-86.6429
0
LINE
8
Black
10
244.421
20
-86.6429
11
244.425
21
-86.591
0
LINE
8
Black
10
244.425
20
-86.591
11
244.447
21
-86.5437
0
LINE
8
Black
10
244.447
20
-86.5437
11
244.949
21
-85.827
0
LINE
8
Black
10
244.949
20
-85.827
11
244.942
21
-85.8259
0
LINE
8
Black
10
244.942
20
-85.8259
11
244.934
21
-85.8264
0
LINE
8
Black
10
244.934
20
-85.8264
11
244.917
21
-85.8214
0
LINE
8
Black
10
244.917
20
-85.8214
11
244.9
21
-85.8183
0
LINE
8
Black
10
244.9
20
-85.8183
11
244.892
21
-85.814
0
LINE
8
Black
10
244.892
20
-85.814
11
244.884
21
-85.8115
0
LINE
8
Black
10
244.884
20
-85.8115
11
244.693
21
-85.7163
0
LINE
8
Black
10
244.693
20
-85.7163
11
244.674
21
-85.702
0
LINE
8
Black
10
244.674
20
-85.702
11
244.654
21
-85.6882
0
LINE
8
Black
10
244.654
20
-85.6882
11
244.559
21
-85.593
0
LINE
8
Black
10
244.559
20
-85.593
11
244.545
21
-85.5733
0
LINE
8
Black
10
244.545
20
-85.5733
11
244.531
21
-85.554
0
LINE
8
Black
10
244.531
20
-85.554
11
244.436
21
-85.3635
0
LINE
8
Black
10
244.436
20
-85.3635
11
244.433
21
-85.3552
0
LINE
8
Black
10
244.433
20
-85.3552
11
244.429
21
-85.3477
0
LINE
8
Black
10
244.429
20
-85.3477
11
244.426
21
-85.3304
0
LINE
8
Black
10
244.426
20
-85.3304
11
244.421
21
-85.3136
0
LINE
8
Black
10
244.421
20
-85.3136
11
244.421
21
-85.3049
0
LINE
8
Black
10
244.421
20
-85.3049
11
244.42
21
-85.2964
0
LINE
8
Black
10
244.42
20
-85.2964
11
244.42
21
-85.0107
0
LINE
8
Black
10
244.42
20
-85.0107
11
244.421
21
-85.0022
0
LINE
8
Black
10
244.421
20
-85.0022
11
244.421
21
-84.9936
0
LINE
8
Black
10
244.421
20
-84.9936
11
244.426
21
-84.9767
0
LINE
8
Black
10
244.426
20
-84.9767
11
244.429
21
-84.9594
0
LINE
8
Black
10
244.429
20
-84.9594
11
244.433
21
-84.9519
0
LINE
8
Black
10
244.433
20
-84.9519
11
244.436
21
-84.9436
0
LINE
8
Black
10
244.436
20
-84.9436
11
244.531
21
-84.7532
0
LINE
8
Black
10
244.531
20
-84.7532
11
244.545
21
-84.7339
0
LINE
8
Black
10
244.545
20
-84.7339
11
244.559
21
-84.7142
0
LINE
8
Black
10
244.559
20
-84.7142
11
244.654
21
-84.6189
0
LINE
8
Black
10
244.654
20
-84.6189
11
244.674
21
-84.6051
0
LINE
8
Black
10
244.674
20
-84.6051
11
244.693
21
-84.5908
0
LINE
8
Black
10
244.693
20
-84.5908
11
244.884
21
-84.4956
0
LINE
8
Black
10
244.884
20
-84.4956
11
244.892
21
-84.4931
0
LINE
8
Black
10
244.892
20
-84.4931
11
244.9
21
-84.4888
0
LINE
8
Black
10
244.9
20
-84.4888
11
244.917
21
-84.4858
0
LINE
8
Black
10
244.917
20
-84.4858
11
244.934
21
-84.4807
0
LINE
8
Black
10
244.934
20
-84.4807
11
244.942
21
-84.4813
0
LINE
8
Black
10
244.942
20
-84.4813
11
244.951
21
-84.4798
0
LINE
8
Black
10
244.951
20
-84.4798
11
245.713
21
-84.4798
0
LINE
8
Black
10
245.713
20
-84.4798
11
245.726
21
-84.482
0
LINE
8
Black
10
244.986
20
-84.7798
11
244.849
21
-84.8483
0
LINE
8
Black
10
244.849
20
-84.8483
11
244.788
21
-84.9091
0
LINE
8
Black
10
244.788
20
-84.9091
11
244.72
21
-85.0461
0
LINE
8
Black
10
244.72
20
-85.0461
11
244.72
21
-85.261
0
LINE
8
Black
10
244.72
20
-85.261
11
244.788
21
-85.3981
0
LINE
8
Black
10
244.788
20
-85.3981
11
244.849
21
-85.4589
0
LINE
8
Black
10
244.849
20
-85.4589
11
244.986
21
-85.5274
0
LINE
8
Black
10
244.986
20
-85.5274
11
245.563
21
-85.5274
0
LINE
8
Black
10
245.563
20
-85.5274
11
245.563
21
-84.7798
0
LINE
8
Black
10
245.563
20
-84.7798
11
244.986
21
-84.7798
0
LINE
8
Black
10
249.993
20
-64.5998
11
250.657
21
-64.9833
0
LINE
8
Black
10
250.657
20
-64.9833
11
251.15
21
-65.5708
0
LINE
8
Black
10
251.15
20
-65.5708
11
251.412
21
-66.2915
0
LINE
8
Black
10
251.412
20
-66.2915
11
251.412
21
-67.0585
0
LINE
8
Black
10
251.412
20
-67.0585
11
251.15
21
-67.7792
0
LINE
8
Black
10
251.15
20
-67.7792
11
250.657
21
-68.3667
0
LINE
8
Black
10
250.657
20
-68.3667
11
249.993
21
-68.7502
0
LINE
8
Black
10
249.993
20
-68.7502
11
249.237
21
-68.8834
0
LINE
8
Black
10
249.237
20
-68.8834
11
248.482
21
-68.7502
0
LINE
8
Black
10
248.482
20
-68.7502
11
247.818
21
-68.3667
0
LINE
8
Black
10
247.818
20
-68.3667
11
247.325
21
-67.7792
0
LINE
8
Black
10
247.325
20
-67.7792
11
247.063
21
-67.0585
0
LINE
8
Black
10
247.063
20
-67.0585
11
247.063
21
-66.2915
0
LINE
8
Black
10
247.063
20
-66.2915
11
247.325
21
-65.5708
0
LINE
8
Black
10
247.325
20
-65.5708
11
247.818
21
-64.9833
0
LINE
8
Black
10
247.818
20
-64.9833
11
248.482
21
-64.5998
0
LINE
8
Black
10
248.482
20
-64.5998
11
249.237
21
-64.4666
0
LINE
8
Black
10
249.237
20
-64.4666
11
249.993
21
-64.5998
0
LINE
8
Black
10
59.4928
20
-64.5998
11
60.157
21
-64.9833
0
LINE
8
Black
10
60.157
20
-64.9833
11
60.65
21
-65.5708
0
LINE
8
Black
10
60.65
20
-65.5708
11
60.9124
21
-66.2915
0
LINE
8
Black
10
60.9124
20
-66.2915
11
60.9124
21
-67.0585
0
LINE
8
Black
10
60.9124
20
-67.0585
11
60.65
21
-67.7792
0
LINE
8
Black
10
60.65
20
-67.7792
11
60.157
21
-68.3667
0
LINE
8
Black
10
60.157
20
-68.3667
11
59.4928
21
-68.7502
0
LINE
8
Black
10
59.4928
20
-68.7502
11
58.7375
21
-68.8834
0
LINE
8
Black
10
58.7375
20
-68.8834
11
57.9822
21
-68.7502
0
LINE
8
Black
10
57.9822
20
-68.7502
11
57.318
21
-68.3667
0
LINE
8
Black
10
57.318
20
-68.3667
11
56.825
21
-67.7792
0
LINE
8
Black
10
56.825
20
-67.7792
11
56.5626
21
-67.0585
0
LINE
8
Black
10
56.5626
20
-67.0585
11
56.5626
21
-66.2915
0
LINE
8
Black
10
56.5626
20
-66.2915
11
56.825
21
-65.5708
0
LINE
8
Black
10
56.825
20
-65.5708
11
57.318
21
-64.9833
0
LINE
8
Black
10
57.318
20
-64.9833
11
57.9822
21
-64.5998
0
LINE
8
Black
10
57.9822
20
-64.5998
11
58.7375
21
-64.4666
0
LINE
8
Black
10
58.7375
20
-64.4666
11
59.4928
21
-64.5998
  0
ENDSEC
  0
EOF
